<svg width="50" height="59" viewBox="0 0 50 59" fill="none" xmlns="http://www.w3.org/2000/svg">
<path d="M41.4918 33.1706H33.1337L37.8429 37.8798H29.1538C28.6186 37.8798 28.0886 37.7744 27.5942 37.5694C27.0998 37.3645 26.6507 37.0641 26.2724 36.6854C25.8942 36.3067 25.5943 35.8572 25.3899 35.3626C25.1855 34.868 25.0806 34.3379 25.0813 33.8027V18.735C25.0818 17.4739 24.5823 16.2641 23.6921 15.3709L18.0591 9.7356V40.297C18.0591 41.5584 18.56 42.7683 19.4518 43.6605C20.3436 44.5527 21.5532 45.0542 22.8146 45.0548H37.7897L33.0805 49.778H41.5057L49.8036 41.4801L41.4918 33.1706Z" fill="#3B97D2"/>
<path d="M11.9097 46.4533V11.956L16.6189 16.656V8.29556L8.32103 0L0 8.32103V16.7486L4.71849 12.0393V53.4824C4.71849 54.7439 5.21945 55.9537 6.11122 56.8459C7.00299 57.7381 8.21257 58.2397 9.47403 58.2403H31.2143C31.828 58.2396 32.4348 58.1114 32.9963 57.8639C33.5579 57.6164 34.0619 57.255 34.4765 56.8025L40.0632 51.2158H16.6698C16.0445 51.2161 15.4251 51.0931 14.8473 50.8538C14.2695 50.6146 13.7445 50.2637 13.3024 49.8214C12.8603 49.3791 12.5097 48.8539 12.2707 48.276C12.0318 47.6981 11.9091 47.0787 11.9097 46.4533Z" fill="#3B97D2"/>
</svg>
