<svg width="31" height="41" viewBox="0 0 31 41" fill="none" xmlns="http://www.w3.org/2000/svg">
<g clip-path="url(#clip0_25_392)">
<path d="M27.2082 15.3501C27.2082 22.369 22.3913 27.186 15.3724 27.186C8.35346 27.186 3.54759 22.369 3.54759 15.3501C3.54759 8.33118 8.35346 3.51426 15.3724 3.51426C22.3913 3.51426 27.2082 8.33118 27.2082 15.3501Z" fill="white"/>
<path fill-rule="evenodd" clip-rule="evenodd" d="M15.3724 40.9558C14.8751 40.9558 14.3999 40.7237 14.0794 40.3369C10.7972 36.248 0.0996094 22.3897 0.0996094 15.3501C0.0996094 6.91803 6.95136 0.0662842 15.3724 0.0662842C23.8045 0.0662842 30.6562 6.91803 30.6562 15.3501C30.6562 22.3897 19.9476 36.248 16.6764 40.3369C16.3559 40.7237 15.8807 40.9558 15.3724 40.9558ZM15.3724 3.51426C8.85217 3.51426 3.54759 8.82989 3.54759 15.3501C3.54759 21.8703 8.85217 27.186 15.3724 27.186C21.9037 27.186 27.2082 21.8703 27.2082 15.3501C27.2082 8.82989 21.9037 3.51426 15.3724 3.51426Z" fill="url(#paint0_radial_25_392)"/>
</g>
<defs>
<radialGradient id="paint0_radial_25_392" cx="0" cy="0" r="1" gradientUnits="userSpaceOnUse" gradientTransform="translate(15.3779 20.511) rotate(90) scale(20.4447 15.2783)">
<stop stop-color="#3C97D2"/>
<stop offset="1" stop-color="#3C97D2" stop-opacity="0.75"/>
</radialGradient>
<clipPath id="clip0_25_392">
<rect width="30.7224" height="41" fill="white"/>
</clipPath>
</defs>
</svg>
