<svg width="61" height="32" viewBox="0 0 61 32" fill="none" xmlns="http://www.w3.org/2000/svg">
<path fill-rule="evenodd" clip-rule="evenodd" d="M0.664246 19.0967C0.649095 19.1491 0.641166 19.2044 0.641166 19.2589V24.8889L0.170721 25.3593C0.0614102 25.4686 0 25.6169 0 25.7715V26.5792C0 26.9011 0.260963 27.1621 0.582878 27.1621H5.94536C6.20289 27.1621 6.41166 27.3709 6.41166 27.6284C6.41166 27.8859 6.62043 28.0947 6.87796 28.0947H7.13126C7.33597 26.0329 9.07556 24.4226 11.1913 24.4226C13.307 24.4226 15.0466 26.0329 15.2513 28.0947H38.6501C38.7966 28.0947 38.9378 28.0395 39.0454 27.9401L40.226 26.8504C40.3337 26.751 40.4748 26.6958 40.6213 26.6958H42.6213C43.2877 25.3488 44.6759 24.4226 46.2805 24.4226C47.8851 24.4226 49.2734 25.3488 49.9398 26.6958H60.3862C60.7081 26.6958 60.969 26.4348 60.969 26.1129V0.582878C60.969 0.260963 60.7081 0 60.3862 0H18.4189C18.097 0 17.8361 0.260963 17.8361 0.582878V22.5574C17.8361 22.8793 17.5751 23.1403 17.2532 23.1403H16.1457C15.8238 23.1403 15.5628 22.8793 15.5628 22.5574V8.74317C15.5628 8.42125 15.3019 8.16029 14.98 8.16029H7.17471C7.02188 8.16029 6.8739 8.22129 6.7655 8.32903C3.40266 11.6714 2.10104 14.1273 0.664246 19.0967ZM5.03118 19.0018C5.16978 19.0018 5.30384 18.9524 5.40931 18.8625L8.63805 16.1102C8.74352 16.0202 8.87759 15.9709 9.01618 15.9709H12.9399C13.2618 15.9709 13.5228 15.7099 13.5228 15.388V10.8415C13.5228 10.5196 13.2618 10.2587 12.9399 10.2587H6.67692C6.50839 10.2587 6.34768 10.3316 6.23798 10.4596C4.67428 12.2832 3.99449 13.4952 3.17133 15.7312C3.15564 15.7738 3.14477 15.8193 3.13953 15.8644C3.00534 17.0194 2.98611 17.6924 3.08 18.5066C3.11295 18.7922 3.35977 19.0018 3.64735 19.0018H5.03118Z" fill="#BADBEF"/>
<path d="M14.6885 28.5027C14.6885 30.4342 13.1227 32 11.1913 32C9.25977 32 7.69399 30.4342 7.69399 28.5027C7.69399 28.3647 7.70199 28.2286 7.71754 28.0947C7.91963 26.3555 9.39779 25.0055 11.1913 25.0055C12.9847 25.0055 14.4629 26.3555 14.665 28.0947C14.6805 28.2286 14.6885 28.3647 14.6885 28.5027Z" fill="#BADBEF"/>
<path d="M49.7778 28.5027C49.7778 30.4342 48.212 32 46.2805 32C44.349 32 42.7833 30.4342 42.7833 28.5027C42.7833 27.8415 42.9668 27.2232 43.2856 26.6958C43.8981 25.6827 45.0102 25.0055 46.2805 25.0055C47.5508 25.0055 48.6629 25.6827 49.2754 26.6958C49.5943 27.2232 49.7778 27.8415 49.7778 28.5027Z" fill="#BADBEF"/>
<path d="M19.2344 2.00476C19.2344 1.79907 19.4016 1.63232 19.6078 1.63232H31.476C31.6823 1.63232 31.8495 1.79907 31.8495 2.00476V10.1984C31.8495 10.404 31.6823 10.5708 31.476 10.5708H19.6078C19.4016 10.5708 19.2344 10.404 19.2344 10.1984V6.10156V2.00476Z" fill="#3B97D2"/>
<path d="M33.0944 2.00476C33.0944 1.79907 33.2616 1.63232 33.4679 1.63232H45.336C45.5423 1.63232 45.7095 1.79907 45.7095 2.00476V10.1984C45.7095 10.404 45.5423 10.5708 45.336 10.5708H33.4679C33.2616 10.5708 33.0944 10.404 33.0944 10.1984V2.00476Z" fill="#3B97D2"/>
<path d="M46.9544 2.00476C46.9544 1.79907 47.1216 1.63232 47.3279 1.63232H59.196C59.4023 1.63232 59.5695 1.79907 59.5695 2.00476V10.1984C59.5695 10.404 59.4023 10.5708 59.196 10.5708H47.3279C47.1216 10.5708 46.9544 10.404 46.9544 10.1984V2.00476Z" fill="#3B97D2"/>
<path d="M19.2344 12.1847C19.2344 11.979 19.4016 11.8122 19.6078 11.8122H31.476C31.6823 11.8122 31.8495 11.979 31.8495 12.1847V20.3783C31.8495 20.584 31.6823 20.7507 31.476 20.7507H19.6078C19.4016 20.7507 19.2344 20.584 19.2344 20.3783V12.1847Z" fill="#3B97D2"/>
<path d="M33.0944 12.1847C33.0944 11.979 33.2616 11.8122 33.4679 11.8122H45.336C45.5423 11.8122 45.7095 11.979 45.7095 12.1847V20.3783C45.7095 20.584 45.5423 20.7507 45.336 20.7507H33.4679C33.2616 20.7507 33.0944 20.584 33.0944 20.3783V12.1847Z" fill="#3B97D2"/>
<path d="M46.9544 12.1847C46.9544 11.979 47.1216 11.8122 47.3279 11.8122H59.196C59.4023 11.8122 59.5695 11.979 59.5695 12.1847V20.3783C59.5695 20.584 59.4023 20.7507 59.196 20.7507H47.3279C47.1216 20.7507 46.9544 20.584 46.9544 20.3783V12.1847Z" fill="#3B97D2"/>
</svg>
