<svg width="62" height="32" viewBox="0 0 62 32" fill="none" xmlns="http://www.w3.org/2000/svg">
<path fill-rule="evenodd" clip-rule="evenodd" d="M1.60175 19.0967C1.58659 19.1491 1.57867 19.2044 1.57867 19.2589V24.8889L1.10822 25.3593C0.99891 25.4686 0.9375 25.6169 0.9375 25.7715V26.5792C0.9375 26.9011 1.19846 27.1621 1.52038 27.1621H6.88286C7.14039 27.1621 7.34916 27.3709 7.34916 27.6284C7.34916 27.8859 7.55793 28.0947 7.81546 28.0947V28.0947C7.95923 28.0947 8.07855 27.9853 8.10161 27.8434C8.41678 25.9035 10.0998 24.4226 12.1288 24.4226C13.2839 24.4226 14.327 24.9026 15.0693 25.6742C16.1385 26.7854 17.3636 28.0947 18.9057 28.0947H39.5876C39.7341 28.0947 39.8752 28.0395 39.9829 27.9401L41.1635 26.8504C41.2712 26.751 41.4123 26.6958 41.5588 26.6958H41.6959C42.8368 26.6958 43.8267 25.9644 44.7306 25.2682C45.4191 24.7379 46.2817 24.4226 47.218 24.4226C48.1543 24.4226 49.0169 24.7379 49.7054 25.2682C50.6093 25.9644 51.5992 26.6958 52.7401 26.6958H61.3237C61.6456 26.6958 61.9065 26.4348 61.9065 26.1129V0.582878C61.9065 0.260963 61.6456 0 61.3237 0H19.3564C19.0345 0 18.7736 0.260963 18.7736 0.582878V22.5574C18.7736 22.8793 18.5126 23.1403 18.1907 23.1403H17.0832C16.7613 23.1403 16.5003 22.8793 16.5003 22.5574V8.74317C16.5003 8.42125 16.2394 8.16029 15.9175 8.16029H8.11221C7.95938 8.16029 7.81139 8.22129 7.703 8.32903C4.34016 11.6714 3.03854 14.1273 1.60175 19.0967ZM5.96868 19.0018C6.10727 19.0018 6.24134 18.9524 6.34681 18.8625L9.57555 16.1102C9.68102 16.0202 9.81508 15.9709 9.95368 15.9709H13.8774C14.1993 15.9709 14.4603 15.7099 14.4603 15.388V10.8415C14.4603 10.5196 14.1993 10.2587 13.8774 10.2587H7.61441C7.44589 10.2587 7.28518 10.3316 7.17548 10.4596C5.61177 12.2832 4.93199 13.4952 4.10883 15.7312C4.09314 15.7738 4.08227 15.8193 4.07703 15.8644C3.94283 17.0194 3.92361 17.6924 4.0175 18.5066C4.05044 18.7922 4.29727 19.0018 4.58485 19.0018H5.96868Z" fill="#BADBEF"/>
<path d="M15.626 28.5027C15.626 30.4342 14.0602 32 12.1288 32C10.1973 32 8.63149 30.4342 8.63149 28.5027C8.63149 28.3647 8.63948 28.2286 8.65504 28.0947C8.85713 26.3555 10.3353 25.0055 12.1288 25.0055C13.9222 25.0055 15.4004 26.3555 15.6025 28.0947C15.618 28.2286 15.626 28.3647 15.626 28.5027Z" fill="#BADBEF"/>
<path d="M50.7153 28.5027C50.7153 30.4342 49.1495 32 47.218 32C45.2865 32 43.7207 30.4342 43.7207 28.5027C43.7207 27.8415 43.9042 27.2232 44.2231 26.6958C44.8356 25.6827 45.9477 25.0055 47.218 25.0055C48.4883 25.0055 49.6004 25.6827 50.2129 26.6958C50.5318 27.2232 50.7153 27.8415 50.7153 28.5027Z" fill="#BADBEF"/>
<path d="M20.1309 8.50657C20.1309 8.3716 20.2559 8.26219 20.4102 8.26219H29.2855C29.4397 8.26219 29.5648 8.3716 29.5648 8.50657V13.8829C29.5648 14.0179 29.4397 14.1273 29.2855 14.1273H20.4102C20.2559 14.1273 20.1309 14.0179 20.1309 13.8829V11.1947V8.50657Z" fill="#F6F6F7"/>
<path d="M30.4957 8.50657C30.4957 8.3716 30.6208 8.26219 30.775 8.26219H39.6503C39.8046 8.26219 39.9296 8.3716 39.9296 8.50657V13.8829C39.9296 14.0179 39.8046 14.1273 39.6503 14.1273H30.775C30.6208 14.1273 30.4957 14.0179 30.4957 13.8829V8.50657Z" fill="#F6F6F7"/>
<path d="M40.8606 8.50657C40.8606 8.3716 40.9857 8.26219 41.1399 8.26219H50.0152C50.1695 8.26219 50.2945 8.3716 50.2945 8.50657V13.8829C50.2945 14.0179 50.1695 14.1273 50.0152 14.1273H41.1399C40.9857 14.1273 40.8606 14.0179 40.8606 13.8829V8.50657Z" fill="#F6F6F7"/>
<path d="M20.1309 15.1863C20.1309 15.0513 20.2559 14.9419 20.4102 14.9419H29.2855C29.4397 14.9419 29.5648 15.0513 29.5648 15.1863V20.5626C29.5648 20.6976 29.4397 20.807 29.2855 20.807H20.4102C20.2559 20.807 20.1309 20.6976 20.1309 20.5626V15.1863Z" fill="#F6F6F7"/>
<path d="M30.4957 15.1863C30.4957 15.0513 30.6208 14.9419 30.775 14.9419H39.6503C39.8046 14.9419 39.9296 15.0513 39.9296 15.1863V20.5626C39.9296 20.6976 39.8046 20.807 39.6503 20.807H30.775C30.6208 20.807 30.4957 20.6976 30.4957 20.5626V15.1863Z" fill="#F6F6F7"/>
<path d="M40.8606 15.1863C40.8606 15.0513 40.9857 14.9419 41.1399 14.9419H50.0152C50.1695 14.9419 50.2945 15.0513 50.2945 15.1863V20.5626C50.2945 20.6976 50.1695 20.807 50.0152 20.807H41.1399C40.9857 20.807 40.8606 20.6976 40.8606 20.5626V15.1863Z" fill="#F6F6F7"/>
<path d="M20.1309 1.85742C20.1309 1.72245 20.2559 1.61304 20.4102 1.61304H29.2855C29.4397 1.61304 29.5648 1.72245 29.5648 1.85742V7.23376C29.5648 7.36873 29.4397 7.47814 29.2855 7.47814H20.4102C20.2559 7.47814 20.1309 7.36873 20.1309 7.23376V4.54559V1.85742Z" fill="#F6F6F7"/>
<path d="M30.4957 1.85742C30.4957 1.72245 30.6208 1.61304 30.775 1.61304H39.6503C39.8046 1.61304 39.9296 1.72245 39.9296 1.85742V7.23376C39.9296 7.36873 39.8046 7.47814 39.6503 7.47814H30.775C30.6208 7.47814 30.4957 7.36873 30.4957 7.23376V1.85742Z" fill="#F6F6F7"/>
<path d="M40.8606 1.85742C40.8606 1.72245 40.9857 1.61304 41.1399 1.61304H50.0152C50.1695 1.61304 50.2945 1.72245 50.2945 1.85742V7.23376C50.2945 7.36873 50.1695 7.47814 50.0152 7.47814H41.1399C40.9857 7.47814 40.8606 7.36873 40.8606 7.23376V1.85742Z" fill="#F6F6F7"/>
<path d="M51.1817 8.50657C51.1817 8.3716 51.3067 8.26219 51.461 8.26219H60.3363C60.4905 8.26219 60.6156 8.3716 60.6156 8.50657V13.8829C60.6156 14.0179 60.4905 14.1273 60.3363 14.1273H51.461C51.3067 14.1273 51.1817 14.0179 51.1817 13.8829V8.50657Z" fill="#F6F6F7"/>
<path d="M51.1817 15.1863C51.1817 15.0513 51.3067 14.9419 51.461 14.9419H60.3363C60.4905 14.9419 60.6156 15.0513 60.6156 15.1863V20.5626C60.6156 20.6976 60.4905 20.807 60.3363 20.807H51.461C51.3067 20.807 51.1817 20.6976 51.1817 20.5626V15.1863Z" fill="#3B97D2"/>
<path d="M51.1817 1.85742C51.1817 1.72245 51.3067 1.61304 51.461 1.61304H60.3363C60.4905 1.61304 60.6156 1.72245 60.6156 1.85742V7.23376C60.6156 7.36873 60.4905 7.47814 60.3363 7.47814H51.461C51.3067 7.47814 51.1817 7.36873 51.1817 7.23376V1.85742Z" fill="#F6F6F7"/>
</svg>
