<svg width="62" height="32" viewBox="0 0 62 32" fill="none" xmlns="http://www.w3.org/2000/svg">
<path fill-rule="evenodd" clip-rule="evenodd" d="M1.60272 19.0967C1.58757 19.1491 1.57964 19.2044 1.57964 19.2589V24.8889L1.1092 25.3593C0.999887 25.4686 0.938477 25.6169 0.938477 25.7715V26.5792C0.938477 26.9011 1.19944 27.1621 1.52135 27.1621H6.88383C7.14136 27.1621 7.35013 27.3709 7.35013 27.6284C7.35013 27.8859 7.5589 28.0947 7.81644 28.0947C7.9602 28.0947 8.07953 27.9853 8.10258 27.8434C8.41775 25.9035 10.1008 24.4226 12.1297 24.4226C13.2849 24.4226 14.328 24.9026 15.0703 25.6742C16.1395 26.7854 17.3646 28.0947 18.9066 28.0947H39.5885C39.7351 28.0947 39.8762 28.0395 39.9839 27.9401L41.1645 26.8504C41.2721 26.751 41.4133 26.6958 41.5598 26.6958H41.6969C42.8378 26.6958 43.8277 25.9644 44.7316 25.2682C45.4201 24.7379 46.2827 24.4226 47.219 24.4226C48.1553 24.4226 49.0179 24.7379 49.7064 25.2682C50.6103 25.9644 51.6002 26.6958 52.7411 26.6958H61.3246C61.6465 26.6958 61.9075 26.4348 61.9075 26.1129V0.582878C61.9075 0.260963 61.6465 0 61.3246 0H19.3574C19.0355 0 18.7745 0.260963 18.7745 0.582878V22.5574C18.7745 22.8793 18.5136 23.1403 18.1917 23.1403H17.0842C16.7623 23.1403 16.5013 22.8793 16.5013 22.5574V8.74317C16.5013 8.42126 16.2404 8.16029 15.9184 8.16029H8.11318C7.96036 8.16029 7.81237 8.22129 7.70398 8.32903C4.34114 11.6714 3.03952 14.1273 1.60272 19.0967ZM5.96965 19.0018C6.10825 19.0018 6.24231 18.9524 6.34779 18.8625L9.57652 16.1102C9.682 16.0202 9.81606 15.9709 9.95466 15.9709H13.8784C14.2003 15.9709 14.4612 15.7099 14.4612 15.388V10.8415C14.4612 10.5196 14.2003 10.2587 13.8784 10.2587H7.61539C7.44687 10.2587 7.28615 10.3316 7.17645 10.4596C5.61275 12.2832 4.93297 13.4952 4.1098 15.7312C4.09412 15.7738 4.08324 15.8193 4.078 15.8644C3.94381 17.0194 3.92459 17.6924 4.01848 18.5066C4.05142 18.7922 4.29825 19.0018 4.58583 19.0018H5.96965Z" fill="#D1D1D1"/>
<path d="M15.627 28.5027C15.627 30.4342 14.0612 32 12.1297 32C10.1982 32 8.63247 30.4342 8.63247 28.5027C8.63247 28.3647 8.64046 28.2286 8.65601 28.0947C8.8581 26.3555 10.3363 25.0055 12.1297 25.0055C13.9232 25.0055 15.4014 26.3555 15.6035 28.0947C15.619 28.2286 15.627 28.3647 15.627 28.5027Z" fill="#D1D1D1"/>
<path d="M50.7163 28.5027C50.7163 30.4342 49.1505 32 47.219 32C45.2875 32 43.7217 30.4342 43.7217 28.5027C43.7217 27.8415 43.9052 27.2232 44.2241 26.6958C44.8366 25.6827 45.9487 25.0055 47.219 25.0055C48.4893 25.0055 49.6014 25.6827 50.2139 26.6958C50.5328 27.2232 50.7163 27.8415 50.7163 28.5027Z" fill="#D1D1D1"/>
<path d="M20.1323 8.50657C20.1323 8.3716 20.2574 8.26219 20.4116 8.26219H29.2869C29.4412 8.26219 29.5662 8.3716 29.5662 8.50657V13.8829C29.5662 14.0179 29.4412 14.1273 29.2869 14.1273H20.4116C20.2574 14.1273 20.1323 14.0179 20.1323 13.8829V11.1947V8.50657Z" fill="#F6F6F7"/>
<path d="M30.4972 8.50657C30.4972 8.3716 30.6222 8.26219 30.7765 8.26219H39.6518C39.8061 8.26219 39.9311 8.3716 39.9311 8.50657V13.8829C39.9311 14.0179 39.8061 14.1273 39.6518 14.1273H30.7765C30.6222 14.1273 30.4972 14.0179 30.4972 13.8829V8.50657Z" fill="#F6F6F7"/>
<path d="M40.8621 8.50657C40.8621 8.3716 40.9871 8.26219 41.1414 8.26219H50.0167C50.1709 8.26219 50.296 8.3716 50.296 8.50657V13.8829C50.296 14.0179 50.1709 14.1273 50.0167 14.1273H41.1414C40.9871 14.1273 40.8621 14.0179 40.8621 13.8829V8.50657Z" fill="#F6F6F7"/>
<path d="M20.1323 15.1863C20.1323 15.0513 20.2574 14.9419 20.4116 14.9419H29.2869C29.4412 14.9419 29.5662 15.0513 29.5662 15.1863V20.5626C29.5662 20.6976 29.4412 20.807 29.2869 20.807H20.4116C20.2574 20.807 20.1323 20.6976 20.1323 20.5626V15.1863Z" fill="#F6F6F7"/>
<path d="M30.4972 15.1863C30.4972 15.0513 30.6222 14.9419 30.7765 14.9419H39.6518C39.8061 14.9419 39.9311 15.0513 39.9311 15.1863V20.5626C39.9311 20.6976 39.8061 20.807 39.6518 20.807H30.7765C30.6222 20.807 30.4972 20.6976 30.4972 20.5626V15.1863Z" fill="#F6F6F7"/>
<path d="M40.8621 15.1863C40.8621 15.0513 40.9871 14.9419 41.1414 14.9419H50.0167C50.1709 14.9419 50.296 15.0513 50.296 15.1863V20.5626C50.296 20.6976 50.1709 20.807 50.0167 20.807H41.1414C40.9871 20.807 40.8621 20.6976 40.8621 20.5626V15.1863Z" fill="#F6F6F7"/>
<path d="M20.1323 1.85742C20.1323 1.72245 20.2574 1.61304 20.4116 1.61304H29.2869C29.4412 1.61304 29.5662 1.72245 29.5662 1.85742V7.23376C29.5662 7.36873 29.4412 7.47814 29.2869 7.47814H20.4116C20.2574 7.47814 20.1323 7.36873 20.1323 7.23376V4.54559V1.85742Z" fill="#F6F6F7"/>
<path d="M30.4972 1.85742C30.4972 1.72245 30.6222 1.61304 30.7765 1.61304H39.6518C39.8061 1.61304 39.9311 1.72245 39.9311 1.85742V7.23376C39.9311 7.36873 39.8061 7.47814 39.6518 7.47814H30.7765C30.6222 7.47814 30.4972 7.36873 30.4972 7.23376V1.85742Z" fill="#F6F6F7"/>
<path d="M40.8621 1.85742C40.8621 1.72245 40.9871 1.61304 41.1414 1.61304H50.0167C50.1709 1.61304 50.296 1.72245 50.296 1.85742V7.23376C50.296 7.36873 50.1709 7.47814 50.0167 7.47814H41.1414C40.9871 7.47814 40.8621 7.36873 40.8621 7.23376V1.85742Z" fill="#F6F6F7"/>
<path d="M51.1832 8.50657C51.1832 8.3716 51.3082 8.26219 51.4624 8.26219H60.3378C60.492 8.26219 60.6171 8.3716 60.6171 8.50657V13.8829C60.6171 14.0179 60.492 14.1273 60.3378 14.1273H51.4624C51.3082 14.1273 51.1832 14.0179 51.1832 13.8829V8.50657Z" fill="#F6F6F7"/>
<path d="M51.1832 15.1863C51.1832 15.0513 51.3082 14.9419 51.4624 14.9419H60.3378C60.492 14.9419 60.6171 15.0513 60.6171 15.1863V20.5626C60.6171 20.6976 60.492 20.807 60.3378 20.807H51.4624C51.3082 20.807 51.1832 20.6976 51.1832 20.5626V15.1863Z" fill="#7C7C7C"/>
<path d="M51.1832 1.85742C51.1832 1.72245 51.3082 1.61304 51.4624 1.61304H60.3378C60.492 1.61304 60.6171 1.72245 60.6171 1.85742V7.23376C60.6171 7.36873 60.492 7.47814 60.3378 7.47814H51.4624C51.3082 7.47814 51.1832 7.36873 51.1832 7.23376V1.85742Z" fill="#F6F6F7"/>
</svg>
