<svg width="59" height="32" viewBox="0 0 59 32" fill="none" xmlns="http://www.w3.org/2000/svg">
<path d="M14.2141 28.5203C14.2141 30.4421 12.6989 32 10.8298 32C8.96072 32 7.44551 30.4421 7.44551 28.5203C7.44551 28.3829 7.45324 28.2475 7.46829 28.1143C7.66386 26.3838 9.09428 25.0405 10.8298 25.0405C12.5654 25.0405 13.9958 26.3838 14.1914 28.1143C14.2064 28.2475 14.2141 28.3829 14.2141 28.5203Z" fill="#D1D1D1"/>
<path d="M48.1702 28.5203C48.1702 30.4421 46.655 32 44.7859 32C42.9167 32 41.4015 30.4421 41.4015 28.5203C41.4015 27.8624 41.5791 27.2471 41.8877 26.7224C42.4804 25.7144 43.5566 25.0405 44.7859 25.0405C46.0151 25.0405 47.0913 25.7144 47.684 26.7224C47.9926 27.2471 48.1702 27.8624 48.1702 28.5203Z" fill="#D1D1D1"/>
<path fill-rule="evenodd" clip-rule="evenodd" d="M0.620459 19.3228C0.620459 19.2685 0.628132 19.2135 0.642793 19.1614C2.03319 14.217 3.29277 11.7734 6.54701 8.44774C6.6519 8.34054 6.7951 8.27985 6.94299 8.27985H14.4962C14.8077 8.27985 15.0602 8.5395 15.0602 8.8598V22.6047C15.0602 22.925 15.3128 23.1847 15.6243 23.1847H16.696C16.8856 23.1847 17.0534 23.0885 17.1556 22.9409H59V26.1425C59 26.4628 58.7475 26.7224 58.436 26.7224H48.5371C48.4084 26.7224 48.2919 26.6467 48.2287 26.5314C47.5519 25.2954 46.2637 24.4606 44.7859 24.4606C43.308 24.4606 42.0198 25.2954 41.343 26.5314C41.2798 26.6467 41.1633 26.7224 41.0346 26.7224H39.3094C39.1677 26.7224 39.0311 26.7773 38.9269 26.8762L37.7844 27.9605C37.6802 28.0594 37.5436 28.1143 37.4018 28.1143H15.0652C14.8912 28.1143 14.7472 27.9781 14.7166 27.802C14.3868 25.9025 12.7721 24.4606 10.8298 24.4606C8.86642 24.4606 7.23773 25.9341 6.93274 27.8643C6.91043 28.0055 6.79496 28.1143 6.65583 28.1143C6.40662 28.1143 6.20459 27.9066 6.20459 27.6503C6.20459 27.3941 6.00256 27.1864 5.75335 27.1864H0.564053C0.252535 27.1864 0 26.9267 0 26.6064V25.8027C0 25.6489 0.0594269 25.5014 0.165207 25.3926L0.620459 24.9246V19.3228ZM5.23461 18.9284C5.13254 19.0179 5.00281 19.067 4.86869 19.067H3.52956C3.25126 19.067 3.01241 18.8585 2.98053 18.5742C2.88967 17.7641 2.90828 17.0946 3.03813 15.9453C3.0432 15.9004 3.05373 15.8552 3.06891 15.8128C3.86549 13.588 4.52332 12.382 6.03652 10.5676C6.14267 10.4403 6.2982 10.3677 6.46128 10.3677H12.522C12.8335 10.3677 13.086 10.6273 13.086 10.9476V15.4713C13.086 15.7916 12.8335 16.0512 12.522 16.0512H8.725C8.59088 16.0512 8.46115 16.1004 8.35908 16.1898L5.23461 18.9284Z" fill="#D1D1D1"/>
<path fill-rule="evenodd" clip-rule="evenodd" d="M18.5741 0C18.3155 0 18.1058 0.215554 18.1058 0.481454V21.6655C18.1058 21.9314 18.3155 22.1469 18.5741 22.1469H58.5317C58.7904 22.1469 59 21.9314 59 21.6655V0.481455C59 0.215555 58.7904 0 58.5317 0H18.5741ZM21.0714 1.60485C21.1145 1.60485 21.1495 1.64077 21.1495 1.68509V20.4618C21.1495 20.5061 21.1145 20.5421 21.0714 20.5421C21.0283 20.5421 20.9934 20.5061 20.9934 20.4618V1.68509C20.9934 1.64077 21.0283 1.60485 21.0714 1.60485ZM23.6468 1.68509C23.6468 1.64077 23.6119 1.60485 23.5688 1.60485C23.5257 1.60485 23.4907 1.64077 23.4907 1.68509L23.4907 20.4618C23.4907 20.5061 23.5257 20.5421 23.5688 20.5421C23.6119 20.5421 23.6468 20.5061 23.6468 20.4618L23.6468 1.68509ZM26.0661 1.60485C26.1092 1.60485 26.1442 1.64077 26.1442 1.68509L26.1442 20.4618C26.1442 20.5061 26.1092 20.5421 26.0661 20.5421C26.023 20.5421 25.9881 20.5061 25.9881 20.4618L25.9881 1.68509C25.9881 1.64077 26.023 1.60485 26.0661 1.60485ZM28.6415 1.68509C28.6415 1.64077 28.6066 1.60485 28.5635 1.60485C28.5204 1.60485 28.4855 1.64077 28.4855 1.68509L28.4855 20.4618C28.4855 20.5061 28.5204 20.5421 28.5635 20.5421C28.6066 20.5421 28.6415 20.5061 28.6415 20.4618L28.6415 1.68509ZM31.0609 1.60485C31.104 1.60485 31.1389 1.64077 31.1389 1.68509V20.4618C31.1389 20.5061 31.104 20.5421 31.0609 20.5421C31.0178 20.5421 30.9828 20.5061 30.9828 20.4618V1.68509C30.9828 1.64077 31.0178 1.60485 31.0609 1.60485ZM33.6362 1.68509C33.6362 1.64077 33.6013 1.60485 33.5582 1.60485C33.5151 1.60485 33.4802 1.64077 33.4802 1.68509V20.4618C33.4802 20.5061 33.5151 20.5421 33.5582 20.5421C33.6013 20.5421 33.6362 20.5061 33.6362 20.4618V1.68509ZM36.0556 1.60485C36.0987 1.60485 36.1336 1.64077 36.1336 1.68509V20.4618C36.1336 20.5061 36.0987 20.5421 36.0556 20.5421C36.0125 20.5421 35.9775 20.5061 35.9775 20.4618V1.68509C35.9775 1.64077 36.0125 1.60485 36.0556 1.60485ZM38.631 1.68509C38.631 1.64077 38.596 1.60485 38.5529 1.60485C38.5098 1.60485 38.4749 1.64077 38.4749 1.68509V20.4618C38.4749 20.5061 38.5098 20.5421 38.5529 20.5421C38.596 20.5421 38.631 20.5061 38.631 20.4618V1.68509ZM41.0503 1.60485C41.0934 1.60485 41.1283 1.64077 41.1283 1.68509L41.1283 20.4618C41.1283 20.5061 41.0934 20.5421 41.0503 20.5421C41.0072 20.5421 40.9722 20.5061 40.9722 20.4618L40.9722 1.68509C40.9722 1.64077 41.0072 1.60485 41.0503 1.60485ZM43.6257 1.68509C43.6257 1.64077 43.5907 1.60485 43.5476 1.60485C43.5045 1.60485 43.4696 1.64077 43.4696 1.68509V20.4618C43.4696 20.5061 43.5045 20.5421 43.5476 20.5421C43.5907 20.5421 43.6257 20.5061 43.6257 20.4618L43.6257 1.68509ZM46.045 1.60485C46.0881 1.60485 46.123 1.64077 46.123 1.68509L46.123 20.4618C46.123 20.5061 46.0881 20.5421 46.045 20.5421C46.0019 20.5421 45.9669 20.5061 45.9669 20.4618L45.9669 1.68509C45.9669 1.64077 46.0019 1.60485 46.045 1.60485ZM48.6204 1.68509C48.6204 1.64077 48.5854 1.60485 48.5423 1.60485C48.4992 1.60485 48.4643 1.64077 48.4643 1.68509L48.4643 20.4618C48.4643 20.5061 48.4992 20.5421 48.5423 20.5421C48.5854 20.5421 48.6204 20.5061 48.6204 20.4618L48.6204 1.68509ZM51.0397 1.60485C51.0828 1.60485 51.1177 1.64077 51.1177 1.68509L51.1177 20.4618C51.1177 20.5061 51.0828 20.5421 51.0397 20.5421C50.9966 20.5421 50.9616 20.5061 50.9616 20.4618L50.9617 1.68509C50.9617 1.64077 50.9966 1.60485 51.0397 1.60485ZM53.6151 1.68509C53.6151 1.64077 53.5802 1.60485 53.537 1.60485C53.4939 1.60485 53.459 1.64077 53.459 1.68509L53.459 20.4618C53.459 20.5061 53.4939 20.5421 53.537 20.5421C53.5801 20.5421 53.6151 20.5061 53.6151 20.4618V1.68509ZM56.0344 1.60485C56.0775 1.60485 56.1124 1.64077 56.1124 1.68509L56.1124 20.4618C56.1124 20.5061 56.0775 20.5421 56.0344 20.5421C55.9913 20.5421 55.9564 20.5061 55.9564 20.4618L55.9564 1.68509C55.9564 1.64077 55.9913 1.60485 56.0344 1.60485Z" fill="#7C7C7C"/>
</svg>
