<svg width="61" height="32" viewBox="0 0 61 32" fill="none" xmlns="http://www.w3.org/2000/svg">
<path fill-rule="evenodd" clip-rule="evenodd" d="M0.664246 19.0967C0.649095 19.1491 0.641166 19.2044 0.641166 19.2589V24.8889L0.170721 25.3593C0.0614102 25.4686 0 25.6169 0 25.7715V26.5792C0 26.9011 0.260963 27.1621 0.582878 27.1621H5.94536C6.20289 27.1621 6.41166 27.3709 6.41166 27.6284C6.41166 27.8859 6.62043 28.0947 6.87796 28.0947H7.13126C7.33597 26.0329 9.07556 24.4226 11.1913 24.4226C13.307 24.4226 15.0466 26.0329 15.2513 28.0947H38.6501C38.7966 28.0947 38.9378 28.0395 39.0454 27.9401L40.226 26.8504C40.3337 26.751 40.4748 26.6958 40.6213 26.6958H42.6213C43.2877 25.3488 44.6759 24.4226 46.2805 24.4226C47.8851 24.4226 49.2734 25.3488 49.9398 26.6958H60.3862C60.7081 26.6958 60.9691 26.4348 60.9691 26.1129V0.582878C60.9691 0.260963 60.7081 0 60.3862 0H18.4189C18.097 0 17.8361 0.260963 17.8361 0.582878V22.5574C17.8361 22.8793 17.5751 23.1403 17.2532 23.1403H16.1457C15.8238 23.1403 15.5628 22.8793 15.5628 22.5574V8.74317C15.5628 8.42126 15.3019 8.16029 14.98 8.16029H7.17471C7.02188 8.16029 6.8739 8.22129 6.7655 8.32903C3.40266 11.6714 2.10104 14.1273 0.664246 19.0967ZM5.03118 19.0018C5.16978 19.0018 5.30384 18.9524 5.40931 18.8625L8.63805 16.1102C8.74352 16.0202 8.87759 15.9709 9.01618 15.9709H12.9399C13.2618 15.9709 13.5228 15.7099 13.5228 15.388V10.8415C13.5228 10.5196 13.2618 10.2587 12.9399 10.2587H6.67692C6.50839 10.2587 6.34768 10.3316 6.23798 10.4596C4.67428 12.2832 3.99449 13.4952 3.17133 15.7312C3.15564 15.7738 3.14477 15.8193 3.13953 15.8644C3.00534 17.0194 2.98611 17.6924 3.08 18.5066C3.11295 18.7922 3.35977 19.0018 3.64735 19.0018H5.03118Z" fill="#D1D1D1"/>
<path d="M14.6885 28.5027C14.6885 30.4342 13.1227 32 11.1913 32C9.25977 32 7.69399 30.4342 7.69399 28.5027C7.69399 28.3647 7.70199 28.2286 7.71754 28.0947C7.91963 26.3555 9.39779 25.0055 11.1913 25.0055C12.9847 25.0055 14.4629 26.3555 14.665 28.0947C14.6805 28.2286 14.6885 28.3647 14.6885 28.5027Z" fill="#D1D1D1"/>
<path d="M49.7778 28.5027C49.7778 30.4342 48.212 32 46.2805 32C44.349 32 42.7833 30.4342 42.7833 28.5027C42.7833 27.8415 42.9668 27.2232 43.2856 26.6958C43.8982 25.6827 45.0102 25.0055 46.2805 25.0055C47.5508 25.0055 48.6629 25.6827 49.2754 26.6958C49.5943 27.2232 49.7778 27.8415 49.7778 28.5027Z" fill="#D1D1D1"/>
<path d="M19.2349 2.00476C19.2349 1.79907 19.4021 1.63232 19.6083 1.63232H31.4765C31.6828 1.63232 31.85 1.79907 31.85 2.00476V10.1984C31.85 10.404 31.6828 10.5708 31.4765 10.5708H19.6083C19.4021 10.5708 19.2349 10.404 19.2349 10.1984V6.10156V2.00476Z" fill="#7C7C7C"/>
<path d="M33.0949 2.00476C33.0949 1.79907 33.2621 1.63232 33.4684 1.63232H45.3365C45.5428 1.63232 45.71 1.79907 45.71 2.00476V10.1984C45.71 10.404 45.5428 10.5708 45.3365 10.5708H33.4684C33.2621 10.5708 33.0949 10.404 33.0949 10.1984V2.00476Z" fill="#7C7C7C"/>
<path d="M46.9549 2.00476C46.9549 1.79907 47.1221 1.63232 47.3284 1.63232H59.1965C59.4028 1.63232 59.57 1.79907 59.57 2.00476V10.1984C59.57 10.404 59.4028 10.5708 59.1965 10.5708H47.3284C47.1221 10.5708 46.9549 10.404 46.9549 10.1984V2.00476Z" fill="#7C7C7C"/>
<path d="M19.2349 12.1847C19.2349 11.979 19.4021 11.8122 19.6083 11.8122H31.4765C31.6828 11.8122 31.85 11.979 31.85 12.1847V20.3783C31.85 20.584 31.6828 20.7507 31.4765 20.7507H19.6083C19.4021 20.7507 19.2349 20.584 19.2349 20.3783V12.1847Z" fill="#7C7C7C"/>
<path d="M33.0949 12.1847C33.0949 11.979 33.2621 11.8122 33.4684 11.8122H45.3365C45.5428 11.8122 45.71 11.979 45.71 12.1847V20.3783C45.71 20.584 45.5428 20.7507 45.3365 20.7507H33.4684C33.2621 20.7507 33.0949 20.584 33.0949 20.3783V12.1847Z" fill="#7C7C7C"/>
<path d="M46.9549 12.1847C46.9549 11.979 47.1221 11.8122 47.3284 11.8122H59.1965C59.4028 11.8122 59.57 11.979 59.57 12.1847V20.3783C59.57 20.584 59.4028 20.7507 59.1965 20.7507H47.3284C47.1221 20.7507 46.9549 20.584 46.9549 20.3783V12.1847Z" fill="#7C7C7C"/>
</svg>
