<svg width="46" height="24" viewBox="0 0 46 24" fill="none" xmlns="http://www.w3.org/2000/svg">
<path fill-rule="evenodd" clip-rule="evenodd" d="M0.498184 14.3225C0.486821 14.3618 0.480874 14.4033 0.480874 14.4442V18.6667L0.128041 19.0195C0.0460576 19.1015 0 19.2127 0 19.3286V19.9344C0 20.1759 0.195722 20.3716 0.437158 20.3716H4.45902C4.65217 20.3716 4.80874 20.5282 4.80874 20.7213C4.80874 20.9145 4.96532 21.071 5.15847 21.071H5.34844C5.50198 19.5247 6.80667 18.3169 8.39344 18.3169C9.98022 18.3169 11.2849 19.5247 11.4384 21.071H28.9876C29.0975 21.071 29.2033 21.0296 29.2841 20.9551L30.1695 20.1378C30.2502 20.0632 30.3561 20.0219 30.466 20.0219H31.966C32.4658 19.0116 33.507 18.3169 34.7104 18.3169C35.9138 18.3169 36.955 19.0116 37.4548 20.0219H45.2896C45.5311 20.0219 45.7268 19.8261 45.7268 19.5847V0.437158C45.7268 0.195723 45.5311 0 45.2896 0H13.8142C13.5728 0 13.3771 0.195723 13.3771 0.437159V16.918C13.3771 17.1595 13.1813 17.3552 12.9399 17.3552H12.1093C11.8679 17.3552 11.6721 17.1595 11.6721 16.918V6.55738C11.6721 6.31594 11.4764 6.12022 11.235 6.12022H5.38103C5.26641 6.12022 5.15542 6.16597 5.07413 6.24677C2.552 8.75356 1.57578 10.5955 0.498184 14.3225ZM3.77338 14.2514C3.87733 14.2514 3.97788 14.2143 4.05698 14.1469L6.47854 12.0826C6.55764 12.0152 6.65819 11.9781 6.76214 11.9781H9.70492C9.94636 11.9781 10.1421 11.7824 10.1421 11.541V8.13115C10.1421 7.88971 9.94636 7.69399 9.70492 7.69399H5.00769C4.88129 7.69399 4.76076 7.74873 4.67848 7.84467C3.50571 9.21237 2.99587 10.1214 2.37849 11.7984C2.36673 11.8304 2.35858 11.8645 2.35465 11.8983C2.254 12.7646 2.23958 13.2693 2.31 13.8799C2.33471 14.0942 2.51983 14.2514 2.73551 14.2514H3.77338Z" fill="#B3E3C7"/>
<path d="M11.0164 21.377C11.0164 22.8257 9.84206 24 8.39344 24C6.94483 24 5.77049 22.8257 5.77049 21.377C5.77049 21.2735 5.77649 21.1714 5.78815 21.071C5.93972 19.7666 7.04834 18.7541 8.39344 18.7541C9.73855 18.7541 10.8472 19.7666 10.9987 21.071C11.0104 21.1714 11.0164 21.2735 11.0164 21.377Z" fill="#B3E3C7"/>
<path d="M37.3333 21.377C37.3333 22.8257 36.159 24 34.7104 24C33.2618 24 32.0874 22.8257 32.0874 21.377C32.0874 20.8811 32.2251 20.4174 32.4642 20.0219C32.9236 19.262 33.7577 18.7541 34.7104 18.7541C35.6631 18.7541 36.4972 19.262 36.9566 20.0219C37.1957 20.4174 37.3333 20.8811 37.3333 21.377Z" fill="#B3E3C7"/>
<path d="M14.4263 1.50394C14.4263 1.34967 14.5517 1.22461 14.7064 1.22461H23.6075C23.7622 1.22461 23.8876 1.34967 23.8876 1.50394V7.64914C23.8876 7.8034 23.7622 7.92846 23.6075 7.92846H14.7064C14.5517 7.92846 14.4263 7.8034 14.4263 7.64914V4.57654V1.50394Z" fill="#27AE60"/>
<path d="M24.8213 1.50394C24.8213 1.34967 24.9467 1.22461 25.1014 1.22461H34.0025C34.1572 1.22461 34.2826 1.34967 34.2826 1.50394V7.64914C34.2826 7.8034 34.1572 7.92846 34.0025 7.92846H25.1014C24.9467 7.92846 24.8213 7.8034 24.8213 7.64914V1.50394Z" fill="#27AE60"/>
<path d="M35.2163 1.50394C35.2163 1.34967 35.3417 1.22461 35.4964 1.22461H44.3975C44.5522 1.22461 44.6776 1.34967 44.6776 1.50394V7.64914C44.6776 7.8034 44.5522 7.92846 44.3975 7.92846H35.4964C35.3417 7.92846 35.2163 7.8034 35.2163 7.64914V1.50394Z" fill="#27AE60"/>
<path d="M14.4263 9.13888C14.4263 8.98461 14.5517 8.85955 14.7064 8.85955H23.6075C23.7622 8.85955 23.8876 8.98461 23.8876 9.13888V15.2841C23.8876 15.4383 23.7622 15.5634 23.6075 15.5634H14.7064C14.5517 15.5634 14.4263 15.4383 14.4263 15.2841V9.13888Z" fill="#27AE60"/>
<path d="M24.8213 9.13888C24.8213 8.98461 24.9467 8.85955 25.1014 8.85955H34.0025C34.1572 8.85955 34.2826 8.98461 34.2826 9.13888V15.2841C34.2826 15.4383 34.1572 15.5634 34.0025 15.5634H25.1014C24.9467 15.5634 24.8213 15.4383 24.8213 15.2841V9.13888Z" fill="#27AE60"/>
<path d="M35.2163 9.13888C35.2163 8.98461 35.3417 8.85955 35.4964 8.85955H44.3975C44.5522 8.85955 44.6776 8.98461 44.6776 9.13888V15.2841C44.6776 15.4383 44.5522 15.5634 44.3975 15.5634H35.4964C35.3417 15.5634 35.2163 15.4383 35.2163 15.2841V9.13888Z" fill="#27AE60"/>
</svg>
