<svg width="46" height="24" viewBox="0 0 46 24" fill="none" xmlns="http://www.w3.org/2000/svg">
<path fill-rule="evenodd" clip-rule="evenodd" d="M0.498184 14.3225C0.486821 14.3618 0.480874 14.4033 0.480874 14.4442V18.6667L0.128041 19.0195C0.0460576 19.1015 0 19.2127 0 19.3286V19.9344C0 20.1759 0.195722 20.3716 0.437158 20.3716H4.45902C4.65216 20.3716 4.80874 20.5282 4.80874 20.7213C4.80874 20.9145 4.96532 21.071 5.15847 21.071H5.34844C5.50198 19.5247 6.80667 18.3169 8.39344 18.3169C9.98022 18.3169 11.2849 19.5247 11.4384 21.071H28.9875C29.0974 21.071 29.2033 21.0296 29.2841 20.9551L30.1695 20.1378C30.2502 20.0632 30.3561 20.0219 30.466 20.0219H31.966C32.4658 19.0116 33.5069 18.3169 34.7104 18.3169C35.9138 18.3169 36.955 19.0116 37.4548 20.0219H45.2896C45.5311 20.0219 45.7268 19.8261 45.7268 19.5847V0.437158C45.7268 0.195723 45.5311 0 45.2896 0H13.8142C13.5728 0 13.377 0.195723 13.377 0.437159V16.918C13.377 17.1595 13.1813 17.3552 12.9399 17.3552H12.1093C11.8679 17.3552 11.6721 17.1595 11.6721 16.918V6.55738C11.6721 6.31594 11.4764 6.12022 11.235 6.12022H5.38103C5.26641 6.12022 5.15542 6.16597 5.07413 6.24677C2.552 8.75356 1.57578 10.5955 0.498184 14.3225ZM3.77338 14.2514C3.87733 14.2514 3.97788 14.2143 4.05698 14.1469L6.47854 12.0826C6.55764 12.0152 6.65819 11.9781 6.76214 11.9781H9.70492C9.94635 11.9781 10.1421 11.7824 10.1421 11.541V8.13115C10.1421 7.88971 9.94635 7.69399 9.70492 7.69399H5.00769C4.88129 7.69399 4.76076 7.74873 4.67848 7.84467C3.50571 9.21237 2.99587 10.1214 2.37849 11.7984C2.36673 11.8304 2.35857 11.8645 2.35464 11.8983C2.254 12.7646 2.23958 13.2693 2.31 13.8799C2.33471 14.0942 2.51983 14.2514 2.73551 14.2514H3.77338Z" fill="#FBDCAC"/>
<path d="M11.0164 21.377C11.0164 22.8257 9.84206 24 8.39344 24C6.94483 24 5.77049 22.8257 5.77049 21.377C5.77049 21.2735 5.77649 21.1714 5.78815 21.071C5.93972 19.7666 7.04834 18.7541 8.39344 18.7541C9.73854 18.7541 10.8472 19.7666 10.9987 21.071C11.0104 21.1714 11.0164 21.2735 11.0164 21.377Z" fill="#FBDCAC"/>
<path d="M37.3333 21.377C37.3333 22.8257 36.159 24 34.7104 24C33.2618 24 32.0874 22.8257 32.0874 21.377C32.0874 20.8811 32.2251 20.4174 32.4642 20.0219C32.9236 19.262 33.7577 18.7541 34.7104 18.7541C35.6631 18.7541 36.4972 19.262 36.9566 20.0219C37.1957 20.4174 37.3333 20.8811 37.3333 21.377Z" fill="#FBDCAC"/>
<path d="M14.4263 1.50336C14.4263 1.34909 14.5517 1.22403 14.7064 1.22403H23.6075C23.7622 1.22403 23.8876 1.34909 23.8876 1.50336V7.64856C23.8876 7.80282 23.7622 7.92788 23.6075 7.92788H14.7064C14.5517 7.92788 14.4263 7.80282 14.4263 7.64856V4.57596V1.50336Z" fill="white"/>
<path d="M24.8213 1.50336C24.8213 1.34909 24.9467 1.22403 25.1014 1.22403H34.0025C34.1572 1.22403 34.2826 1.34909 34.2826 1.50336V7.64856C34.2826 7.80282 34.1572 7.92788 34.0025 7.92788H25.1014C24.9467 7.92788 24.8213 7.80282 24.8213 7.64856V1.50336Z" fill="white"/>
<path d="M35.2163 1.50336C35.2163 1.34909 35.3417 1.22403 35.4964 1.22403H44.3975C44.5522 1.22403 44.6776 1.34909 44.6776 1.50336V7.64856C44.6776 7.80282 44.5522 7.92788 44.3975 7.92788H35.4964C35.3417 7.92788 35.2163 7.80282 35.2163 7.64856V1.50336Z" fill="#F39C12"/>
<path d="M14.4263 9.1383C14.4263 8.98403 14.5517 8.85897 14.7064 8.85897H23.6075C23.7622 8.85897 23.8876 8.98403 23.8876 9.1383V15.2835C23.8876 15.4378 23.7622 15.5628 23.6075 15.5628H14.7064C14.5517 15.5628 14.4263 15.4378 14.4263 15.2835V9.1383Z" fill="white"/>
<path d="M24.8213 9.1383C24.8213 8.98403 24.9467 8.85897 25.1014 8.85897H34.0025C34.1572 8.85897 34.2826 8.98403 34.2826 9.1383V15.2835C34.2826 15.4378 34.1572 15.5628 34.0025 15.5628H25.1014C24.9467 15.5628 24.8213 15.4378 24.8213 15.2835V9.1383Z" fill="white"/>
<path d="M35.2163 9.1383C35.2163 8.98403 35.3417 8.85897 35.4964 8.85897H44.3975C44.5522 8.85897 44.6776 8.98403 44.6776 9.1383V15.2835C44.6776 15.4378 44.5522 15.5628 44.3975 15.5628H35.4964C35.3417 15.5628 35.2163 15.4378 35.2163 15.2835V9.1383Z" fill="#F39C12"/>
</svg>
