<svg width="45" height="24" viewBox="0 0 45 24" fill="none" xmlns="http://www.w3.org/2000/svg">
<path d="M10.6606 21.3902C10.6606 22.8316 9.5242 24 8.12237 24C6.72054 24 5.58413 22.8316 5.58413 21.3902C5.58413 21.2872 5.58993 21.1856 5.60122 21.0857C5.74789 19.7878 6.82071 18.7804 8.12237 18.7804C9.42403 18.7804 10.4968 19.7878 10.6435 21.0857C10.6548 21.1856 10.6606 21.2872 10.6606 21.3902Z" fill="#FBDCAC"/>
<path d="M36.1276 21.3902C36.1276 22.8316 34.9912 24 33.5894 24C32.1876 24 31.0511 22.8316 31.0511 21.3902C31.0511 20.8968 31.1843 20.4353 31.4157 20.0418C31.8603 19.2858 32.6674 18.7804 33.5894 18.7804C34.5113 18.7804 35.3185 19.2858 35.763 20.0418C35.9944 20.4353 36.1276 20.8968 36.1276 21.3902Z" fill="#FBDCAC"/>
<path fill-rule="evenodd" clip-rule="evenodd" d="M0.465344 14.4921C0.465344 14.4514 0.471099 14.4102 0.482095 14.371C1.52489 10.6627 2.46958 8.83002 4.91025 6.3358C4.98892 6.25541 5.09633 6.20989 5.20724 6.20989H10.8721C11.1058 6.20989 11.2952 6.40463 11.2952 6.64485V16.9535C11.2952 17.1938 11.4846 17.3885 11.7182 17.3885H12.522C12.6642 17.3885 12.79 17.3164 12.8667 17.2057H44.25V19.6068C44.25 19.8471 44.0606 20.0418 43.827 20.0418H36.4028C36.3063 20.0418 36.2189 19.985 36.1715 19.8985C35.6639 18.9715 34.6978 18.3454 33.5894 18.3454C32.481 18.3454 31.5149 18.9715 31.0072 19.8985C30.9599 19.985 30.8725 20.0418 30.776 20.0418H29.4821C29.3757 20.0418 29.2733 20.083 29.1951 20.1572L28.3383 20.9704C28.2602 21.0445 28.1577 21.0857 28.0514 21.0857H11.2989C11.1684 21.0857 11.0604 20.9836 11.0375 20.8515C10.7901 19.4269 9.57906 18.3454 8.12237 18.3454C6.64981 18.3454 5.4283 19.4506 5.19955 20.8982C5.18282 21.0041 5.09622 21.0857 4.99187 21.0857C4.80496 21.0857 4.65344 20.9299 4.65344 20.7378C4.65344 20.5456 4.50192 20.3898 4.31501 20.3898H0.42304C0.189401 20.3898 0 20.195 0 19.9548V19.352C0 19.2367 0.0445702 19.126 0.123906 19.0445L0.465344 18.6934V14.4921ZM3.92596 14.1963C3.84941 14.2634 3.75211 14.3003 3.65152 14.3003H2.64717C2.43845 14.3003 2.25931 14.1439 2.2354 13.9307C2.16726 13.3231 2.18121 12.8209 2.2786 11.959C2.2824 11.9253 2.29029 11.8914 2.30168 11.8596C2.89912 10.191 3.39249 9.28653 4.52739 7.92569C4.607 7.83023 4.72365 7.77576 4.84596 7.77576H9.39149C9.62513 7.77576 9.81453 7.97051 9.81453 8.21073V11.6035C9.81453 11.8437 9.62513 12.0384 9.39149 12.0384H6.54375C6.44316 12.0384 6.34586 12.0753 6.26931 12.1424L3.92596 14.1963Z" fill="#FBDCAC"/>
<path fill-rule="evenodd" clip-rule="evenodd" d="M13.9306 0C13.7366 0 13.5794 0.161666 13.5794 0.361091V16.2491C13.5794 16.4485 13.7366 16.6102 13.9306 16.6102H43.8988C44.0928 16.6102 44.25 16.4485 44.25 16.2491V0.361091C44.25 0.161666 44.0928 0 43.8988 0H13.9306ZM15.8036 1.20364C15.8359 1.20364 15.8621 1.23058 15.8621 1.26382V15.3464C15.8621 15.3796 15.8359 15.4065 15.8036 15.4065C15.7712 15.4065 15.745 15.3796 15.745 15.3464V1.26382C15.745 1.23058 15.7712 1.20364 15.8036 1.20364ZM17.7351 1.26382C17.7351 1.23058 17.7089 1.20364 17.6766 1.20364C17.6443 1.20364 17.6181 1.23058 17.6181 1.26382L17.6181 15.3464C17.6181 15.3796 17.6443 15.4065 17.6766 15.4065C17.7089 15.4065 17.7351 15.3796 17.7351 15.3464L17.7351 1.26382ZM19.5496 1.20364C19.5819 1.20364 19.6081 1.23058 19.6081 1.26382L19.6081 15.3464C19.6081 15.3796 19.5819 15.4065 19.5496 15.4065C19.5173 15.4065 19.4911 15.3796 19.4911 15.3464L19.4911 1.26382C19.4911 1.23058 19.5173 1.20364 19.5496 1.20364ZM21.4812 1.26382C21.4812 1.23058 21.4549 1.20364 21.4226 1.20364C21.3903 1.20364 21.3641 1.23058 21.3641 1.26382L21.3641 15.3464C21.3641 15.3796 21.3903 15.4065 21.4226 15.4065C21.4549 15.4065 21.4812 15.3796 21.4812 15.3464L21.4812 1.26382ZM23.2956 1.20364C23.328 1.20364 23.3542 1.23058 23.3542 1.26382V15.3464C23.3542 15.3796 23.328 15.4065 23.2956 15.4065C23.2633 15.4065 23.2371 15.3796 23.2371 15.3464V1.26382C23.2371 1.23058 23.2633 1.20364 23.2956 1.20364ZM25.2272 1.26382C25.2272 1.23058 25.201 1.20364 25.1687 1.20364C25.1363 1.20364 25.1101 1.23058 25.1101 1.26382V15.3464C25.1101 15.3796 25.1363 15.4065 25.1687 15.4065C25.201 15.4065 25.2272 15.3796 25.2272 15.3464V1.26382ZM27.0417 1.20364C27.074 1.20364 27.1002 1.23058 27.1002 1.26382V15.3464C27.1002 15.3796 27.074 15.4065 27.0417 15.4065C27.0093 15.4065 26.9831 15.3796 26.9831 15.3464V1.26382C26.9831 1.23058 27.0093 1.20364 27.0417 1.20364ZM28.9732 1.26382C28.9732 1.23058 28.947 1.20364 28.9147 1.20364C28.8824 1.20364 28.8562 1.23058 28.8562 1.26382V15.3464C28.8562 15.3796 28.8824 15.4065 28.9147 15.4065C28.947 15.4065 28.9732 15.3796 28.9732 15.3464V1.26382ZM30.7877 1.20364C30.82 1.20364 30.8462 1.23058 30.8462 1.26382L30.8462 15.3464C30.8462 15.3796 30.82 15.4065 30.7877 15.4065C30.7554 15.4065 30.7292 15.3796 30.7292 15.3464L30.7292 1.26382C30.7292 1.23058 30.7554 1.20364 30.7877 1.20364ZM32.7193 1.26382C32.7193 1.23058 32.693 1.20364 32.6607 1.20364C32.6284 1.20364 32.6022 1.23058 32.6022 1.26382V15.3464C32.6022 15.3796 32.6284 15.4065 32.6607 15.4065C32.693 15.4065 32.7192 15.3796 32.7192 15.3464L32.7193 1.26382ZM34.5337 1.20364C34.5661 1.20364 34.5923 1.23058 34.5923 1.26382L34.5923 15.3464C34.5923 15.3796 34.5661 15.4065 34.5337 15.4065C34.5014 15.4065 34.4752 15.3796 34.4752 15.3464L34.4752 1.26382C34.4752 1.23058 34.5014 1.20364 34.5337 1.20364ZM36.4653 1.26382C36.4653 1.23058 36.4391 1.20364 36.4068 1.20364C36.3744 1.20364 36.3482 1.23058 36.3482 1.26382L36.3482 15.3464C36.3482 15.3796 36.3744 15.4065 36.4067 15.4065C36.4391 15.4065 36.4653 15.3796 36.4653 15.3464L36.4653 1.26382ZM38.2798 1.20364C38.3121 1.20364 38.3383 1.23058 38.3383 1.26382L38.3383 15.3464C38.3383 15.3796 38.3121 15.4065 38.2798 15.4065C38.2474 15.4065 38.2212 15.3796 38.2212 15.3464L38.2212 1.26382C38.2212 1.23058 38.2474 1.20364 38.2798 1.20364ZM40.2113 1.26382C40.2113 1.23058 40.1851 1.20364 40.1528 1.20364C40.1205 1.20364 40.0943 1.23058 40.0943 1.26382L40.0942 15.3464C40.0942 15.3796 40.1205 15.4065 40.1528 15.4065C40.1851 15.4065 40.2113 15.3796 40.2113 15.3464V1.26382ZM42.0258 1.20364C42.0581 1.20364 42.0843 1.23058 42.0843 1.26382L42.0843 15.3464C42.0843 15.3796 42.0581 15.4065 42.0258 15.4065C41.9935 15.4065 41.9673 15.3796 41.9673 15.3464L41.9673 1.26382C41.9673 1.23058 41.9935 1.20364 42.0258 1.20364Z" fill="#F39C12"/>
</svg>
