<svg width="46" height="24" viewBox="0 0 46 24" fill="none" xmlns="http://www.w3.org/2000/svg">
<path fill-rule="evenodd" clip-rule="evenodd" d="M0.498184 14.3225C0.486821 14.3618 0.480874 14.4033 0.480874 14.4442V18.6667L0.128041 19.0195C0.0460576 19.1015 0 19.2127 0 19.3286V19.9344C0 20.1759 0.195722 20.3716 0.437158 20.3716H4.45902C4.65216 20.3716 4.80874 20.5282 4.80874 20.7213C4.80874 20.9145 4.96532 21.071 5.15847 21.071V21.071C5.2663 21.071 5.35579 20.989 5.37308 20.8826C5.60946 19.4276 6.87174 18.3169 8.39344 18.3169C9.01581 18.3169 9.59477 18.5027 10.0779 18.8219C11.3646 19.6718 12.6133 21.071 14.1553 21.071H28.9875C29.0974 21.071 29.2033 21.0296 29.2841 20.9551L30.1695 20.1378C30.2502 20.0632 30.3561 20.0219 30.466 20.0219V20.0219C31.3846 20.0219 32.1812 19.4257 32.9273 18.8898C33.4294 18.5293 34.0451 18.3169 34.7104 18.3169C35.2458 18.3169 35.7491 18.4544 36.1869 18.696C37.1857 19.2473 38.1768 20.0219 39.3177 20.0219H45.2896C45.5311 20.0219 45.7268 19.8261 45.7268 19.5847V0.437158C45.7268 0.195723 45.5311 0 45.2896 0H13.8142C13.5728 0 13.377 0.195723 13.377 0.437159V16.918C13.377 17.1595 13.1813 17.3552 12.9399 17.3552H12.1093C11.8679 17.3552 11.6721 17.1595 11.6721 16.918V6.55738C11.6721 6.31594 11.4764 6.12022 11.235 6.12022H5.38103C5.26641 6.12022 5.15542 6.16597 5.07413 6.24677C2.552 8.75356 1.57578 10.5955 0.498184 14.3225ZM3.77338 14.2514C3.87733 14.2514 3.97788 14.2143 4.05698 14.1469L6.47854 12.0826C6.55764 12.0152 6.65819 11.9781 6.76214 11.9781H9.70492C9.94635 11.9781 10.1421 11.7824 10.1421 11.541V8.13115C10.1421 7.88971 9.94635 7.69399 9.70492 7.69399H5.00768C4.88129 7.69399 4.76076 7.74873 4.67848 7.84467C3.50571 9.21237 2.99587 10.1214 2.37849 11.7984C2.36673 11.8304 2.35857 11.8645 2.35464 11.8983C2.254 12.7646 2.23958 13.2693 2.31 13.8799C2.33471 14.0942 2.51983 14.2514 2.73551 14.2514H3.77338Z" fill="#E9BAB5"/>
<path d="M11.0164 21.377C11.0164 22.8257 9.84206 24 8.39344 24C6.94483 24 5.77049 22.8257 5.77049 21.377C5.77049 21.2735 5.77649 21.1714 5.78815 21.071C5.93972 19.7666 7.04834 18.7541 8.39344 18.7541C9.73854 18.7541 10.8472 19.7666 10.9987 21.071C11.0104 21.1714 11.0164 21.2735 11.0164 21.377Z" fill="#E9BAB5"/>
<path d="M37.3333 21.377C37.3333 22.8257 36.159 24 34.7104 24C33.2618 24 32.0874 22.8257 32.0874 21.377C32.0874 20.8811 32.2251 20.4174 32.4642 20.0219C32.9236 19.262 33.7577 18.7541 34.7104 18.7541C35.6631 18.7541 36.4972 19.262 36.9566 20.0219C37.1957 20.4174 37.3333 20.8811 37.3333 21.377Z" fill="#E9BAB5"/>
<path d="M14.3954 6.37992C14.3954 6.2787 14.4892 6.19664 14.6049 6.19664H21.2613C21.377 6.19664 21.4708 6.2787 21.4708 6.37992V10.4122C21.4708 10.5134 21.377 10.5955 21.2613 10.5955H14.6049C14.4892 10.5955 14.3954 10.5134 14.3954 10.4122V8.39605V6.37992Z" fill="white"/>
<path d="M22.169 6.37992C22.169 6.2787 22.2628 6.19664 22.3785 6.19664H29.035C29.1507 6.19664 29.2445 6.2787 29.2445 6.37992V10.4122C29.2445 10.5134 29.1507 10.5955 29.035 10.5955H22.3785C22.2628 10.5955 22.169 10.5134 22.169 10.4122V6.37992Z" fill="white"/>
<path d="M29.9427 6.37992C29.9427 6.2787 30.0365 6.19664 30.1522 6.19664H36.8087C36.9243 6.19664 37.0181 6.2787 37.0181 6.37992V10.4122C37.0181 10.5134 36.9243 10.5955 36.8087 10.5955H30.1522C30.0365 10.5955 29.9427 10.5134 29.9427 10.4122V6.37992Z" fill="white"/>
<path d="M14.3954 11.3897C14.3954 11.2885 14.4892 11.2064 14.6049 11.2064H21.2613C21.377 11.2064 21.4708 11.2885 21.4708 11.3897V15.422C21.4708 15.5232 21.377 15.6052 21.2613 15.6052H14.6049C14.4892 15.6052 14.3954 15.5232 14.3954 15.422V11.3897Z" fill="white"/>
<path d="M22.169 11.3897C22.169 11.2885 22.2628 11.2064 22.3785 11.2064H29.035C29.1507 11.2064 29.2445 11.2885 29.2445 11.3897V15.422C29.2445 15.5232 29.1507 15.6052 29.035 15.6052H22.3785C22.2628 15.6052 22.169 15.5232 22.169 15.422V11.3897Z" fill="white"/>
<path d="M29.9427 11.3897C29.9427 11.2885 30.0365 11.2064 30.1522 11.2064H36.8087C36.9243 11.2064 37.0181 11.2885 37.0181 11.3897V15.422C37.0181 15.5232 36.9243 15.6052 36.8087 15.6052H30.1522C30.0365 15.6052 29.9427 15.5232 29.9427 15.422V11.3897Z" fill="white"/>
<path d="M14.3954 1.39306C14.3954 1.29184 14.4892 1.20978 14.6049 1.20978H21.2613C21.377 1.20978 21.4708 1.29184 21.4708 1.39306V5.42532C21.4708 5.52655 21.377 5.6086 21.2613 5.6086H14.6049C14.4892 5.6086 14.3954 5.52655 14.3954 5.42532V3.40919V1.39306Z" fill="white"/>
<path d="M22.169 1.39306C22.169 1.29184 22.2628 1.20978 22.3785 1.20978H29.035C29.1507 1.20978 29.2445 1.29184 29.2445 1.39306V5.42532C29.2445 5.52655 29.1507 5.6086 29.035 5.6086H22.3785C22.2628 5.6086 22.169 5.52655 22.169 5.42532V1.39306Z" fill="white"/>
<path d="M29.9427 1.39306C29.9427 1.29184 30.0365 1.20978 30.1522 1.20978H36.8087C36.9243 1.20978 37.0181 1.29184 37.0181 1.39306V5.42532C37.0181 5.52655 36.9243 5.6086 36.8087 5.6086H30.1522C30.0365 5.6086 29.9427 5.52655 29.9427 5.42532V1.39306Z" fill="white"/>
<path d="M37.6835 6.37993C37.6835 6.2787 37.7773 6.19664 37.893 6.19664H44.5495C44.6652 6.19664 44.7589 6.2787 44.7589 6.37993V10.4122C44.7589 10.5134 44.6652 10.5955 44.5495 10.5955H37.893C37.7773 10.5955 37.6835 10.5134 37.6835 10.4122V6.37993Z" fill="white"/>
<path d="M37.6835 11.3897C37.6835 11.2885 37.7773 11.2064 37.893 11.2064H44.5495C44.6652 11.2064 44.7589 11.2885 44.7589 11.3897V15.422C44.7589 15.5232 44.6652 15.6052 44.5495 15.6052H37.893C37.7773 15.6052 37.6835 15.5232 37.6835 15.422V11.3897Z" fill="#C0392B"/>
<path d="M37.6835 1.39306C37.6835 1.29184 37.7773 1.20978 37.893 1.20978H44.5495C44.6652 1.20978 44.7589 1.29184 44.7589 1.39306V5.42532C44.7589 5.52655 44.6652 5.60861 44.5495 5.60861H37.893C37.7773 5.60861 37.6835 5.52655 37.6835 5.42532V1.39306Z" fill="white"/>
</svg>
