<?xml version="1.0" encoding="UTF-8"?>
<svg  width="60" height="32" id="katman_2" data-name="katman 2" xmlns="http://www.w3.org/2000/svg" viewBox="0 0 60 32">
  <defs>
    <style>
      .cls-1 {
        fill: #fff;
      }

      .cls-2 {
        fill: #d1d1d1;
      }

      .cls-3 {
        fill: #7c7c7c;
      }
    </style>
  </defs>
  <path class="cls-3" d="m52.13,26.67c-2.57-1.07-6.7-2.4-11.73-2.13-5.63.29-6.45,2.27-11.73,2.13-5.74-.14-7.31-2.53-12.8-2.13-3.25.24-5.83,1.3-7.47,2.13l-2.98-6.71c-.6-1.36.39-2.89,1.88-2.89h46.28c1.33,0,2.21,1.37,1.68,2.58l-3.12,7.02Z"/>
  <path class="cls-3" d="m30.53,32c-3.31,0-5.38-.81-7.38-1.6-1.74-.68-3.53-1.39-6.3-1.6-4.25-.32-8.72.72-13.3,3.08-.52.27-1.17.06-1.44-.46s-.07-1.17.46-1.44c4.93-2.55,9.79-3.66,14.44-3.32,3.08.23,5.12,1.04,6.92,1.74,2.04.8,3.78,1.48,6.85,1.45,2.87-.04,4.47-.69,6.32-1.45,1.64-.67,3.5-1.43,6.38-1.74,4.94-.53,10.17.59,15.53,3.31.53.27.74.91.47,1.43-.27.53-.91.74-1.43.47-4.99-2.53-9.81-3.57-14.34-3.09-2.58.27-4.22.94-5.8,1.59-1.88.77-3.83,1.57-7.1,1.61-.1,0-.19,0-.28,0Z"/>
  <rect class="cls-3" x="9.47" y="12.8" width="6.4" height="3.2"/>
  <rect class="cls-3" x="18" y="12.8" width="6.4" height="3.2"/>
  <rect class="cls-3" x="26.53" y="12.8" width="6.4" height="3.2"/>
  <rect class="cls-3" x="35.07" y="12.8" width="6.4" height="3.2"/>
  <rect class="cls-3" x="26.53" y="8.53" width="6.4" height="3.2"/>
  <rect class="cls-3" x="18" y="8.53" width="6.4" height="3.2"/>
  <rect class="cls-3" x="9.47" y="8.53" width="6.4" height="3.2"/>
  <rect class="cls-3" x="18" y="4.27" width="6.4" height="3.2"/>
  <rect class="cls-3" x="26.53" y="4.27" width="6.4" height="3.2"/>
  <path class="cls-3" d="m49.5,6.4h-.57v.57c0,.27-.22.5-.5.5h-.56v.56c0,.28.22.5.5.5h1.13c.28,0,.5-.22.5-.5v-1.13c0-.28-.22-.5-.5-.5Zm-4.27,0h-.56v.57c0,.27-.23.5-.5.5h-.57v.56c0,.28.22.5.5.5h1.13c.28,0,.5-.22.5-.5v-1.13c0-.28-.22-.5-.5-.5Zm-4.26,0h-.57v.57c0,.27-.22.5-.5.5h-.57v.56c0,.28.23.5.5.5h1.14c.27,0,.5-.22.5-.5v-1.13c0-.28-.23-.5-.5-.5Z"/>
  <path class="cls-2" d="m46.8,4.27V0h-2.13v4.27h-8.54v2.13h-1.06v2.13h1.06v3.2h6.4v4.27h9.6V4.27h-5.33Zm-5.33,3.76c0,.28-.23.5-.5.5h-1.14c-.27,0-.5-.22-.5-.5v-1.13c0-.28.23-.5.5-.5h1.14c.27,0,.5.22.5.5v1.13Zm4.26,0c0,.28-.22.5-.5.5h-1.13c-.28,0-.5-.22-.5-.5v-1.13c0-.28.22-.5.5-.5h1.13c.28,0,.5.22.5.5v1.13Zm4.27,0c0,.28-.22.5-.5.5h-1.13c-.28,0-.5-.22-.5-.5v-1.13c0-.28.22-.5.5-.5h1.13c.28,0,.5.22.5.5v1.13Z"/>
  <path class="cls-1" d="m41.47,6.9v1.13c0,.28-.23.5-.5.5h-1.14c-.27,0-.5-.22-.5-.5v-1.13c0-.28.23-.5.5-.5h1.14c.27,0,.5.22.5.5Z"/>
  <rect class="cls-1" x="43.6" y="6.4" width="2.13" height="2.13" rx=".5" ry=".5"/>
  <rect class="cls-1" x="47.87" y="6.4" width="2.13" height="2.13" rx=".5" ry=".5"/>
</svg>