<?xml version="1.0" encoding="UTF-8"?>
<svg width="61" height="32" viewBox="0 0 61 32" fill="none" xmlns="http://www.w3.org/2000/svg">
  <defs>
    <style>
      .cls-1, .cls-2, .cls-3 {
        fill: #f39c12;
      }

      .cls-1, .cls-3 {
        opacity: .3;
      }

      .cls-2 {
        opacity: .5;
      }

      .cls-4 {
        fill: #f6f6f7;
      }

      .cls-3 {
        fill-rule: evenodd;
      }
    </style>
  </defs>
  <path class="cls-3" d="M60.3,19.1c.02,.05,.02,.11,.02,.16v5.63l.47,.47c.11,.11,.17,.26,.17,.41v.81c0,.32-.26,.58-.58,.58h-5.36c-.26,0-.47,.21-.47,.47s-.21,.47-.47,.47h0c-.14,0-.26-.11-.29-.25-.32-1.94-2-3.42-4.03-3.42-1.16,0-2.2,.48-2.94,1.25-1.07,1.11-2.29,2.42-3.84,2.42H22.32c-.15,0-.29-.06-.4-.15l-1.18-1.09c-.11-.1-.25-.15-.4-.15h-.14c-1.14,0-2.13-.73-3.03-1.43-.69-.53-1.55-.85-2.49-.85s-1.8,.32-2.49,.85c-.9,.7-1.89,1.43-3.03,1.43H.58C.26,26.7,0,26.43,0,26.11V.58C0,.26,.26,0,.58,0H42.55c.32,0,.58,.26,.58,.58V22.56c0,.32,.26,.58,.58,.58h1.11c.32,0,.58-.26,.58-.58V8.74c0-.32,.26-.58,.58-.58h7.81c.15,0,.3,.06,.41,.17,3.36,3.34,4.66,5.8,6.1,10.77Zm-4.37-.09c-.14,0-.27-.05-.38-.14l-3.23-2.75c-.11-.09-.24-.14-.38-.14h-3.92c-.32,0-.58-.26-.58-.58v-4.55c0-.32,.26-.58,.58-.58h6.26c.17,0,.33,.07,.44,.2,1.56,1.82,2.24,3.04,3.07,5.27,.02,.04,.03,.09,.03,.13,.13,1.15,.15,1.83,.06,2.64-.03,.29-.28,.5-.57,.5h-1.38Z"/>
  <path class="cls-1" d="M46.28,28.5c0,1.93,1.57,3.5,3.5,3.5s3.5-1.57,3.5-3.5c0-.14,0-.27-.02-.41-.2-1.74-1.68-3.09-3.47-3.09s-3.27,1.35-3.47,3.09c-.02,.13-.02,.27-.02,.41Z"/>
  <path class="cls-1" d="M11.19,28.5c0,1.93,1.57,3.5,3.5,3.5s3.5-1.57,3.5-3.5c0-.66-.18-1.28-.5-1.81-.61-1.01-1.72-1.69-3-1.69s-2.38,.68-2.99,1.69c-.32,.53-.5,1.15-.5,1.81Z"/>
  <path class="cls-4" d="M41.78,8.51c0-.13-.13-.24-.28-.24h-8.88c-.15,0-.28,.11-.28,.24v5.38c0,.14,.12,.24,.28,.24h8.88c.15,0,.28-.11,.28-.24v-5.38Z"/>
  <path class="cls-4" d="M31.41,8.51c0-.13-.12-.24-.28-.24h-8.88c-.15,0-.28,.11-.28,.24v5.38c0,.14,.13,.24,.28,.24h8.88c.15,0,.28-.11,.28-.24v-5.38Z"/>
  <path class="cls-4" d="M21.05,8.51c0-.13-.12-.24-.28-.24H11.89c-.15,0-.28,.11-.28,.24v5.38c0,.14,.13,.24,.28,.24h8.88c.15,0,.28-.11,.28-.24v-5.38Z"/>
  <path class="cls-4" d="M10.72,15.16c0-.13-.12-.24-.28-.24H1.57c-.15,0-.28,.11-.28,.24v5.38c0,.14,.13,.24,.28,.24H10.45c.15,0,.28-.11,.28-.24v-5.38Z"/>
  <path class="cls-4" d="M41.78,15.19c0-.14-.13-.24-.28-.24h-8.88c-.15,0-.28,.11-.28,.24v5.38c0,.14,.12,.24,.28,.24h8.88c.15,0,.28-.11,.28-.24v-5.38Z"/>
  <path class="cls-4" d="M31.41,15.19c0-.14-.12-.24-.28-.24h-8.88c-.15,0-.28,.11-.28,.24v5.38c0,.14,.13,.24,.28,.24h8.88c.15,0,.28-.11,.28-.24v-5.38Z"/>
  <path class="cls-4" d="M21.05,15.19c0-.14-.12-.24-.28-.24H11.89c-.15,0-.28,.11-.28,.24v5.38c0,.14,.13,.24,.28,.24h8.88c.15,0,.28-.11,.28-.24v-5.38Z"/>
  <path class="cls-4" d="M41.78,1.86c0-.13-.13-.24-.28-.24h-8.88c-.15,0-.28,.11-.28,.24V7.23c0,.13,.12,.24,.28,.24h8.88c.15,0,.28-.11,.28-.24V1.86Z"/>
  <path class="cls-4" d="M31.41,1.86c0-.13-.12-.24-.28-.24h-8.88c-.15,0-.28,.11-.28,.24V7.23c0,.13,.13,.24,.28,.24h8.88c.15,0,.28-.11,.28-.24V1.86Z"/>
  <path class="cls-4" d="M21.05,1.86c0-.13-.12-.24-.28-.24H11.89c-.15,0-.28,.11-.28,.24V7.23c0,.13,.13,.24,.28,.24h8.88c.15,0,.28-.11,.28-.24V1.86Z"/>
  <path class="cls-4" d="M10.72,8.51c0-.13-.13-.24-.28-.24H1.57c-.15,0-.28,.11-.28,.24v5.38c0,.14,.13,.24,.28,.24H10.45c.15,0,.28-.11,.28-.24v-5.38Z"/>
  <path class="cls-2" d="M41.78,15.19c0-.14-.13-.24-.28-.24h-8.88c-.15,0-.28,.11-.28,.24v5.38c0,.14,.13,.24,.28,.24h8.88c.15,0,.28-.11,.28-.24v-5.38Z"/>
  <path class="cls-2" d="M41.78,8.52c0-.14-.13-.24-.28-.24h-8.88c-.15,0-.28,.11-.28,.24v5.38c0,.14,.13,.24,.28,.24h8.88c.15,0,.28-.11,.28-.24v-5.38Z"/>
  <path class="cls-2" d="M31.41,15.16c0-.14-.13-.24-.28-.24h-8.88c-.15,0-.28,.11-.28,.24v5.38c0,.14,.13,.24,.28,.24h8.88c.15,0,.28-.11,.28-.24v-5.38Z"/>
  <path class="cls-4" d="M10.72,1.86c0-.13-.13-.24-.28-.24H1.57c-.15,0-.28,.11-.28,.24V7.23c0,.13,.13,.24,.28,.24H10.45c.15,0,.28-.11,.28-.24V1.86Z"/>
</svg>