<svg width="61" height="32" viewBox="0 0 61 32" fill="none" xmlns="http://www.w3.org/2000/svg">
<path fill-rule="evenodd" clip-rule="evenodd" d="M60.3045 19.0967C60.3197 19.1491 60.3276 19.2044 60.3276 19.2589V24.8889L60.798 25.3593C60.9073 25.4686 60.9688 25.6169 60.9688 25.7715V26.5792C60.9688 26.9011 60.7078 27.1621 60.3859 27.1621H55.0234C54.7659 27.1621 54.5571 27.3709 54.5571 27.6284C54.5571 27.8859 54.3483 28.0947 54.0908 28.0947V28.0947C53.947 28.0947 53.8277 27.9853 53.8046 27.8434C53.4895 25.9035 51.8064 24.4226 49.7775 24.4226C48.6223 24.4226 47.5793 24.9026 46.837 25.6742C45.7678 26.7854 44.5427 28.0947 43.0006 28.0947H22.3187C22.1722 28.0947 22.031 28.0395 21.9233 27.9401L20.7428 26.8504C20.6351 26.751 20.4939 26.6958 20.3474 26.6958H20.2103C19.0695 26.6958 18.0795 25.9644 17.1757 25.2682C16.4871 24.7379 15.6245 24.4226 14.6882 24.4226C13.752 24.4226 12.8893 24.7379 12.2008 25.2682C11.2969 25.9644 10.307 26.6958 9.16615 26.6958H0.582594C0.260679 26.6958 -0.000284232 26.4348 -0.000284232 26.1129V0.582878C-0.000284232 0.260963 0.260679 0 0.582594 0H42.5498C42.8717 0 43.1327 0.260963 43.1327 0.582878V22.5574C43.1327 22.8793 43.3936 23.1403 43.7156 23.1403H44.823C45.1449 23.1403 45.4059 22.8793 45.4059 22.5574V8.74317C45.4059 8.42125 45.6669 8.16029 45.9888 8.16029H53.794C53.9469 8.16029 54.0949 8.22129 54.2032 8.32903C57.5661 11.6714 58.8677 14.1273 60.3045 19.0967ZM55.9376 19.0018C55.799 19.0018 55.6649 18.9524 55.5594 18.8625L52.3307 16.1102C52.2252 16.0202 52.0912 15.9709 51.9526 15.9709H48.0289C47.7069 15.9709 47.446 15.7099 47.446 15.388V10.8415C47.446 10.5196 47.7069 10.2587 48.0289 10.2587H54.2918C54.4604 10.2587 54.6211 10.3316 54.7308 10.4596C56.2945 12.2832 56.9743 13.4952 57.7974 15.7312C57.8131 15.7738 57.824 15.8193 57.8292 15.8644C57.9634 17.0194 57.9826 17.6924 57.8887 18.5066C57.8558 18.7922 57.609 19.0018 57.3214 19.0018H55.9376Z" fill="#BADBEF"/>
<path d="M46.2802 28.5027C46.2802 30.4342 47.846 32 49.7775 32C51.709 32 53.2748 30.4342 53.2748 28.5027C53.2748 28.3647 53.2668 28.2286 53.2512 28.0947C53.0491 26.3555 51.571 25.0055 49.7775 25.0055C47.984 25.0055 46.5059 26.3555 46.3038 28.0947C46.2882 28.2286 46.2802 28.3647 46.2802 28.5027Z" fill="#BADBEF"/>
<path d="M11.191 28.5027C11.191 30.4342 12.7568 32 14.6882 32C16.6197 32 18.1855 30.4342 18.1855 28.5027C18.1855 27.8415 18.002 27.2232 17.6832 26.6958C17.0706 25.6827 15.9585 25.0055 14.6882 25.0055C13.418 25.0055 12.3059 25.6827 11.6933 26.6958C11.3745 27.2232 11.191 27.8415 11.191 28.5027Z" fill="#BADBEF"/>
<path d="M41.7754 8.50657C41.7754 8.3716 41.6503 8.26219 41.4961 8.26219H32.6208C32.4665 8.26219 32.3415 8.3716 32.3415 8.50657V13.8829C32.3415 14.0179 32.4665 14.1273 32.6208 14.1273H41.4961C41.6503 14.1273 41.7754 14.0179 41.7754 13.8829V11.1947V8.50657Z" fill="#F6F6F7"/>
<path d="M31.4105 8.50657C31.4105 8.3716 31.2855 8.26219 31.1312 8.26219H22.2559C22.1017 8.26219 21.9766 8.3716 21.9766 8.50657V13.8829C21.9766 14.0179 22.1017 14.1273 22.2559 14.1273H31.1312C31.2855 14.1273 31.4105 14.0179 31.4105 13.8829V8.50657Z" fill="#F6F6F7"/>
<path d="M21.0456 8.50657C21.0456 8.3716 20.9206 8.26219 20.7663 8.26219H11.891C11.7368 8.26219 11.6117 8.3716 11.6117 8.50657V13.8829C11.6117 14.0179 11.7368 14.1273 11.891 14.1273H20.7663C20.9206 14.1273 21.0456 14.0179 21.0456 13.8829V8.50657Z" fill="#F6F6F7"/>
<path d="M41.7754 15.1863C41.7754 15.0513 41.6503 14.9419 41.4961 14.9419H32.6208C32.4665 14.9419 32.3415 15.0513 32.3415 15.1863V20.5626C32.3415 20.6976 32.4665 20.807 32.6208 20.807H41.4961C41.6503 20.807 41.7754 20.6976 41.7754 20.5626V15.1863Z" fill="#F6F6F7"/>
<path d="M31.4105 15.1863C31.4105 15.0513 31.2855 14.9419 31.1312 14.9419H22.2559C22.1017 14.9419 21.9766 15.0513 21.9766 15.1863V20.5626C21.9766 20.6976 22.1017 20.807 22.2559 20.807H31.1312C31.2855 20.807 31.4105 20.6976 31.4105 20.5626V15.1863Z" fill="#F6F6F7"/>
<path d="M21.0456 15.1863C21.0456 15.0513 20.9206 14.9419 20.7663 14.9419H11.891C11.7368 14.9419 11.6117 15.0513 11.6117 15.1863V20.5626C11.6117 20.6976 11.7368 20.807 11.891 20.807H20.7663C20.9206 20.807 21.0456 20.6976 21.0456 20.5626V15.1863Z" fill="#F6F6F7"/>
<path d="M41.7754 1.85742C41.7754 1.72245 41.6503 1.61304 41.4961 1.61304H32.6208C32.4665 1.61304 32.3415 1.72245 32.3415 1.85742V7.23376C32.3415 7.36873 32.4665 7.47814 32.6208 7.47814H41.4961C41.6503 7.47814 41.7754 7.36873 41.7754 7.23376V4.54559V1.85742Z" fill="#F6F6F7"/>
<path d="M31.4105 1.85742C31.4105 1.72245 31.2855 1.61304 31.1312 1.61304H22.2559C22.1017 1.61304 21.9766 1.72245 21.9766 1.85742V7.23376C21.9766 7.36873 22.1017 7.47814 22.2559 7.47814H31.1312C31.2855 7.47814 31.4105 7.36873 31.4105 7.23376V1.85742Z" fill="#F6F6F7"/>
<path d="M21.0456 1.85742C21.0456 1.72245 20.9206 1.61304 20.7663 1.61304H11.891C11.7368 1.61304 11.6117 1.72245 11.6117 1.85742V7.23376C11.6117 7.36873 11.7368 7.47814 11.891 7.47814H20.7663C20.9206 7.47814 21.0456 7.36873 21.0456 7.23376V1.85742Z" fill="#F6F6F7"/>
<path d="M10.7246 8.50657C10.7246 8.3716 10.5995 8.26219 10.4453 8.26219H1.56995C1.4157 8.26219 1.29066 8.3716 1.29066 8.50657V13.8829C1.29066 14.0179 1.4157 14.1273 1.56995 14.1273H10.4453C10.5995 14.1273 10.7246 14.0179 10.7246 13.8829V8.50657Z" fill="#F6F6F7"/>
<path d="M10.7246 15.1863C10.7246 15.0513 10.5995 14.9419 10.4453 14.9419H1.56995C1.4157 14.9419 1.29066 15.0513 1.29066 15.1863V20.5626C1.29066 20.6976 1.4157 20.807 1.56995 20.807H10.4453C10.5995 20.807 10.7246 20.6976 10.7246 20.5626V15.1863Z" fill="#3B97D2"/>
<path d="M10.7246 1.85742C10.7246 1.72245 10.5995 1.61304 10.4453 1.61304H1.56995C1.4157 1.61304 1.29066 1.72245 1.29066 1.85742V7.23376C1.29066 7.36873 1.4157 7.47814 1.56995 7.47814H10.4453C10.5995 7.47814 10.7246 7.36873 10.7246 7.23376V1.85742Z" fill="#F6F6F7"/>
</svg>
