<svg width="60" height="32" viewBox="0 0 60 32" fill="none" xmlns="http://www.w3.org/2000/svg">
<path d="M45.6921 28.5203C45.6921 30.4421 47.2073 32 49.0764 32C50.9455 32 52.4607 30.4421 52.4607 28.5203C52.4607 28.3829 52.453 28.2475 52.438 28.1143C52.2424 26.3838 50.812 25.0405 49.0764 25.0405C47.3409 25.0405 45.9105 26.3838 45.7149 28.1143C45.6998 28.2475 45.6921 28.3829 45.6921 28.5203Z" fill="#BADBEF"/>
<path d="M11.7361 28.5203C11.7361 30.4421 13.2513 32 15.1204 32C16.9895 32 18.5047 30.4421 18.5047 28.5203C18.5047 27.8624 18.3271 27.2471 18.0186 26.7224C17.4258 25.7144 16.3497 25.0405 15.1204 25.0405C13.8912 25.0405 12.815 25.7144 12.2222 26.7224C11.9136 27.2471 11.7361 27.8624 11.7361 28.5203Z" fill="#BADBEF"/>
<path fill-rule="evenodd" clip-rule="evenodd" d="M59.2858 19.3228C59.2858 19.2685 59.2781 19.2135 59.2635 19.1614C57.8731 14.217 56.6135 11.7734 53.3592 8.44774C53.2544 8.34054 53.1111 8.27985 52.9633 8.27985H45.4101C45.0986 8.27985 44.846 8.5395 44.846 8.8598V22.6047C44.846 22.925 44.5935 23.1847 44.282 23.1847H43.2103C43.0206 23.1847 42.8529 23.0885 42.7506 22.9409H0.906248V26.1425C0.906248 26.4628 1.15878 26.7224 1.4703 26.7224H11.3692C11.4979 26.7224 11.6144 26.6467 11.6775 26.5314C12.3544 25.2954 13.6426 24.4606 15.1204 24.4606C16.5982 24.4606 17.8864 25.2954 18.5633 26.5314C18.6264 26.6467 18.7429 26.7224 18.8716 26.7224H20.5968C20.7386 26.7224 20.8752 26.7773 20.9794 26.8762L22.1218 27.9605C22.226 28.0594 22.3626 28.1143 22.5044 28.1143H44.841C45.015 28.1143 45.1591 27.9781 45.1896 27.802C45.5195 25.9025 47.1342 24.4606 49.0764 24.4606C51.0398 24.4606 52.6685 25.9341 52.9735 27.8643C52.9958 28.0055 53.1113 28.1143 53.2504 28.1143C53.4996 28.1143 53.7017 27.9066 53.7017 27.6503C53.7017 27.3941 53.9037 27.1864 54.1529 27.1864H59.3422C59.6537 27.1864 59.9062 26.9267 59.9062 26.6064V25.8027C59.9062 25.6489 59.8468 25.5014 59.741 25.3926L59.2858 24.9246V19.3228ZM54.6716 18.9284C54.7737 19.0179 54.9034 19.067 55.0376 19.067H56.3767C56.655 19.067 56.8938 18.8585 56.9257 18.5742C57.0166 17.7641 56.998 17.0946 56.8681 15.9453C56.863 15.9004 56.8525 15.8552 56.8373 15.8128C56.0408 13.588 55.3829 12.382 53.8697 10.5676C53.7636 10.4403 53.6081 10.3677 53.445 10.3677H47.3843C47.0727 10.3677 46.8202 10.6273 46.8202 10.9476V15.4713C46.8202 15.7916 47.0727 16.0512 47.3843 16.0512H51.1813C51.3154 16.0512 51.4451 16.1004 51.5472 16.1898L54.6716 18.9284Z" fill="#BADBEF"/>
<path fill-rule="evenodd" clip-rule="evenodd" d="M41.3322 0C41.5908 0 41.8004 0.215554 41.8004 0.481454V21.6655C41.8004 21.9314 41.5908 22.1469 41.3322 22.1469H1.3745C1.11589 22.1469 0.906248 21.9314 0.906248 21.6655V0.481455C0.906248 0.215555 1.11589 0 1.3745 0H41.3322ZM38.8348 1.60485C38.7917 1.60485 38.7568 1.64077 38.7568 1.68509V20.4618C38.7568 20.5061 38.7917 20.5421 38.8348 20.5421C38.8779 20.5421 38.9129 20.5061 38.9129 20.4618V1.68509C38.9129 1.64077 38.8779 1.60485 38.8348 1.60485ZM36.2594 1.68509C36.2594 1.64077 36.2944 1.60485 36.3375 1.60485C36.3806 1.60485 36.4155 1.64077 36.4155 1.68509L36.4155 20.4618C36.4155 20.5061 36.3806 20.5421 36.3375 20.5421C36.2944 20.5421 36.2594 20.5061 36.2594 20.4618L36.2594 1.68509ZM33.8401 1.60485C33.797 1.60485 33.7621 1.64077 33.7621 1.68509L33.7621 20.4618C33.7621 20.5061 33.797 20.5421 33.8401 20.5421C33.8832 20.5421 33.9182 20.5061 33.9182 20.4618L33.9182 1.68509C33.9182 1.64077 33.8832 1.60485 33.8401 1.60485ZM31.2647 1.68509C31.2647 1.64077 31.2997 1.60485 31.3428 1.60485C31.3859 1.60485 31.4208 1.64077 31.4208 1.68509L31.4208 20.4618C31.4208 20.5061 31.3859 20.5421 31.3428 20.5421C31.2997 20.5421 31.2647 20.5061 31.2647 20.4618L31.2647 1.68509ZM28.8454 1.60485C28.8023 1.60485 28.7674 1.64077 28.7674 1.68509V20.4618C28.7674 20.5061 28.8023 20.5421 28.8454 20.5421C28.8885 20.5421 28.9234 20.5061 28.9234 20.4618V1.68509C28.9234 1.64077 28.8885 1.60485 28.8454 1.60485ZM26.27 1.68509C26.27 1.64077 26.3049 1.60485 26.348 1.60485C26.3911 1.60485 26.4261 1.64077 26.4261 1.68509V20.4618C26.4261 20.5061 26.3911 20.5421 26.348 20.5421C26.3049 20.5421 26.27 20.5061 26.27 20.4618V1.68509ZM23.8507 1.60485C23.8076 1.60485 23.7726 1.64077 23.7726 1.68509V20.4618C23.7726 20.5061 23.8076 20.5421 23.8507 20.5421C23.8938 20.5421 23.9287 20.5061 23.9287 20.4618V1.68509C23.9287 1.64077 23.8938 1.60485 23.8507 1.60485ZM21.2753 1.68509C21.2753 1.64077 21.3102 1.60485 21.3533 1.60485C21.3964 1.60485 21.4314 1.64077 21.4314 1.68509V20.4618C21.4314 20.5061 21.3964 20.5421 21.3533 20.5421C21.3102 20.5421 21.2753 20.5061 21.2753 20.4618V1.68509ZM18.856 1.60485C18.8129 1.60485 18.7779 1.64077 18.7779 1.68509L18.7779 20.4618C18.7779 20.5061 18.8129 20.5421 18.856 20.5421C18.8991 20.5421 18.934 20.5061 18.934 20.4618L18.934 1.68509C18.934 1.64077 18.8991 1.60485 18.856 1.60485ZM16.2806 1.68509C16.2806 1.64077 16.3155 1.60485 16.3586 1.60485C16.4017 1.60485 16.4367 1.64077 16.4367 1.68509V20.4618C16.4367 20.5061 16.4017 20.5421 16.3586 20.5421C16.3155 20.5421 16.2806 20.5061 16.2806 20.4618L16.2806 1.68509ZM13.8613 1.60485C13.8182 1.60485 13.7832 1.64077 13.7832 1.68509L13.7832 20.4618C13.7832 20.5061 13.8182 20.5421 13.8613 20.5421C13.9044 20.5421 13.9393 20.5061 13.9393 20.4618L13.9393 1.68509C13.9393 1.64077 13.9044 1.60485 13.8613 1.60485ZM11.2859 1.68509C11.2859 1.64077 11.3208 1.60485 11.3639 1.60485C11.407 1.60485 11.442 1.64077 11.442 1.68509L11.442 20.4618C11.442 20.5061 11.407 20.5421 11.3639 20.5421C11.3208 20.5421 11.2859 20.5061 11.2859 20.4618L11.2859 1.68509ZM8.86656 1.60485C8.82345 1.60485 8.78851 1.64077 8.78851 1.68509L8.78852 20.4618C8.78852 20.5061 8.82346 20.5421 8.86656 20.5421C8.90966 20.5421 8.9446 20.5061 8.9446 20.4618L8.9446 1.68509C8.9446 1.64077 8.90966 1.60485 8.86656 1.60485ZM6.29116 1.68509C6.29116 1.64077 6.3261 1.60485 6.3692 1.60485C6.4123 1.60485 6.44724 1.64077 6.44724 1.68509L6.44725 20.4618C6.44725 20.5061 6.41231 20.5421 6.36921 20.5421C6.3261 20.5421 6.29116 20.5061 6.29116 20.4618V1.68509ZM3.87184 1.60485C3.82874 1.60485 3.79381 1.64077 3.79381 1.68509L3.79381 20.4618C3.79381 20.5061 3.82875 20.5421 3.87185 20.5421C3.91495 20.5421 3.94989 20.5061 3.94989 20.4618L3.94989 1.68509C3.94989 1.64077 3.91495 1.60485 3.87184 1.60485Z" fill="#3B97D2"/>
</svg>
