<svg width="61" height="32" viewBox="0 0 61 32" fill="none" xmlns="http://www.w3.org/2000/svg">
<path fill-rule="evenodd" clip-rule="evenodd" d="M60.3045 19.0967C60.3197 19.1491 60.3276 19.2044 60.3276 19.2589V24.8889L60.798 25.3593C60.9073 25.4686 60.9688 25.6169 60.9688 25.7715V26.5792C60.9688 26.9011 60.7078 27.1621 60.3859 27.1621H55.0234C54.7659 27.1621 54.5571 27.3709 54.5571 27.6284C54.5571 27.8859 54.3483 28.0947 54.0908 28.0947H53.8375C53.6328 26.0329 51.8932 24.4226 49.7775 24.4226C47.6618 24.4226 45.9222 26.0329 45.7175 28.0947H22.3187C22.1721 28.0947 22.031 28.0395 21.9233 27.9401L20.7428 26.8504C20.6351 26.751 20.4939 26.6958 20.3474 26.6958H18.3475C17.6811 25.3488 16.2928 24.4226 14.6882 24.4226C13.0836 24.4226 11.6954 25.3488 11.029 26.6958H0.582578C0.260664 26.6958 -0.000299819 26.4348 -0.000299819 26.1129V0.582878C-0.000299819 0.260963 0.260664 0 0.582578 0H42.5498C42.8717 0 43.1327 0.260963 43.1327 0.582878V22.5574C43.1327 22.8793 43.3936 23.1403 43.7156 23.1403H44.823C45.1449 23.1403 45.4059 22.8793 45.4059 22.5574V8.74317C45.4059 8.42125 45.6669 8.16029 45.9888 8.16029H53.794C53.9469 8.16029 54.0949 8.22129 54.2032 8.32903C57.5661 11.6714 58.8677 14.1273 60.3045 19.0967ZM55.9376 19.0018C55.799 19.0018 55.6649 18.9524 55.5594 18.8625L52.3307 16.1102C52.2252 16.0202 52.0912 15.9709 51.9526 15.9709H48.0289C47.7069 15.9709 47.446 15.7099 47.446 15.388V10.8415C47.446 10.5196 47.7069 10.2587 48.0289 10.2587H54.2918C54.4604 10.2587 54.6211 10.3316 54.7308 10.4596C56.2945 12.2832 56.9743 13.4952 57.7974 15.7312C57.8131 15.7738 57.824 15.8193 57.8292 15.8644C57.9634 17.0194 57.9826 17.6924 57.8887 18.5066C57.8558 18.7922 57.609 19.0018 57.3214 19.0018H55.9376Z" fill="#BADBEF"/>
<path d="M46.2802 28.5027C46.2802 30.4342 47.846 32 49.7775 32C51.709 32 53.2748 30.4342 53.2748 28.5027C53.2748 28.3647 53.2668 28.2286 53.2512 28.0947C53.0491 26.3555 51.571 25.0055 49.7775 25.0055C47.984 25.0055 46.5059 26.3555 46.3038 28.0947C46.2882 28.2286 46.2802 28.3647 46.2802 28.5027Z" fill="#BADBEF"/>
<path d="M11.191 28.5027C11.191 30.4342 12.7567 32 14.6882 32C16.6197 32 18.1855 30.4342 18.1855 28.5027C18.1855 27.8415 18.002 27.2232 17.6831 26.6958C17.0706 25.6827 15.9585 25.0055 14.6882 25.0055C13.418 25.0055 12.3059 25.6827 11.6933 26.6958C11.3745 27.2232 11.191 27.8415 11.191 28.5027Z" fill="#BADBEF"/>
<path d="M41.7344 2.00476C41.7344 1.79907 41.5672 1.63232 41.3609 1.63232H29.4927C29.2865 1.63232 29.1193 1.79907 29.1193 2.00476V10.1984C29.1193 10.404 29.2865 10.5708 29.4927 10.5708H41.3609C41.5672 10.5708 41.7344 10.404 41.7344 10.1984V6.10156V2.00476Z" fill="#3B97D2"/>
<path d="M27.8744 2.00476C27.8744 1.79907 27.7071 1.63232 27.5009 1.63232H15.6327C15.4265 1.63232 15.2592 1.79907 15.2592 2.00476V10.1984C15.2592 10.404 15.4265 10.5708 15.6327 10.5708H27.5009C27.7071 10.5708 27.8744 10.404 27.8744 10.1984V2.00476Z" fill="#3B97D2"/>
<path d="M14.0143 2.00476C14.0143 1.79907 13.8471 1.63232 13.6409 1.63232H1.7727C1.56644 1.63232 1.39923 1.79907 1.39923 2.00476V10.1984C1.39923 10.404 1.56644 10.5708 1.7727 10.5708H13.6409C13.8471 10.5708 14.0143 10.404 14.0143 10.1984V2.00476Z" fill="#3B97D2"/>
<path d="M41.7344 12.1847C41.7344 11.979 41.5672 11.8122 41.3609 11.8122H29.4927C29.2865 11.8122 29.1193 11.979 29.1193 12.1847V20.3783C29.1193 20.584 29.2865 20.7507 29.4927 20.7507H41.3609C41.5672 20.7507 41.7344 20.584 41.7344 20.3783V12.1847Z" fill="#3B97D2"/>
<path d="M27.8744 12.1847C27.8744 11.979 27.7071 11.8122 27.5009 11.8122H15.6327C15.4265 11.8122 15.2592 11.979 15.2592 12.1847V20.3783C15.2592 20.584 15.4265 20.7507 15.6327 20.7507H27.5009C27.7071 20.7507 27.8744 20.584 27.8744 20.3783V12.1847Z" fill="#3B97D2"/>
<path d="M14.0143 12.1847C14.0143 11.979 13.8471 11.8122 13.6409 11.8122H1.7727C1.56644 11.8122 1.39923 11.979 1.39923 12.1847V20.3783C1.39923 20.584 1.56644 20.7507 1.7727 20.7507H13.6409C13.8471 20.7507 14.0143 20.584 14.0143 20.3783V12.1847Z" fill="#3B97D2"/>
</svg>
