<svg width="46" height="24" viewBox="0 0 46 24" fill="none" xmlns="http://www.w3.org/2000/svg">
<path fill-rule="evenodd" clip-rule="evenodd" d="M0.498184 14.3225C0.486821 14.3618 0.480874 14.4033 0.480874 14.4442V18.6667L0.128041 19.0195C0.0460576 19.1015 0 19.2127 0 19.3286V19.9344C0 20.1759 0.195722 20.3716 0.437158 20.3716H4.45902C4.65216 20.3716 4.80874 20.5282 4.80874 20.7213C4.80874 20.9145 4.96532 21.071 5.15847 21.071C5.2663 21.071 5.35579 20.989 5.37308 20.8826C5.60946 19.4276 6.87174 18.3169 8.39344 18.3169C9.01581 18.3169 9.59478 18.5027 10.0779 18.8219C11.3646 19.6718 12.6133 21.071 14.1553 21.071H28.9875C29.0974 21.071 29.2033 21.0296 29.2841 20.9551L30.1695 20.1378C30.2502 20.0632 30.3561 20.0219 30.466 20.0219C31.3846 20.0219 32.1812 19.4257 32.9273 18.8898C33.4294 18.5293 34.0451 18.3169 34.7104 18.3169C35.2458 18.3169 35.7491 18.4544 36.1869 18.696C37.1857 19.2473 38.1768 20.0219 39.3177 20.0219H45.2896C45.5311 20.0219 45.7268 19.8261 45.7268 19.5847V0.437158C45.7268 0.195723 45.5311 0 45.2896 0H13.8142C13.5728 0 13.377 0.195723 13.377 0.437159V16.918C13.377 17.1595 13.1813 17.3552 12.9399 17.3552H12.1093C11.8679 17.3552 11.6721 17.1595 11.6721 16.918V6.55738C11.6721 6.31594 11.4764 6.12022 11.235 6.12022H5.38103C5.26641 6.12022 5.15542 6.16597 5.07413 6.24677C2.552 8.75356 1.57578 10.5955 0.498184 14.3225ZM3.77338 14.2514C3.87733 14.2514 3.97788 14.2143 4.05698 14.1469L6.47854 12.0826C6.55764 12.0152 6.65819 11.9781 6.76214 11.9781H9.70492C9.94635 11.9781 10.1421 11.7824 10.1421 11.541V8.13115C10.1421 7.88971 9.94635 7.69399 9.70492 7.69399H5.00768C4.88129 7.69399 4.76076 7.74873 4.67848 7.84467C3.50571 9.21237 2.99587 10.1214 2.37849 11.7984C2.36673 11.8304 2.35857 11.8645 2.35464 11.8983C2.254 12.7646 2.23958 13.2693 2.31 13.8799C2.33471 14.0942 2.51983 14.2514 2.73551 14.2514H3.77338Z" fill="#FBDCAC"/>
<path d="M11.0164 21.377C11.0164 22.8257 9.84206 24 8.39344 24C6.94483 24 5.77049 22.8257 5.77049 21.377C5.77049 21.2735 5.77649 21.1714 5.78815 21.071C5.93972 19.7666 7.04834 18.7541 8.39344 18.7541C9.73854 18.7541 10.8472 19.7666 10.9987 21.071C11.0104 21.1714 11.0164 21.2735 11.0164 21.377Z" fill="#FBDCAC"/>
<path d="M37.3333 21.377C37.3333 22.8257 36.159 24 34.7104 24C33.2618 24 32.0874 22.8257 32.0874 21.377C32.0874 20.8811 32.2251 20.4174 32.4642 20.0219C32.9236 19.262 33.7577 18.7541 34.7104 18.7541C35.6631 18.7541 36.4972 19.262 36.9566 20.0219C37.1957 20.4174 37.3333 20.8811 37.3333 21.377Z" fill="#FBDCAC"/>
<path d="M14.3955 6.37913C14.3955 6.27791 14.4893 6.19585 14.605 6.19585H21.2615C21.3772 6.19585 21.4709 6.27791 21.4709 6.37913V10.4114C21.4709 10.5126 21.3772 10.5947 21.2615 10.5947H14.605C14.4893 10.5947 14.3955 10.5126 14.3955 10.4114V8.39526V6.37913Z" fill="white"/>
<path d="M22.1692 6.37913C22.1692 6.27791 22.263 6.19585 22.3786 6.19585H29.0351C29.1508 6.19585 29.2446 6.27791 29.2446 6.37913V10.4114C29.2446 10.5126 29.1508 10.5947 29.0351 10.5947H22.3786C22.263 10.5947 22.1692 10.5126 22.1692 10.4114V6.37913Z" fill="white"/>
<path d="M29.9428 6.37913C29.9428 6.27791 30.0366 6.19585 30.1523 6.19585H36.8088C36.9245 6.19585 37.0183 6.27791 37.0183 6.37913V10.4114C37.0183 10.5126 36.9245 10.5947 36.8088 10.5947H30.1523C30.0366 10.5947 29.9428 10.5126 29.9428 10.4114V6.37913Z" fill="white"/>
<path d="M14.3955 11.3889C14.3955 11.2877 14.4893 11.2056 14.605 11.2056H21.2615C21.3772 11.2056 21.4709 11.2877 21.4709 11.3889V15.4212C21.4709 15.5224 21.3772 15.6045 21.2615 15.6045H14.605C14.4893 15.6045 14.3955 15.5224 14.3955 15.4212V11.3889Z" fill="white"/>
<path d="M22.1692 11.3889C22.1692 11.2877 22.263 11.2056 22.3786 11.2056H29.0351C29.1508 11.2056 29.2446 11.2877 29.2446 11.3889V15.4212C29.2446 15.5224 29.1508 15.6045 29.0351 15.6045H22.3786C22.263 15.6045 22.1692 15.5224 22.1692 15.4212V11.3889Z" fill="white"/>
<path d="M29.9428 11.3889C29.9428 11.2877 30.0366 11.2056 30.1523 11.2056H36.8088C36.9245 11.2056 37.0183 11.2877 37.0183 11.3889V15.4212C37.0183 15.5224 36.9245 15.6045 36.8088 15.6045H30.1523C30.0366 15.6045 29.9428 15.5224 29.9428 15.4212V11.3889Z" fill="white"/>
<path d="M14.3955 1.39227C14.3955 1.29104 14.4893 1.20898 14.605 1.20898H21.2615C21.3772 1.20898 21.4709 1.29104 21.4709 1.39227V5.42453C21.4709 5.52575 21.3772 5.60781 21.2615 5.60781H14.605C14.4893 5.60781 14.3955 5.52575 14.3955 5.42453V3.4084V1.39227Z" fill="white"/>
<path d="M22.1692 1.39227C22.1692 1.29104 22.263 1.20898 22.3786 1.20898H29.0351C29.1508 1.20898 29.2446 1.29104 29.2446 1.39227V5.42453C29.2446 5.52575 29.1508 5.60781 29.0351 5.60781H22.3786C22.263 5.60781 22.1692 5.52575 22.1692 5.42453V1.39227Z" fill="white"/>
<path d="M29.9428 1.39227C29.9428 1.29104 30.0366 1.20898 30.1523 1.20898H36.8088C36.9245 1.20898 37.0183 1.29104 37.0183 1.39227V5.42453C37.0183 5.52575 36.9245 5.60781 36.8088 5.60781H30.1523C30.0366 5.60781 29.9428 5.52575 29.9428 5.42453V1.39227Z" fill="white"/>
<path d="M37.6836 6.37913C37.6836 6.27791 37.7774 6.19585 37.8931 6.19585H44.5496C44.6653 6.19585 44.7591 6.27791 44.7591 6.37913V10.4114C44.7591 10.5126 44.6653 10.5947 44.5496 10.5947H37.8931C37.7774 10.5947 37.6836 10.5126 37.6836 10.4114V6.37913Z" fill="white"/>
<path d="M37.6836 11.3889C37.6836 11.2877 37.7774 11.2056 37.8931 11.2056H44.5496C44.6653 11.2056 44.7591 11.2877 44.7591 11.3889V15.4212C44.7591 15.5224 44.6653 15.6045 44.5496 15.6045H37.8931C37.7774 15.6045 37.6836 15.5224 37.6836 15.4212V11.3889Z" fill="#F39C12"/>
<path d="M37.6836 1.39227C37.6836 1.29105 37.7774 1.20899 37.8931 1.20899H44.5496C44.6653 1.20899 44.7591 1.29105 44.7591 1.39227V5.42453C44.7591 5.52575 44.6653 5.60781 44.5496 5.60781H37.8931C37.7774 5.60781 37.6836 5.52575 37.6836 5.42453V1.39227Z" fill="white"/>
</svg>
