<svg width="62" height="32" viewBox="0 0 62 32" fill="none" xmlns="http://www.w3.org/2000/svg">
<path fill-rule="evenodd" clip-rule="evenodd" d="M61.242 19.0967C61.2572 19.1491 61.2651 19.2044 61.2651 19.2589V24.8889L61.7355 25.3593C61.8448 25.4686 61.9062 25.6169 61.9062 25.7715V26.5792C61.9062 26.9011 61.6453 27.1621 61.3234 27.1621H55.9609C55.7034 27.1621 55.4946 27.3709 55.4946 27.6284C55.4946 27.8859 55.2858 28.0947 55.0283 28.0947H54.775C54.5703 26.0329 52.8307 24.4226 50.715 24.4226C48.5993 24.4226 46.8597 26.0329 46.655 28.0947H23.2562C23.1097 28.0947 22.9685 28.0395 22.8608 27.9401L21.6803 26.8504C21.5726 26.751 21.4314 26.6958 21.2849 26.6958H19.285C18.6186 25.3488 17.2303 24.4226 15.6257 24.4226C14.0212 24.4226 12.6329 25.3488 11.9665 26.6958H1.52009C1.19818 26.6958 0.937216 26.4348 0.937216 26.1129V0.582878C0.937216 0.260963 1.19818 0 1.52009 0H43.4873C43.8092 0 44.0702 0.260963 44.0702 0.582878V22.5574C44.0702 22.8793 44.3311 23.1403 44.6531 23.1403H45.7605C46.0824 23.1403 46.3434 22.8793 46.3434 22.5574V8.74317C46.3434 8.42125 46.6044 8.16029 46.9263 8.16029H54.7315C54.8844 8.16029 55.0324 8.22129 55.1407 8.32903C58.5036 11.6714 59.8052 14.1273 61.242 19.0967ZM56.8751 19.0018C56.7365 19.0018 56.6024 18.9524 56.4969 18.8625L53.2682 16.1102C53.1627 16.0202 53.0287 15.9709 52.8901 15.9709H48.9664C48.6444 15.9709 48.3835 15.7099 48.3835 15.388V10.8415C48.3835 10.5196 48.6444 10.2587 48.9664 10.2587H55.2293C55.3979 10.2587 55.5586 10.3316 55.6683 10.4596C57.232 12.2832 57.9118 13.4952 58.7349 15.7312C58.7506 15.7738 58.7615 15.8193 58.7667 15.8644C58.9009 17.0194 58.9201 17.6924 58.8262 18.5066C58.7933 18.7922 58.5465 19.0018 58.2589 19.0018H56.8751Z" fill="#BADBEF"/>
<path d="M47.2177 28.5027C47.2177 30.4342 48.7835 32 50.715 32C52.6465 32 54.2123 30.4342 54.2123 28.5027C54.2123 28.3647 54.2043 28.2286 54.1887 28.0947C53.9866 26.3555 52.5085 25.0055 50.715 25.0055C48.9215 25.0055 47.4434 26.3555 47.2413 28.0947C47.2257 28.2286 47.2177 28.3647 47.2177 28.5027Z" fill="#BADBEF"/>
<path d="M12.1285 28.5027C12.1285 30.4342 13.6943 32 15.6257 32C17.5572 32 19.123 30.4342 19.123 28.5027C19.123 27.8415 18.9395 27.2232 18.6207 26.6958C18.0081 25.6827 16.896 25.0055 15.6257 25.0055C14.3555 25.0055 13.2434 25.6827 12.6308 26.6958C12.312 27.2232 12.1285 27.8415 12.1285 28.5027Z" fill="#BADBEF"/>
<path d="M42.6719 2.00452C42.6719 1.79883 42.5047 1.63208 42.2984 1.63208H30.4302C30.224 1.63208 30.0568 1.79883 30.0568 2.00452V10.1981C30.0568 10.4038 30.224 10.5706 30.4302 10.5706H42.2984C42.5047 10.5706 42.6719 10.4038 42.6719 10.1981V6.10132V2.00452Z" fill="#F6F6F7"/>
<path d="M28.8119 2.00452C28.8119 1.79883 28.6446 1.63208 28.4384 1.63208H16.5702C16.364 1.63208 16.1967 1.79883 16.1967 2.00452V10.1981C16.1967 10.4038 16.364 10.5706 16.5702 10.5706H28.4384C28.6446 10.5706 28.8119 10.4038 28.8119 10.1981V2.00452Z" fill="#F6F6F7"/>
<path d="M14.9518 2.00452C14.9518 1.79883 14.7846 1.63208 14.5784 1.63208H2.71019C2.50393 1.63208 2.33672 1.79883 2.33672 2.00452V10.1981C2.33672 10.4038 2.50393 10.5706 2.71019 10.5706H14.5784C14.7846 10.5706 14.9518 10.4038 14.9518 10.1981V2.00452Z" fill="#3B97D2"/>
<path d="M42.6719 12.1844C42.6719 11.9788 42.5047 11.812 42.2984 11.812H30.4302C30.224 11.812 30.0568 11.9788 30.0568 12.1844V20.378C30.0568 20.5837 30.224 20.7505 30.4302 20.7505H42.2984C42.5047 20.7505 42.6719 20.5837 42.6719 20.378V12.1844Z" fill="#F6F6F7"/>
<path d="M28.8119 12.1844C28.8119 11.9788 28.6446 11.812 28.4384 11.812H16.5702C16.364 11.812 16.1967 11.9788 16.1967 12.1844V20.378C16.1967 20.5837 16.364 20.7505 16.5702 20.7505H28.4384C28.6446 20.7505 28.8119 20.5837 28.8119 20.378V12.1844Z" fill="#F6F6F7"/>
<path d="M14.9518 12.1844C14.9518 11.9788 14.7846 11.812 14.5784 11.812H2.71019C2.50393 11.812 2.33672 11.9788 2.33672 12.1844V20.378C2.33672 20.5837 2.50393 20.7505 2.71019 20.7505H14.5784C14.7846 20.7505 14.9518 20.5837 14.9518 20.378V12.1844Z" fill="#3B97D2"/>
</svg>
