<svg width="11" height="10" viewBox="0 0 11 10" fill="none" xmlns="http://www.w3.org/2000/svg">
<path d="M9.73598 0.925989C9.80423 0.856355 9.88568 0.801036 9.97557 0.763271C10.0655 0.725507 10.162 0.706055 10.2595 0.706055C10.357 0.706055 10.4535 0.725507 10.5434 0.763271C10.6333 0.801036 10.7147 0.856355 10.783 0.925989C11.069 1.21499 11.073 1.68199 10.793 1.97599L4.87998 8.96599C4.81285 9.03971 4.73138 9.09896 4.64056 9.14011C4.54974 9.18126 4.45148 9.20346 4.35179 9.20533C4.2521 9.2072 4.15307 9.18871 4.06077 9.151C3.96847 9.11329 3.88483 9.05714 3.81498 8.98599L0.21698 5.33999C0.0782173 5.19847 0.000488281 5.00818 0.000488281 4.80999C0.000488281 4.61179 0.0782173 4.4215 0.21698 4.27999C0.285226 4.21035 0.366679 4.15504 0.456569 4.11727C0.546459 4.07951 0.64298 4.06005 0.74048 4.06005C0.837981 4.06005 0.934502 4.07951 1.02439 4.11727C1.11428 4.15504 1.19573 4.21035 1.26398 4.27999L4.31598 7.37299L9.71598 0.947989C9.7222 0.94026 9.72888 0.932914 9.73598 0.925989Z" fill="#7C7C7C"/>
</svg>
