<svg width="200" height="150" viewBox="0 0 200 150" fill="none" xmlns="http://www.w3.org/2000/svg">
<path d="M139.867 131.757H137.992V59.9918C137.992 59.3793 138.412 58.8818 138.93 58.8818C139.448 58.8818 139.868 59.3818 139.868 59.9918L139.867 131.757Z" fill="#61656D"/>
<path d="M128.254 64.1248L132.583 67.0536L147.189 67.1811L147.204 65.3673L147.214 64.2211L147.236 61.7398L132.725 61.6123L128.254 64.1248Z" fill="#3B97D2"/>
<path opacity="0.2" d="M147.204 65.3673L147.189 67.1811L132.583 67.0536L128.254 64.1248L132.725 61.6123L147.236 61.7398L147.214 64.2211L147.204 65.3673Z" fill="black"/>
<path d="M146.009 64.2206L146.031 61.7393L132.082 61.6143C131.714 61.6112 131.351 61.7048 131.03 61.8856L127.835 63.6793C127.752 63.726 127.682 63.793 127.634 63.874C127.584 63.955 127.555 64.0473 127.551 64.1422C127.547 64.2372 127.569 64.3315 127.611 64.4163C127.654 64.5011 127.717 64.5736 127.796 64.6268L130.85 66.6943C131.194 66.927 131.599 67.0527 132.014 67.0556L145.984 67.1806L145.999 65.3668L146.009 64.2206Z" fill="#3B97D2"/>
<path d="M151.215 74.1912L146.887 77.12L132.281 77.2475L132.265 75.4337L132.255 74.2875L132.233 71.8062L146.743 71.6787L151.215 74.1912Z" fill="#3B97D2"/>
<path opacity="0.2" d="M132.265 75.4337L132.281 77.2475L146.887 77.12L151.215 74.1912L146.743 71.6787L132.233 71.8062L132.255 74.2875L132.265 75.4337Z" fill="black"/>
<path d="M133.46 74.286L133.438 71.8047L147.387 71.6797C147.755 71.6772 148.117 71.7702 148.438 71.9497L151.633 73.7497C151.716 73.7962 151.786 73.8631 151.836 73.9441C151.886 74.0251 151.913 74.1173 151.917 74.2123C151.922 74.3072 151.901 74.4016 151.858 74.4865C151.816 74.5713 151.752 74.6438 151.673 74.6972L148.625 76.761C148.281 76.9941 147.876 77.1202 147.46 77.1235L133.491 77.2485L133.475 75.4347L133.46 74.286Z" fill="#3B97D2"/>
<path d="M176.06 131.875H24.704C24.6797 131.877 24.6551 131.876 24.6319 131.869C24.6086 131.861 24.5871 131.849 24.5689 131.832C24.5506 131.816 24.536 131.796 24.5259 131.775C24.5159 131.752 24.5107 131.729 24.5107 131.704C24.5107 131.679 24.5159 131.655 24.5259 131.632C24.536 131.611 24.5506 131.591 24.5689 131.575C24.5871 131.559 24.6086 131.546 24.6319 131.539C24.6551 131.531 24.6797 131.53 24.704 131.532H176.06C176.085 131.53 176.109 131.531 176.133 131.539C176.155 131.546 176.178 131.559 176.195 131.575C176.214 131.591 176.229 131.611 176.239 131.632C176.249 131.655 176.254 131.679 176.254 131.704C176.254 131.729 176.249 131.752 176.239 131.775C176.229 131.796 176.214 131.816 176.195 131.832C176.178 131.849 176.155 131.861 176.133 131.869C176.109 131.876 176.085 131.877 176.06 131.875Z" fill="#B2B6BB"/>
<g opacity="0.25">
<path d="M61.1572 124.171H84.9685V116.705H61.1572V124.171Z" fill="#61656D"/>
<path d="M102.075 82.1077C102.084 81.9497 102.154 81.8014 102.271 81.6946C102.388 81.5878 102.542 81.531 102.7 81.5365C105.913 81.6677 121.169 82.3678 124.306 83.8765C126.706 85.0303 129.337 89.344 131.192 92.2515C132.521 94.3328 135.459 98.9552 136.054 101.318C136.554 103.318 136.859 107.473 136.825 109.535L135.986 120.444L121.225 119.968L120.775 116.843C120.334 115.694 119.555 114.707 118.542 114.01C117.528 113.313 116.326 112.94 115.096 112.94H101.361V94.8315L102.075 82.1077Z" fill="#3B97D2"/>
<path d="M125.988 85.0498C127.891 86.866 129.797 89.961 131.238 92.2148C132.47 94.141 135.078 98.246 135.93 100.715C135.946 100.761 135.96 100.803 135.973 100.848C135.552 100.732 134.905 100.493 134.706 100.098C134.403 99.4922 134.013 97.421 129.206 89.5985C127.741 87.2148 126.316 85.8186 125.988 85.0498Z" fill="#DADDDF"/>
<path d="M109.217 84.243C112.752 84.4442 120.416 84.9617 122.865 85.8005C126.055 86.8955 129.635 95.3355 129.804 95.7067L132.217 101.875C132.231 101.916 132.235 101.958 132.229 102C132.222 102.042 132.207 102.082 132.182 102.116C132.159 102.151 132.126 102.179 132.089 102.199C132.051 102.219 132.01 102.23 131.967 102.23H125.732C125.496 102.23 125.262 102.188 125.041 102.105L108.631 96.0005C108.269 95.8656 107.957 95.6231 107.736 95.3056C107.515 94.9881 107.397 94.6108 107.397 94.2242V85.963C107.397 85.7286 107.445 85.4966 107.538 85.2812C107.631 85.066 107.766 84.8719 107.937 84.7109C108.107 84.5499 108.309 84.4252 108.529 84.3449C108.749 84.2644 108.983 84.2297 109.217 84.243Z" fill="#21252B"/>
<path d="M131.524 101.625C131.524 101.625 129.21 96.4386 128.434 94.7499C127.26 92.1836 124.519 86.9299 122.669 86.3749C120.966 85.8649 116.073 85.2424 109.183 84.8486H109.118C108.822 84.8486 108.538 84.9659 108.329 85.1746C108.119 85.3834 108.001 85.6666 108 85.9624V94.4099C108 94.6179 108.064 94.8208 108.183 94.9915C108.301 95.1624 108.469 95.293 108.664 95.3661L120.783 96.8661C121.268 96.9266 121.735 97.0921 122.151 97.3511C122.566 97.6103 122.921 97.9565 123.189 98.3661L125.289 101.567C125.411 101.614 125.543 101.637 125.674 101.637L131.524 101.625Z" fill="#F4F4F4"/>
<path opacity="0.2" d="M123.986 87.3371C123.521 86.8371 123.074 86.4946 122.669 86.3734C121.762 86.1021 119.952 85.7984 117.419 85.5146L108 93.5471V94.4096C108 94.6176 108.064 94.8205 108.183 94.9913C108.301 95.1621 108.469 95.2928 108.664 95.3659L113.825 96.0034L123.986 87.3371Z" fill="#3B97D2"/>
<path opacity="0.2" d="M115.986 96.2705L124.993 88.5855C124.845 88.3789 124.698 88.183 124.55 87.998L115 96.148L115.986 96.2705Z" fill="#3B97D2"/>
<path opacity="0.2" d="M128.434 94.7496C128.059 93.9259 127.519 92.8259 126.901 91.6934L120.834 96.8746C121.311 96.9405 121.768 97.1075 122.174 97.3645C122.581 97.6215 122.928 97.9625 123.193 98.3646L123.825 99.3284L128.645 95.2171C128.566 95.0384 128.5 94.8809 128.434 94.7496Z" fill="#3B97D2"/>
<path opacity="0.2" d="M124.874 100.921L129.458 97.0111L129.045 96.0898L124.337 100.104L124.874 100.921Z" fill="#3B97D2"/>
<path d="M121.225 96.9558L125.303 101.771L123.071 86.3095L122.5 86.1133L123.625 97.3983C123.63 97.455 123.621 97.5123 123.598 97.5645C123.575 97.6167 123.539 97.662 123.494 97.6963C123.448 97.7305 123.394 97.7523 123.338 97.7597C123.281 97.767 123.224 97.7597 123.171 97.7383L121.225 96.9558Z" fill="#21252B"/>
<path d="M136.975 110.466C136.975 110.267 136.891 110.112 136.79 110.112L134.571 110.101C134.385 110.101 134.25 110.456 134.264 110.864L134.312 112.562C134.32 112.834 134.422 113.062 134.545 113.062L136.689 113.252C136.791 113.261 136.875 113.102 136.872 112.902L136.975 110.466Z" fill="#B2B6BB"/>
<path d="M121.225 124.855H137.141V118.474H121.225V124.855Z" fill="#21252B"/>
<path d="M119.631 123.163C119.823 118.358 116.083 114.307 111.278 114.115C106.473 113.922 102.422 117.662 102.23 122.467C102.038 127.272 105.777 131.323 110.582 131.516C115.388 131.708 119.439 127.968 119.631 123.163Z" fill="black"/>
<path d="M116.31 122.727C116.325 123.793 116.024 124.839 115.445 125.734C114.866 126.627 114.035 127.331 113.056 127.752C112.078 128.175 110.996 128.297 109.948 128.104C108.9 127.911 107.933 127.412 107.169 126.67C106.404 125.927 105.877 124.975 105.654 123.933C105.431 122.891 105.522 121.806 105.916 120.816C106.309 119.826 106.988 118.975 107.865 118.37C108.742 117.765 109.779 117.434 110.845 117.419C112.273 117.398 113.651 117.946 114.676 118.942C115.701 119.937 116.289 121.299 116.31 122.727Z" fill="#61656D"/>
<path d="M113.892 122.763C113.9 123.35 113.734 123.926 113.415 124.419C113.096 124.912 112.638 125.299 112.099 125.531C111.56 125.764 110.964 125.833 110.386 125.726C109.809 125.62 109.275 125.345 108.854 124.937C108.433 124.528 108.142 124.003 108.018 123.429C107.895 122.855 107.945 122.257 108.161 121.711C108.377 121.165 108.75 120.696 109.233 120.362C109.716 120.028 110.287 119.845 110.874 119.835C111.265 119.829 111.653 119.9 112.016 120.044C112.379 120.187 112.71 120.401 112.99 120.673C113.271 120.945 113.494 121.27 113.649 121.628C113.804 121.987 113.886 122.372 113.892 122.763Z" fill="#B2B6BB"/>
<path opacity="0.3" d="M134.115 117.587L134.109 104.329V104.018C134.109 103.83 134.109 103.643 134.109 103.458C134.101 103.17 134.081 102.879 134.046 102.593C133.906 101.485 133.555 100.415 133.011 99.4404L126.46 87.1479L126.386 87.0091C126.343 86.9254 126.298 86.8391 126.246 86.7591C126.17 86.6365 126.086 86.5184 125.996 86.4054C125.678 86.0069 125.301 85.6577 124.88 85.3691C124.303 84.9741 123.656 84.6925 122.974 84.5391C122.74 84.4837 122.503 84.4449 122.264 84.4229C122.249 84.4229 122.176 84.4104 122.049 84.3954L109.737 82.9841L109.217 82.9254C108.896 82.8879 108.565 82.8491 108.23 82.8191C107.958 82.7996 107.684 82.8177 107.417 82.8729C107.147 82.9347 106.887 83.0335 106.644 83.1666C106.14 83.4469 105.732 83.8712 105.471 84.3854C105.336 84.6476 105.245 84.93 105.201 85.2216C105.182 85.326 105.171 85.4317 105.169 85.5379C105.169 85.5816 105.169 85.6241 105.162 85.6716V93.6416V111.142H105.112L105.162 111.19V111.368H105.34L105.389 111.417V111.368H115.027C115.492 111.356 115.956 111.381 116.416 111.444C117.52 111.606 118.562 112.058 119.433 112.755C120.304 113.452 120.975 114.369 121.375 115.41C121.396 115.47 121.419 115.535 121.442 115.592C121.494 115.724 121.536 115.859 121.567 115.998C121.582 116.063 121.6 116.123 121.617 116.192C121.657 116.326 121.687 116.463 121.705 116.602L121.775 117.058L121.805 117.649L121.772 117.68L121.814 117.73C121.836 117.758 121.861 117.783 121.89 117.804L121.95 117.863V117.812H133.895V117.863L133.946 117.812H134.119V117.639L134.169 117.589L134.115 117.587ZM133.898 104.33V117.587H122.035L122.006 117.038L121.936 116.57C121.917 116.423 121.885 116.278 121.842 116.135C121.826 116.072 121.809 116.01 121.794 115.945C121.759 115.798 121.713 115.654 121.656 115.514C121.634 115.454 121.611 115.389 121.589 115.332C121.174 114.251 120.478 113.301 119.574 112.578C118.67 111.856 117.589 111.388 116.444 111.222C115.972 111.156 115.496 111.13 115.02 111.143H105.375V98.2604L105.369 86.1116V85.9566C105.36 85.7226 105.372 85.4884 105.405 85.2566C105.445 84.9851 105.53 84.7221 105.655 84.4779C105.896 83.999 106.275 83.6036 106.744 83.3429C107.19 83.0892 107.703 82.9756 108.215 83.0166C108.545 83.0454 108.874 83.0829 109.192 83.1191L109.72 83.1779L118.925 84.1979L122.034 84.5354C122.159 84.5491 122.235 84.5541 122.25 84.5554L122.426 84.5829C122.585 84.6066 122.759 84.6404 122.941 84.6829C123.601 84.8394 124.227 85.1165 124.786 85.5004C125.191 85.7824 125.554 86.1222 125.861 86.5091C125.946 86.6174 126.025 86.7304 126.098 86.8479C126.145 86.9241 126.186 87.0041 126.231 87.0904L126.305 87.2304L132.828 99.5379C133.36 100.489 133.702 101.535 133.836 102.618C133.869 102.898 133.889 103.182 133.895 103.462C133.895 103.645 133.895 103.83 133.895 104.017C133.898 104.125 133.896 104.225 133.898 104.33Z" fill="black"/>
<path d="M128.167 100.43L128.807 100.426C129.358 100.422 129.802 99.9729 129.798 99.422L129.771 95.0945C129.767 94.5437 129.317 94.1 128.766 94.1035L128.127 94.1077C127.576 94.1113 127.132 94.5607 127.136 95.1115L127.163 99.439C127.167 99.9899 127.616 100.434 128.167 100.43Z" fill="#21252B"/>
<path d="M130.918 104.323H131.051L131.007 97.6384C131.007 97.4805 130.975 97.3243 130.913 97.1788C130.852 97.0333 130.762 96.9013 130.649 96.7903C130.537 96.6793 130.404 96.5915 130.258 96.532C130.112 96.4725 129.956 96.4424 129.797 96.4434H129.479V96.5759H129.797C130.081 96.5745 130.353 96.6858 130.556 96.8853C130.757 97.0846 130.872 97.356 130.873 97.6396L130.918 104.323Z" fill="#21252B"/>
<path d="M130.25 104.328L130.165 98.0651C130.164 97.9579 130.14 97.852 130.096 97.754C130.053 97.6561 129.989 97.5681 129.91 97.4956C129.831 97.423 129.739 97.3674 129.638 97.332C129.536 97.2968 129.429 97.2824 129.321 97.2901L129.331 97.4226C129.42 97.4163 129.51 97.4283 129.594 97.4576C129.678 97.4871 129.755 97.5335 129.821 97.5939C129.886 97.6543 129.939 97.7275 129.976 97.8089C130.013 97.8904 130.031 97.9784 130.033 98.0676L130.118 104.329L130.25 104.328Z" fill="#21252B"/>
<path d="M129.706 105.797L131.493 105.786L131.481 103.716L129.693 103.727L129.706 105.797Z" fill="#3B97D2"/>
<g opacity="0.3">
<path opacity="0.3" d="M129.706 105.797L131.493 105.786L131.481 103.716L129.693 103.727L129.706 105.797Z" fill="black"/>
</g>
<path d="M130.902 99.7949L130.116 99.7999V99.9324L130.902 99.9274V99.7949Z" fill="#21252B"/>
<path d="M120.492 124.921L121.942 124.817C121.567 119.612 121.018 116.499 120.255 115.297C118.79 112.989 117.332 112.57 115.714 112.297C114.214 112.039 112.692 112.097 111.224 112.155L110.864 112.169C107.834 112.282 101.489 112.169 101.423 112.169L101.396 113.621C101.46 113.621 107.848 113.736 110.919 113.621L111.282 113.607C112.674 113.552 114.114 113.496 115.468 113.732C116.912 113.982 117.873 114.264 119.028 116.085C119.375 116.625 120.034 118.509 120.492 124.921Z" fill="#21252B"/>
<path d="M29.0723 113.276H100.64V65.625H29.0723V113.276Z" fill="#3B97D2"/>
<path d="M29.0723 113.276H100.64V65.625H29.0723V113.276Z" fill="#3B97D2"/>
<path d="M55.3104 123.177C55.5026 118.371 51.7631 114.32 46.9578 114.128C42.1527 113.936 38.1016 117.676 37.9094 122.481C37.7172 127.286 41.4568 131.338 46.2619 131.529C51.0672 131.722 55.1183 127.981 55.3104 123.177Z" fill="black"/>
<path d="M52 122.74C52.0155 123.805 51.7146 124.851 51.1356 125.746C50.5565 126.64 49.7252 127.342 48.7467 127.765C47.7684 128.187 46.6867 128.31 45.6387 128.116C44.5907 127.924 43.6235 127.425 42.8593 126.682C42.0949 125.94 41.5679 124.988 41.3449 123.946C41.1219 122.904 41.2129 121.819 41.6064 120.829C41.9998 119.838 42.678 118.987 43.5554 118.382C44.4326 117.778 45.4696 117.447 46.535 117.431C47.9636 117.411 49.3417 117.959 50.3666 118.954C51.3914 119.95 51.979 121.311 52 122.74Z" fill="#61656D"/>
<path d="M49.5769 122.775C49.5856 123.363 49.4197 123.94 49.1004 124.433C48.7811 124.927 48.3226 125.314 47.7829 125.547C47.2433 125.78 46.6468 125.848 46.0688 125.742C45.4908 125.635 44.9573 125.359 44.5358 124.95C44.1143 124.541 43.8236 124.015 43.7006 123.441C43.5776 122.866 43.6278 122.268 43.8448 121.722C44.0618 121.175 44.4359 120.706 44.9198 120.372C45.4037 120.039 45.9757 119.856 46.5633 119.848C47.3511 119.837 48.1112 120.139 48.6763 120.688C49.2416 121.237 49.5654 121.988 49.5769 122.775Z" fill="#B2B6BB"/>
<g opacity="0.2">
<path opacity="0.2" d="M97.0849 110.25H32.7324V68.8164H97.0849V110.25ZM33.1362 109.846H96.6812V69.2214H33.1362V109.846Z" fill="black"/>
</g>
<path d="M30.8525 113.326V118.473H37.9638C39.4238 115.473 42.8788 113.393 46.4375 113.348C50.0913 113.295 53.8125 115.399 55.3125 118.473H90.22L93.4788 123.196H101.604V113.321L30.8525 113.326Z" fill="#21252B"/>
<path opacity="0.1" d="M29.125 113.216V109.716L86.4512 104.894C87.6269 104.79 88.7326 104.291 89.588 103.478C90.4432 102.664 90.9974 101.585 91.16 100.416L95.6475 65.625H100.704L100.64 113.274L29.125 113.216Z" fill="black"/>
<path d="M56.3052 121.75C54.5414 113.168 47.1214 113.366 46.8052 113.375H46.7652C43.3502 113.383 40.6664 114.764 38.7902 117.479C37.9087 118.766 37.2769 120.208 36.9277 121.729L35.0352 121.379C35.4244 119.616 36.1457 117.943 37.1602 116.45C38.7102 114.18 41.6302 111.473 46.7402 111.45C48.4417 111.448 50.1232 111.817 51.6677 112.531C54.0364 113.62 57.0902 116.031 58.1827 121.356L56.3052 121.75Z" fill="#868A91"/>
<path d="M112.222 104.36H108.577C108.327 104.36 108.088 104.261 107.911 104.084C107.735 103.908 107.636 103.668 107.636 103.419C107.636 103.169 107.735 102.93 107.911 102.753C108.088 102.577 108.327 102.478 108.577 102.478H112.222C112.346 102.478 112.468 102.502 112.582 102.549C112.696 102.597 112.8 102.666 112.887 102.753C112.975 102.841 113.044 102.944 113.092 103.059C113.139 103.173 113.163 103.295 113.163 103.419C113.163 103.542 113.139 103.665 113.092 103.779C113.044 103.893 112.975 103.997 112.887 104.084C112.8 104.172 112.696 104.241 112.582 104.288C112.468 104.336 112.346 104.36 112.222 104.36ZM108.577 102.679C108.381 102.679 108.192 102.757 108.054 102.896C107.915 103.034 107.837 103.223 107.837 103.419C107.837 103.615 107.915 103.803 108.054 103.942C108.192 104.081 108.381 104.159 108.577 104.159H112.222C112.418 104.159 112.606 104.081 112.745 103.942C112.884 103.803 112.962 103.615 112.962 103.419C112.962 103.223 112.884 103.034 112.745 102.896C112.606 102.757 112.418 102.679 112.222 102.679H108.577Z" fill="#B2B6BB"/>
<g opacity="0.2">
<path opacity="0.2" d="M96.6808 75.1504H33.1357V75.2854H96.6808V75.1504Z" fill="black"/>
</g>
<g opacity="0.2">
<path opacity="0.2" d="M96.6808 80.7998H33.1357V80.9347H96.6808V80.7998Z" fill="black"/>
</g>
<g opacity="0.2">
<path opacity="0.2" d="M96.6808 86.4492H33.1357V86.5842H96.6808V86.4492Z" fill="black"/>
</g>
<g opacity="0.2">
<path opacity="0.2" d="M96.6808 92.0986H33.1357V92.2337H96.6808V92.0986Z" fill="black"/>
</g>
<g opacity="0.2">
<path opacity="0.2" d="M96.6808 97.748H33.1357V97.883H96.6808V97.748Z" fill="black"/>
</g>
<g opacity="0.2">
<path opacity="0.2" d="M96.6808 103.397H33.1357V103.532H96.6808V103.397Z" fill="black"/>
</g>
</g>
<path d="M71.75 44.125C75.3399 44.125 78.25 41.2149 78.25 37.625C78.25 34.0351 75.3399 31.125 71.75 31.125C68.1601 31.125 65.25 34.0351 65.25 37.625C65.25 41.2149 68.1601 44.125 71.75 44.125Z" fill="white"/>
<path d="M102.234 59.9183C102.219 59.982 102.2 60.0447 102.176 60.1058C102.236 60.597 97.1502 60.3345 97.1502 60.3345C97.1502 60.3345 95.7915 61.2833 95.1115 60.3858C93.754 60.8083 86.1452 61.0195 82.9527 60.5445C80.2353 60.8608 75.7515 60.3345 73.5778 60.2808C71.404 60.227 71.3364 59.7533 72.5589 59.5433C72.5451 59.4345 72.6578 59.2758 72.879 59.1045C73.7365 58.442 76.2353 57.6045 79.4203 58.8858C78.8765 57.4908 81.119 56.0108 83.6315 56.7483C83.564 55.9558 84.584 56.062 84.584 56.062C84.584 56.062 84.1752 52.582 87.844 52.582C91.5127 52.582 91.919 57.4295 91.919 57.4295C91.919 57.4295 92.1902 55.482 95.3165 55.3233C98.4427 55.1645 98.4415 57.5395 98.4415 57.5395C98.4415 57.5395 102.734 57.837 102.234 59.9183Z" fill="white"/>
<path opacity="0.08" d="M102.234 59.9193C102.219 59.983 102.2 60.0456 102.176 60.1068C102.236 60.5981 97.1502 60.3356 97.1502 60.3356C97.1502 60.3356 95.7915 61.2843 95.1115 60.3868C93.754 60.8093 86.1452 61.0206 82.9527 60.5456C80.2353 60.8618 75.7515 60.3356 73.5778 60.2818C71.404 60.2281 71.3364 59.7543 72.5589 59.5443C72.5451 59.4356 72.6578 59.2768 72.879 59.1056C73.2253 59.2118 73.504 59.4518 73.5253 59.7431C73.8576 59.645 74.2071 59.6195 74.5503 59.6682C74.8934 59.717 75.222 59.8388 75.514 60.0256C76.059 59.5706 77.014 59.8268 77.7728 60.0168C78.5419 60.2043 79.3325 60.2883 80.124 60.2668C80.2973 60.2725 80.47 60.2445 80.6328 60.1843C80.9803 60.0306 81.0251 59.6656 81.0901 59.3581C81.1655 58.9478 81.3944 58.5817 81.7302 58.3343C82.0977 58.0743 82.674 57.9681 83.1052 58.1531C83.3215 58.2456 83.4877 58.4031 83.7115 58.4768C83.8702 58.5318 84.0527 58.5468 84.2052 58.6156C84.5915 58.7881 84.6202 59.2043 84.6027 59.5518C85.0304 59.4327 85.4877 59.4875 85.8752 59.7043C85.3965 58.8293 86.0777 57.8418 86.829 57.0893C87.1677 56.7506 87.5451 56.4106 88.0514 56.2393C88.8201 55.9768 89.7565 56.1643 90.4077 56.5756C91.059 56.9868 91.4677 57.5881 91.7552 58.2006C91.9506 58.1292 92.161 58.1085 92.3666 58.1402C92.5722 58.1718 92.7665 58.255 92.9315 58.3818C94.324 57.9993 96.0102 58.4018 96.8852 59.3243C98.6893 59.048 100.535 59.2533 102.234 59.9193Z" fill="#21252B"/>
<path d="M118.345 42.7499C118.345 42.7499 119.962 42.9711 127.395 42.8174C129.405 44.0374 138.118 43.2624 141.553 42.9424C145.523 43.6799 147.487 41.7561 145.725 40.7174C145.181 40.3961 144.282 40.1599 142.975 40.1111C143.06 35.9774 132.837 34.6224 129.988 40.6536C128.481 39.4336 125.337 39.5449 125.13 41.1961C122.221 40.6636 119.923 41.2649 118.872 41.8961C118.321 42.2161 118.115 42.5574 118.345 42.7499Z" fill="white"/>
<path opacity="0.08" d="M118.346 42.7503C118.346 42.7503 119.963 42.9715 127.395 42.8178C129.405 44.0378 138.119 43.2628 141.554 42.9428C145.524 43.6803 147.488 41.7565 145.725 40.7178C145.737 40.9771 145.648 41.2309 145.475 41.4253C145.073 41.8865 144.314 42.0765 143.62 42.019C142.927 41.9615 142.289 41.6878 141.709 41.3753C141.432 41.2253 141.148 41.0603 140.817 41.0278C140.229 40.9715 139.722 41.3428 139.307 41.6865C138.965 41.1353 138.102 40.8365 137.375 41.019C136.649 41.2015 136.144 41.8428 136.25 42.454C134.828 42.204 133.375 42.879 131.929 42.7715C130.275 42.6465 128.784 41.5128 127.164 41.8015C126.753 41.874 126.373 42.0353 125.963 42.104C125.554 42.1518 125.14 42.1626 124.729 42.1365C123.406 42.1115 122.081 42.2828 120.759 42.214C120.12 42.1848 119.487 42.0743 118.876 41.8853C118.322 42.2165 118.116 42.5578 118.346 42.7503Z" fill="#21252B"/>
<path d="M161.641 122.92H160.179V124.852H161.641V122.92Z" fill="#3B97D2"/>
<path opacity="0.2" d="M163 122.878H158.356V131.514H163V122.878Z" fill="black"/>
<path d="M150.395 125.532L152.055 125.533L151.908 126L152.055 126.333H150.395V125.532Z" fill="#F4F4F4"/>
<path d="M173.361 122.878H160.755V131.514H173.361V122.878Z" fill="#B2B6BB"/>
<path d="M172.016 122.92H170.554V124.852H172.016V122.92Z" fill="#3B97D2"/>
<path opacity="0.2" d="M173.375 122.878H168.731V131.514H173.375V122.878Z" fill="black"/>
<path d="M160.77 125.528L162.43 125.53L162.283 125.996L162.43 126.33H160.77V125.528Z" fill="#F4F4F4"/>
<path d="M165.892 130.061H168.139V129.144H165.892V130.061Z" fill="white"/>
<path d="M165.587 122.92H163.988V124.889H165.587V122.92Z" fill="#3B97D2"/>
<path d="M167.739 116.001H157.503V123.013H167.739V116.001Z" fill="#B2B6BB"/>
<path d="M166.646 116.035H165.459V117.604H166.646V116.035Z" fill="#3B97D2"/>
<path opacity="0.2" d="M167.752 116.001H163.98V123.013H167.752V116.001Z" fill="black"/>
<path d="M157.515 118.155H158.862L158.743 118.534L158.862 118.805H157.515V118.155Z" fill="#F4F4F4"/>
<path d="M161.652 121.864H163.477V121.119H161.652V121.864Z" fill="white"/>
<path d="M161.428 116.035H160.129V117.634H161.428V116.035Z" fill="#3B97D2"/>
<path d="M155.637 103.314L154.475 128.014H152.157L151.301 107.875C151.301 107.808 151.275 107.743 151.226 107.696C151.179 107.648 151.115 107.621 151.047 107.621C150.98 107.621 150.915 107.648 150.867 107.696C150.82 107.743 150.794 107.808 150.794 107.875L148.76 116.839L149.635 128.013H147.317L145.567 116.853L147.176 103.312L155.637 103.314Z" fill="#3B97D2"/>
<path opacity="0.15" d="M155.645 103.353L154.482 127.494H153.482L154.021 103.369L155.645 103.353Z" fill="black"/>
<path d="M149.577 130.207L145.389 130.304L146.972 129.173C147.102 129.079 147.21 128.958 147.286 128.817C147.362 128.676 147.405 128.519 147.412 128.359L147.467 127.118L149.559 127.124L149.577 130.207Z" fill="#FC9D9D"/>
<path d="M154.359 130.128H152.574L152.243 127.108H154.353L154.359 130.128Z" fill="#FC9D9D"/>
<path opacity="0.15" d="M148.917 128.753V128.73C148.923 128.663 148.904 128.597 148.863 128.545C148.822 128.492 148.763 128.457 148.697 128.448L147.431 128.265L147.443 128.015H149.559L149.578 130.14L147.639 129.927L148.208 129.701C148.403 129.625 148.572 129.495 148.697 129.328C148.822 129.161 148.898 128.962 148.917 128.753Z" fill="black"/>
<path opacity="0.15" d="M153.913 129.628L153.871 128.698C153.868 128.639 153.845 128.582 153.805 128.539C153.765 128.496 153.71 128.468 153.651 128.461L152.366 128.264L152.336 128.007H154.347V130.147L153.913 129.628Z" fill="black"/>
<path d="M154.225 129.07L154.17 129.015C153.964 128.813 153.686 128.703 153.399 128.707C153.111 128.711 152.836 128.827 152.635 129.033L152.605 129.07C152.504 129.175 152.446 129.315 152.445 129.461V129.693C152.446 129.828 152.426 129.962 152.385 130.091L152.195 130.716C152.146 130.868 152.121 131.027 152.121 131.187V131.266C152.124 131.326 152.151 131.383 152.195 131.425C152.24 131.466 152.299 131.488 152.36 131.486H154.555C154.585 131.487 154.615 131.483 154.644 131.472C154.672 131.462 154.699 131.446 154.72 131.426C154.742 131.406 154.76 131.381 154.772 131.353C154.786 131.326 154.792 131.296 154.794 131.266V131.235C154.794 131.05 154.762 130.866 154.702 130.691L154.482 130.073C154.431 129.932 154.404 129.783 154.402 129.633V129.456C154.391 129.31 154.329 129.173 154.225 129.07Z" fill="#21252B"/>
<path d="M154.538 128.017H152.066L152.018 127.51H154.531L154.538 128.017Z" fill="#3B97D2"/>
<path opacity="0.15" d="M154.537 128.017H153.5L153.475 127.51H154.527L154.537 128.017Z" fill="black"/>
<path d="M149.632 129.504V131.051C149.632 131.111 149.62 131.17 149.598 131.225C149.575 131.28 149.542 131.33 149.499 131.371C149.458 131.414 149.408 131.447 149.353 131.47C149.298 131.492 149.239 131.504 149.179 131.504H143.92C143.87 131.504 143.822 131.484 143.787 131.447C143.752 131.412 143.73 131.364 143.73 131.314C143.732 131.134 143.789 130.959 143.894 130.812C143.999 130.666 144.148 130.557 144.318 130.5L145.504 130.109L147.004 128.941C147.08 128.882 147.174 128.851 147.269 128.854C147.365 128.856 147.458 128.891 147.53 128.954L148.197 129.522C148.245 129.564 148.303 129.592 148.365 129.605C148.427 129.617 148.492 129.615 148.552 129.596L149.395 129.332C149.423 129.324 149.452 129.321 149.479 129.326C149.508 129.331 149.534 129.341 149.557 129.359C149.58 129.375 149.599 129.397 149.612 129.422C149.624 129.447 149.632 129.475 149.632 129.504Z" fill="#21252B"/>
<path d="M147.039 129.558C147.051 129.558 147.062 129.553 147.071 129.546C147.076 129.542 147.078 129.537 147.081 129.531C147.083 129.524 147.084 129.519 147.084 129.513C147.084 129.507 147.083 129.501 147.081 129.494C147.078 129.489 147.076 129.484 147.071 129.479L146.752 129.136C146.743 129.127 146.731 129.123 146.719 129.123C146.707 129.123 146.694 129.127 146.686 129.136C146.682 129.141 146.678 129.146 146.676 129.151C146.673 129.157 146.672 129.163 146.672 129.169C146.672 129.176 146.673 129.182 146.676 129.188C146.678 129.193 146.682 129.199 146.686 129.203L147.003 129.546C147.014 129.553 147.027 129.557 147.039 129.558Z" fill="white"/>
<path d="M146.788 129.754C146.797 129.754 146.807 129.751 146.815 129.745C146.822 129.74 146.827 129.732 146.831 129.724C146.835 129.716 146.835 129.706 146.833 129.697C146.831 129.689 146.826 129.68 146.82 129.674L146.502 129.331C146.493 129.322 146.481 129.317 146.468 129.317C146.456 129.317 146.443 129.322 146.435 129.331C146.426 129.34 146.421 129.352 146.421 129.365C146.421 129.377 146.426 129.39 146.435 129.399L146.752 129.741C146.763 129.747 146.776 129.752 146.788 129.754Z" fill="white"/>
<path d="M146.539 129.95C146.55 129.95 146.561 129.945 146.569 129.937C146.574 129.934 146.576 129.927 146.579 129.922C146.581 129.916 146.582 129.91 146.582 129.904C146.582 129.899 146.581 129.892 146.579 129.886C146.576 129.881 146.574 129.875 146.569 129.871L146.251 129.527C146.242 129.519 146.23 129.514 146.217 129.514C146.205 129.514 146.192 129.519 146.184 129.527C146.175 129.536 146.17 129.549 146.17 129.561C146.17 129.574 146.175 129.586 146.184 129.595L146.502 129.937C146.507 129.942 146.514 129.945 146.52 129.947C146.526 129.95 146.532 129.95 146.539 129.95Z" fill="white"/>
<path d="M153 129.589C153.007 129.592 153.016 129.592 153.023 129.589C153.15 129.529 153.287 129.498 153.427 129.498C153.567 129.498 153.705 129.529 153.831 129.589C153.843 129.596 153.858 129.597 153.872 129.592C153.887 129.587 153.898 129.577 153.905 129.564C153.911 129.551 153.912 129.536 153.907 129.522C153.902 129.508 153.892 129.497 153.88 129.491C153.737 129.422 153.582 129.386 153.423 129.386C153.266 129.386 153.11 129.422 152.968 129.491C152.956 129.498 152.946 129.509 152.942 129.523C152.937 129.537 152.937 129.551 152.943 129.564C152.95 129.573 152.958 129.579 152.968 129.583C152.978 129.588 152.988 129.589 153 129.589Z" fill="white"/>
<path d="M153 129.871C153.007 129.874 153.016 129.874 153.023 129.871C153.15 129.811 153.287 129.78 153.427 129.78C153.567 129.78 153.705 129.811 153.831 129.871C153.837 129.875 153.845 129.876 153.851 129.876C153.858 129.877 153.866 129.876 153.872 129.874C153.88 129.871 153.886 129.867 153.891 129.864C153.897 129.859 153.901 129.852 153.905 129.846C153.907 129.84 153.91 129.832 153.91 129.825C153.911 129.819 153.91 129.811 153.907 129.804C153.905 129.797 153.901 129.791 153.896 129.786C153.892 129.78 153.886 129.776 153.88 129.772C153.737 129.702 153.582 129.666 153.423 129.666C153.266 129.666 153.11 129.702 152.968 129.772C152.956 129.78 152.946 129.791 152.942 129.805C152.937 129.819 152.937 129.832 152.943 129.846C152.95 129.855 152.958 129.861 152.968 129.865C152.978 129.87 152.988 129.872 153 129.871Z" fill="white"/>
<path d="M153 130.146C153.009 130.147 153.018 130.144 153.024 130.139C153.15 130.079 153.288 130.048 153.428 130.048C153.568 130.048 153.705 130.079 153.831 130.139C153.838 130.143 153.845 130.146 153.853 130.146C153.86 130.147 153.868 130.146 153.874 130.143C153.881 130.141 153.888 130.137 153.893 130.132C153.898 130.127 153.903 130.121 153.905 130.114C153.909 130.108 153.91 130.101 153.911 130.094C153.911 130.087 153.911 130.079 153.909 130.073C153.906 130.066 153.903 130.059 153.898 130.054C153.893 130.049 153.886 130.044 153.88 130.042C153.739 129.972 153.583 129.936 153.425 129.936C153.266 129.936 153.111 129.972 152.969 130.042C152.956 130.049 152.948 130.061 152.943 130.073C152.938 130.087 152.939 130.102 152.944 130.114C152.95 130.124 152.959 130.132 152.968 130.137C152.978 130.143 152.989 130.146 153 130.146Z" fill="white"/>
<path opacity="0.15" d="M148.604 127.914L147.342 116.951L149.552 108.723C149.587 108.429 149.729 108.157 149.952 107.96C150.173 107.763 150.459 107.654 150.757 107.653H151.044C150.981 107.653 150.919 107.677 150.873 107.72C150.827 107.763 150.798 107.823 150.794 107.886L148.761 116.843L149.624 127.914H148.604Z" fill="black"/>
<path d="M149.693 128.017H147.228L147.176 127.51H149.742L149.693 128.017Z" fill="#3B97D2"/>
<path opacity="0.15" d="M154.538 128.017H152.066L152.018 127.51H154.531L154.538 128.017Z" fill="black"/>
<path opacity="0.15" d="M149.693 128.017H147.228L147.176 127.51H149.742L149.693 128.017Z" fill="black"/>
<path opacity="0.15" d="M149.693 128.017H148.607L148.563 127.51H149.742L149.693 128.017Z" fill="black"/>
<path d="M152.125 90.9588L154.814 91.4876C155.067 91.5372 155.301 91.6618 155.485 91.8453C155.667 92.029 155.791 92.2631 155.84 92.5176L156.524 96.0738L155.886 96.1988L155.716 104.949H146.716L147.056 96.2826L145.442 96.1126L146.135 92.5076C146.182 92.2647 146.297 92.0403 146.467 91.8606C146.637 91.6808 146.855 91.5532 147.095 91.4926L149.234 90.9551L152.125 90.9588Z" fill="#21252B"/>
<path d="M149.268 89.2174C149.271 89.3707 149.293 89.5229 149.331 89.6712L149.206 91.2137C149.206 91.2599 149.206 92.2137 149.894 92.2512C151.424 92.3349 152.124 91.1612 152.123 91.1262L151.873 88.5362L151.819 88.0237C151.66 86.0462 149.125 87.7424 149.125 87.7424C149.125 87.7424 149.219 88.4399 149.268 89.2174Z" fill="#FC9D9D"/>
<path d="M150.337 85.7227L151.668 86.2077L151.801 87.9326C151.801 87.9326 151.688 90.6026 149.973 90.4251C147.992 90.2239 148.823 85.9327 148.823 85.9327L150.337 85.7227Z" fill="#FC9D9D"/>
<path d="M152.318 86.5635C152.35 86.8175 152.293 87.0748 152.155 87.2912C152.019 87.5075 151.811 87.6697 151.568 87.7498C151.459 87.786 151.253 86.0185 151.253 86.0185L150.591 85.7948L150.611 85.7823C150.273 85.756 149.931 85.7594 149.593 85.7923C149.646 85.953 149.663 86.1243 149.638 86.2923C149.603 86.5364 149.488 86.7622 149.31 86.9333C149.133 87.1044 148.903 87.2113 148.658 87.2368C148.413 87.2622 148.165 87.2049 147.956 87.0739C147.748 86.9429 147.589 86.7457 147.505 86.5138C147.42 86.2819 147.416 86.0285 147.494 85.794C147.57 85.5597 147.723 85.3577 147.928 85.2202C148.133 85.0827 148.378 85.0177 148.624 85.0355C148.869 85.0533 149.103 85.1529 149.285 85.3185C149.298 85.3292 149.314 85.337 149.329 85.3418C149.345 85.3464 149.363 85.3478 149.379 85.3459C149.396 85.3439 149.411 85.3385 149.426 85.3302C149.441 85.3218 149.454 85.3107 149.464 85.2973C149.546 85.186 149.658 85.1004 149.786 85.0502C149.915 84.9999 150.055 84.987 150.191 85.0133C150.326 85.0394 150.453 85.1034 150.553 85.1979C150.654 85.2924 150.725 85.4135 150.76 85.5473C150.769 85.5784 150.79 85.6049 150.818 85.6213C150.845 85.6377 150.879 85.6424 150.91 85.6348C151.063 85.5902 151.223 85.5783 151.379 85.5998C151.62 85.635 151.841 85.7485 152.011 85.9228C152.181 86.0969 152.289 86.322 152.318 86.5635Z" fill="#21252B"/>
<path d="M149.185 86.0341L149.81 85.4941L151.326 85.8954L151.648 87.7141L151.62 88.0441C151.618 88.0614 151.611 88.0774 151.597 88.0891C151.585 88.101 151.568 88.1076 151.551 88.1079C151.533 88.1075 151.516 88.1004 151.502 88.0879C151.49 88.0754 151.482 88.0584 151.481 88.0404L151.466 87.5654C151.465 87.5219 151.447 87.4804 151.417 87.4488C151.387 87.4173 151.347 87.3978 151.303 87.3941C151.257 87.39 151.213 87.3676 151.183 87.3318C151.152 87.296 151.137 87.2496 151.141 87.2029L151.15 87.1029C151.19 86.6391 150.823 86.2554 150.315 86.2516C149.961 86.2516 149.62 86.5204 149.423 86.8004L149.185 86.0341Z" fill="#21252B"/>
<path d="M151.594 88.1768C151.569 88.4793 151.521 88.708 151.894 88.6293C152.609 88.4818 152.575 87.5043 152.124 87.3693C152.076 87.3504 152.024 87.3422 151.973 87.3454C151.921 87.3485 151.87 87.3629 151.825 87.3875C151.779 87.4123 151.74 87.4465 151.709 87.488C151.678 87.5297 151.656 87.5774 151.646 87.628L151.594 88.1768Z" fill="#FC9D9D"/>
<path opacity="0.15" d="M152.192 87.669C152.186 87.679 152.177 87.6865 152.166 87.6901C152.155 87.6939 152.142 87.6934 152.131 87.689C152.087 87.6658 152.037 87.6586 151.989 87.669C151.945 87.6923 151.911 87.7304 151.894 87.7765C151.867 87.8492 151.857 87.927 151.865 88.004V88.0866C151.866 88.0923 151.866 88.0982 151.864 88.1039C151.862 88.1096 151.86 88.1148 151.856 88.1194C151.852 88.1239 151.849 88.1277 151.842 88.1304C151.837 88.1332 151.832 88.1348 151.826 88.1353C151.821 88.1364 151.815 88.1362 151.809 88.1349C151.804 88.1336 151.799 88.1311 151.794 88.1274C151.789 88.1239 151.785 88.1194 151.782 88.1143C151.78 88.1092 151.777 88.1036 151.777 88.0978V88.0153C151.765 87.9225 151.776 87.8279 151.812 87.7415C151.825 87.707 151.845 87.6756 151.87 87.6494C151.895 87.623 151.926 87.6025 151.96 87.589C151.996 87.5796 152.034 87.5776 152.07 87.583C152.107 87.5884 152.142 87.601 152.174 87.6203C152.195 87.6365 152.205 87.6603 152.192 87.669Z" fill="black"/>
<path opacity="0.15" d="M151.916 89.0306L151.625 88.6094C151.701 88.65 151.789 88.6669 151.875 88.6581L151.916 89.0306Z" fill="black"/>
<path opacity="0.15" d="M150.312 90.503C150.665 90.45 150.986 90.2666 151.21 89.9892C151.216 89.9805 151.218 89.9695 151.217 89.9587C151.216 89.9479 151.21 89.9382 151.201 89.9317C151.197 89.9286 151.192 89.9263 151.187 89.925C151.182 89.9237 151.176 89.9235 151.171 89.9243C151.166 89.9252 151.161 89.927 151.156 89.9297C151.152 89.9326 151.148 89.9362 151.145 89.9405C150.972 90.1581 150.735 90.3155 150.467 90.3905C150.265 90.4436 150.052 90.447 149.848 90.4003C149.645 90.3534 149.455 90.2579 149.296 90.1217L149.247 90.7593C149.433 90.79 149.622 90.7833 149.806 90.7393C149.988 90.6951 150.161 90.6149 150.312 90.503Z" fill="black"/>
<path d="M151.576 87.5099C151.657 88.0849 151.792 90.2311 150.225 90.4299C148.95 90.5924 148.761 89.0311 148.761 89.0311L148.818 89.1311C148.921 89.3113 149.058 89.4683 149.225 89.5924L149.33 89.6711L149.388 89.3486C149.392 89.3275 149.401 89.3078 149.414 89.2911C149.427 89.2745 149.444 89.2616 149.464 89.2536L150.363 88.8636C150.393 88.8495 150.427 88.8479 150.458 88.8591C150.49 88.8704 150.516 88.8936 150.53 88.9236L150.742 89.3424C150.918 89.2213 151.067 89.0641 151.178 88.8815C151.29 88.6988 151.361 88.4945 151.387 88.2824L151.48 87.5461C151.48 87.5461 151.562 87.4086 151.576 87.5099Z" fill="#21252B"/>
<path opacity="0.3" d="M155.847 94.0352L153.791 94.2414L153.876 94.1564C153.585 94.1564 153.27 94.3152 153.286 94.6052L153.638 97.2639L153.959 104.91L155.719 104.926L155.889 96.2014L156.187 96.0764L155.847 94.0352Z" fill="black"/>
<path d="M150.168 89.4691C150.258 89.432 150.329 89.3624 150.37 89.2744C150.41 89.1863 150.415 89.0861 150.385 88.9941C150.293 89.0858 150.184 89.1588 150.064 89.2091C149.908 89.2738 149.74 89.3114 149.571 89.3204C149.636 89.4126 149.733 89.4784 149.841 89.5056C149.951 89.533 150.066 89.52 150.168 89.4691Z" fill="white"/>
<path d="M150.424 88.1043C150.424 88.0728 150.416 88.0419 150.398 88.0156C150.381 87.9894 150.356 87.9688 150.327 87.9566C150.298 87.9445 150.266 87.9413 150.234 87.9473C150.204 87.9534 150.176 87.9685 150.153 87.9908C150.131 88.0131 150.116 88.0415 150.109 88.0724C150.103 88.1033 150.107 88.1353 150.119 88.1644C150.132 88.1934 150.152 88.2183 150.178 88.2355C150.204 88.2529 150.236 88.262 150.267 88.2618C150.308 88.2618 150.348 88.2451 150.378 88.2156C150.408 88.1861 150.424 88.146 150.424 88.1043Z" fill="#21252B"/>
<path d="M150.227 88.1289C150.227 88.1228 150.226 88.1167 150.222 88.1115C150.218 88.1064 150.213 88.1024 150.208 88.1C150.202 88.0977 150.196 88.097 150.19 88.0983C150.183 88.0994 150.178 88.1024 150.173 88.1068C150.17 88.1112 150.166 88.1168 150.166 88.1228C150.165 88.1289 150.165 88.1352 150.167 88.1409C150.17 88.1465 150.173 88.1514 150.178 88.1549C150.183 88.1583 150.19 88.1601 150.196 88.1601C150.205 88.1599 150.212 88.1564 150.217 88.1506C150.223 88.1449 150.227 88.137 150.227 88.1289Z" fill="white"/>
<path d="M149.173 88.1474C149.174 88.1255 149.171 88.1034 149.165 88.0825C149.158 88.0616 149.146 88.0424 149.131 88.0261C149.116 88.0099 149.099 87.9969 149.079 87.988C149.058 87.9791 149.036 87.9746 149.014 87.9746C148.993 87.9746 148.97 87.9791 148.95 87.988C148.93 87.9969 148.913 88.0099 148.898 88.0261C148.883 88.0424 148.871 88.0616 148.864 88.0825C148.856 88.1034 148.854 88.1255 148.856 88.1474C148.86 88.1869 148.878 88.2236 148.908 88.2505C148.936 88.2772 148.975 88.2921 149.014 88.2921C149.054 88.2921 149.093 88.2772 149.121 88.2505C149.151 88.2236 149.169 88.1869 149.173 88.1474Z" fill="#21252B"/>
<path d="M156.354 97.9082H148.456V103.319H156.354V97.9082Z" fill="#B2B6BB"/>
<path d="M155.512 97.9346H154.596V99.1446H155.512V97.9346Z" fill="#3B97D2"/>
<path opacity="0.2" d="M156.357 97.9082H153.453V103.319H156.357V97.9082Z" fill="black"/>
<path d="M148.466 99.5693L149.506 99.5706L149.413 99.8631L149.506 100.072H148.466V99.5693Z" fill="#F4F4F4"/>
<path d="M151.675 102.409L153.082 102.409V101.834L151.675 101.834V102.409Z" fill="white"/>
<path d="M151.485 97.9346H150.482V99.1683H151.485V97.9346Z" fill="#3B97D2"/>
<path d="M148.954 88.1288C148.954 88.1204 148.951 88.1123 148.945 88.1063C148.939 88.1001 148.931 88.0967 148.923 88.0963C148.918 88.0954 148.913 88.0955 148.909 88.0967C148.904 88.0979 148.9 88.1 148.896 88.103C148.893 88.1062 148.889 88.1099 148.888 88.1143C148.885 88.1187 148.884 88.1234 148.884 88.1282C148.884 88.133 148.885 88.1378 148.888 88.1422C148.889 88.1464 148.893 88.1503 148.896 88.1533C148.9 88.1564 148.904 88.1585 148.909 88.1598C148.913 88.1609 148.918 88.161 148.923 88.16C148.931 88.16 148.939 88.1568 148.945 88.1509C148.95 88.145 148.954 88.1372 148.954 88.1288Z" fill="white"/>
<g opacity="0.15">
<path opacity="0.15" d="M149.402 88.8325C149.407 88.7837 149.43 88.7382 149.466 88.7054C149.502 88.6728 149.551 88.6552 149.6 88.6563C149.626 88.6563 149.652 88.6801 149.646 88.7051C149.644 88.7173 149.639 88.7284 149.629 88.7369C149.62 88.7453 149.609 88.7503 149.596 88.7513C149.584 88.7508 149.571 88.7528 149.56 88.7572C149.547 88.7614 149.537 88.768 149.527 88.7765C149.519 88.7849 149.511 88.7952 149.506 88.8065C149.501 88.8178 149.497 88.83 149.497 88.8425C149.497 88.855 149.499 88.8675 149.504 88.8792C149.507 88.8909 149.514 88.9017 149.522 88.9108C149.531 88.92 149.541 88.9274 149.552 88.9327C149.564 88.9379 149.576 88.9408 149.589 88.9413L149.797 88.9488C149.81 88.9504 149.821 88.9562 149.829 88.965C149.837 88.9739 149.842 88.9854 149.844 88.9975C149.841 89.0098 149.836 89.0209 149.826 89.0294C149.817 89.0378 149.806 89.0428 149.794 89.0438L149.585 89.0363C149.534 89.0324 149.486 89.0092 149.452 88.9712C149.419 88.9332 149.401 88.8835 149.402 88.8325Z" fill="black"/>
</g>
<path d="M148.332 87.9832V88.1607C148.355 88.3114 148.434 88.4484 148.55 88.546C148.667 88.6435 148.816 88.6947 148.968 88.6901C149.121 88.6855 149.266 88.6253 149.377 88.5208C149.488 88.4164 149.558 88.2751 149.572 88.1232V87.9469C149.572 87.8964 149.555 87.8474 149.523 87.8082L149.763 87.8019C149.732 87.8424 149.716 87.8922 149.717 87.9432V88.1194C149.708 88.2076 149.72 88.2966 149.748 88.3803C149.776 88.4641 149.822 88.5408 149.883 88.6055C149.943 88.6701 150.017 88.7211 150.1 88.7551C150.181 88.7892 150.268 88.8055 150.357 88.8028C150.446 88.8002 150.533 88.7788 150.612 88.7401C150.692 88.7013 150.762 88.6462 150.82 88.5781C150.876 88.5101 150.917 88.4308 150.941 88.3454C150.965 88.2601 150.971 88.1707 150.957 88.0832V87.9057C150.956 87.8758 150.95 87.8464 150.937 87.8193C150.925 87.792 150.907 87.7674 150.886 87.747C150.865 87.7265 150.838 87.7107 150.811 87.7C150.782 87.6895 150.753 87.6847 150.723 87.6857L149.945 87.7082L149.343 87.7257H149.248L148.558 87.7469C148.527 87.7467 148.497 87.7528 148.47 87.7647C148.441 87.7767 148.416 87.7942 148.395 87.8163C148.374 87.8384 148.357 87.8647 148.346 87.8933C148.335 87.9221 148.331 87.9526 148.332 87.9832ZM149.936 87.8032L150.713 87.7807C150.75 87.7797 150.786 87.7933 150.813 87.8186C150.84 87.8438 150.856 87.8788 150.857 87.9157V88.0919C150.858 88.1613 150.847 88.2304 150.821 88.2952C150.796 88.3601 150.758 88.4192 150.711 88.4694C150.663 88.5197 150.606 88.5601 150.542 88.5882C150.478 88.6162 150.41 88.6316 150.341 88.6332C150.271 88.6348 150.202 88.6228 150.137 88.5977C150.072 88.5727 150.013 88.5351 149.963 88.4872C149.913 88.4392 149.872 88.3818 149.845 88.3183C149.816 88.2548 149.801 88.1863 149.8 88.1169V87.9394C149.798 87.9214 149.802 87.9034 149.808 87.8867C149.816 87.8699 149.826 87.8547 149.838 87.8419C149.851 87.8292 149.866 87.8192 149.883 87.8125C149.9 87.8058 149.917 87.8027 149.936 87.8032ZM148.414 87.9882C148.412 87.9513 148.426 87.9157 148.451 87.8888C148.477 87.8619 148.511 87.8461 148.549 87.8444L149.238 87.8244H149.333C149.37 87.8234 149.406 87.8371 149.433 87.8623C149.46 87.8876 149.476 87.9226 149.477 87.9594V88.1357C149.48 88.2759 149.427 88.4117 149.331 88.5132C149.235 88.6147 149.101 88.6736 148.961 88.677C148.821 88.6803 148.685 88.6277 148.584 88.531C148.482 88.4341 148.422 88.3009 148.42 88.1607L148.414 87.9882Z" fill="#21252B"/>
<path d="M153.511 94.1623L154.021 96.626L156.484 96.031L156.005 93.3535L153.511 94.1623Z" fill="#21252B"/>
<path d="M157.072 98.895L156.357 96.0625L154.192 96.6287L154.786 99.0037L152.374 102.852L151.598 102.871L151.042 102.712C151.029 102.708 151.017 102.709 151.004 102.713C150.993 102.718 150.983 102.726 150.977 102.737C150.931 102.817 150.884 103.014 151.343 103.211L151.768 103.296H149.967C149.936 103.295 149.906 103.301 149.877 103.312C149.849 103.324 149.823 103.341 149.802 103.362C149.789 103.373 149.781 103.387 149.774 103.402C149.768 103.417 149.766 103.433 149.766 103.45C149.767 103.466 149.772 103.482 149.781 103.496C149.788 103.51 149.799 103.522 149.813 103.531C149.856 103.571 149.909 103.597 149.967 103.605L151.756 104.079C151.847 104.095 151.941 104.087 152.028 104.056L153.291 103.594L156.916 99.5412C156.992 99.4545 157.047 99.3502 157.074 99.2375C157.101 99.1249 157.101 99.0072 157.072 98.895Z" fill="#FC9D9D"/>
<path opacity="0.3" d="M147.053 96.2859L147.161 94.7859C147.162 94.765 147.155 94.7446 147.141 94.7285C147.128 94.7124 147.11 94.7018 147.088 94.6984C147.068 94.695 147.047 94.6993 147.03 94.7103C147.012 94.7214 146.998 94.7384 146.992 94.7584L146.595 96.2321L147.053 96.2859Z" fill="black"/>
<path d="M147.054 96.2855L145.665 96.1367L145.27 98.8342L141.055 100.9C141.026 100.898 141 100.887 140.977 100.869L140.879 100.79C140.79 100.736 140.692 100.698 140.59 100.678C140.342 100.632 140.124 100.493 139.977 100.289L139.745 99.968C139.742 99.964 139.739 99.9606 139.735 99.9581C139.731 99.9555 139.726 99.9537 139.722 99.9531C139.717 99.9523 139.712 99.9526 139.709 99.954C139.704 99.9552 139.7 99.9575 139.696 99.9605L139.667 99.9755C139.602 100.01 139.552 100.068 139.527 100.137C139.504 100.207 139.506 100.283 139.535 100.35L139.735 100.808C139.744 100.831 139.744 100.856 139.736 100.879C139.727 100.902 139.711 100.921 139.69 100.933L139.034 101.308C138.855 101.4 138.932 101.683 139.089 101.677C139 101.824 139.15 102.063 139.304 102.01C139.281 102.044 139.27 102.084 139.27 102.124C139.269 102.164 139.28 102.204 139.301 102.238C139.324 102.273 139.354 102.3 139.39 102.317C139.426 102.335 139.467 102.342 139.507 102.337C139.461 102.447 139.547 102.598 139.676 102.557C139.805 102.515 140.186 102.398 140.894 102.182L141.769 101.902L146.867 100.312L147.054 96.2855Z" fill="#FC9D9D"/>
<path opacity="0.15" d="M147.054 96.2858L146.605 96.2383H146.586L146.375 99.3033C146.364 99.4552 146.31 99.6007 146.219 99.7229C146.129 99.8452 146.005 99.9389 145.863 99.9933L141.613 101.618L141.685 101.593C141.425 101.669 141.171 101.762 140.925 101.873C140.404 102.14 139.709 102.426 139.652 102.451C139.629 102.465 139.6 102.471 139.572 102.467C139.545 102.463 139.52 102.451 139.5 102.431C139.502 102.451 139.51 102.471 139.521 102.489C139.531 102.507 139.546 102.522 139.564 102.534C139.58 102.546 139.6 102.554 139.62 102.558C139.641 102.561 139.662 102.561 139.682 102.556C139.827 102.51 141.058 102.135 141.771 101.925L141.764 101.91L146.872 100.317L147.054 96.2858Z" fill="black"/>
<path d="M143.733 131.254C143.733 131.275 143.733 131.298 143.733 131.319C143.733 131.369 143.753 131.418 143.79 131.453C143.825 131.489 143.873 131.509 143.923 131.509H149.182C149.267 131.509 149.35 131.486 149.421 131.443C149.493 131.398 149.551 131.334 149.588 131.259L143.733 131.254Z" fill="black"/>
<path d="M152.125 131.254V131.276C152.127 131.338 152.155 131.394 152.199 131.435C152.244 131.476 152.303 131.499 152.364 131.496H154.559C154.589 131.498 154.619 131.494 154.648 131.483C154.676 131.473 154.703 131.456 154.724 131.436C154.746 131.416 154.765 131.391 154.777 131.364C154.79 131.336 154.796 131.306 154.798 131.276V131.254H152.125Z" fill="black"/>
<path opacity="0.15" d="M157.072 98.8948L156.834 97.9561C156.834 97.9561 156.745 98.9073 156.334 99.3173L153.293 103.296L151.918 104.081C151.954 104.077 151.989 104.068 152.023 104.056L153.285 103.594L156.91 99.5411C156.988 99.4548 157.044 99.3508 157.072 99.2381C157.1 99.1254 157.1 99.0076 157.072 98.8948Z" fill="black"/>
<path d="M139.45 101.423L139.69 101.243C139.716 101.223 139.735 101.193 139.741 101.16C139.747 101.127 139.74 101.093 139.722 101.064C139.704 101.035 139.675 101.014 139.642 101.006C139.609 100.998 139.574 101.002 139.544 101.019L139.034 101.308C138.855 101.4 138.932 101.683 139.089 101.677L139.45 101.423Z" fill="#FC9D9D"/>
<path d="M139.655 101.266L139.088 101.679C139.003 101.824 139.148 102.054 139.299 102.011L139.855 101.511C139.884 101.486 139.903 101.451 139.908 101.413C139.913 101.374 139.904 101.336 139.883 101.304C139.87 101.286 139.855 101.271 139.836 101.259C139.819 101.248 139.799 101.24 139.778 101.236C139.756 101.233 139.734 101.234 139.713 101.239C139.693 101.244 139.673 101.253 139.655 101.266Z" fill="#FC9D9D"/>
<path d="M140.08 101.544C140.048 101.511 140.004 101.492 139.956 101.49C139.91 101.489 139.865 101.505 139.83 101.537L139.298 102.012C139.276 102.045 139.265 102.083 139.264 102.122C139.263 102.161 139.273 102.2 139.293 102.234C139.313 102.268 139.341 102.296 139.376 102.314C139.411 102.333 139.45 102.341 139.489 102.339L140.069 101.808C140.086 101.791 140.101 101.771 140.11 101.748C140.12 101.725 140.125 101.701 140.125 101.677C140.125 101.652 140.12 101.628 140.11 101.605C140.101 101.583 140.086 101.562 140.069 101.545L140.08 101.544Z" fill="#FC9D9D"/>
<path d="M140 102.015L139.5 102.336C139.454 102.446 139.54 102.598 139.669 102.556L139.772 102.524L140.156 102.251C140.185 102.231 140.205 102.2 140.212 102.165C140.22 102.131 140.215 102.095 140.197 102.064C140.187 102.048 140.175 102.033 140.16 102.022C140.145 102.011 140.127 102.003 140.109 101.998C140.09 101.994 140.071 101.993 140.052 101.996C140.034 101.999 140.016 102.005 140 102.015Z" fill="#FC9D9D"/>
<path opacity="0.15" d="M139.109 101.677L139.704 101.252" stroke="black" stroke-width="0.51" stroke-miterlimit="10" stroke-linecap="round"/>
<g opacity="0.15">
<path opacity="0.15" d="M139.875 102.017L139.535 102.267C139.52 102.37 139.563 102.587 139.676 102.551L139.765 102.524L140.205 102.2C140.219 102.186 140.228 102.168 140.23 102.149C140.234 102.121 140.231 102.093 140.221 102.067C140.213 102.04 140.198 102.017 140.178 101.997C140.156 101.978 140.133 101.964 140.106 101.956C140.079 101.948 140.051 101.947 140.024 101.952C139.971 101.966 139.92 101.988 139.875 102.017Z" fill="black"/>
<path opacity="0.15" d="M139.089 101.676C139 101.823 139.15 102.062 139.304 102.01C139.282 102.042 139.271 102.079 139.27 102.118C139.269 102.156 139.277 102.194 139.296 102.228C139.315 102.262 139.342 102.29 139.376 102.309C139.41 102.328 139.447 102.338 139.486 102.337L140.041 101.9C140.08 101.871 140.111 101.834 140.135 101.793C140.159 101.751 140.174 101.705 140.179 101.657C140.186 101.608 140.176 101.558 140.149 101.517C140.121 101.476 140.079 101.446 140.031 101.435C140.014 101.429 139.999 101.419 139.989 101.404C139.979 101.389 139.974 101.371 139.975 101.353C139.982 101.316 139.975 101.278 139.955 101.246C139.935 101.213 139.902 101.19 139.866 101.181C139.849 101.175 139.834 101.164 139.824 101.149C139.812 101.134 139.807 101.116 139.809 101.098C139.809 100.986 139.651 100.957 139.651 100.957L139.034 101.307C138.855 101.4 138.932 101.686 139.089 101.676Z" fill="black"/>
</g>
<path opacity="0.15" d="M139.322 101.975L139.832 101.558" stroke="black" stroke-width="0.51" stroke-miterlimit="10" stroke-linecap="round"/>
</svg>
