<svg width="14" height="14" viewBox="0 0 14 14" fill="none" xmlns="http://www.w3.org/2000/svg">
<path fill-rule="evenodd" clip-rule="evenodd" d="M3.1903 1.44006C3.23094 1.39931 3.27922 1.36699 3.33237 1.34493C3.38552 1.32288 3.4425 1.31152 3.50005 1.31152C3.5576 1.31152 3.61458 1.32288 3.66773 1.34493C3.72088 1.36699 3.76916 1.39931 3.8098 1.44006L9.0598 6.69006C9.10054 6.7307 9.13287 6.77897 9.15492 6.83213C9.17698 6.88528 9.18833 6.94226 9.18833 6.99981C9.18833 7.05735 9.17698 7.11433 9.15492 7.16748C9.13287 7.22064 9.10054 7.26892 9.0598 7.30956L3.8098 12.5596C3.72765 12.6417 3.61623 12.6879 3.50005 12.6879C3.38387 12.6879 3.27245 12.6417 3.1903 12.5596C3.10815 12.4774 3.062 12.366 3.062 12.2498C3.062 12.1336 3.10815 12.0222 3.1903 11.9401L8.13142 6.99981L3.1903 2.05956C3.14956 2.01892 3.11723 1.97064 3.09518 1.91748C3.07312 1.86433 3.06177 1.80735 3.06177 1.74981C3.06177 1.69226 3.07312 1.63528 3.09518 1.58213C3.11723 1.52897 3.14956 1.4807 3.1903 1.44006Z" fill="#3B97D2"/>
<path fill-rule="evenodd" clip-rule="evenodd" d="M6.6903 1.44006C6.73094 1.39931 6.77922 1.36699 6.83237 1.34493C6.88552 1.32288 6.9425 1.31152 7.00005 1.31152C7.0576 1.31152 7.11458 1.32288 7.16773 1.34493C7.22088 1.36699 7.26916 1.39931 7.3098 1.44006L12.5598 6.69006C12.6005 6.7307 12.6329 6.77897 12.6549 6.83213C12.677 6.88528 12.6883 6.94226 12.6883 6.99981C12.6883 7.05735 12.677 7.11433 12.6549 7.16748C12.6329 7.22064 12.6005 7.26892 12.5598 7.30956L7.3098 12.5596C7.22765 12.6417 7.11623 12.6879 7.00005 12.6879C6.88387 12.6879 6.77245 12.6417 6.6903 12.5596C6.60815 12.4774 6.562 12.366 6.562 12.2498C6.562 12.1336 6.60815 12.0222 6.6903 11.9401L11.6314 6.99981L6.6903 2.05956C6.64956 2.01892 6.61723 1.97064 6.59518 1.91748C6.57312 1.86433 6.56177 1.80735 6.56177 1.74981C6.56177 1.69226 6.57312 1.63528 6.59518 1.58213C6.61723 1.52897 6.64956 1.4807 6.6903 1.44006Z" fill="#3B97D2"/>
</svg>
