<?xml version="1.0" encoding="utf-8"?>
<!-- Generator: Adobe Illustrator 27.1.1, SVG Export Plug-In . SVG Version: 6.00 Build 0)  -->
<svg version="1.1" id="Layer_1" xmlns="http://www.w3.org/2000/svg" xmlns:xlink="http://www.w3.org/1999/xlink" x="0px" y="0px"
	 viewBox="0 0 500 500" style="enable-background:new 0 0 500 500;" xml:space="preserve">
<style type="text/css">
	.st0{fill:#3B97D2;}
</style>
<g id="XMLID_00000058550256416564556330000016875880114918164137_">
	<g id="XMLID_00000064339402248306485290000000819170056328989092_">
		<g id="XMLID_00000183219238156398204730000018278603297019586990_">
			<g id="XMLID_00000114052904822828452340000001805220267809427896_">
				<path id="XMLID_00000176759612746711065110000002814779646162230147_" class="st0" d="M402.66,406.06H297.71
					c-5.53,0-10.04-4.5-10.04-10.04V365.6c0-5.53,4.5-10.04,10.04-10.04h104.96c5.53,0,10.04,4.5,10.04,10.04v30.42
					C412.7,401.55,408.2,406.06,402.66,406.06z M297.71,364.33c-0.7,0-1.27,0.57-1.27,1.27v30.42c0,0.7,0.57,1.27,1.27,1.27h104.96
					c0.7,0,1.27-0.57,1.27-1.27V365.6c0-0.7-0.57-1.27-1.27-1.27H297.71z"/>
			</g>
			<g id="XMLID_00000041988404002411284200000011169577658838111396_">
				<path id="XMLID_00000165953742458863660840000005228310839338270094_" class="st0" d="M392.7,384.94h-18.82
					c-2.42,0-4.39-1.96-4.39-4.39c0-2.42,1.96-4.39,4.39-4.39h18.82c2.42,0,4.39,1.96,4.39,4.39
					C397.09,382.98,395.13,384.94,392.7,384.94z"/>
			</g>
		</g>
		<g id="XMLID_00000031184288053019784450000000082759793419723160_">
			<path id="XMLID_00000125568767746107263280000000008266383494072469_" class="st0" d="M397.3,364.33c-2.42,0-4.39-1.96-4.39-4.39
				V258.1c0-6.59-2.57-12.78-7.22-17.44l-31.61-31.61c-1.71-1.71-1.71-4.49,0-6.2c1.71-1.71,4.49-1.71,6.2,0l31.61,31.61
				c6.32,6.32,9.79,14.71,9.79,23.64v101.84C401.69,362.37,399.72,364.33,397.3,364.33z"/>
		</g>
		<g id="XMLID_00000096032678677038243010000000667507545534963387_">
			<path id="XMLID_00000089534399899345824150000014472531981753857940_" class="st0" d="M323.26,314.99c-1.12,0-2.24-0.43-3.1-1.28
				c-16.31-16.32-9.76-37.01-2.62-48.12l-22.2-22.2c-4.15-4.14-6.43-9.65-6.43-15.51c0-5.86,2.28-11.37,6.43-15.51
				c8.54-8.56,22.46-8.56,31.02,0l43.85,43.85c1.71,1.71,1.71,4.49,0,6.2c-1.71,1.71-4.49,1.71-6.2,0l-43.85-43.85
				c-5.13-5.13-13.49-5.13-18.62,0c-2.49,2.49-3.86,5.79-3.86,9.31c0,3.52,1.37,6.82,3.86,9.31l27.57,27.57l-2.42,3.06
				c-0.71,0.91-17.36,22.67-0.34,39.69c1.71,1.71,1.71,4.49,0,6.2C325.5,314.56,324.38,314.99,323.26,314.99z"/>
		</g>
		<g id="XMLID_00000053523275600923441130000000329887658497445020_">
			<path id="XMLID_00000177464974975732755970000009210868102669172610_" class="st0" d="M307.54,364.33
				c-2.42,0-4.39-1.96-4.39-4.39v-8.06c0-8.43-3.28-16.35-9.25-22.32c-7.62-7.62-11.81-17.75-11.81-28.52v-35.64
				c0-2.42,1.96-4.39,4.39-4.39c2.42,0,4.39,1.96,4.39,4.39v35.64c0,8.43,3.28,16.36,9.25,22.32c7.62,7.62,11.81,17.75,11.81,28.52
				v8.06C311.93,362.37,309.97,364.33,307.54,364.33z"/>
		</g>
	</g>
	<g id="XMLID_00000181071089069071768900000015929995228466938813_">
		<g id="XMLID_00000025416092312832396950000013946925733403238054_">
			<path id="XMLID_00000080911101588398232550000016635659250832710589_" class="st0" d="M323.26,269.8H136.78
				c-7.45,0-13.5-6.06-13.5-13.5V130.14c0-7.45,6.06-13.5,13.5-13.5h211.33c7.44,0,13.5,6.06,13.5,13.5v119.29
				c0,2.42-1.96,4.39-4.39,4.39c-2.42,0-4.39-1.96-4.39-4.39V130.14c0-2.61-2.12-4.73-4.73-4.73H136.78c-2.61,0-4.73,2.12-4.73,4.73
				v126.15c0,2.61,2.12,4.73,4.73,4.73h186.48c2.42,0,4.39,1.96,4.39,4.39C327.65,267.83,325.69,269.8,323.26,269.8z"/>
		</g>
		<g id="XMLID_00000060024697552982064950000013972033043196219570_">
			<path id="XMLID_00000137819935902564754130000002629144610638375061_" class="st0" d="M357.23,152.08H127.66
				c-2.42,0-4.39-1.96-4.39-4.39s1.96-4.39,4.39-4.39h229.56c2.42,0,4.39,1.96,4.39,4.39S359.65,152.08,357.23,152.08z"/>
		</g>
		<g id="XMLID_00000088849881248530902100000017686668114576236474_">
			<path id="XMLID_00000113321648052267366150000001965444681891507606_" class="st0" d="M357.23,188.63H127.66
				c-2.42,0-4.39-1.96-4.39-4.39c0-2.42,1.96-4.39,4.39-4.39h229.56c2.42,0,4.39,1.96,4.39,4.39
				C361.61,186.67,359.65,188.63,357.23,188.63z"/>
		</g>
		<g id="XMLID_00000003066790195964585060000013977462750900480645_">
			<path id="XMLID_00000081633080327240422380000002010094447625360016_" class="st0" d="M207,207.26h-55.18
				c-2.42,0-4.39-1.96-4.39-4.39s1.96-4.39,4.39-4.39H207c2.42,0,4.39,1.96,4.39,4.39S209.42,207.26,207,207.26z"/>
		</g>
		<g id="XMLID_00000111171814409345907890000002116963958286596230_">
			<path id="XMLID_00000067935740456553660230000014431783370149556895_" class="st0" d="M176.8,223.71h-24.98
				c-2.42,0-4.39-1.96-4.39-4.39s1.96-4.39,4.39-4.39h24.98c2.42,0,4.39,1.96,4.39,4.39S179.22,223.71,176.8,223.71z"/>
		</g>
	</g>
</g>
</svg>
