<?xml version="1.0" encoding="utf-8"?>
<!-- Generator: Adobe Illustrator 27.1.1, SVG Export Plug-In . SVG Version: 6.00 Build 0)  -->
<svg version="1.1" id="Layer_1" xmlns="http://www.w3.org/2000/svg" xmlns:xlink="http://www.w3.org/1999/xlink" x="0px" y="0px"
	 viewBox="0 0 500 500" style="enable-background:new 0 0 500 500;" xml:space="preserve">
<style type="text/css">
	.st0{fill:#3B97D2;}
</style>
<g id="XMLID_435_">
	<path id="XMLID_443_" class="st0" d="M128.68,280.98c-1.83-1.83-4.78-1.83-6.61,0c-1.83,1.83-1.83,4.78,0,6.61l14.07,14.07
		c0.91,0.91,2.11,1.37,3.31,1.37s2.39-0.46,3.31-1.37c1.83-1.83,1.83-4.78,0-6.61L128.68,280.98z"/>
	<path id="XMLID_733_" class="st0" d="M278.09,122.49v53.15H235.2c-9.45,0-18.34,3.68-25.02,10.36l-72.83,72.83l-0.7-0.7
		c-4.02-4.03-11.05-4.02-15.06,0l-22.75,22.74c-4.15,4.15-4.15,10.91,0,15.06l78.46,78.46c2.07,2.07,4.8,3.11,7.53,3.11
		c2.73,0,5.46-1.04,7.53-3.11l22.74-22.74c2.01-2.01,3.12-4.69,3.12-7.53c0-2.84-1.11-5.52-3.12-7.53l0,0l-4.04-4.04l2.72-2.72
		c6.3-6.29,14.66-9.76,23.57-9.76c11.4,0,22.12-4.44,30.18-12.5L278.09,297v68.72h126.18V122.49H278.09z M208.5,345.04l-22.74,22.74
		c-0.51,0.51-1.34,0.5-1.84,0l-78.46-78.46c-0.51-0.51-0.51-1.34,0-1.84l22.75-22.75c0.31-0.31,0.67-0.38,0.92-0.38
		c0.24,0,0.6,0.07,0.92,0.38l78.46,78.46c0.31,0.32,0.38,0.67,0.38,0.92C208.88,344.37,208.81,344.73,208.5,345.04z M260.92,300.95
		c-6.3,6.3-14.66,9.76-23.57,9.76c-11.4,0-22.12,4.44-30.18,12.5l-2.72,2.72l-60.49-60.49l72.83-72.83
		c4.92-4.92,11.46-7.62,18.41-7.62h42.89v23.12h-42.93c-2.58,0-4.68,2.09-4.68,4.68c0,2.58,2.09,4.68,4.68,4.68h65.56
		c7.65,0,13.88,6.22,13.88,13.88c0,7.65-6.23,13.88-13.88,13.88h-0.27h0h0l-17.65,0c-0.01,0-0.02,0-0.02,0s-0.02,0-0.02,0
		l-23.27,0.01l-0.5,4.1c-0.15,1.22-3.96,29.9-29.38,29.9c-2.58,0-4.68,2.09-4.68,4.68c0,2.58,2.09,4.68,4.68,4.68
		c24.4,0,34.99-20.36,37.96-34.02h10.54v29.22L260.92,300.95z M305.12,254.12c3.75-0.73,7.13-2.41,10-4.71
		c2.46,12.13,13.21,21.29,26.06,21.29c14.66,0,26.59-11.93,26.59-26.59c0-14.66-11.93-26.59-26.59-26.59
		c-7.08,0-13.51,2.8-18.28,7.33c-2.42-8.26-9.23-14.64-17.78-16.29v-37.71c10.82-1.94,19.37-10.5,21.31-21.32h29.5
		c1.94,10.82,10.5,19.38,21.32,21.32v146.54c-10.82,1.94-19.38,10.49-21.32,21.31h-29.5c-1.94-10.82-10.49-19.37-21.31-21.31V254.12
		z M341.18,226.87c9.51,0,17.24,7.73,17.24,17.24c0,9.51-7.73,17.24-17.24,17.24c-9.51,0-17.24-7.73-17.24-17.24
		C323.94,234.6,331.68,226.87,341.18,226.87z M394.92,356.37H287.44V254.56h8.33v71.75h4.68c9.4,0,17.05,7.65,17.05,17.05v4.68
		h47.36v-4.68c0-9.4,7.65-17.05,17.06-17.05h4.68V161.9h-4.68c-9.4,0-17.06-7.65-17.06-17.06v-4.68H317.5v4.68
		c0,9.41-7.65,17.06-17.05,17.06h-4.68v46.2h-8.33v-76.26h107.48V356.37z"/>
</g>
</svg>
