<svg width="9" height="10" viewBox="0 0 9 10" fill="none" xmlns="http://www.w3.org/2000/svg">
<path d="M0.178332 0.816027C0.234718 0.759498 0.301702 0.714649 0.375448 0.684048C0.449194 0.653446 0.528253 0.637695 0.608095 0.637695C0.687938 0.637695 0.766997 0.653446 0.840743 0.684048C0.914489 0.714649 0.981473 0.759498 1.03786 0.816027L4.25016 4.02954L7.46246 0.816027C7.5189 0.75959 7.5859 0.714821 7.65964 0.684277C7.73338 0.653734 7.81241 0.638013 7.89222 0.638013C7.97204 0.638013 8.05107 0.653734 8.12481 0.684277C8.19855 0.714821 8.26555 0.75959 8.32199 0.816027C8.37842 0.872464 8.42319 0.939465 8.45374 1.0132C8.48428 1.08694 8.5 1.16598 8.5 1.24579C8.5 1.32561 8.48428 1.40464 8.45374 1.47838C8.42319 1.55212 8.37842 1.61912 8.32199 1.67555L5.10847 4.88785L8.32199 8.10015C8.37842 8.15659 8.42319 8.22359 8.45374 8.29733C8.48428 8.37107 8.5 8.4501 8.5 8.52992C8.5 8.60973 8.48428 8.68877 8.45374 8.7625C8.42319 8.83624 8.37842 8.90324 8.32199 8.95968C8.26555 9.01612 8.19855 9.06089 8.12481 9.09143C8.05107 9.12197 7.97204 9.1377 7.89222 9.1377C7.81241 9.1377 7.73338 9.12197 7.65964 9.09143C7.5859 9.06089 7.5189 9.01612 7.46246 8.95968L4.25016 5.74617L1.03786 8.95968C0.981422 9.01612 0.914421 9.06089 0.840682 9.09143C0.766943 9.12197 0.68791 9.1377 0.608095 9.1377C0.528281 9.1377 0.449248 9.12197 0.375509 9.09143C0.30177 9.06089 0.234769 9.01612 0.178332 8.95968C0.121894 8.90324 0.0771258 8.83624 0.0465822 8.7625C0.0160385 8.68877 0.000317811 8.60973 0.000317811 8.52992C0.000317811 8.4501 0.0160385 8.37107 0.0465822 8.29733C0.0771258 8.22359 0.121894 8.15659 0.178332 8.10015L3.39185 4.88785L0.178332 1.67555C0.121803 1.61917 0.0769535 1.55218 0.0463523 1.47844C0.0157512 1.40469 0 1.32563 0 1.24579C0 1.16595 0.0157512 1.08689 0.0463523 1.01314C0.0769535 0.939397 0.121803 0.872413 0.178332 0.816027Z" fill="#7C7C7C"/>
</svg>
