<svg width="24" height="25" viewBox="0 0 24 25" fill="none" xmlns="http://www.w3.org/2000/svg">
<path d="M24 12.9199C24 16.1025 22.7357 19.1548 20.4853 21.4052C18.2348 23.6556 15.1826 24.9199 12 24.9199C8.8174 24.9199 5.76516 23.6556 3.51472 21.4052C1.26428 19.1548 0 16.1025 0 12.9199C0 9.73732 1.26428 6.68508 3.51472 4.43464C5.76516 2.1842 8.8174 0.919922 12 0.919922C15.1826 0.919922 18.2348 2.1842 20.4853 4.43464C22.7357 6.68508 24 9.73732 24 12.9199ZM8.031 7.88892C7.89017 7.74809 7.69916 7.66897 7.5 7.66897C7.30084 7.66897 7.10983 7.74809 6.969 7.88892C6.82817 8.02975 6.74905 8.22076 6.74905 8.41992C6.74905 8.61909 6.82817 8.81009 6.969 8.95092L10.9395 12.9199L6.969 16.8889C6.89927 16.9587 6.84395 17.0414 6.80621 17.1325C6.76848 17.2237 6.74905 17.3213 6.74905 17.4199C6.74905 17.5185 6.76848 17.6162 6.80621 17.7073C6.84395 17.7984 6.89927 17.8812 6.969 17.9509C7.10983 18.0918 7.30084 18.1709 7.5 18.1709C7.59862 18.1709 7.69627 18.1514 7.78738 18.1137C7.87848 18.076 7.96127 18.0207 8.031 17.9509L12 13.9804L15.969 17.9509C16.0387 18.0207 16.1215 18.076 16.2126 18.1137C16.3037 18.1514 16.4014 18.1709 16.5 18.1709C16.5986 18.1709 16.6963 18.1514 16.7874 18.1137C16.8785 18.076 16.9613 18.0207 17.031 17.9509C17.1007 17.8812 17.156 17.7984 17.1938 17.7073C17.2315 17.6162 17.2509 17.5185 17.2509 17.4199C17.2509 17.3213 17.2315 17.2237 17.1938 17.1325C17.156 17.0414 17.1007 16.9587 17.031 16.8889L13.0605 12.9199L17.031 8.95092C17.1007 8.88119 17.156 8.79841 17.1938 8.7073C17.2315 8.61619 17.2509 8.51854 17.2509 8.41992C17.2509 8.32131 17.2315 8.22366 17.1938 8.13255C17.156 8.04144 17.1007 7.95865 17.031 7.88892C16.9613 7.81919 16.8785 7.76388 16.7874 7.72614C16.6963 7.6884 16.5986 7.66897 16.5 7.66897C16.4014 7.66897 16.3037 7.6884 16.2126 7.72614C16.1215 7.76388 16.0387 7.81919 15.969 7.88892L12 11.8594L8.031 7.88892Z" fill="#C0392B"/>
</svg>
