<svg width="264" height="188" viewBox="0 0 264 188" fill="none" xmlns="http://www.w3.org/2000/svg">
<g clip-path="url(#clip0_133_10155)">
<path d="M241.09 169.122C243.402 173.21 241.441 187.016 241.441 187.016C241.441 187.016 228.6 181.581 226.287 177.495C225.18 175.532 224.896 173.21 225.5 171.038C226.104 168.867 227.545 167.024 229.506 165.914C231.468 164.805 233.79 164.519 235.962 165.121C238.134 165.723 239.978 167.162 241.09 169.122V169.122Z" fill="#F1F1F1"/>
<path d="M241.627 186.999L241.355 187.056C238.727 174.573 229.551 166.108 229.459 166.024L229.647 165.817C229.74 165.902 238.981 174.425 241.627 186.999Z" fill="white"/>
<path d="M262.101 173.778C258.963 179.47 241.271 187.182 241.271 187.182C241.271 187.182 238.354 168.104 241.491 162.413C242.998 159.68 245.529 157.657 248.527 156.79C251.525 155.923 254.745 156.283 257.478 157.79C260.212 159.297 262.234 161.828 263.101 164.826C263.968 167.825 263.609 171.044 262.101 173.778Z" fill="#F1F1F1"/>
<path d="M241.428 187.388L241.162 187.108C253.964 174.95 257.279 157.992 257.31 157.822L257.69 157.894C257.658 158.065 254.323 175.141 241.428 187.388Z" fill="white"/>
<path d="M62.3169 130.673C60.2921 130.666 58.2763 130.405 56.3165 129.896L55.9302 129.789L55.5719 129.61C42.6173 123.115 31.6881 114.536 23.0881 104.11C15.969 95.43 10.4187 85.5743 6.68662 74.9865C2.22368 62.3102 0.0765664 48.9348 0.347782 35.4986C0.353254 35.2165 0.357886 34.9988 0.357886 34.8488C0.357886 28.3173 3.98332 22.5865 9.5941 20.2486C13.8883 18.4594 52.8777 2.44489 55.6948 1.2878C61.0001 -1.3705 66.6599 0.848271 67.5657 1.23628C69.5973 2.0669 105.641 16.809 113.429 20.5179C121.457 24.3404 123.599 31.2074 123.599 34.6623C123.599 50.3037 120.89 64.9219 115.547 78.1107C111.232 88.7861 105.117 98.6416 97.4674 107.248C82.7085 123.857 67.9457 129.745 67.8032 129.797C66.0388 130.404 64.1825 130.7 62.3169 130.673ZM58.8451 122.073C60.125 122.36 63.0718 122.79 64.9924 122.09C67.4323 121.2 79.7885 114.792 91.335 101.799C107.288 83.8456 115.383 61.2771 115.395 34.72C115.366 34.182 114.984 30.3446 109.903 27.9248C102.265 24.2876 64.8007 8.96867 64.4231 8.81428L64.3196 8.7704C63.5345 8.4414 61.0359 7.7484 59.3135 8.65096L58.9687 8.81174C58.5511 8.98325 17.1634 25.982 12.7494 27.8212C9.66165 29.1077 8.5615 32.295 8.5615 34.8488C8.5615 35.0354 8.55667 35.3069 8.54985 35.6577C8.19708 53.8291 12.402 98.5431 58.8451 122.073Z" fill="#3F3D56"/>
<path d="M57.4103 5.01698C57.4103 5.01698 15.6465 22.17 11.1718 24.0344C6.69705 25.8989 4.4597 30.3736 4.4597 34.8483C4.4597 39.323 1.10369 97.7118 57.4103 125.943C57.4103 125.943 62.5207 127.357 66.3979 125.943C70.2751 124.529 119.497 100.664 119.497 34.6619C119.497 34.6619 119.497 27.9498 111.666 24.2209C103.835 20.492 65.9751 5.01698 65.9751 5.01698C65.9751 5.01698 61.3257 2.96608 57.4103 5.01698Z" fill="#3B97D2"/>
<path opacity="0.1" d="M61.885 18.4414V109.947C61.885 109.947 19.7482 89.6637 20.1211 36.3402L61.885 18.4414Z" fill="black"/>
<path d="M62.4346 84.2079L49.012 66.9492L56.8178 60.8782L63.1734 69.0497L84.6438 46.3848L91.8235 53.1872L62.4346 84.2079Z" fill="white"/>
<path d="M263.678 188H141.027C140.942 188 140.86 187.966 140.8 187.906C140.739 187.846 140.706 187.764 140.706 187.678C140.706 187.593 140.739 187.511 140.8 187.451C140.86 187.39 140.942 187.356 141.027 187.356H263.678C263.764 187.356 263.845 187.39 263.906 187.451C263.966 187.511 264 187.593 264 187.678C264 187.764 263.966 187.846 263.906 187.906C263.845 187.966 263.764 188 263.678 188Z" fill="#CACACA"/>
<path d="M176.482 182.925L181.46 182.925L183.829 163.722L176.481 163.722L176.482 182.925Z" fill="#FFB8B8"/>
<path d="M175.212 181.3L185.017 181.3H185.017C186.674 181.3 188.264 181.958 189.435 183.13C190.607 184.302 191.265 185.891 191.266 187.548V187.751L175.212 187.752L175.212 181.3Z" fill="#2F2E41"/>
<path d="M193.222 182.925L198.2 182.925L200.569 163.722L193.221 163.722L193.222 182.925Z" fill="#FFB8B8"/>
<path d="M191.952 181.3L201.756 181.3H201.757C203.414 181.3 205.003 181.958 206.175 183.13C207.347 184.302 208.005 185.891 208.005 187.548V187.751L191.952 187.752L191.952 181.3Z" fill="#2F2E41"/>
<path d="M184.307 115.488L185.502 176.411L175.84 175.812L169.138 137.007L167.021 110.549L184.307 115.488Z" fill="#2F2E41"/>
<path d="M200.887 105.258L202.241 177.376L190.974 177.055L188.54 134.185L184.307 118.663L167.021 110.549L169.844 91.1467L195.243 90.7939L200.887 105.258Z" fill="#2F2E41"/>
<path d="M181.462 40.7003C186.234 40.7003 190.102 36.8322 190.102 32.0606C190.102 27.289 186.234 23.4209 181.462 23.4209C176.69 23.4209 172.822 27.289 172.822 32.0606C172.822 36.8322 176.69 40.7003 181.462 40.7003Z" fill="#FFB8B8"/>
<path d="M188.628 44.3398L189.951 46.3447L193.479 56.2221L190.657 94.6739L174.077 95.0271L171.96 50.9305L176.394 45.3883L188.628 44.3398Z" fill="#CCCCCC"/>
<path d="M165.258 51.9895L162.435 51.6367C162.435 51.6367 161.73 51.9895 161.377 54.4589C161.024 56.9283 156.791 78.8 156.791 78.8L162.435 105.611L168.785 97.1441L164.905 82.3278L168.785 67.5114L165.258 51.9895Z" fill="#2F2E41"/>
<path d="M201.24 51.6367H203.357L208.648 80.2108L203.709 102.435L198.771 94.3217L200.182 85.5025L199.476 77.7417L197.007 73.1553L201.24 51.6367Z" fill="#2F2E41"/>
<path d="M186.567 32.0607L184.996 31.668C184.996 31.668 183.818 24.9918 181.069 25.7773C178.32 26.5627 171.251 27.3481 171.251 24.2064C171.251 21.0647 177.928 18.3157 181.855 18.7084C185.782 19.1011 190.797 20.404 192.065 26.17C194.098 35.4132 187.872 37.7479 187.872 37.7479L187.976 37.4114C188.263 36.4769 188.284 35.4806 188.035 34.5351C187.786 33.5896 187.278 32.7325 186.567 32.0607Z" fill="#2F2E41"/>
<path d="M162.788 51.6363L174.077 47.0503L176.723 45.1101L184.66 80.2107L188.364 44.0518L203.004 51.6363L198.065 75.6247L197.36 84.7967L199.476 92.2049C199.476 92.2049 206.884 97.4965 204.415 103.141C201.946 108.785 199.123 109.138 199.123 109.138C199.123 109.138 187.129 97.8493 186.424 95.0271C185.718 92.2049 184.66 87.2661 184.66 87.2661C184.66 87.2661 178.663 109.843 171.607 109.491C164.552 109.138 164.552 101.73 164.552 101.73L166.316 93.9688L169.138 85.855L167.727 72.4498L162.788 51.6363Z" fill="#2F2E41"/>
</g>
<defs>
<clipPath id="clip0_133_10155">
<rect width="263.673" height="188" fill="white" transform="translate(0.32666)"/>
</clipPath>
</defs>
</svg>
