<svg width="220" height="188" viewBox="0 0 220 188" fill="none" xmlns="http://www.w3.org/2000/svg">
<g clip-path="url(#clip0_133_10117)">
<path d="M16.4516 172.526C17.714 172.97 19.0695 173.081 20.3873 172.849C21.7052 172.617 22.9411 172.049 23.9759 171.201C26.6113 168.989 27.4377 165.345 28.1099 161.971L30.0984 151.99L25.9352 154.857C22.9411 156.918 19.8797 159.046 17.8067 162.032C15.7338 165.018 14.8295 169.094 16.4945 172.326" fill="#E6E6E6"/>
<path d="M17.0944 185.304C16.5704 181.486 16.0313 177.619 16.3997 173.761C16.7263 170.334 17.7718 166.988 19.9003 164.242C21.0301 162.789 22.4049 161.543 23.9628 160.561C24.3689 160.305 24.7428 160.948 24.3384 161.204C21.6427 162.907 19.5577 165.423 18.3839 168.388C17.0875 171.685 16.8793 175.279 17.1026 178.782C17.2376 180.9 17.5244 183.004 17.8125 185.105C17.8352 185.2 17.821 185.301 17.7727 185.386C17.7245 185.471 17.6457 185.534 17.5525 185.563C17.4573 185.589 17.3559 185.576 17.2702 185.527C17.1845 185.479 17.1214 185.398 17.0947 185.303L17.0944 185.304Z" fill="#F2F2F2"/>
<path d="M20.866 179.179C21.4073 180.002 22.1515 180.671 23.0269 181.123C23.9023 181.575 24.8793 181.794 25.8638 181.759C28.3945 181.639 30.5034 179.873 32.4017 178.197L38.0176 173.238L34.301 173.06C31.6281 172.932 28.8863 172.812 26.3405 173.637C23.7946 174.462 21.4468 176.445 20.9813 179.081" fill="#E6E6E6"/>
<path d="M15.6132 187.498C18.1359 183.035 21.0618 178.074 26.2904 176.488C27.7441 176.049 29.2684 175.891 30.7812 176.024C31.258 176.066 31.1389 176.8 30.6631 176.759C28.1272 176.549 25.5962 177.219 23.4963 178.656C21.4754 180.031 19.9019 181.943 18.5703 183.971C17.7546 185.214 17.0239 186.508 16.2932 187.802C16.0597 188.215 15.377 187.916 15.6132 187.498Z" fill="#F2F2F2"/>
<path d="M217.471 132.395H78.3883C77.9597 132.394 77.5489 132.224 77.2458 131.921C76.9428 131.618 76.7723 131.207 76.7717 130.778V1.61654C76.7723 1.18798 76.9428 0.77713 77.2458 0.474092C77.5489 0.171054 77.9597 0.000560236 78.3883 0H217.471C217.899 0.000560236 218.31 0.171054 218.613 0.474092C218.916 0.77713 219.087 1.18798 219.087 1.61654V130.778C219.087 131.207 218.916 131.617 218.613 131.921C218.31 132.224 217.899 132.394 217.471 132.395V132.395Z" fill="white"/>
<path d="M217.471 132.395H78.3883C77.9597 132.394 77.5489 132.224 77.2458 131.921C76.9428 131.618 76.7723 131.207 76.7717 130.778V1.61654C76.7723 1.18798 76.9428 0.77713 77.2458 0.474092C77.5489 0.171054 77.9597 0.000560236 78.3883 0H217.471C217.899 0.000560236 218.31 0.171054 218.613 0.474092C218.916 0.77713 219.087 1.18798 219.087 1.61654V130.778C219.087 131.207 218.916 131.617 218.613 131.921C218.31 132.224 217.899 132.394 217.471 132.395V132.395ZM78.3883 0.645342C78.1314 0.6459 77.8853 0.74818 77.7037 0.929796C77.522 1.11141 77.4198 1.35758 77.4192 1.61442V130.778C77.4198 131.035 77.522 131.281 77.7037 131.463C77.8853 131.644 78.1314 131.746 78.3883 131.747H217.471C217.728 131.747 217.974 131.644 218.155 131.463C218.337 131.281 218.439 131.035 218.44 130.778V1.61654C218.439 1.3597 218.337 1.11353 218.155 0.931917C217.974 0.750301 217.728 0.648021 217.471 0.647464L78.3883 0.645342Z" fill="#CACACA"/>
<path d="M144.107 33.5635C143.817 33.564 143.538 33.6798 143.332 33.8856C143.127 34.0913 143.012 34.3702 143.012 34.661C143.012 34.9517 143.127 35.2306 143.332 35.4363C143.538 35.6421 143.817 35.7579 144.107 35.7584H204.328C204.619 35.7579 204.898 35.6421 205.103 35.4363C205.308 35.2306 205.424 34.9517 205.424 34.661C205.424 34.3702 205.308 34.0913 205.103 33.8856C204.898 33.6798 204.619 33.564 204.328 33.5635H144.107Z" fill="#E4E4E4"/>
<path d="M144.107 40.1484C143.817 40.1491 143.538 40.2651 143.333 40.4708C143.128 40.6766 143.012 40.9553 143.012 41.2459C143.012 41.5365 143.128 41.8153 143.333 42.021C143.538 42.2267 143.817 42.3427 144.107 42.3434H174.851C175.142 42.3427 175.42 42.2267 175.625 42.021C175.831 41.8153 175.946 41.5365 175.946 41.2459C175.946 40.9553 175.831 40.6766 175.625 40.4708C175.42 40.2651 175.142 40.1491 174.851 40.1484H144.107Z" fill="#E4E4E4"/>
<path d="M91.4722 75.5625C91.1816 75.5632 90.9032 75.6791 90.6979 75.8849C90.4927 76.0906 90.3774 76.3693 90.3774 76.6599C90.3774 76.9505 90.4927 77.2293 90.6979 77.435C90.9032 77.6407 91.1816 77.7567 91.4722 77.7574H204.386C204.677 77.7567 204.956 77.6407 205.161 77.435C205.366 77.2293 205.481 76.9505 205.481 76.6599C205.481 76.3693 205.366 76.0906 205.161 75.8849C204.956 75.6791 204.677 75.5632 204.386 75.5625H91.4722Z" fill="#E4E4E4"/>
<path d="M91.4722 82.1484C91.1816 82.1491 90.9032 82.2651 90.6979 82.4708C90.4927 82.6766 90.3774 82.9553 90.3774 83.246C90.3774 83.5366 90.4927 83.8153 90.6979 84.0211C90.9032 84.2268 91.1816 84.3428 91.4722 84.3435H174.91C175.2 84.3428 175.479 84.2268 175.684 84.0211C175.889 83.8153 176.004 83.5366 176.004 83.246C176.004 82.9553 175.889 82.6766 175.684 82.4708C175.479 82.2651 175.2 82.1491 174.91 82.1484H91.4722Z" fill="#E4E4E4"/>
<path d="M91.4722 88.585C91.1816 88.5857 90.9032 88.7016 90.6979 88.9074C90.4927 89.1131 90.3774 89.3919 90.3774 89.6825C90.3774 89.9731 90.4927 90.2519 90.6979 90.4576C90.9032 90.6634 91.1816 90.7793 91.4722 90.78H204.386C204.677 90.7793 204.956 90.6634 205.161 90.4576C205.366 90.2519 205.481 89.9731 205.481 89.6825C205.481 89.3919 205.366 89.1131 205.161 88.9074C204.956 88.7016 204.677 88.5857 204.386 88.585H91.4722Z" fill="#E4E4E4"/>
<path d="M91.4722 95.1699C91.1816 95.1706 90.9032 95.2866 90.6979 95.4923C90.4927 95.698 90.3774 95.9768 90.3774 96.2674C90.3774 96.558 90.4927 96.8367 90.6979 97.0425C90.9032 97.2482 91.1816 97.3642 91.4722 97.3649H174.91C175.2 97.3642 175.479 97.2482 175.684 97.0425C175.889 96.8367 176.004 96.558 176.004 96.2674C176.004 95.9768 175.889 95.698 175.684 95.4923C175.479 95.2866 175.2 95.1706 174.91 95.1699H91.4722Z" fill="#E4E4E4"/>
<path d="M91.4722 101.778C91.1816 101.779 90.9032 101.895 90.6979 102.101C90.4927 102.306 90.3774 102.585 90.3774 102.876C90.3774 103.166 90.4927 103.445 90.6979 103.651C90.9032 103.857 91.1816 103.973 91.4722 103.973H204.386C204.677 103.973 204.956 103.857 205.161 103.651C205.366 103.445 205.481 103.166 205.481 102.876C205.481 102.585 205.366 102.306 205.161 102.101C204.956 101.895 204.677 101.779 204.386 101.778H91.4722Z" fill="#E4E4E4"/>
<path d="M91.4722 108.363C91.1816 108.364 90.9032 108.48 90.6979 108.686C90.4927 108.891 90.3774 109.17 90.3774 109.461C90.3774 109.751 90.4927 110.03 90.6979 110.236C90.9032 110.442 91.1816 110.558 91.4722 110.558H174.91C175.2 110.558 175.479 110.442 175.684 110.236C175.889 110.03 176.004 109.751 176.004 109.461C176.004 109.17 175.889 108.891 175.684 108.686C175.479 108.48 175.2 108.364 174.91 108.363H91.4722Z" fill="#E4E4E4"/>
<path d="M109.357 53.721C106.238 53.721 103.19 52.7963 100.597 51.0637C98.0036 49.3312 95.9826 46.8686 94.7892 43.9874C93.5957 41.1063 93.2834 37.9359 93.8918 34.8772C94.5002 31.8186 96.0019 29.009 98.2071 26.8039C100.412 24.5987 103.222 23.097 106.28 22.4885C109.339 21.8801 112.509 22.1924 115.391 23.3858C118.272 24.5792 120.734 26.6002 122.467 29.1932C124.2 31.7862 125.124 34.8347 125.124 37.9533C125.12 42.1337 123.457 46.1415 120.501 49.0974C117.545 52.0534 113.537 53.7162 109.357 53.721Z" fill="#27AE60"/>
<path d="M61.4935 113.34C61.4662 112.765 61.3131 112.202 61.0449 111.692C60.7767 111.182 60.3999 110.737 59.9412 110.389C59.4824 110.04 58.9528 109.796 58.3897 109.674C57.8265 109.553 57.2435 109.556 56.6817 109.684L51.4699 102.339L46.2339 104.417L53.7397 114.687C54.0172 115.616 54.626 116.412 55.4507 116.922C56.2755 117.433 57.2589 117.623 58.2146 117.457C59.1704 117.291 60.0321 116.781 60.6364 116.022C61.2407 115.263 61.5456 114.309 61.4935 113.34H61.4935Z" fill="#A0616A"/>
<path d="M51.3357 112.795L35.5654 92.3364L41.4744 73.7655C41.9074 69.0966 44.8291 67.7928 44.9534 67.7396L45.143 67.6582L50.2849 81.3703L46.5095 91.4379L55.7761 107.023L51.3357 112.795Z" fill="#3F3D56"/>
<path d="M106.103 49.7284C105.531 49.8001 104.982 49.9962 104.495 50.3031C104.007 50.6099 103.592 51.0199 103.28 51.5042C102.968 51.9886 102.766 52.5354 102.688 53.1063C102.61 53.6772 102.659 54.2582 102.83 54.8084L95.9097 60.5725L98.3869 65.6321L108.045 57.3548C108.95 57.0063 109.696 56.3379 110.142 55.4761C110.587 54.6143 110.701 53.6191 110.461 52.6791C110.222 51.739 109.646 50.9194 108.843 50.3756C108.04 49.8318 107.065 49.6015 106.103 49.7284Z" fill="#A0616A"/>
<path d="M106.346 59.8978L87.1677 77.2026L68.1955 72.7472C63.507 72.6765 61.9812 69.8644 61.9185 69.7445L61.8228 69.5617L75.0963 63.3751L85.4257 66.3607L100.248 55.917L106.346 59.8978Z" fill="#3F3D56"/>
<path d="M73.1262 182.917L78.2791 182.917L80.7302 163.042L73.1252 163.042L73.1262 182.917Z" fill="#A0616A"/>
<path d="M88.2166 187.701L72.022 187.702L72.0218 181.445L83.6728 181.444C84.8778 181.444 86.0335 181.923 86.8856 182.775C87.7377 183.627 88.2164 184.783 88.2165 185.988L88.2166 187.701L88.2166 187.701Z" fill="#2F2E41"/>
<path d="M52.5314 182.917L57.6842 182.917L60.1356 163.042L52.5308 163.042L52.5314 182.917Z" fill="#A0616A"/>
<path d="M67.6218 187.701L51.4273 187.702L51.427 181.445L63.0781 181.444C63.6748 181.444 64.2656 181.562 64.8168 181.79C65.3681 182.018 65.869 182.353 66.2909 182.775C66.7128 183.197 67.0475 183.698 67.2758 184.249C67.5042 184.8 67.6217 185.391 67.6217 185.988L67.6218 187.701Z" fill="#2F2E41"/>
<path d="M50.6987 110.371L51.119 139.792L51.5396 178.459L60.7859 177.619L65.4094 124.241L71.2936 177.619H80.8395L81.801 123.821L78.4387 112.052L50.6987 110.371Z" fill="#2F2E41"/>
<path d="M68.7966 114.322C58.7358 114.323 49.4749 109.769 49.3499 109.707L49.246 109.655L48.4017 89.3931C48.1569 88.6771 43.3359 74.5486 42.5194 70.0579C41.6921 65.5082 53.6818 61.5152 55.1377 61.0483L55.4682 57.3882L68.9041 55.9404L70.607 60.6236L75.4272 62.4311C75.9737 62.6361 76.4259 63.0345 76.6983 63.5508C76.9706 64.067 77.0441 64.6652 76.9049 65.232L74.2259 76.1266L80.7689 112.171L79.3603 112.232C75.9838 113.757 72.3396 114.322 68.7966 114.322Z" fill="#3F3D56"/>
<path d="M67.3522 52.4362C72.0402 49.8735 73.7631 43.9956 71.2004 39.3076C68.6377 34.6196 62.7598 32.8967 58.0719 35.4594C53.3839 38.0221 51.661 43.9 54.2237 48.588C56.7864 53.276 62.6642 54.9989 67.3522 52.4362Z" fill="#A0616A"/>
<path d="M54.8769 53.3136C56.7205 55.2775 60.1443 54.2232 60.3846 51.5403C60.4034 51.3321 60.4021 51.1224 60.3805 50.9144C60.2565 49.726 59.5699 48.6471 59.7343 47.3923C59.7716 47.08 59.8879 46.7824 60.0724 46.5276C61.5415 44.5603 64.9902 47.4075 66.3767 45.6266C67.2269 44.5346 66.2275 42.8152 66.8799 41.5947C67.741 39.9838 70.2915 40.7785 71.8909 39.8963C73.6705 38.9147 73.564 36.1844 72.3926 34.5236C70.964 32.4983 68.4592 31.4176 65.9856 31.2619C63.512 31.1061 61.0555 31.7748 58.7462 32.6747C56.1223 33.6973 53.5204 35.1104 51.9057 37.4176C49.9421 40.2233 49.7531 43.9954 50.7351 47.2762C51.3325 49.2719 53.3714 51.7099 54.8769 53.3136Z" fill="#2F2E41"/>
<path d="M122.924 187.951H0.32179C0.236446 187.951 0.154592 187.917 0.0942451 187.857C0.0338977 187.797 0 187.715 0 187.629C0 187.544 0.0338977 187.462 0.0942451 187.402C0.154592 187.342 0.236446 187.308 0.32179 187.308H122.924C123.009 187.308 123.091 187.342 123.151 187.402C123.212 187.462 123.246 187.544 123.246 187.629C123.246 187.715 123.212 187.797 123.151 187.857C123.091 187.917 123.009 187.951 122.924 187.951Z" fill="#CACACA"/>
<path d="M108.446 43.9087C108.162 43.909 107.888 43.8014 107.68 43.6076L102.481 38.7784C102.262 38.5751 102.133 38.2933 102.123 37.995C102.112 37.6967 102.22 37.4063 102.423 37.1875C102.626 36.9688 102.908 36.8397 103.206 36.8285C103.504 36.8174 103.795 36.9251 104.014 37.128L108.418 41.2185L117.131 32.5057C117.235 32.4005 117.359 32.3169 117.496 32.2598C117.633 32.2027 117.78 32.1731 117.928 32.1729C118.076 32.1726 118.223 32.2016 118.36 32.2582C118.497 32.3148 118.622 32.3979 118.727 32.5028C118.831 32.6077 118.914 32.7322 118.971 32.8692C119.028 33.0063 119.057 33.1531 119.056 33.3014C119.056 33.4497 119.026 33.5964 118.969 33.7332C118.912 33.8701 118.829 33.9942 118.723 34.0987L109.243 43.5789C109.138 43.6836 109.014 43.7666 108.878 43.8232C108.741 43.8798 108.594 43.9088 108.446 43.9087Z" fill="white"/>
</g>
<defs>
<clipPath id="clip0_133_10117">
<rect width="219.087" height="188" fill="white"/>
</clipPath>
</defs>
</svg>
