<svg width="24" height="25" viewBox="0 0 24 25" fill="none" xmlns="http://www.w3.org/2000/svg">
<path d="M12 24.9199C15.1826 24.9199 18.2348 23.6556 20.4853 21.4052C22.7357 19.1548 24 16.1025 24 12.9199C24 9.73732 22.7357 6.68508 20.4853 4.43464C18.2348 2.1842 15.1826 0.919922 12 0.919922C8.8174 0.919922 5.76516 2.1842 3.51472 4.43464C1.26428 6.68508 0 9.73732 0 12.9199C0 16.1025 1.26428 19.1548 3.51472 21.4052C5.76516 23.6556 8.8174 24.9199 12 24.9199ZM13.395 10.8019L11.895 17.8594C11.79 18.3694 11.9385 18.6589 12.351 18.6589C12.642 18.6589 13.0815 18.5539 13.38 18.2899L13.248 18.9139C12.8175 19.4329 11.868 19.8109 11.0505 19.8109C9.996 19.8109 9.5475 19.1779 9.8385 17.8324L10.9455 12.6304C11.0415 12.1909 10.9545 12.0319 10.515 11.9254L9.8385 11.8039L9.9615 11.2324L13.3965 10.8019H13.395ZM12 9.16992C11.6022 9.16992 11.2206 9.01189 10.9393 8.73058C10.658 8.44928 10.5 8.06775 10.5 7.66992C10.5 7.2721 10.658 6.89057 10.9393 6.60926C11.2206 6.32796 11.6022 6.16992 12 6.16992C12.3978 6.16992 12.7794 6.32796 13.0607 6.60926C13.342 6.89057 13.5 7.2721 13.5 7.66992C13.5 8.06775 13.342 8.44928 13.0607 8.73058C12.7794 9.01189 12.3978 9.16992 12 9.16992Z" fill="#3B97D2"/>
</svg>
