<svg width="180" height="50" viewBox="0 0 180 50" fill="none" xmlns="http://www.w3.org/2000/svg">
<path d="M90.294 19.679V40.8576C90.294 41.4497 90.0588 42.0175 89.6401 42.4361C89.2215 42.8547 88.6537 43.0899 88.0617 43.0899H84.5059V48.2625H90.294L90.3133 48.251C91.6581 48.1924 92.9322 47.6319 93.8841 46.68C94.8359 45.7281 95.3964 44.4541 95.455 43.1092L95.4666 43.0899V19.679H90.294Z" fill="#204283"/>
<path d="M56.0115 14.6633V31.7363C56.0115 32.328 56.2464 32.8955 56.6646 33.3141C57.0828 33.7327 57.6501 33.9681 58.2418 33.9686H66.3703V39.1412H56.0115L55.9922 39.1296C54.6472 39.0715 53.3729 38.5111 52.4209 37.5592C51.4689 36.6072 50.9086 35.3329 50.8504 33.9879C50.8464 33.9811 50.8419 33.9747 50.8369 33.9686V14.6633H56.0115Z" fill="#204283"/>
<path d="M67.968 29.4113C67.9606 28.113 68.1927 26.8245 68.6529 25.6104C69.0843 24.4582 69.7438 23.405 70.592 22.5138C71.4538 21.6256 72.4887 20.9236 73.6326 20.4513C74.8843 19.9281 76.2294 19.6655 77.5859 19.6796C78.9363 19.6645 80.2753 19.9272 81.5199 20.4513C82.6565 20.9311 83.6843 21.6359 84.5413 22.5235C85.3896 23.4178 86.0543 24.4699 86.4977 25.6201C87.4364 28.067 87.4364 30.7748 86.4977 33.2218C86.0543 34.3726 85.3897 35.4253 84.5413 36.3204C83.6848 37.2079 82.6568 37.9122 81.5199 38.3906C78.9952 39.4041 76.1767 39.4041 73.6519 38.3906C72.5145 37.9132 71.4864 37.2088 70.6305 36.3204C69.7809 35.4259 69.1155 34.3731 68.6722 33.2218C68.1979 32.0078 67.9589 30.7146 67.968 29.4113V29.4113ZM73.1387 29.4113C73.1328 30.0651 73.2418 30.7149 73.4609 31.331C73.6618 31.9043 73.9791 32.4298 74.3928 32.8745C74.7931 33.3019 75.2703 33.6501 75.7993 33.9009C76.3584 34.162 76.969 34.2939 77.5859 34.2868C78.2083 34.2924 78.8242 34.1606 79.3899 33.9009C79.919 33.6596 80.3916 33.3099 80.7771 32.8745C81.1707 32.4218 81.4739 31.8979 81.6704 31.331C82.1025 30.0877 82.1025 28.7349 81.6704 27.4916C81.4701 26.9224 81.1673 26.3948 80.7771 25.9346C80.3962 25.4894 79.9228 25.1325 79.3899 24.8889C78.8242 24.6292 78.2083 24.4974 77.5859 24.503C76.969 24.4959 76.3584 24.6278 75.7993 24.8889C75.2666 25.1421 74.7887 25.4974 74.3928 25.9346C73.9825 26.387 73.6658 26.9162 73.4609 27.4916C73.2422 28.1077 73.1331 28.7575 73.1387 29.4113V29.4113Z" fill="#204283"/>
<path d="M104.222 19.6819H99.0474V39.1376H104.222V19.6819Z" fill="#204283"/>
<path d="M118.748 25.0418C118.213 24.6341 117.616 24.3131 116.981 24.0906C116.342 23.8642 115.668 23.7487 114.99 23.7491C114.305 23.7491 113.786 23.8996 113.431 24.2044C113.262 24.3418 113.126 24.5159 113.034 24.7134C112.941 24.9109 112.895 25.1267 112.899 25.3447C112.898 25.6776 113.025 25.998 113.254 26.2399C113.493 26.5062 113.891 26.703 114.45 26.8303L116.122 27.247C118.225 27.8297 119.721 28.6156 120.608 29.6047C121.492 30.585 121.967 31.8663 121.936 33.1856C121.937 33.9657 121.769 34.7366 121.442 35.4449C121.105 36.1773 120.612 36.8267 119.997 37.3473C119.3 37.9277 118.501 38.3721 117.641 38.6573C116.612 39.0014 115.532 39.1684 114.448 39.1512C113.057 39.1571 111.675 38.9295 110.359 38.4779C109.112 38.053 107.967 37.3729 106.997 36.481L109.588 33.0602C110.791 34.2332 112.392 34.9114 114.072 34.9607C114.932 34.9607 115.547 34.7709 115.916 34.3915C116.089 34.2234 116.227 34.0225 116.321 33.8006C116.416 33.5786 116.465 33.34 116.466 33.0988C116.461 32.707 116.305 32.3321 116.03 32.0531C115.739 31.7367 115.277 31.5026 114.643 31.3508L112.437 30.6659C111.837 30.5086 111.253 30.2987 110.689 30.0388C110.11 29.7752 109.572 29.4295 109.092 29.0124C108.572 28.5649 108.159 28.0067 107.883 27.3787C107.607 26.7508 107.475 26.0689 107.496 25.3833C107.491 24.6223 107.653 23.8694 107.971 23.178C108.294 22.4866 108.76 21.8718 109.339 21.374C109.993 20.8217 110.749 20.4017 111.563 20.1373C112.545 19.8187 113.572 19.6642 114.604 19.6801C115.775 19.6733 116.941 19.8398 118.063 20.174C119.165 20.5098 120.205 21.0233 121.141 21.6943L118.748 25.0418Z" fill="#204283"/>
<path d="M104.33 11.7846C104.041 11.4951 103.697 11.2668 103.318 11.1133C102.939 10.9598 102.534 10.8843 102.125 10.8913C101.722 10.8872 101.323 10.9642 100.951 11.1176C100.578 11.2711 100.241 11.4979 99.9581 11.7846C99.6632 12.0661 99.43 12.4057 99.2733 12.782C99.1165 13.1583 99.0396 13.563 99.0474 13.9706V17.0884H102.134C102.544 17.0887 102.949 17.0082 103.328 16.8516C103.706 16.695 104.05 16.4654 104.34 16.1758C104.629 15.8862 104.859 15.5424 105.015 15.164C105.172 14.7856 105.253 14.3801 105.252 13.9706C105.258 13.5622 105.18 13.157 105.021 12.7807C104.862 12.4043 104.627 12.0651 104.33 11.7846V11.7846Z" fill="#3B97D2"/>
<path d="M175.905 21.5874C175.898 21.212 176.005 20.8432 176.211 20.5297C176.418 20.2163 176.715 19.9729 177.063 19.8317C177.3 19.7322 177.554 19.6809 177.81 19.6809C178.067 19.6809 178.321 19.7322 178.558 19.8317C178.785 19.9235 178.992 20.0599 179.166 20.233C179.339 20.4079 179.477 20.615 179.571 20.8426C179.672 21.0779 179.723 21.3314 179.721 21.5874C179.73 21.8434 179.686 22.0985 179.594 22.3375C179.501 22.5765 179.362 22.7944 179.184 22.9784C179.005 23.1625 178.792 23.3088 178.556 23.4087C178.32 23.5086 178.067 23.5601 177.81 23.5601C177.554 23.5601 177.301 23.5086 177.065 23.4087C176.829 23.3088 176.615 23.1625 176.437 22.9784C176.259 22.7944 176.119 22.5765 176.027 22.3375C175.935 22.0985 175.891 21.8434 175.899 21.5874H175.905ZM179.378 21.5874C179.381 21.3078 179.311 21.0322 179.174 20.7886C179.04 20.5515 178.843 20.3553 178.606 20.2214C178.365 20.0835 178.091 20.011 177.813 20.011C177.535 20.011 177.262 20.0835 177.02 20.2214C176.783 20.3553 176.587 20.5515 176.453 20.7886C176.316 21.0322 176.245 21.3078 176.249 21.5874C176.245 21.8695 176.316 22.1476 176.453 22.3938C176.587 22.6339 176.783 22.8337 177.02 22.9727C177.262 23.108 177.535 23.1791 177.812 23.1791C178.09 23.1791 178.362 23.108 178.604 22.9727C178.842 22.8346 179.037 22.6345 179.17 22.3938C179.311 22.1488 179.384 21.8703 179.382 21.5874H179.378ZM177.271 22.6582H177.24C177.194 22.6634 177.147 22.6518 177.109 22.6254C177.083 22.587 177.071 22.5404 177.076 22.4942V20.6323C177.07 20.5803 177.084 20.5277 177.115 20.4857C177.157 20.4537 177.211 20.4392 177.263 20.4452H177.856C178.085 20.4277 178.313 20.4838 178.508 20.6053C178.578 20.6629 178.634 20.7366 178.67 20.8202C178.706 20.9039 178.721 20.995 178.714 21.0857C178.719 21.2241 178.677 21.36 178.595 21.4716C178.51 21.5802 178.388 21.6548 178.253 21.6819L178.649 22.4865C178.664 22.5153 178.674 22.5467 178.678 22.5791C178.678 22.6292 178.633 22.6524 178.546 22.6524H178.514C178.457 22.656 178.4 22.6461 178.348 22.6234C178.304 22.5868 178.269 22.5397 178.247 22.4865L177.887 21.7379H177.435V22.4942C177.44 22.5404 177.429 22.587 177.402 22.6254C177.365 22.6509 177.32 22.6625 177.275 22.6582H177.271ZM177.433 20.75V21.4369H177.819C177.959 21.446 178.099 21.4167 178.224 21.352C178.268 21.3233 178.303 21.2835 178.326 21.2367C178.349 21.1899 178.359 21.1378 178.355 21.0857C178.359 21.0348 178.349 20.9837 178.326 20.9381C178.303 20.8926 178.268 20.8542 178.224 20.8272C178.093 20.7667 177.949 20.7401 177.806 20.75H177.433Z" fill="#204283"/>
<path d="M134.365 33.9686C133.773 33.9686 133.205 33.7334 132.786 33.3148C132.368 32.8961 132.133 32.3283 132.133 31.7363V24.8562H136.113V19.6797H132.133V14.6633H126.952V19.6797H123.068V24.8543H126.952V33.9667L126.964 33.9859C127.023 35.331 127.584 36.6051 128.536 37.5569C129.488 38.5087 130.762 39.0692 132.107 39.1277L132.125 39.1393H137.913V33.9686H134.365Z" fill="#204283"/>
<path d="M149.588 19.6794C149.551 19.6775 149.514 19.6775 149.478 19.6794C149.43 19.6794 149.379 19.6794 149.327 19.6794C147.978 19.6649 146.639 19.9276 145.395 20.4512C144.265 20.9229 143.248 21.6292 142.41 22.5233C141.583 23.4203 140.943 24.473 140.527 25.62C140.081 26.8317 139.856 28.114 139.864 29.4054V29.4189C139.852 30.7323 140.09 32.036 140.566 33.2603C141.016 34.4182 141.702 35.47 142.58 36.3492C143.485 37.2423 144.565 37.9386 145.752 38.3943C146.358 38.6347 146.986 38.8138 147.627 38.9287L147.859 38.9712C148.168 39.0233 148.48 39.0619 148.804 39.0908L149.19 39.1159C149.437 39.1294 149.686 39.1371 149.943 39.1371C151.521 39.1579 153.086 38.8552 154.542 38.2477C155.955 37.6409 157.205 36.7103 158.191 35.5311L157.517 35.0391L154.542 32.8686C153.994 33.5292 153.297 34.0503 152.509 34.3889C151.734 34.7196 150.901 34.8883 150.058 34.8848C148.739 34.8848 147.63 34.5169 146.732 33.7812C145.993 33.1906 145.49 32.3549 145.314 31.4254H159.107C159.407 30.008 159.386 28.5417 159.047 27.1333C158.707 25.7249 158.058 24.41 157.146 23.2845C156.234 22.159 155.082 21.2513 153.774 20.6276C152.467 20.004 151.036 19.68 149.588 19.6794V19.6794ZM145.37 27.011C145.549 26.2041 145.945 25.4611 146.514 24.8617C147.224 24.1131 148.175 23.7395 149.366 23.7408C149.912 23.7344 150.454 23.8374 150.959 24.0437C151.424 24.2349 151.845 24.5192 152.196 24.8791C152.54 25.2397 152.817 25.6584 153.014 26.1158C153.137 26.4032 153.226 26.7035 153.281 27.011H145.37Z" fill="#204283"/>
<path d="M171.308 19.679C170.277 19.6766 169.26 19.9228 168.344 20.3967C167.911 20.628 167.509 20.9126 167.146 21.2437V19.679H161.974V39.1386H167.146V28.0042C167.296 27.0409 167.789 26.1641 168.533 25.5346C169.256 24.9099 170.183 24.5715 171.138 24.5834C171.196 24.5834 171.25 24.5834 171.308 24.5834H174.065V19.679H171.308Z" fill="#204283"/>
<path d="M34.576 27.6426H27.6109L31.5353 31.5669H24.2944C23.8484 31.5669 23.4067 31.479 22.9947 31.3082C22.5827 31.1374 22.2084 30.8871 21.8932 30.5715C21.5781 30.256 21.3282 29.8814 21.1578 29.4692C20.9875 29.057 20.9001 28.6153 20.9006 28.1693V15.613C20.9011 14.5621 20.4848 13.5539 19.743 12.8096L15.0488 8.11353V33.5812C15.0488 34.6324 15.4663 35.6406 16.2094 36.3841C16.9526 37.1276 17.9605 37.5455 19.0117 37.546H31.4909L27.5666 41.4819H34.5875L41.5024 34.5671L34.576 27.6426Z" fill="#3B97D2"/>
<path d="M9.92467 38.7111V9.9635L13.849 13.8801V6.91317L6.93415 0.000244141L0 6.93439V13.9573L3.93205 10.033V44.5686C3.93205 45.6198 4.34951 46.628 5.09265 47.3715C5.83578 48.115 6.84376 48.533 7.89497 48.5335H26.0117C26.5231 48.5329 27.0288 48.4261 27.4968 48.2198C27.9647 48.0136 28.3847 47.7124 28.7302 47.3353L33.3858 42.6798H13.8914C13.3703 42.68 12.8542 42.5775 12.3727 42.3782C11.8912 42.1788 11.4537 41.8864 11.0853 41.5178C10.7168 41.1492 10.4247 40.7116 10.2255 40.23C10.0264 39.7484 9.92416 39.2322 9.92467 38.7111V38.7111Z" fill="#3B97D2"/>
<path d="M106.055 45.239C105.901 45.0742 105.714 44.9428 105.507 44.8531C105.285 44.7582 105.045 44.7103 104.803 44.7123C104.557 44.7093 104.313 44.7573 104.087 44.8531C103.881 44.9434 103.696 45.0747 103.543 45.239C103.39 45.4074 103.27 45.604 103.192 45.8178C103.109 46.0407 103.068 46.2766 103.068 46.5143C103.066 46.7537 103.11 46.9913 103.196 47.2147C103.276 47.4287 103.396 47.6253 103.551 47.7935C103.705 47.9583 103.892 48.0897 104.099 48.1794C104.322 48.2723 104.561 48.3202 104.803 48.3202C105.045 48.3202 105.284 48.2723 105.507 48.1794C105.714 48.0897 105.901 47.9583 106.055 47.7935C106.21 47.6253 106.33 47.4287 106.41 47.2147C106.58 46.7645 106.58 46.268 106.41 45.8178C106.33 45.6038 106.21 45.4072 106.055 45.239V45.239ZM105.808 46.9754C105.758 47.1126 105.684 47.2395 105.588 47.3497C105.494 47.4577 105.379 47.5446 105.249 47.6044C105.108 47.6655 104.956 47.697 104.803 47.697C104.65 47.697 104.498 47.6655 104.357 47.6044C104.227 47.5446 104.112 47.4577 104.018 47.3497C103.922 47.2395 103.847 47.1126 103.798 46.9754C103.695 46.678 103.695 46.3545 103.798 46.0571C103.846 45.9158 103.921 45.7848 104.018 45.6712C104.112 45.5632 104.227 45.4764 104.357 45.4165C104.498 45.3554 104.65 45.3239 104.803 45.3239C104.956 45.3239 105.108 45.3554 105.249 45.4165C105.379 45.4764 105.494 45.5632 105.588 45.6712C105.685 45.7848 105.76 45.9158 105.808 46.0571C105.911 46.3545 105.911 46.678 105.808 46.9754V46.9754Z" fill="#3B97D2"/>
<path d="M108.131 48.62C108.151 48.8438 108.081 49.0663 107.938 49.2393C107.873 49.303 107.796 49.3529 107.712 49.3861C107.627 49.4192 107.537 49.435 107.446 49.4323H107.163L107.118 49.9706C107.174 49.9832 107.231 49.9928 107.288 49.9995H107.444C107.629 50.0019 107.812 49.9685 107.984 49.9011C108.143 49.8386 108.286 49.7417 108.403 49.6175C108.521 49.4912 108.613 49.3422 108.671 49.1795C108.738 48.9941 108.771 48.7979 108.768 48.6007V44.7844H108.131V48.62Z" fill="#3B97D2"/>
<path d="M108.532 43.18C108.48 43.1789 108.427 43.1886 108.378 43.2085C108.33 43.2285 108.285 43.2581 108.249 43.2958C108.21 43.3327 108.18 43.3771 108.16 43.4263C108.14 43.4754 108.13 43.5282 108.131 43.5813V43.9884H108.532C108.64 43.9884 108.743 43.9457 108.819 43.8697C108.895 43.7938 108.937 43.6907 108.937 43.5833C108.939 43.5301 108.929 43.4773 108.908 43.4282C108.888 43.3791 108.858 43.3346 108.82 43.2977C108.782 43.26 108.737 43.2301 108.688 43.2099C108.638 43.1897 108.586 43.1795 108.532 43.18V43.18Z" fill="#3B97D2"/>
<path d="M110.938 43.18C110.886 43.1792 110.834 43.189 110.785 43.2089C110.737 43.2288 110.693 43.2583 110.656 43.2957C110.618 43.3325 110.587 43.3768 110.567 43.426C110.546 43.4751 110.536 43.528 110.537 43.5813V43.9884H110.938C111.045 43.9884 111.148 43.9457 111.224 43.8697C111.3 43.7937 111.343 43.6907 111.343 43.5832C111.344 43.5301 111.334 43.4773 111.314 43.4282C111.294 43.379 111.264 43.3346 111.225 43.2977C111.188 43.2598 111.143 43.2298 111.094 43.2096C111.044 43.1894 110.991 43.1793 110.938 43.18V43.18Z" fill="#3B97D2"/>
<path d="M120.622 43.18C120.569 43.1789 120.517 43.1886 120.468 43.2085C120.419 43.2285 120.375 43.2581 120.338 43.2958C120.3 43.3327 120.27 43.3771 120.249 43.4263C120.229 43.4754 120.219 43.5282 120.22 43.5813V43.9884H120.622C120.729 43.9884 120.832 43.9457 120.908 43.8697C120.984 43.7938 121.027 43.6907 121.027 43.5833C121.028 43.5301 121.018 43.4773 120.998 43.4282C120.977 43.3791 120.947 43.3346 120.909 43.2977C120.872 43.2598 120.827 43.2298 120.777 43.2096C120.728 43.1894 120.675 43.1793 120.622 43.18V43.18Z" fill="#3B97D2"/>
<path d="M111.173 44.7844H110.537V48.2399H111.173V44.7844Z" fill="#3B97D2"/>
<path d="M114.218 46.2057L113.865 46.1343C113.733 46.1203 113.611 46.0617 113.517 45.9684C113.454 45.9003 113.418 45.8108 113.417 45.7176C113.415 45.6564 113.427 45.5956 113.451 45.5394C113.475 45.4831 113.511 45.4326 113.556 45.3915C113.664 45.3024 113.802 45.257 113.942 45.2642C114.205 45.2592 114.463 45.3443 114.671 45.5054L115.024 45.0732C114.715 44.8333 114.333 44.7061 113.942 44.7124C113.77 44.7097 113.6 44.7384 113.438 44.7973C113.302 44.8481 113.176 44.9255 113.07 45.0249C112.974 45.1125 112.898 45.2198 112.848 45.3394C112.798 45.4582 112.772 45.5858 112.772 45.7147C112.772 45.8436 112.798 45.9712 112.848 46.09C112.892 46.1943 112.958 46.2882 113.041 46.3659C113.129 46.4449 113.228 46.5099 113.336 46.5588C113.45 46.6092 113.57 46.6461 113.693 46.6688L114.079 46.7459C114.224 46.7712 114.358 46.8383 114.465 46.9389C114.542 47.017 114.586 47.1221 114.588 47.2321C114.588 47.3003 114.575 47.3678 114.549 47.4308C114.523 47.4937 114.484 47.5508 114.436 47.5987C114.37 47.6566 114.293 47.7005 114.21 47.7277C114.127 47.7549 114.039 47.7649 113.951 47.7569C113.795 47.7559 113.64 47.7272 113.494 47.672C113.34 47.6156 113.202 47.5206 113.095 47.3961L112.709 47.7994C112.861 47.9704 113.051 48.1027 113.265 48.1852C113.48 48.2715 113.71 48.316 113.942 48.3164C114.117 48.3185 114.291 48.2911 114.457 48.2354C114.605 48.1854 114.742 48.1082 114.862 48.0077C114.981 47.9128 115.078 47.7921 115.144 47.6547C115.207 47.5207 115.238 47.3743 115.236 47.2263C115.239 46.9952 115.159 46.7706 115.011 46.5935C114.795 46.382 114.517 46.246 114.218 46.2057V46.2057Z" fill="#3B97D2"/>
<path d="M120.857 44.7844H120.22V48.2399H120.857V44.7844Z" fill="#3B97D2"/>
<path d="M125.657 44.7836H124.835L123.525 46.2055H123.265V42.8928H122.626V48.2372H123.265V46.7728H123.554L124.97 48.2372H125.819L124.092 46.4602L125.657 44.7836Z" fill="#3B97D2"/>
<path d="M133.126 45.2332C132.981 45.0694 132.803 44.9379 132.605 44.8473C132.388 44.7515 132.153 44.7035 131.916 44.7065C131.672 44.7027 131.431 44.7508 131.208 44.8473C131.006 44.9373 130.825 45.0688 130.677 45.2332C130.528 45.4015 130.414 45.5984 130.343 45.812C130.267 46.0362 130.228 46.2716 130.23 46.5085C130.228 46.7537 130.271 46.9971 130.359 47.2263C130.437 47.4424 130.56 47.6396 130.72 47.8051C130.878 47.9678 131.07 48.0954 131.281 48.1794C131.532 48.2762 131.8 48.3218 132.068 48.3135C132.337 48.3052 132.601 48.2432 132.846 48.1311C133.11 48.0019 133.336 47.8065 133.502 47.5639L132.963 47.288C132.854 47.4477 132.702 47.5728 132.524 47.6488C132.362 47.7142 132.189 47.7476 132.014 47.7472C131.873 47.7579 131.732 47.74 131.598 47.6945C131.464 47.6489 131.341 47.5767 131.236 47.4822C131.13 47.3877 131.046 47.2729 130.986 47.1447C130.927 47.0165 130.894 46.8775 130.889 46.7362H133.55C133.556 46.6972 133.56 46.6579 133.562 46.6185C133.562 46.5645 133.562 46.5047 133.562 46.4391C133.562 46.2167 133.524 45.996 133.448 45.787C133.377 45.5833 133.268 45.3952 133.126 45.2332V45.2332ZM130.911 46.1979C130.923 46.0705 130.956 45.946 131.009 45.8294C131.06 45.7189 131.132 45.6193 131.221 45.5361C131.313 45.4534 131.419 45.388 131.534 45.3432C131.657 45.296 131.788 45.2724 131.92 45.2737C132.052 45.2716 132.183 45.2952 132.306 45.3432C132.533 45.4378 132.716 45.6149 132.819 45.839C132.869 45.9532 132.9 46.0753 132.909 46.1998L130.911 46.1979Z" fill="#3B97D2"/>
<path d="M158.289 45.2937L156.859 43.0364H156.066L157.957 45.9652V48.238H158.628V45.9594L160.511 43.0364H159.718L158.289 45.2937Z" fill="#3B97D2"/>
<path d="M163.852 45.2389C163.698 45.074 163.512 44.9427 163.305 44.853C162.85 44.6652 162.339 44.6652 161.884 44.853C161.678 44.9437 161.493 45.0749 161.338 45.2389C161.186 45.4074 161.067 45.6039 160.989 45.8177C160.906 46.0404 160.864 46.2764 160.866 46.5142C160.864 46.7536 160.907 46.9912 160.993 47.2146C161.073 47.4281 161.193 47.6245 161.346 47.7934C161.501 47.9586 161.688 48.09 161.896 48.1792C162.119 48.2722 162.359 48.3201 162.6 48.3201C162.842 48.3201 163.081 48.2722 163.305 48.1792C163.512 48.0896 163.698 47.9582 163.852 47.7934C164.006 47.6245 164.126 47.4281 164.206 47.2146C164.375 46.7644 164.375 46.2678 164.206 45.8177C164.126 45.6041 164.006 45.4077 163.852 45.2389V45.2389ZM163.605 46.9753C163.556 47.1125 163.481 47.2394 163.386 47.3496C163.291 47.4572 163.176 47.5439 163.046 47.6043C162.905 47.6654 162.753 47.6969 162.599 47.6969C162.446 47.6969 162.294 47.6654 162.153 47.6043C162.023 47.5439 161.907 47.4572 161.813 47.3496C161.718 47.2393 161.644 47.1124 161.595 46.9753C161.49 46.6783 161.49 46.354 161.595 46.0569C161.643 45.9157 161.717 45.7848 161.813 45.6711C161.907 45.5635 162.023 45.4767 162.153 45.4164C162.294 45.3553 162.446 45.3237 162.599 45.3237C162.753 45.3237 162.905 45.3553 163.046 45.4164C163.176 45.4767 163.291 45.5635 163.386 45.6711C163.482 45.7847 163.557 45.9156 163.605 46.0569C163.708 46.3544 163.708 46.6778 163.605 46.9753Z" fill="#3B97D2"/>
<path d="M118.118 47.6985C118.057 47.6988 117.998 47.6869 117.942 47.6633C117.887 47.6397 117.837 47.6051 117.795 47.5615C117.694 47.4398 117.645 47.2832 117.658 47.1255V45.3215H118.27V44.7832H117.654V43.7356H117.018V44.7832H116.4V45.3215H117.018V47.1255C117.016 47.2793 117.039 47.4323 117.085 47.5789C117.126 47.7149 117.196 47.8405 117.29 47.9474C117.384 48.0533 117.502 48.1364 117.633 48.1905C117.786 48.2529 117.949 48.2831 118.114 48.2793C118.224 48.2793 118.32 48.2793 118.405 48.2696C118.49 48.26 118.575 48.2503 118.66 48.2368L118.638 47.6985H118.118Z" fill="#3B97D2"/>
<path d="M128.495 47.6985C128.435 47.6988 128.375 47.6869 128.32 47.6633C128.264 47.6397 128.214 47.6051 128.173 47.5615C128.072 47.4398 128.022 47.2832 128.036 47.1255V45.3215H128.651V44.7832H128.036V43.7356H127.399V44.7832H126.782V45.3215H127.399V47.1255C127.398 47.2791 127.42 47.432 127.465 47.5789C127.507 47.7147 127.578 47.8401 127.671 47.9474C127.765 48.0537 127.883 48.1369 128.015 48.1905C128.167 48.2529 128.33 48.2831 128.495 48.2793C128.603 48.2793 128.701 48.2793 128.786 48.2696C128.871 48.26 128.956 48.2503 129.041 48.2368L129.02 47.6985H128.495Z" fill="#3B97D2"/>
<path d="M139.764 43.0364L137.605 48.2457H138.335L138.9 46.8585H141.146L141.711 48.2457H142.44L140.274 43.0364H139.764ZM139.17 46.214L140.011 44.1265L140.868 46.214H139.17Z" fill="#3B97D2"/>
<path d="M146.606 45.1154C146.471 44.9842 146.311 44.8818 146.135 44.8144C145.95 44.7456 145.754 44.711 145.557 44.7122C145.344 44.7122 145.135 44.7617 144.945 44.8569C144.799 44.9305 144.668 45.0313 144.559 45.154V44.7681H143.92V48.241H144.559V45.9451C144.649 45.7598 144.787 45.602 144.958 45.4878C145.124 45.3738 145.321 45.3132 145.522 45.3142C145.647 45.304 145.773 45.3241 145.89 45.3728C146.006 45.4214 146.109 45.4973 146.189 45.5939C146.338 45.7947 146.415 46.0404 146.405 46.2904V48.2333H147.042V46.2345C147.046 46.0154 147.007 45.7977 146.926 45.5939C146.852 45.415 146.743 45.2525 146.606 45.1154V45.1154Z" fill="#3B97D2"/>
<path d="M151.748 44.7605H151.395V45.1695C151.262 45.0354 151.106 44.9274 150.933 44.8511C150.725 44.7617 150.502 44.7139 150.275 44.7103C150.037 44.7079 149.802 44.7552 149.583 44.8492C149.373 44.938 149.185 45.0694 149.029 45.2351C148.703 45.5798 148.523 46.0377 148.527 46.5123C148.525 46.7547 148.569 46.9952 148.659 47.2204C148.742 47.432 148.866 47.6253 149.023 47.7896C149.177 47.9532 149.362 48.0844 149.567 48.1754C149.779 48.2689 150.009 48.3163 150.241 48.3144C150.472 48.3121 150.7 48.2588 150.908 48.1581C151.099 48.0705 151.266 47.9381 151.395 47.7722V48.2333H152.033V44.7605H151.75H151.748ZM151.313 46.9619C151.262 47.1041 151.183 47.2351 151.082 47.3477C150.985 47.459 150.864 47.5473 150.729 47.6063C150.588 47.6673 150.435 47.6988 150.281 47.6988C150.127 47.6988 149.975 47.6673 149.834 47.6063C149.7 47.547 149.58 47.4602 149.483 47.3516C149.382 47.2392 149.304 47.1081 149.253 46.9657C149.145 46.6612 149.145 46.3287 149.253 46.0242C149.304 45.882 149.382 45.751 149.483 45.6383C149.581 45.5292 149.702 45.4423 149.838 45.3836C149.978 45.3226 150.13 45.2911 150.283 45.2911C150.437 45.2911 150.588 45.3226 150.729 45.3836C150.863 45.4418 150.983 45.5273 151.082 45.6345C151.182 45.7416 151.26 45.8666 151.313 46.003C151.368 46.1439 151.395 46.2937 151.395 46.4448C151.399 46.6213 151.371 46.7971 151.313 46.9638V46.9619Z" fill="#3B97D2"/>
<path d="M99.8211 47.5627C99.7199 47.441 99.6707 47.2843 99.6841 47.1266V43.0364H99.0474V47.1266C99.0461 47.2802 99.0682 47.4331 99.113 47.58C99.1557 47.7158 99.2259 47.8413 99.3195 47.9485C99.4138 48.0549 99.5313 48.138 99.6629 48.1916C99.811 48.2521 99.9698 48.2823 100.13 48.2804H102.327V47.7016H100.143C100.083 47.7017 100.023 47.6894 99.9678 47.6655C99.9124 47.6416 99.8625 47.6066 99.8211 47.5627Z" fill="#3B97D2"/>
<path d="M167.104 47.7276H166.82C166.729 47.7303 166.639 47.7146 166.554 47.6815C166.47 47.6483 166.393 47.5984 166.328 47.5347C166.184 47.3619 166.115 47.1392 166.135 46.9154V43.0374H165.498V46.9154C165.495 47.1126 165.528 47.3087 165.595 47.4942C165.654 47.6572 165.745 47.8068 165.863 47.9341C165.98 48.0573 166.123 48.1534 166.282 48.2158C166.453 48.2847 166.637 48.3188 166.822 48.3161C166.874 48.319 166.926 48.319 166.978 48.3161C167.035 48.3113 167.092 48.3016 167.148 48.2872L167.104 47.7276Z" fill="#3B97D2"/>
</svg>
