<svg width="250" height="214" viewBox="0 0 250 214" fill="none" xmlns="http://www.w3.org/2000/svg">
<g clip-path="url(#clip0_145_22357)">
<path opacity="0.1" d="M248.854 147.019C242.026 112.571 202.022 85.0384 194.219 49.1405C180.038 3.46859 133.297 -3.75222 102.924 16.083C54.7971 47.5123 106.138 55.3117 11.7775 129.671C-11.5223 148.032 -4.0979 229.082 69.2019 210.481C108.649 200.471 120.64 199.066 138.384 197.418C183.106 193.264 260.315 204.846 248.854 147.019Z" fill="#3B97D2"/>
<path d="M195.427 155.654L126.303 192.178L57.2842 155.654V100.498H195.427V155.654Z" fill="white"/>
<path d="M126.303 192.739C126.212 192.739 126.122 192.716 126.041 192.673L57.0244 156.148C56.9347 156.101 56.8595 156.03 56.807 155.943C56.7544 155.856 56.7264 155.757 56.7261 155.655V100.498C56.7261 100.35 56.7851 100.207 56.8901 100.102C56.9951 99.997 57.1375 99.938 57.286 99.938H195.427C195.575 99.938 195.718 99.997 195.823 100.102C195.928 100.207 195.987 100.35 195.987 100.498V155.654C195.986 155.755 195.959 155.855 195.906 155.942C195.853 156.028 195.778 156.099 195.689 156.147L126.565 192.672C126.485 192.715 126.395 192.738 126.303 192.739ZM57.8442 155.317L126.303 191.545L194.867 155.316V101.058H57.8442V155.317Z" fill="#7C7C7C"/>
<path d="M195.427 88.6625L126.303 52.1377L157.365 37.1587L226.488 73.684L195.427 88.6625Z" fill="white"/>
<path d="M195.427 89.2227C195.336 89.2227 195.246 89.2005 195.165 89.1581L126.042 52.6328C125.95 52.5843 125.874 52.5114 125.821 52.4221C125.769 52.3328 125.742 52.2306 125.744 52.127C125.746 52.0234 125.776 51.9223 125.832 51.835C125.888 51.7477 125.967 51.6776 126.06 51.6325L157.122 36.6535C157.201 36.6152 157.288 36.5961 157.375 36.5978C157.463 36.5994 157.549 36.6217 157.627 36.6629L226.75 73.1883C226.842 73.2367 226.918 73.3096 226.971 73.3988C227.023 73.4881 227.05 73.5902 227.048 73.6938C227.046 73.7975 227.016 73.8985 226.96 73.9858C226.904 74.0731 226.825 74.1431 226.732 74.1881L195.67 89.1671C195.594 89.2037 195.511 89.2227 195.427 89.2227ZM127.546 52.1595L195.439 88.0341L225.246 73.6602L157.353 37.7865L127.546 52.1595Z" fill="#7C7C7C"/>
<path d="M57.2841 88.6625L126.408 52.1377L95.3462 37.1587L26.2227 73.684L57.2841 88.6625Z" fill="white"/>
<path d="M57.2841 89.2227C57.1999 89.2227 57.1168 89.2037 57.0409 89.1671L25.9812 74.1881C25.8879 74.1431 25.8089 74.0731 25.753 73.9858C25.6971 73.8985 25.6665 73.7975 25.6646 73.6938C25.6627 73.5902 25.6896 73.4881 25.7423 73.3988C25.7949 73.3096 25.8713 73.2367 25.9628 73.1883L95.0864 36.6629C95.1638 36.6217 95.25 36.5994 95.3377 36.5978C95.4254 36.5961 95.5123 36.6152 95.5912 36.6535L126.653 51.6325C126.746 51.6776 126.825 51.7477 126.881 51.835C126.937 51.9223 126.967 52.0234 126.969 52.127C126.971 52.2306 126.944 52.3328 126.892 52.4221C126.839 52.5114 126.763 52.5843 126.671 52.6328L57.5475 89.1581C57.4663 89.2009 57.3759 89.223 57.2841 89.2227ZM27.4648 73.6611L57.2725 88.035L125.165 52.1604L95.3578 37.7865L27.4648 73.6611Z" fill="#7C7C7C"/>
<path d="M57.2842 88.6626L126.408 125.188L90.8667 144.648L21.7432 108.123L57.2842 88.6626Z" fill="white"/>
<path d="M90.8668 145.208C90.7756 145.208 90.6858 145.186 90.6052 145.143L21.4817 108.618C21.3924 108.571 21.3177 108.5 21.2653 108.414C21.2129 108.327 21.1848 108.228 21.1841 108.127C21.1834 108.026 21.21 107.927 21.2611 107.84C21.3122 107.752 21.386 107.681 21.4745 107.632L57.0155 88.1714C57.0967 88.1268 57.1877 88.1032 57.2802 88.1026C57.3728 88.1019 57.4641 88.1244 57.5459 88.1678L126.669 124.693C126.759 124.74 126.833 124.811 126.886 124.898C126.938 124.984 126.966 125.083 126.967 125.184C126.968 125.285 126.941 125.384 126.89 125.472C126.839 125.559 126.765 125.63 126.677 125.679L91.1356 145.14C91.0532 145.185 90.9607 145.208 90.8668 145.208ZM22.9259 108.114L90.8619 144.012L125.226 125.196L57.2892 89.2985L22.9259 108.114Z" fill="#7C7C7C"/>
<path d="M195.427 88.6626L126.303 125.188L161.844 144.648L230.968 108.123L195.427 88.6626Z" fill="white"/>
<path d="M161.845 145.208C161.751 145.208 161.659 145.185 161.577 145.14L126.036 125.679C125.947 125.63 125.873 125.559 125.822 125.472C125.771 125.384 125.744 125.285 125.745 125.184C125.746 125.083 125.774 124.984 125.826 124.898C125.879 124.811 125.953 124.74 126.043 124.693L195.166 88.1678C195.248 88.1244 195.339 88.1019 195.432 88.1026C195.524 88.1032 195.615 88.1268 195.697 88.1714L231.238 107.632C231.326 107.681 231.4 107.752 231.451 107.84C231.502 107.927 231.529 108.026 231.528 108.127C231.527 108.228 231.499 108.327 231.447 108.414C231.394 108.5 231.32 108.571 231.23 108.618L162.107 145.143C162.026 145.186 161.937 145.208 161.845 145.208ZM127.487 125.196L161.851 144.012L229.787 108.114L195.423 89.2985L127.487 125.196Z" fill="#7C7C7C"/>
<path d="M126.408 52.1377L57.2842 88.6626L126.303 125.188L195.427 88.6626L126.408 52.1377Z" fill="#7C7C7C"/>
<path d="M126.864 125.188H125.744V192.178H126.864V125.188Z" fill="#7C7C7C"/>
<path d="M87.5747 85.3464C87.482 85.3465 87.3916 85.3175 87.3162 85.2635C87.2193 85.1948 87.1536 85.0904 87.1336 84.9732C87.1136 84.856 87.1409 84.7357 87.2096 84.6387C87.2925 84.5218 95.3883 72.8121 86.3504 62.1369C84.7508 60.2376 82.7554 58.7113 80.504 57.665C78.2526 56.6186 75.7997 56.0775 73.3173 56.0795H73.1954C74.0537 59.0625 73.9005 61.7147 72.6852 63.7494C72.1674 64.6688 71.4032 65.4253 70.4788 65.9336C69.5544 66.442 68.5065 66.682 67.4531 66.6266C66.5811 66.5552 65.7489 66.2308 65.0584 65.6934C64.3679 65.1559 63.849 64.4286 63.5653 63.6006C62.5713 61.0066 63.6101 58.4915 66.348 56.8705C68.0825 55.9136 70.0097 55.359 71.9873 55.2477C71.344 53.5413 70.5074 51.9141 69.494 50.3982C66.2306 45.4119 60.2832 41.9601 53.176 40.928C47.1528 40.0536 41.3805 41.0835 38.4683 43.5511C38.3776 43.6279 38.2602 43.6655 38.1417 43.6556C38.0233 43.6457 37.9137 43.5892 37.837 43.4984C37.7602 43.4077 37.7226 43.2902 37.7325 43.1717C37.7424 43.0532 37.7989 42.9435 37.8896 42.8668C40.9885 40.241 47.039 39.1309 53.3045 40.0433C60.6657 41.1126 66.8394 44.7083 70.2439 49.9092C71.3476 51.5586 72.2454 53.337 72.9172 55.2047C75.5952 55.1403 78.2535 55.6779 80.6962 56.7777C83.139 57.8776 85.304 59.5117 87.0318 61.5597C96.5252 72.7723 88.0249 85.0367 87.938 85.1595C87.8966 85.2172 87.842 85.2643 87.7789 85.2968C87.7157 85.3293 87.6457 85.3463 87.5747 85.3464ZM72.278 56.1122C70.3607 56.194 68.4881 56.7176 66.8063 57.6423C64.4429 59.0414 63.5676 61.0967 64.4039 63.2802C64.6305 63.9492 65.0471 64.5376 65.6027 64.9735C66.1584 65.4094 66.8289 65.6737 67.5324 65.7343C68.4181 65.774 69.2974 65.5664 70.072 65.1347C70.8465 64.7031 71.4858 64.0644 71.9183 63.29C73.0337 61.4212 73.1358 58.937 72.2767 56.1122H72.278Z" fill="#7C7C7C"/>
<path d="M30.7372 50.7773C29.976 51.0061 29.1556 50.9285 28.4506 50.5612C27.7457 50.1938 27.2119 49.5657 26.963 48.8105C26.7141 48.0553 26.7697 47.2327 27.1179 46.5178C27.4661 45.803 28.0795 45.2524 28.8274 44.9833C29.5754 44.7142 30.3988 44.7478 31.1223 45.077C31.8458 45.4062 32.4124 46.0049 32.7012 46.7457C32.9901 47.4866 32.9785 48.311 32.6689 49.0434C32.3593 49.7758 31.7762 50.3584 31.0436 50.667C30.9436 50.7093 30.8413 50.7461 30.7372 50.7773ZM29.2478 45.7973C29.1752 45.8191 29.1039 45.8448 29.0341 45.8744C28.5187 46.0918 28.1085 46.5019 27.8909 47.0175C27.6733 47.533 27.6654 48.1132 27.869 48.6344C28.0726 49.1556 28.4716 49.5767 28.9809 49.808C29.4903 50.0393 30.0697 50.0625 30.5959 49.8727C31.1221 49.6829 31.5534 49.295 31.798 48.7917C32.0426 48.2884 32.0811 47.7095 31.9054 47.1782C31.7297 46.647 31.3535 46.2053 30.8571 45.9474C30.3607 45.6894 29.7833 45.6356 29.2478 45.7973Z" fill="#7C7C7C"/>
<path d="M30.7316 43.7544C30.0115 43.9695 29.2373 43.9107 28.558 43.5893C27.8786 43.2679 27.3419 42.7066 27.0512 42.0132C26.8181 41.4574 26.755 40.8449 26.8698 40.2532C26.9847 39.6615 27.2723 39.1171 27.6964 38.689C28.1205 38.2608 28.662 37.9681 29.2524 37.8479C29.8427 37.7276 30.4555 37.7852 31.0131 38.0134C31.5708 38.2416 32.0483 38.6301 32.3852 39.1298C32.7222 39.6295 32.9034 40.2179 32.9061 40.8207C32.9087 41.4235 32.7327 42.0135 32.4002 42.5161C32.0676 43.0188 31.5936 43.4115 31.038 43.6446C30.9378 43.6865 30.8356 43.7231 30.7316 43.7544ZM29.2439 38.7739C29.1705 38.796 29.0983 38.8218 29.0276 38.8515C28.5021 39.0723 28.0857 39.4928 27.87 40.0207C27.6543 40.5485 27.6569 41.1404 27.8772 41.6664C28.0379 42.0497 28.3062 42.3783 28.6496 42.6123C28.993 42.8464 29.3969 42.9758 29.8123 42.9851C30.2277 42.9943 30.6369 42.8829 30.9904 42.6644C31.3439 42.4459 31.6265 42.1295 31.8041 41.7537C31.9816 41.3778 32.0465 40.9586 31.9909 40.5466C31.9353 40.1346 31.7616 39.7476 31.4908 39.4323C31.2199 39.117 30.8636 38.887 30.4648 38.7701C30.0661 38.6532 29.642 38.6543 29.2439 38.7735V38.7739Z" fill="#7C7C7C"/>
<path d="M29.8621 46.9239C32.062 46.9239 33.8453 45.7322 33.8453 44.2622C33.8453 42.7922 32.062 41.6006 29.8621 41.6006C27.6622 41.6006 25.8789 42.7922 25.8789 44.2622C25.8789 45.7322 27.6622 46.9239 29.8621 46.9239Z" fill="white"/>
<path d="M31.6255 47.1197C31.0544 47.2886 30.4619 47.3737 29.8664 47.3725C27.3811 47.3725 25.4316 46.01 25.4316 44.2662C25.4316 42.5224 27.3753 41.1551 29.8597 41.1524C30.9428 41.1316 32.0084 41.4275 32.9259 42.0039C33.3379 42.2187 33.6833 42.5423 33.9244 42.9396C34.1656 43.3369 34.2933 43.7928 34.2937 44.2576C34.2941 44.7225 34.1672 45.1785 33.9268 45.5763C33.6864 45.974 33.3416 46.2983 32.9299 46.5138C32.5275 46.7792 32.0879 46.9834 31.6255 47.1197ZM28.3725 42.262C27.1755 42.6206 26.3271 43.3946 26.3275 44.264C26.3275 45.4637 27.9478 46.4761 29.8664 46.4743C30.7727 46.4934 31.6649 46.248 32.434 45.768C32.7225 45.6351 32.9668 45.4222 33.138 45.1545C33.3091 44.8869 33.3999 44.5757 33.3997 44.258C33.3994 43.9402 33.308 43.6292 33.1364 43.3619C32.9647 43.0945 32.7201 42.8821 32.4313 42.7497C31.6616 42.2707 30.769 42.0268 29.8628 42.0478C29.3583 42.0465 28.8562 42.1187 28.3725 42.262Z" fill="#7C7C7C"/>
<path d="M30.8393 46.8425L30.7452 41.6662L29.4587 41.6143L29.3687 46.903L30.8393 46.8425Z" fill="#7C7C7C"/>
<path d="M24.5777 45.3883C24.8048 45.3883 24.9889 45.2041 24.9889 44.9768C24.9889 44.7496 24.8048 44.5654 24.5777 44.5654C24.3506 44.5654 24.1665 44.7496 24.1665 44.9768C24.1665 45.2041 24.3506 45.3883 24.5777 45.3883Z" fill="#7C7C7C"/>
<path d="M24.899 43.1871C25.1261 43.1871 25.3102 43.0029 25.3102 42.7757C25.3102 42.5485 25.1261 42.3643 24.899 42.3643C24.6719 42.3643 24.4878 42.5485 24.4878 42.7757C24.4878 43.0029 24.6719 43.1871 24.899 43.1871Z" fill="#7C7C7C"/>
<path d="M157.959 59.5009C157.863 59.5009 157.77 59.4701 157.693 59.4131C157.616 59.356 157.559 59.2758 157.531 59.1841C156.045 53.633 155.649 47.8464 156.364 42.1444C157.522 33.8086 162.117 22.8685 177.431 18.078C179.586 17.3849 181.796 16.878 184.037 16.5628C184.759 12.0538 187.504 7.16258 193.643 3.78791C208.229 -4.23063 218.082 2.96373 218.18 3.03723C218.275 3.10855 218.338 3.21472 218.354 3.33238C218.371 3.45005 218.341 3.56957 218.269 3.66466C218.198 3.75975 218.092 3.82261 217.974 3.83942C217.857 3.85623 217.737 3.82561 217.642 3.7543C217.549 3.68438 208.133 -3.15504 194.075 4.57399C188.339 7.72771 185.713 12.2542 184.966 16.4561C191.721 15.7906 194.955 18.0449 196.407 19.7475C197.305 20.7713 197.883 22.0369 198.067 23.3867C198.251 24.7364 198.034 26.1106 197.444 27.338C196.977 28.3301 196.22 29.1571 195.274 29.7099C194.327 30.2628 193.235 30.5153 192.142 30.4344C188.37 30.213 185.248 27.0382 184.19 22.3459C183.841 20.7575 183.748 19.1235 183.915 17.5057C181.807 17.8088 179.728 18.2871 177.699 18.9358C165.763 22.6695 158.885 30.5209 157.251 42.2704C156.551 47.843 156.937 53.4985 158.388 58.9241C158.408 58.9911 158.413 59.062 158.401 59.1311C158.389 59.2002 158.361 59.2655 158.319 59.3219C158.278 59.3782 158.224 59.424 158.161 59.4556C158.098 59.4871 158.029 59.5036 157.959 59.5036V59.5009ZM184.828 17.3937C184.642 18.9806 184.721 20.5876 185.064 22.1483C186.032 26.4408 188.831 29.3417 192.195 29.5394C193.111 29.6051 194.027 29.392 194.82 28.9282C195.614 28.4643 196.249 27.7713 196.642 26.94C197.154 25.8697 197.34 24.6723 197.177 23.497C197.014 22.3216 196.509 21.2203 195.724 20.3301C193.63 17.871 189.807 16.8779 184.828 17.3937Z" fill="#7C7C7C"/>
<path d="M228.614 7.5666C228.011 7.56533 227.42 7.39341 226.911 7.07066C226.401 6.74792 225.992 6.28751 225.733 5.74257C225.473 5.19764 225.373 4.5904 225.444 3.99093C225.515 3.39146 225.753 2.8242 226.132 2.35462C226.511 1.88504 227.016 1.53228 227.586 1.33706C228.157 1.14184 228.772 1.11211 229.359 1.25131C229.946 1.3905 230.482 1.69295 230.904 2.12374C231.327 2.55453 231.619 3.0961 231.747 3.68595C231.848 4.15353 231.842 4.63766 231.732 5.10288C231.621 5.5681 231.407 6.00265 231.107 6.37469C230.807 6.74673 230.427 7.04686 229.996 7.25309C229.564 7.45932 229.092 7.56644 228.614 7.5666ZM228.621 2.06136C228.145 2.06135 227.68 2.20918 227.291 2.48449C226.902 2.7598 226.608 3.14902 226.449 3.59852C226.291 4.04802 226.276 4.53566 226.406 4.99423C226.536 5.45281 226.805 5.85974 227.176 6.15895C227.546 6.45815 228.001 6.6349 228.476 6.66483C228.952 6.69476 229.425 6.5764 229.831 6.32606C230.236 6.07572 230.554 5.70573 230.74 5.26708C230.927 4.82842 230.973 4.34271 230.872 3.87687C230.762 3.36147 230.479 2.89949 230.069 2.56879C229.659 2.23808 229.148 2.05887 228.621 2.06136Z" fill="#7C7C7C"/>
<path d="M227.266 14.8809C226.445 14.8809 225.655 14.5659 225.059 14.0009C224.463 13.4358 224.106 12.6637 224.062 11.8435C224.018 11.0233 224.29 10.2174 224.822 9.59166C225.354 8.96596 226.105 8.56809 226.922 8.47996C227.738 8.39183 228.557 8.62015 229.21 9.11791C229.863 9.61568 230.301 10.345 230.432 11.1557C230.564 11.9665 230.38 12.797 229.919 13.4762C229.457 14.1554 228.753 14.6317 227.951 14.807C227.726 14.8561 227.496 14.8809 227.266 14.8809ZM227.277 9.37524C227.111 9.37531 226.946 9.39319 226.784 9.42857C226.212 9.5543 225.71 9.89467 225.381 10.3796C225.052 10.8646 224.921 11.4573 225.015 12.0357C225.11 12.6142 225.422 13.1344 225.888 13.4894C226.355 13.8443 226.939 14.007 227.522 13.944C228.104 13.8809 228.64 13.597 229.02 13.1505C229.399 12.704 229.593 12.1289 229.562 11.5436C229.531 10.9583 229.276 10.4073 228.851 10.004C228.426 9.60065 227.863 9.37563 227.277 9.37524Z" fill="#7C7C7C"/>
<path d="M232.077 8.87602C232.359 7.34525 230.731 5.76146 228.44 5.33854C226.149 4.91563 224.063 5.81373 223.781 7.3445C223.498 8.87528 225.127 10.4591 227.417 10.882C229.708 11.3049 231.794 10.4068 232.077 8.87602Z" fill="white"/>
<path d="M228.545 11.4351C228.14 11.4345 227.735 11.397 227.336 11.3231C226.209 11.1361 225.162 10.6243 224.322 9.8504C223.954 9.53652 223.671 9.13495 223.5 8.68281C223.328 8.23067 223.273 7.74256 223.34 7.2636C223.449 6.79232 223.674 6.35598 223.996 5.99488C224.317 5.63379 224.724 5.35957 225.18 5.19757C226.246 4.79493 227.401 4.69141 228.521 4.89821C229.641 5.10501 230.683 5.61425 231.535 6.37086C231.903 6.68475 232.185 7.08632 232.357 7.53846C232.529 7.9906 232.583 8.4787 232.517 8.95766C232.408 9.42895 232.183 9.86529 231.861 10.2264C231.54 10.5875 231.132 10.8617 230.677 11.0237C230.001 11.3034 229.276 11.4433 228.545 11.4351ZM227.308 5.68159C226.7 5.67385 226.096 5.78925 225.534 6.02085C225.215 6.12744 224.929 6.31179 224.7 6.55719C224.47 6.8026 224.306 7.10131 224.221 7.42629C224.185 7.7601 224.232 8.09783 224.358 8.40889C224.485 8.71994 224.687 8.99451 224.946 9.20774C225.671 9.84045 226.552 10.2665 227.498 10.4411C228.444 10.6158 229.419 10.5326 230.322 10.2004C230.64 10.0938 230.927 9.90948 231.156 9.66408C231.385 9.41867 231.549 9.11996 231.634 8.79498C231.671 8.46114 231.624 8.12334 231.498 7.81224C231.371 7.50114 231.169 7.2266 230.909 7.01353C230.196 6.36269 229.309 5.93394 228.356 5.77974C228.011 5.71545 227.661 5.6826 227.31 5.68159H227.308Z" fill="#7C7C7C"/>
<path d="M227.411 5.23535L226.51 10.6429L227.839 10.9459L228.954 5.4563L227.411 5.23535Z" fill="#7C7C7C"/>
<path d="M232.811 11.0529C233.052 11.0529 233.247 10.8578 233.247 10.6173C233.247 10.3767 233.052 10.1816 232.811 10.1816C232.571 10.1816 232.376 10.3767 232.376 10.6173C232.376 10.8578 232.571 11.0529 232.811 11.0529Z" fill="#7C7C7C"/>
<path d="M233.57 8.82289C233.811 8.82289 234.006 8.62786 234.006 8.38727C234.006 8.14669 233.811 7.95166 233.57 7.95166C233.33 7.95166 233.135 8.14669 233.135 8.38727C233.135 8.62786 233.33 8.82289 233.57 8.82289Z" fill="#7C7C7C"/>
</g>
<defs>
<clipPath id="clip0_145_22357">
<rect width="250" height="213.235" fill="white"/>
</clipPath>
</defs>
</svg>
