<svg width="207" height="200" viewBox="0 0 207 200" fill="none" xmlns="http://www.w3.org/2000/svg">
<g clip-path="url(#clip0_260_21885)">
<path d="M147.74 200C179.961 200 206.081 197.585 206.081 194.606C206.081 191.626 179.961 189.211 147.74 189.211C115.518 189.211 89.3979 191.626 89.3979 194.606C89.3979 197.585 115.518 200 147.74 200Z" fill="white"/>
<path opacity="0.1" d="M147.74 200C179.961 200 206.081 197.585 206.081 194.606C206.081 191.626 179.961 189.211 147.74 189.211C115.518 189.211 89.3979 191.626 89.3979 194.606C89.3979 197.585 115.518 200 147.74 200Z" fill="#292A2E"/>
<path d="M50.8896 114.381H32.293V119.803H50.8896V114.381Z" fill="#F4F4F4"/>
<path opacity="0.05" d="M37.2272 114.381H34.7905V119.803H37.2272V114.381Z" fill="#292A2E"/>
<path d="M48.5134 115.56H38.3813V118.773H48.5134V115.56Z" fill="white"/>
<path d="M65.7228 115.088L48.4434 107.525L46.2776 112.494L63.5571 120.057L65.7228 115.088Z" fill="#F4F4F4"/>
<path opacity="0.05" d="M65.7228 115.088L48.4434 107.525L46.2776 112.494L63.5571 120.057L65.7228 115.088Z" fill="#292A2E"/>
<path d="M63.4029 114.073L61.1387 113.082L58.9729 118.051L61.2371 119.042L63.4029 114.073Z" fill="white"/>
<path d="M59.5949 113.693L50.1807 109.572L48.8973 112.517L58.3115 116.637L59.5949 113.693Z" fill="white"/>
<path opacity="0.05" d="M65.7554 183.071H61.082V186.199H65.7554V183.071Z" fill="#292A2E"/>
<path opacity="0.05" d="M17.9751 183.071H13.3018V186.199H17.9751V183.071Z" fill="#292A2E"/>
<path d="M70.0393 120.058H9.01807V182.966H70.0393V120.058Z" fill="#F4F4F4"/>
<path opacity="0.03" d="M70.0393 120.058H9.01807V182.966H70.0393V120.058Z" fill="#292A2E"/>
<path d="M81.3474 120.058H20.3262V182.966H81.3474V120.058Z" fill="#F4F4F4"/>
<path opacity="0.05" d="M77.0635 183.071H72.3901V186.199H77.0635V183.071Z" fill="#292A2E"/>
<path opacity="0.05" d="M29.2837 183.071H24.6104V186.199H29.2837V183.071Z" fill="#292A2E"/>
<path opacity="0.7" d="M79.0572 123.004H22.6172V135.09H79.0572V123.004Z" fill="white"/>
<path opacity="0.7" d="M79.0572 138.048H22.6172V150.134H79.0572V138.048Z" fill="white"/>
<path opacity="0.7" d="M79.0572 153.092H22.6172V165.178H79.0572V153.092Z" fill="white"/>
<path opacity="0.05" d="M50.8369 130.739C51.7689 130.739 52.5244 129.981 52.5244 129.048C52.5244 128.114 51.7689 127.356 50.8369 127.356C49.9049 127.356 49.1494 128.114 49.1494 129.048C49.1494 129.981 49.9049 130.739 50.8369 130.739Z" fill="#292A2E"/>
<path opacity="0.05" d="M50.8369 145.783C51.7689 145.783 52.5244 145.025 52.5244 144.091C52.5244 143.158 51.7689 142.4 50.8369 142.4C49.9049 142.4 49.1494 143.158 49.1494 144.091C49.1494 145.025 49.9049 145.783 50.8369 145.783Z" fill="#292A2E"/>
<path opacity="0.05" d="M50.8369 160.826C51.7689 160.826 52.5244 160.069 52.5244 159.135C52.5244 158.201 51.7689 157.444 50.8369 157.444C49.9049 157.444 49.1494 158.201 49.1494 159.135C49.1494 160.069 49.9049 160.826 50.8369 160.826Z" fill="#292A2E"/>
<path opacity="0.7" d="M79.0572 168.476H22.6172V180.562H79.0572V168.476Z" fill="white"/>
<path opacity="0.05" d="M50.8374 176.209C51.7694 176.209 52.5249 175.452 52.5249 174.518C52.5249 173.584 51.7694 172.827 50.8374 172.827C49.9054 172.827 49.1499 173.584 49.1499 174.518C49.1499 175.452 49.9054 176.209 50.8374 176.209Z" fill="#292A2E"/>
<path d="M30.6795 57.6191L66.7617 57.6191V10.5548L30.6795 10.5548L30.6795 57.6191Z" fill="#F4F4F4"/>
<path d="M30.6798 10.5547H29.5093V57.619H30.6798V10.5547Z" fill="#F4F4F4"/>
<path opacity="0.05" d="M30.6798 10.5547H29.5093V57.619H30.6798V10.5547Z" fill="#292A2E"/>
<path opacity="0.05" d="M37.2526 49.0459H60.189L60.189 19.1282L37.2526 19.1282V49.0459Z" fill="#292A2E"/>
<path opacity="0.03" d="M37.2529 49.0459H38.4482L38.4482 19.1282H37.2529V49.0459Z" fill="#292A2E"/>
<path d="M1.17037 99.0361H30.6797L30.6797 69.1929H1.17037L1.17037 99.0361Z" fill="#F4F4F4"/>
<path opacity="0.05" d="M6.54596 93.5996H25.3042L25.3042 74.6292H6.54596L6.54596 93.5996Z" fill="#292A2E"/>
<path d="M1.17054 69.1934H0V99.0366H1.17054V69.1934Z" fill="#F4F4F4"/>
<path opacity="0.05" d="M1.17054 69.1934H0V99.0366H1.17054V69.1934Z" fill="#292A2E"/>
<path opacity="0.03" d="M6.5459 93.5996H7.74121L7.74121 74.6292H6.5459L6.5459 93.5996Z" fill="#292A2E"/>
<path d="M181.114 10.4424H105.816V85.899H181.114V10.4424Z" fill="#F4F4F4"/>
<path d="M105.816 10.4424H104.953V85.899H105.816V10.4424Z" fill="#F4F4F4"/>
<path opacity="0.05" d="M105.816 10.4424H104.953V85.899H105.816V10.4424Z" fill="#292A2E"/>
<path opacity="0.05" d="M124.057 62.4383V42.6963H140.195V54.1661H165.192V74.4744H175.816V85.8992H165.192H163.145H109.438V62.4383H124.057Z" fill="#292A2E"/>
<path opacity="0.34" d="M138.123 44.8398H126.372V46.9833H138.123V44.8398Z" fill="#FFFFFA"/>
<path opacity="0.34" d="M138.123 49.2822H126.372V51.4257H138.123V49.2822Z" fill="#FFFFFA"/>
<path opacity="0.34" d="M138.123 53.7236H126.372V55.8671H138.123V53.7236Z" fill="#FFFFFA"/>
<path opacity="0.34" d="M113.688 64.5186H111.522V66.662H113.688V64.5186Z" fill="#FFFFFA"/>
<path opacity="0.34" d="M113.688 68.9609H111.522V71.1044H113.688V68.9609Z" fill="#FFFFFA"/>
<path opacity="0.34" d="M113.688 73.4023H111.522V75.5458H113.688V73.4023Z" fill="#FFFFFA"/>
<path opacity="0.34" d="M117.695 64.5186H115.529V66.662H117.695V64.5186Z" fill="#FFFFFA"/>
<path opacity="0.34" d="M117.695 68.9609H115.529V71.1044H117.695V68.9609Z" fill="#FFFFFA"/>
<path opacity="0.34" d="M117.695 73.4023H115.529V75.5458H117.695V73.4023Z" fill="#FFFFFA"/>
<path opacity="0.34" d="M121.594 64.5186H119.428V66.662H121.594V64.5186Z" fill="#FFFFFA"/>
<path opacity="0.34" d="M121.594 68.9609H119.428V71.1044H121.594V68.9609Z" fill="#FFFFFA"/>
<path opacity="0.34" d="M121.594 73.4023H119.428V75.5458H121.594V73.4023Z" fill="#FFFFFA"/>
<path d="M105.816 47.7475H120.967V10.4424H122.22V47.7475H163.145V10.4424H164.398V47.7475H181.114V49.0031H164.398V85.8992H163.145V49.0031H122.22V85.8992H120.967V49.0031H105.816V47.7475Z" fill="white"/>
<path d="M184.113 85.8076H102.816V88.317H184.113V85.8076Z" fill="#F4F4F4"/>
<path opacity="0.1" d="M184.113 85.8076H102.816V88.317H184.113V85.8076Z" fill="#292A2E"/>
<path opacity="0.1" d="M102.816 85.8076H101.643V88.317H102.816V85.8076Z" fill="#292A2E"/>
<path opacity="0.1" d="M102.816 85.8076H101.643V88.317H102.816V85.8076Z" fill="#292A2E"/>
<path d="M168.202 98.7344C156.675 98.7344 147.33 101.886 147.33 105.774V114.154H189.075V105.774C189.075 101.886 179.73 98.7344 168.202 98.7344Z" fill="#367CFF"/>
<path opacity="0.49" d="M168.202 98.7344C156.675 98.7344 147.33 101.886 147.33 105.774V114.154H189.075V105.774C189.075 101.886 179.73 98.7344 168.202 98.7344Z" fill="white"/>
<path opacity="0.49" d="M183.389 105.775V114.154H147.329V105.775C147.329 102.212 155.177 99.2672 165.359 98.8018C175.542 99.2672 183.389 102.212 183.389 105.775Z" fill="white"/>
<path d="M189.075 195.58H189.776L189.075 113.41L188.381 114.112L188.876 171.51L164.147 171.931L163.648 114.106L162.954 114.112L163.453 171.943L148.525 172.198L148.024 114.106L147.329 113.416L148.03 195.58L148.718 195.575L148.531 172.894L163.458 172.64L163.648 195.58L164.343 195.575L164.153 172.628L188.882 172.206L189.075 195.58Z" fill="#292A2E"/>
<path d="M126.115 183.278C126.115 183.278 124.874 189.726 118.849 190.086C112.824 190.445 114.131 195.255 114.131 195.255H137.154V183.728L126.115 183.278Z" fill="#367CFF"/>
<path d="M139.25 163.883C139.25 163.883 140.977 170.218 135.729 173.206C130.482 176.193 133.773 179.931 133.773 179.931L154.431 169.746L149.354 159.403L139.25 163.883Z" fill="#367CFF"/>
<path d="M137.065 168.07L121.499 109.214C120.318 102.712 122.095 99.8932 124.835 97.1554C129.647 92.3452 149.587 82.1074 149.587 82.1074L173.51 82.042C179.853 82.042 186.089 88.31 186.089 94.6664C186.089 101.023 179.64 106.414 173.297 106.414L143.839 109.36L151.824 163.251L137.065 168.07Z" fill="#262626"/>
<path d="M151.824 163.251L148.68 142.035L132.754 151.771L137.065 168.071L151.824 163.251Z" fill="#0C0C0C"/>
<path d="M155.434 94.0176C155.434 94.0176 145.377 96.2634 135.418 106.244C129.379 112.295 129.874 123.246 130.78 144.308L140.672 129.666L151.522 110.057L155.434 94.0176Z" fill="#0C0C0C"/>
<path d="M190.253 82.0358L174.007 81.959L174.001 82.1734H169.081C169.081 82.1734 156.758 93.5359 146.838 100.696C139.621 105.904 135.219 110.87 134.838 116.281C133.91 129.473 123.437 185.735 123.437 185.735L139.198 188.127L153.031 120.89C153.031 120.89 174.659 110.897 179.662 107.42C184.373 104.146 187.7 102.88 189.259 99.307C191.951 93.1355 190.253 82.0358 190.253 82.0358Z" fill="#262626"/>
<path d="M172.027 86.1368L145.671 86.4867L160.456 95.3353L172.757 88.9694C173.054 88.8099 173.288 88.5553 173.423 88.2464C173.558 87.9376 173.586 87.5923 173.501 87.2659C173.417 86.9394 173.226 86.6508 172.959 86.4461C172.692 86.2414 172.363 86.1325 172.027 86.1368Z" fill="#292A2E"/>
<path opacity="0.2" d="M172.027 86.1368L145.671 86.4867L160.456 95.3353L172.757 88.9694C173.054 88.8099 173.288 88.5553 173.423 88.2464C173.558 87.9376 173.586 87.5923 173.501 87.2659C173.417 86.9394 173.226 86.6508 172.959 86.4461C172.692 86.2414 172.363 86.1325 172.027 86.1368Z" fill="white"/>
<path d="M145.822 38.7549L138.368 62.96L123.436 82.5508L132.158 92.5844L149.922 72.7159C150.741 72.0678 151.381 71.2215 151.782 70.2567L152.059 69.5855L162.32 44.7069L145.822 38.7549Z" fill="#367CFF"/>
<path d="M157.306 13.0615C157.306 13.0615 154.302 10.7879 153.558 5.55852C152.982 1.50938 156.709 4.13263 156.709 4.13263C156.709 4.13263 156.322 1.21288 158.445 1.50265C160.568 1.79242 161.756 4.8595 161.756 4.8595" fill="#0C0C0C"/>
<path d="M169.417 1.84473C169.417 1.84473 179.95 2.9762 176.142 17.2787L175.21 17.3414L173.318 17.4685" fill="#0C0C0C"/>
<path d="M159.07 32.2155C159.117 32.2094 159.631 40.7532 169.535 40.0091C176.392 39.4943 178.837 32.2034 178.994 32.2034C178.255 32.0459 177.341 31.8069 176.978 31.725C176.187 31.541 175.47 31.1198 174.923 30.5175C174.377 29.9153 174.026 29.1605 173.918 28.3535C173.717 27.1425 174.057 20.9461 173.953 19.7207L163.428 22.0751C163.575 24.6633 164.604 30.6631 160.997 31.725C160.396 31.9004 159.749 32.0628 159.07 32.2155Z" fill="#E98862"/>
<path opacity="0.52" d="M163.28 29.2727C163.445 28.7402 163.551 28.1912 163.597 27.6355C163.713 26.3674 163.689 25.0906 163.528 23.8276C165.667 23.5387 167.683 22.6541 169.346 21.2744C169.541 21.9978 170.616 25.1586 170.318 25.8449C169.756 27.1441 167.112 29.2727 163.28 29.2727Z" fill="#0C0C0C"/>
<path d="M165.453 27.5821C169.605 27.2088 174.576 24.5796 174.648 18.9305L174.712 13.8334C174.784 8.1846 171.881 3.56751 166.574 3.49977C161.266 3.43226 157.241 7.96095 157.169 13.61L157.141 15.8665C157.144 16.6414 157.201 17.4152 157.309 18.1825C157.581 20.2126 158.004 23.2989 159.378 25.3867C160.677 27.3578 162.8 27.8204 165.453 27.5821Z" fill="#E98862"/>
<path opacity="0.52" d="M163.526 22.4183C162.669 22.4572 161.815 22.2937 161.032 21.941C161.001 21.9266 160.975 21.9001 160.963 21.8674C160.95 21.8347 160.951 21.7983 160.964 21.766C160.978 21.7336 161.004 21.708 161.036 21.6946C161.069 21.6811 161.105 21.6809 161.138 21.694C162.823 22.4143 164.354 22.309 165.564 21.3891C165.588 21.3698 165.613 21.3517 165.64 21.335C165.67 21.3207 165.705 21.3183 165.737 21.3284C165.769 21.3385 165.796 21.3603 165.813 21.3895C165.83 21.4188 165.835 21.4532 165.827 21.4861C165.82 21.519 165.801 21.5479 165.773 21.567C165.763 21.5731 165.747 21.5854 165.727 21.6021C165.091 22.0876 164.324 22.3718 163.526 22.4183Z" fill="#0C0C0C"/>
<path opacity="0.52" d="M163.565 23.6911C163.41 23.7007 163.255 23.697 163.101 23.68C163.083 23.6781 163.066 23.6728 163.051 23.6644C163.035 23.656 163.022 23.6446 163.011 23.6309C163 23.6172 162.991 23.6015 162.986 23.5846C162.981 23.5677 162.98 23.55 162.982 23.5324C162.984 23.5149 162.989 23.4979 162.997 23.4825C163.006 23.467 163.017 23.4533 163.031 23.4423C163.044 23.4312 163.06 23.4229 163.077 23.4179C163.094 23.4129 163.111 23.4113 163.129 23.4132C164.056 23.5118 164.499 23.0861 164.518 23.0677C164.543 23.0425 164.577 23.0284 164.613 23.0283C164.648 23.0283 164.682 23.0424 164.707 23.0675C164.733 23.0926 164.747 23.1268 164.747 23.1623C164.747 23.1979 164.733 23.2321 164.708 23.2573C164.388 23.5298 163.985 23.6831 163.565 23.6911Z" fill="#0C0C0C"/>
<path d="M158.922 16.952C159.283 16.952 159.576 16.6586 159.576 16.2968C159.576 15.9349 159.283 15.6416 158.922 15.6416C158.561 15.6416 158.268 15.9349 158.268 16.2968C158.268 16.6586 158.561 16.952 158.922 16.952Z" fill="#0C0C0C"/>
<path d="M165.309 16.5506C165.67 16.5506 165.963 16.2573 165.963 15.8954C165.963 15.5336 165.67 15.2402 165.309 15.2402C164.948 15.2402 164.655 15.5336 164.655 15.8954C164.655 16.2573 164.948 16.5506 165.309 16.5506Z" fill="#0C0C0C"/>
<path d="M174.296 20.6481C175.909 20.6688 177.238 18.9561 177.259 17.3398C177.28 15.7234 175.983 14.8153 174.371 14.7949L173.526 15.8672L172.91 20.6305L174.296 20.6481Z" fill="#E98862"/>
<path d="M172.691 18.0492C172.691 18.0492 172.147 10.0561 169.728 9.56235C168.117 9.2336 164.211 11.5235 160.592 10.8319C159.009 10.5303 157.507 10.9219 157.354 11.6713C157.293 11.968 156.307 7.704 158.786 4.46896C160.76 1.89372 167.218 1.16523 170.157 2.00972C178.293 4.34878 174.703 15.145 174.703 15.145L174.34 17.9008L172.691 18.0492Z" fill="#0C0C0C"/>
<g opacity="0.52">
<path opacity="0.52" d="M162.551 20.5321C162.547 20.5324 162.544 20.5324 162.541 20.5321C162.021 20.527 161.149 20.46 161.153 20.0705C161.157 19.7475 162.073 16.2714 162.178 15.8761C162.187 15.8421 162.209 15.813 162.239 15.7953C162.27 15.7776 162.306 15.7728 162.34 15.7818C162.374 15.7908 162.403 15.8129 162.421 15.8434C162.438 15.8738 162.443 15.91 162.434 15.9441C162.027 17.4836 161.42 19.8538 161.418 20.0737C161.468 20.1665 162.005 20.2621 162.543 20.2677C162.577 20.2684 162.609 20.2822 162.633 20.3061C162.657 20.3301 162.671 20.3624 162.672 20.3964C162.673 20.4304 162.661 20.4635 162.639 20.4888C162.616 20.5142 162.585 20.5299 162.551 20.5326V20.5321Z" fill="#0C0C0C"/>
</g>
<path d="M160.777 12.7439C160.231 12.5932 159.654 12.5932 159.108 12.7439C158.84 12.8162 158.584 12.9285 158.349 13.077C158.116 13.2225 157.903 13.3968 157.715 13.5958C157.68 13.6312 157.66 13.6788 157.659 13.7285C157.658 13.7782 157.677 13.8263 157.711 13.8628C157.744 13.8992 157.791 13.9212 157.84 13.9242C157.89 13.9272 157.939 13.911 157.977 13.8788L157.988 13.8686C158.163 13.7064 158.358 13.5669 158.567 13.4536C158.773 13.3407 158.994 13.2597 159.224 13.2132C159.676 13.1182 160.146 13.1445 160.585 13.2895L160.603 13.296C160.675 13.3192 160.753 13.3134 160.82 13.2799C160.888 13.2463 160.94 13.1877 160.965 13.1164C160.99 13.045 160.987 12.9667 160.955 12.898C160.924 12.8293 160.866 12.7757 160.796 12.7485L160.777 12.7439Z" fill="#0C0C0C"/>
<path d="M164.646 13.0725C165.061 12.8701 165.523 12.7814 165.984 12.8152C166.218 12.8305 166.448 12.8812 166.667 12.9656C166.889 13.0502 167.1 13.1624 167.295 13.2997L167.307 13.308C167.349 13.335 167.4 13.3448 167.449 13.3353C167.497 13.3258 167.541 13.2978 167.569 13.2571C167.598 13.2165 167.61 13.1663 167.603 13.117C167.595 13.0677 167.569 13.0232 167.53 12.9927C167.316 12.8207 167.082 12.6764 166.832 12.5633C166.58 12.4475 166.311 12.3704 166.036 12.3345C165.474 12.2579 164.903 12.3346 164.381 12.5566C164.346 12.5718 164.315 12.5938 164.288 12.6213C164.262 12.6487 164.241 12.6812 164.227 12.7167C164.213 12.7523 164.206 12.7902 164.207 12.8284C164.207 12.8666 164.215 12.9043 164.231 12.9394C164.261 13.0101 164.319 13.0658 164.39 13.094C164.426 13.1081 164.464 13.1149 164.502 13.1143C164.54 13.1136 164.578 13.1054 164.613 13.0902L164.629 13.0825L164.646 13.0725Z" fill="#0C0C0C"/>
<path d="M164.381 4.5058C164.748 2.74485 164.078 1.11468 162.884 0.864713C161.69 0.614747 160.424 1.83965 160.057 3.60059C159.69 5.36154 160.36 6.9917 161.554 7.24167C162.748 7.49163 164.014 6.26675 164.381 4.5058Z" fill="#0C0C0C"/>
<path d="M146.386 51.3031C146.698 54.9762 148.909 77.893 149.21 82.4175H189.858C190.092 78.3368 191.14 60.4932 192.026 52.5123C192.871 44.8975 194.056 41.4323 193.082 39.0661C191.365 34.8924 185.899 33.0287 182.197 32.5264C179.936 32.2197 176.537 32 176.537 32C176.537 32 176.249 37.8356 169.385 38.1604C160.041 38.6012 160.665 32 160.619 32C159.105 32 150.866 33.1032 148.805 34.4488C145.895 36.3494 145.035 38.9397 145.001 41.3193C144.962 44.06 146.032 47.1366 146.386 51.3031Z" fill="#367CFF"/>
<path d="M148.824 73.0773C148.795 73.0774 148.767 73.0666 148.746 73.047C148.724 73.0274 148.711 73.0005 148.708 72.9715L147.168 55.3207C147.166 55.29 147.175 55.2596 147.195 55.236C147.215 55.2124 147.243 55.1976 147.274 55.1949C147.289 55.1934 147.304 55.1949 147.319 55.1994C147.333 55.2039 147.347 55.2113 147.359 55.2211C147.37 55.231 147.38 55.2431 147.387 55.2567C147.394 55.2703 147.398 55.2852 147.399 55.3005L148.939 72.9513C148.942 72.9819 148.932 73.0123 148.912 73.0358C148.893 73.0594 148.864 73.0741 148.834 73.0768C148.831 73.0772 148.827 73.0773 148.824 73.0773Z" fill="#0C0C0C"/>
<path d="M151.771 83.3301L157.353 78.7924L156.414 79.0585C156.109 79.1383 155.785 79.0991 155.508 78.9489C155.231 78.7987 155.021 78.5487 154.92 78.2493C154.874 78.093 154.86 77.9288 154.879 77.7669C154.898 77.6049 154.95 77.4485 155.031 77.3073C155.112 77.166 155.221 77.0428 155.352 76.9452C155.482 76.8476 155.631 76.7777 155.789 76.7396L167.515 73.8818L168.523 77.6245C168.837 78.7869 168.797 80.0166 168.408 81.1559C168.02 82.2953 167.301 83.2925 166.343 84.0197L161.998 87.3053C161.776 87.4801 161.5 87.5727 161.218 87.5673C160.935 87.5619 160.663 87.4588 160.447 87.2756C160.256 87.1058 160.124 86.8791 160.07 86.6286C160.017 86.3782 160.044 86.1171 160.149 85.8836C160.13 85.878 160.114 85.8674 160.1 85.8529C160.089 85.8389 160.08 85.8221 160.077 85.8042C160.073 85.7863 160.074 85.7677 160.079 85.7502L159.279 86.3575C159.032 86.5533 158.719 86.6476 158.405 86.6215C158.091 86.5953 157.799 86.4507 157.587 86.2167C157.405 86.0011 157.305 85.728 157.304 85.4457C157.304 85.1633 157.402 84.8897 157.583 84.673C157.57 84.6711 157.558 84.6669 157.547 84.6607L157.218 84.9103C156.996 85.0852 156.72 85.1777 156.437 85.1723C156.155 85.1669 155.883 85.0639 155.667 84.8806C155.435 84.6747 155.291 84.3867 155.267 84.077C155.242 83.7673 155.338 83.4601 155.534 83.2197C155.529 83.213 155.526 83.2057 155.522 83.1981L153.198 85.0878C153.083 85.1815 152.95 85.2515 152.808 85.2938C152.666 85.3362 152.517 85.35 152.369 85.3346C152.222 85.3192 152.078 85.2748 151.948 85.204C151.818 85.1332 151.702 85.0373 151.609 84.9218C151.515 84.8063 151.446 84.6735 151.403 84.531C151.361 84.3885 151.347 84.239 151.363 84.0911C151.378 83.9432 151.422 83.7998 151.493 83.6691C151.564 83.5384 151.659 83.4229 151.774 83.3292L151.771 83.3301Z" fill="#E98862"/>
<path opacity="0.2" d="M155.661 83.2661C155.674 83.2617 155.685 83.2552 155.695 83.2468L157.931 81.385C157.943 81.3755 157.952 81.3639 157.959 81.3508C157.966 81.3376 157.97 81.3233 157.972 81.3086C157.973 81.2938 157.971 81.2789 157.967 81.2648C157.963 81.2507 157.955 81.2375 157.946 81.2262C157.936 81.2148 157.925 81.2054 157.912 81.1985C157.899 81.1916 157.884 81.1874 157.87 81.186C157.855 81.1847 157.84 81.1862 157.826 81.1906C157.812 81.195 157.799 81.2022 157.787 81.2117L155.551 83.0733C155.531 83.0902 155.517 83.1138 155.513 83.1399C155.508 83.166 155.512 83.1929 155.526 83.2159C155.539 83.2389 155.559 83.2565 155.584 83.2657C155.609 83.2749 155.636 83.275 155.661 83.2661Z" fill="#0A0A0A"/>
<path opacity="0.2" d="M157.632 84.6714C157.644 84.6671 157.655 84.6608 157.665 84.6526L159.434 83.2031C159.457 83.1841 159.472 83.1568 159.475 83.127C159.478 83.0973 159.469 83.0675 159.45 83.0444C159.431 83.0212 159.404 83.0065 159.374 83.0035C159.345 83.0005 159.315 83.0094 159.292 83.0284L157.523 84.4779C157.502 84.4947 157.488 84.5183 157.483 84.5445C157.478 84.5707 157.483 84.5977 157.496 84.6209C157.509 84.6441 157.53 84.6619 157.555 84.6711C157.58 84.6804 157.607 84.6805 157.632 84.6714Z" fill="#0A0A0A"/>
<path opacity="0.2" d="M160.221 85.8877C160.234 85.883 160.246 85.876 160.257 85.8671L161.076 85.163C161.087 85.1533 161.097 85.1416 161.103 85.1284C161.11 85.1152 161.114 85.1008 161.115 85.0861C161.116 85.0713 161.114 85.0565 161.11 85.0425C161.105 85.0284 161.098 85.0154 161.088 85.0042C161.079 84.9929 161.067 84.9837 161.054 84.977C161.041 84.9703 161.026 84.9663 161.012 84.9652C160.997 84.964 160.982 84.9658 160.968 84.9704C160.954 84.975 160.941 84.9823 160.93 84.992L160.11 85.6961C160.09 85.7133 160.077 85.7369 160.073 85.7628C160.068 85.7887 160.073 85.8154 160.087 85.8381C160.1 85.8609 160.12 85.8783 160.145 85.8873C160.17 85.8964 160.197 85.8965 160.221 85.8877Z" fill="#0A0A0A"/>
<path d="M201.101 72.2157L201.058 72.0252L193.639 39.1406L178.961 42.4657L184.751 68.1343L161.554 73.8464L164.409 86.9634L195.322 81.0547C195.392 81.0411 195.495 81.0202 195.565 81.0042C196.504 80.7914 197.393 80.3953 198.179 79.8384C198.966 79.2816 199.635 78.575 200.149 77.7589C200.663 76.9428 201.012 76.0332 201.175 75.0821C201.338 74.131 201.313 73.157 201.101 72.2157Z" fill="#367CFF"/>
<path d="M161.441 73.8707C161.435 73.8413 161.44 73.8106 161.456 73.7852C161.472 73.7597 161.497 73.7415 161.527 73.7343L184.621 68.0502L180.866 51.4305C180.861 51.4153 180.86 51.3995 180.862 51.3839C180.865 51.3683 180.87 51.3533 180.878 51.3398C180.886 51.3263 180.896 51.3146 180.909 51.3054C180.922 51.2961 180.936 51.2896 180.952 51.2861C180.967 51.2826 180.983 51.2823 180.998 51.2851C181.014 51.288 181.028 51.2939 181.041 51.3026C181.054 51.3113 181.066 51.3226 181.074 51.3358C181.083 51.3489 181.089 51.3637 181.091 51.3792L184.871 68.1101C184.878 68.1399 184.873 68.1712 184.857 68.1973C184.841 68.2233 184.816 68.242 184.786 68.2493L161.691 73.9334C161.691 73.9334 161.845 74.6099 161.889 74.8382C161.892 74.8679 161.884 74.8978 161.865 74.9212C161.847 74.9447 161.82 74.9598 161.79 74.9632C161.76 74.9667 161.731 74.9582 161.707 74.9396C161.684 74.921 161.669 74.8939 161.665 74.8642C161.612 74.6138 161.441 73.8707 161.441 73.8707Z" fill="#0C0C0C"/>
<path d="M162.346 92.1882L153.427 64.7136C153.27 64.2308 152.965 63.8101 152.555 63.5117C152.145 63.2134 151.652 63.0527 151.145 63.0527H114.808C114.429 63.0527 114.056 63.1426 113.718 63.3149C113.381 63.4872 113.089 63.7372 112.866 64.0443C112.644 64.3515 112.497 64.707 112.438 65.082C112.378 65.4569 112.409 65.8405 112.526 66.2015L121.445 93.676C121.602 94.1588 121.907 94.5795 122.317 94.8778C122.727 95.1762 123.221 95.3369 123.727 95.3369H160.064C160.443 95.3369 160.816 95.247 161.154 95.0746C161.491 94.9023 161.783 94.6523 162.006 94.3452C162.228 94.0381 162.375 93.6825 162.434 93.3076C162.493 92.9327 162.463 92.5491 162.346 92.1882Z" fill="#292A2E"/>
<path opacity="0.2" d="M162.346 92.1882L153.427 64.7136C153.27 64.2308 152.965 63.8101 152.555 63.5117C152.145 63.2134 151.652 63.0527 151.145 63.0527H114.808C114.429 63.0527 114.056 63.1426 113.718 63.3149C113.381 63.4872 113.089 63.7372 112.866 64.0443C112.644 64.3515 112.497 64.707 112.438 65.082C112.378 65.4569 112.409 65.8405 112.526 66.2015L121.445 93.676C121.602 94.1588 121.907 94.5795 122.317 94.8778C122.727 95.1762 123.221 95.3369 123.727 95.3369H160.064C160.443 95.3369 160.816 95.247 161.154 95.0746C161.491 94.9023 161.783 94.6523 162.006 94.3452C162.228 94.0381 162.375 93.6825 162.434 93.3076C162.493 92.9327 162.463 92.5491 162.346 92.1882Z" fill="white"/>
<path d="M136.39 83.014C138.494 83.014 140.201 81.3041 140.201 79.195C140.201 77.0858 138.494 75.376 136.39 75.376C134.285 75.376 132.579 77.0858 132.579 79.195C132.579 81.3041 134.285 83.014 136.39 83.014Z" fill="white"/>
<path d="M100.513 2.90332H28.3935C25.0523 2.90332 22.3438 5.61758 22.3438 8.96579V96.7024C22.3438 100.051 25.0523 102.765 28.3935 102.765H100.513C103.854 102.765 106.563 100.051 106.563 96.7024V8.96579C106.563 5.61758 103.854 2.90332 100.513 2.90332Z" fill="#292A2E"/>
<path d="M103.179 0.232422H31.059C27.7178 0.232422 25.0093 2.94668 25.0093 6.29489V94.0314C25.0093 97.3797 27.7178 100.094 31.059 100.094H103.179C106.52 100.094 109.229 97.3797 109.229 94.0314V6.29489C109.229 2.94668 106.52 0.232422 103.179 0.232422Z" fill="white"/>
<path d="M103.179 100.326H31.0591C29.3937 100.324 27.7971 99.6599 26.6195 98.4798C25.4419 97.2997 24.7796 95.6997 24.7778 94.0308V6.29447C24.7797 4.62564 25.442 3.02569 26.6196 1.84564C27.7971 0.6656 29.3937 0.00184225 31.0591 0L103.179 0C104.844 0.00190365 106.441 0.665688 107.618 1.84572C108.796 3.02576 109.458 4.62568 109.46 6.29447V94.0308C109.458 95.6996 108.796 97.2996 107.618 98.4797C106.441 99.6598 104.844 100.324 103.179 100.326ZM31.0591 0.464006C29.5165 0.465725 28.0376 1.08056 26.9469 2.17361C25.8561 3.26666 25.2426 4.74866 25.2409 6.29447V94.0308C25.2426 95.5766 25.8561 97.0586 26.9469 98.1517C28.0376 99.2447 29.5165 99.8595 31.0591 99.8613H103.179C104.721 99.8595 106.2 99.2447 107.291 98.1516C108.382 97.0586 108.995 95.5766 108.997 94.0308V6.29447C108.995 4.74869 108.382 3.26668 107.291 2.17362C106.2 1.08056 104.721 0.465725 103.179 0.464006H31.0591Z" fill="#292A2E"/>
<path d="M24.038 112.647C32.3333 112.647 39.058 105.908 39.058 97.5956C39.058 89.2828 32.3333 82.5439 24.038 82.5439C15.7427 82.5439 9.01807 89.2828 9.01807 97.5956C9.01807 105.908 15.7427 112.647 24.038 112.647Z" fill="#292A2E"/>
<path d="M20.92 95.6315C20.7223 95.6315 20.5327 95.5528 20.3928 95.4127C20.253 95.2726 20.1744 95.0826 20.1743 94.8844V91.2673C20.1743 89.2672 21.9077 87.6396 24.0381 87.6396C26.1685 87.6396 27.9018 89.2672 27.9018 91.2673V94.6362C27.9036 94.7354 27.8856 94.834 27.8489 94.9262C27.8122 95.0183 27.7575 95.1023 27.6881 95.1731C27.6187 95.2439 27.5359 95.3001 27.4446 95.3385C27.3533 95.3769 27.2552 95.3966 27.1562 95.3966C27.0572 95.3966 26.9591 95.3769 26.8678 95.3385C26.7765 95.3001 26.6937 95.2439 26.6243 95.1731C26.5549 95.1023 26.5002 95.0183 26.4636 94.9262C26.4269 94.834 26.4089 94.7354 26.4106 94.6362V91.2673C26.4106 90.091 25.3457 89.134 24.0381 89.134C22.7305 89.134 21.6655 90.091 21.6655 91.2673V94.8849C21.6654 95.0829 21.5868 95.2728 21.447 95.4128C21.3072 95.5528 21.1177 95.6315 20.92 95.6315Z" fill="white"/>
<path d="M28.7948 94.2588H19.2814C18.7266 94.2588 18.2769 94.7095 18.2769 95.2654V104.245C18.2769 104.801 18.7266 105.252 19.2814 105.252H28.7948C29.3496 105.252 29.7993 104.801 29.7993 104.245V95.2654C29.7993 94.7095 29.3496 94.2588 28.7948 94.2588Z" fill="white"/>
<path d="M23.091 98.8668C23.0909 99.0448 23.1408 99.2194 23.2349 99.3704C23.3291 99.5215 23.4637 99.6429 23.6235 99.721V101.179C23.6235 101.289 23.667 101.395 23.7446 101.472C23.8221 101.55 23.9273 101.594 24.037 101.594C24.1466 101.594 24.2518 101.55 24.3293 101.472C24.4069 101.395 24.4505 101.289 24.4505 101.179V99.721C24.6026 99.647 24.7322 99.5335 24.8258 99.3924C24.9194 99.2512 24.9736 99.0875 24.9827 98.9183C24.9918 98.749 24.9556 98.5804 24.8777 98.43C24.7998 98.2796 24.6831 98.1528 24.5398 98.0628C24.3965 97.9728 24.2317 97.9229 24.0627 97.9183C23.8936 97.9137 23.7264 97.9546 23.5784 98.0366C23.4304 98.1187 23.3071 98.2389 23.2212 98.3849C23.1352 98.5309 23.0899 98.6973 23.0898 98.8668H23.091Z" fill="#292A2E"/>
<path d="M96.881 50.0605H37.357C35.9361 50.0605 34.7842 51.2149 34.7842 52.6388V61.0011C34.7842 62.425 35.9361 63.5794 37.357 63.5794H96.881C98.302 63.5794 99.4539 62.425 99.4539 61.0011V52.6388C99.4539 51.2149 98.302 50.0605 96.881 50.0605Z" fill="white"/>
<path d="M96.8808 63.8109H37.3571C36.6136 63.8101 35.9008 63.5137 35.3751 62.9869C34.8493 62.4601 34.5536 61.7458 34.5527 61.0007V52.6386C34.5536 51.8935 34.8493 51.1792 35.375 50.6523C35.9008 50.1255 36.6136 49.829 37.3571 49.8281H96.8808C97.6244 49.829 98.3373 50.1254 98.863 50.6522C99.3888 51.1791 99.6845 51.8935 99.6854 52.6386V61.0007C99.6845 61.7458 99.3888 62.4601 98.863 62.987C98.3372 63.5138 97.6244 63.8101 96.8808 63.8109ZM37.3571 50.2921C36.7363 50.2928 36.1411 50.5402 35.7022 50.9802C35.2632 51.4201 35.0164 52.0165 35.0158 52.6386V61.0007C35.0164 61.6227 35.2633 62.2191 35.7023 62.659C36.1412 63.0989 36.7363 63.3463 37.3571 63.3469H96.8808C97.5016 63.3463 98.0968 63.0989 98.5357 62.659C98.9747 62.2192 99.2216 61.6228 99.2224 61.0007V52.6386C99.2217 52.0165 98.9748 51.42 98.5358 50.9801C98.0968 50.5402 97.5016 50.2928 96.8808 50.2921H37.3571Z" fill="#292A2E"/>
<path d="M96.881 69.3809H37.357C35.9361 69.3809 34.7842 70.5352 34.7842 71.9591V80.3214C34.7842 81.7454 35.9361 82.8997 37.357 82.8997H96.881C98.302 82.8997 99.4539 81.7454 99.4539 80.3214V71.9591C99.4539 70.5352 98.302 69.3809 96.881 69.3809Z" fill="white"/>
<path d="M96.8808 83.131H37.3571C36.6135 83.1302 35.9006 82.8337 35.3748 82.3067C34.8491 81.7797 34.5534 81.0653 34.5527 80.3201V71.9587C34.5536 71.2136 34.8493 70.4993 35.3751 69.9725C35.9008 69.4457 36.6136 69.1493 37.3571 69.1484H96.8808C97.6244 69.1492 98.3372 69.4456 98.863 69.9724C99.3888 70.4993 99.6845 71.2136 99.6854 71.9587V80.3201C99.6847 81.0653 99.3891 81.7798 98.8633 82.3068C98.3375 82.8338 97.6245 83.1302 96.8808 83.131ZM37.3571 69.6124C36.7363 69.6131 36.1412 69.8605 35.7023 70.3004C35.2633 70.7402 35.0164 71.3366 35.0158 71.9587V80.3201C35.0164 80.9421 35.2633 81.5385 35.7023 81.9784C36.1412 82.4182 36.7363 82.6656 37.3571 82.6663H96.8808C97.5016 82.6657 98.0968 82.4183 98.5358 81.9785C98.9748 81.5386 99.2217 80.9422 99.2224 80.3201V71.9587C99.2217 71.3366 98.9748 70.7402 98.5358 70.3003C98.0968 69.8604 97.5016 69.6131 96.8808 69.6124H37.3571Z" fill="#292A2E"/>
<path d="M67.1189 40.005C74.7514 40.005 80.9389 33.8045 80.9389 26.1558C80.9389 18.5071 74.7514 12.3066 67.1189 12.3066C59.4863 12.3066 53.2988 18.5071 53.2988 26.1558C53.2988 33.8045 59.4863 40.005 67.1189 40.005Z" fill="white"/>
<path d="M67.1189 40.2366C64.3398 40.2366 61.6231 39.4108 59.3123 37.8635C57.0015 36.3162 55.2005 34.1171 54.137 31.5441C53.0735 28.9711 52.7952 26.1398 53.3374 23.4083C53.8796 20.6768 55.2178 18.1678 57.183 16.1985C59.1481 14.2292 61.6519 12.8881 64.3776 12.3448C67.1033 11.8015 69.9286 12.0803 72.4962 13.1461C75.0638 14.2119 77.2584 16.0167 78.8024 18.3323C80.3464 20.648 81.1705 23.3704 81.1705 26.1554C81.1663 29.8887 79.6846 33.4679 77.0503 36.1077C74.416 38.7475 70.8444 40.2324 67.1189 40.2366ZM67.1189 12.5382C64.4314 12.5382 61.8042 13.3369 59.5696 14.8331C57.3349 16.3294 55.5933 18.4561 54.5648 20.9443C53.5363 23.4326 53.2672 26.1705 53.7915 28.812C54.3158 31.4535 55.61 33.8798 57.5104 35.7842C59.4108 37.6886 61.832 38.9855 64.4679 39.511C67.1039 40.0364 69.8361 39.7667 72.319 38.7361C74.802 37.7054 76.9242 35.9601 78.4174 33.7207C79.9105 31.4814 80.7075 28.8486 80.7075 26.1554C80.7034 22.5452 79.2705 19.0839 76.723 16.5311C74.1755 13.9782 70.7216 12.5423 67.1189 12.5382Z" fill="#292A2E"/>
<path opacity="0.5" d="M80.632 26.1552C80.6359 29.3607 79.5009 32.4629 77.4301 34.9061C76.1547 33.416 74.5728 32.2201 72.7928 31.4003C71.0129 30.5805 69.077 30.1562 67.1181 30.1566C65.1591 30.1569 63.2234 30.5819 61.4438 31.4023C59.6641 32.2228 58.0826 33.4193 56.8077 34.9098C55.4016 33.2467 54.4169 31.268 53.9372 29.1419C53.4575 27.0158 53.4971 24.805 54.0525 22.6975C54.6079 20.59 55.6628 18.648 57.1275 17.0365C58.5923 15.425 60.4235 14.1916 62.4658 13.4411C64.508 12.6907 66.7008 12.4454 68.8579 12.726C71.015 13.0066 73.0726 13.8048 74.8559 15.0529C76.6392 16.301 78.0956 17.9621 79.1012 19.895C80.1068 21.8278 80.6319 23.9754 80.632 26.1552Z" fill="#367CFF"/>
<path d="M77.43 34.9058C76.1617 36.4067 74.5824 37.6127 72.8018 38.44C71.0213 39.2673 69.0823 39.6961 67.1197 39.6964C65.1571 39.6968 63.2179 39.2687 61.4371 38.4421C59.6563 37.6154 58.0765 36.4099 56.8076 34.9095C58.0825 33.419 59.664 32.2225 61.4437 31.402C63.2233 30.5816 65.159 30.1566 67.118 30.1563C69.0769 30.1559 71.0128 30.5802 72.7927 31.4C74.5727 32.2198 76.1546 33.4157 77.43 34.9058Z" fill="white"/>
<path d="M67.1193 27.6299C70.136 27.6299 72.5815 25.1793 72.5815 22.1563C72.5815 19.1333 70.136 16.6826 67.1193 16.6826C64.1027 16.6826 61.6572 19.1333 61.6572 22.1563C61.6572 25.1793 64.1027 27.6299 67.1193 27.6299Z" fill="white"/>
<g opacity="0.4">
<path opacity="0.4" d="M39.7947 77.7858C40.702 77.7858 41.4375 77.0487 41.4375 76.1395C41.4375 75.2302 40.702 74.4932 39.7947 74.4932C38.8874 74.4932 38.1519 75.2302 38.1519 76.1395C38.1519 77.0487 38.8874 77.7858 39.7947 77.7858Z" fill="#292A2E"/>
<path opacity="0.4" d="M44.9339 77.7858C45.8412 77.7858 46.5767 77.0487 46.5767 76.1395C46.5767 75.2302 45.8412 74.4932 44.9339 74.4932C44.0265 74.4932 43.291 75.2302 43.291 76.1395C43.291 77.0487 44.0265 77.7858 44.9339 77.7858Z" fill="#292A2E"/>
<path opacity="0.4" d="M50.0725 77.7858C50.9798 77.7858 51.7154 77.0487 51.7154 76.1395C51.7154 75.2302 50.9798 74.4932 50.0725 74.4932C49.1652 74.4932 48.4297 75.2302 48.4297 76.1395C48.4297 77.0487 49.1652 77.7858 50.0725 77.7858Z" fill="#292A2E"/>
<path opacity="0.4" d="M55.2117 77.7858C56.119 77.7858 56.8545 77.0487 56.8545 76.1395C56.8545 75.2302 56.119 74.4932 55.2117 74.4932C54.3044 74.4932 53.5688 75.2302 53.5688 76.1395C53.5688 77.0487 54.3044 77.7858 55.2117 77.7858Z" fill="#292A2E"/>
<path opacity="0.4" d="M60.3503 77.7858C61.2577 77.7858 61.9932 77.0487 61.9932 76.1395C61.9932 75.2302 61.2577 74.4932 60.3503 74.4932C59.443 74.4932 58.7075 75.2302 58.7075 76.1395C58.7075 77.0487 59.443 77.7858 60.3503 77.7858Z" fill="#292A2E"/>
<path opacity="0.4" d="M65.489 77.7858C66.3963 77.7858 67.1318 77.0487 67.1318 76.1395C67.1318 75.2302 66.3963 74.4932 65.489 74.4932C64.5817 74.4932 63.8462 75.2302 63.8462 76.1395C63.8462 77.0487 64.5817 77.7858 65.489 77.7858Z" fill="#292A2E"/>
<path opacity="0.4" d="M70.6282 77.7858C71.5355 77.7858 72.271 77.0487 72.271 76.1395C72.271 75.2302 71.5355 74.4932 70.6282 74.4932C69.7209 74.4932 68.9854 75.2302 68.9854 76.1395C68.9854 77.0487 69.7209 77.7858 70.6282 77.7858Z" fill="#292A2E"/>
</g>
<g opacity="0.3">
<path opacity="0.3" d="M41.4242 56.7207V57.2775H39.3145V56.7207H41.4242Z" fill="black"/>
<path opacity="0.3" d="M44.0463 56.7207V57.2775H41.9365V56.7207H44.0463Z" fill="black"/>
<path opacity="0.3" d="M46.6679 56.7207V57.2775H44.5581V56.7207H46.6679Z" fill="black"/>
<path opacity="0.3" d="M49.2895 56.7207V57.2775H47.1797V56.7207H49.2895Z" fill="black"/>
<path opacity="0.3" d="M51.9118 56.7207V57.2775H49.8018V56.7207H51.9118Z" fill="black"/>
<path opacity="0.3" d="M56.6429 59.8618C56.1737 60.1034 55.6508 60.2214 55.1235 60.2049C53.7226 60.2049 52.5352 59.1776 52.5352 57.5341C52.5352 55.7709 53.7569 54.2471 55.653 54.2471C57.1393 54.2471 58.1387 55.2911 58.1387 56.7209C58.1387 58.005 57.421 58.7581 56.6182 58.7581C56.2767 58.7581 55.9607 58.5261 55.9861 58.005H55.9519C55.8414 58.2307 55.6701 58.4209 55.4573 58.554C55.2445 58.6871 54.9988 58.7578 54.748 58.7581C54.2525 58.7581 53.8254 58.3558 53.8254 57.6798C53.8244 57.4131 53.8762 57.1488 53.9776 56.9022C54.079 56.6557 54.2281 56.4316 54.4163 56.243C54.6045 56.0545 54.828 55.905 55.0741 55.8034C55.3202 55.7018 55.5838 55.65 55.85 55.6509C56.1638 55.6463 56.4752 55.7076 56.764 55.8307L56.4735 57.38C56.3454 58.0296 56.448 58.3312 56.7297 58.3389C57.1655 58.3473 57.6523 57.7652 57.6523 56.7724C57.6523 55.5312 56.9092 54.641 55.5851 54.641C54.1928 54.641 53.0225 55.7451 53.0225 57.4828C53.0225 58.9124 53.9536 59.794 55.2179 59.794C55.6662 59.8045 56.1098 59.7014 56.5077 59.4945L56.6429 59.8618ZM56.1732 56.1639C56.0345 56.123 55.8906 56.1029 55.746 56.104C54.9943 56.104 54.388 56.8144 54.388 57.6447C54.388 58.0213 54.576 58.2944 54.9517 58.2944C55.4472 58.2944 55.8998 57.661 55.9935 57.1302L56.1732 56.1639Z" fill="black"/>
<path opacity="0.3" d="M60.8276 56.7207V57.2775H58.7178V56.7207H60.8276Z" fill="black"/>
<path opacity="0.3" d="M63.4494 56.7207V57.2775H61.3394V56.7207H63.4494Z" fill="black"/>
<path opacity="0.3" d="M66.0712 56.7207V57.2775H63.9614V56.7207H66.0712Z" fill="black"/>
</g>
</g>
<defs>
<clipPath id="clip0_260_21885">
<rect width="206.081" height="200" fill="white"/>
</clipPath>
</defs>
</svg>
