<svg width="237" height="200" viewBox="0 0 237 200" fill="none" xmlns="http://www.w3.org/2000/svg">
<g clip-path="url(#clip0_245_21096)">
<path d="M128.951 15.2428C128.951 15.9589 128.644 16.6239 128.184 17.0843C127.724 17.5446 127.059 17.8515 126.343 17.8515H69.9744C68.5422 17.8515 67.3657 16.675 67.3657 15.2428C67.3657 14.4756 67.6726 13.8106 68.133 13.3502C68.5933 12.8899 69.2583 12.583 69.9744 12.583H72.6343C73.7084 10.1277 76.1125 8.43975 78.977 8.43975C80.8696 8.43975 82.6087 9.20701 83.8363 10.4346C85.4731 7.62134 88.5422 5.72875 92.0716 5.72875C93.0264 5.76285 93.9471 5.89926 94.8337 6.13796C96.6752 2.71085 100.256 0.35791 104.45 0.35791C109.463 0.35791 113.708 3.73387 114.987 8.33745C115.908 7.87709 116.931 7.62134 118.056 7.62134C121.176 7.62134 123.785 9.71852 124.655 12.583H126.343C127.775 12.583 128.951 13.7594 128.951 15.2428Z" fill="#CAE6FE"/>
<path d="M195.601 26.4448C195.601 26.9563 195.396 27.4167 195.038 27.7747C194.68 28.1328 194.22 28.3374 193.657 28.3374H152.225C151.151 28.3374 150.281 27.4678 150.281 26.4448C150.281 25.8822 150.537 25.4218 150.895 25.0638C151.202 24.7057 151.713 24.5011 152.225 24.5011H154.169C154.987 22.7108 156.777 21.432 158.823 21.432C160.256 21.432 161.483 21.9947 162.404 22.9154C163.632 20.8694 165.882 19.4372 168.44 19.4372C169.156 19.4372 169.838 19.5395 170.486 19.7441C171.867 17.2377 174.527 15.4985 177.596 15.4985C181.279 15.4985 184.348 18.0049 185.32 21.3809C185.985 21.0228 186.752 20.8182 187.57 20.8182C189.872 20.8182 191.816 22.4039 192.43 24.5011H193.657C194.731 24.5011 195.601 25.3707 195.601 26.4448Z" fill="#CAE6FE"/>
<path fill-rule="evenodd" clip-rule="evenodd" d="M224.297 102.148L227.826 102.353L227.621 105.627C228.474 105.831 229.258 106.172 229.974 106.65L232.378 104.501L234.731 107.11L232.43 109.207C232.992 110.128 233.35 111.1 233.504 112.174L236.829 112.327L236.624 115.857L233.248 115.652C233.009 116.334 232.702 116.982 232.327 117.596L234.476 120L231.867 122.353L229.821 120.051C228.849 120.614 227.877 120.972 226.803 121.125L226.701 124.041L223.171 123.836L223.325 120.87C222.455 120.563 221.637 120.154 220.869 119.591L218.619 121.637L216.266 119.028L218.619 116.88C218.158 116.01 217.903 115.038 217.8 114.015L214.476 113.862L214.68 110.333L218.261 110.537C218.534 109.821 218.909 109.139 219.386 108.491L217.34 106.241L219.949 103.888L222.097 106.241C222.745 105.934 223.41 105.695 224.092 105.524L224.297 102.148ZM223.529 110.946C222.251 112.123 222.097 114.169 223.325 115.499C224.501 116.829 226.547 116.931 227.877 115.703C229.207 114.527 229.309 112.481 228.082 111.151C226.905 109.821 224.859 109.719 223.529 110.946Z" fill="#CAE6FE"/>
<path fill-rule="evenodd" clip-rule="evenodd" d="M24.5013 43.9897L28.0307 44.1944L27.8772 47.468C28.6956 47.6726 29.48 48.0136 30.2302 48.491L32.5831 46.3427L34.9361 48.9514L32.6854 51.0486C33.2481 51.9693 33.6061 52.9412 33.7596 54.0153L37.0332 54.1688L36.8286 57.6982L33.4527 57.4936C33.2481 58.1756 32.9412 58.8235 32.532 59.4373L34.6803 61.8414L32.0716 64.1944L30.0256 61.8926C29.1048 62.4552 28.0818 62.8133 27.0588 62.9667L26.9054 65.8823L23.3759 65.6777L23.5294 62.711C22.6598 62.4041 21.8414 61.9949 21.1253 61.4322L18.8235 63.4782L16.4706 60.8695L18.8747 58.7212C18.4143 57.8516 18.1074 56.8798 18.0051 55.8568L14.7314 55.7033L14.8849 52.1739L18.5166 52.3785C18.7553 51.6624 19.1134 50.9804 19.5908 50.3325L17.5447 48.0818L20.1534 45.7289L22.3018 48.0818C22.9497 47.7749 23.6317 47.5533 24.3478 47.4169L24.5013 43.9897ZM23.734 52.7365C22.4041 53.913 22.3018 55.9591 23.4782 57.289C24.6547 58.6189 26.7008 58.7212 28.0307 57.4936C29.3606 56.3171 29.4629 54.2711 28.2864 52.9412C27.11 51.6112 25.0639 51.5089 23.734 52.7365Z" fill="#CAE6FE"/>
<path fill-rule="evenodd" clip-rule="evenodd" d="M220.409 85.2173L222.353 85.2684L222.25 87.1099C222.694 87.2122 223.12 87.3997 223.529 87.6725L224.859 86.4961L226.138 87.9283L224.859 89.0536C225.166 89.5651 225.371 90.0766 225.473 90.6393L227.263 90.7416L227.161 92.6853L225.32 92.583C225.183 92.9581 225.013 93.3162 224.808 93.6572L225.984 94.936L224.552 96.2147L223.427 94.9871C222.915 95.294 222.353 95.4986 221.79 95.5498L221.739 97.1354L219.795 97.0331L219.898 95.3963C219.42 95.2599 218.977 95.0383 218.568 94.7314L217.289 95.8567L216.01 94.4245L217.34 93.248C217.067 92.7365 216.914 92.2079 216.88 91.6623L215.089 91.6112L215.192 89.6674L217.135 89.7697C217.272 89.3605 217.476 88.9854 217.749 88.6444L216.624 87.4168L218.056 86.138L219.233 87.4168C219.574 87.2463 219.932 87.1269 220.307 87.0587L220.409 85.2173ZM220 89.9743C219.284 90.6393 219.233 91.7646 219.898 92.4807C220.511 93.1968 221.637 93.248 222.353 92.6342C223.069 91.9692 223.171 90.8439 222.506 90.1278C221.841 89.4117 220.716 89.3605 220 89.9743Z" fill="#CAE6FE"/>
<path fill-rule="evenodd" clip-rule="evenodd" d="M11.0487 68.6445L12.9924 68.7468L12.8901 70.5371C13.3334 70.6735 13.7597 70.8611 14.1689 71.0998L15.4988 69.9745L16.7776 71.3555L15.55 72.4808C15.8569 72.9924 16.0103 73.555 16.1126 74.1177L17.9029 74.22L17.8006 76.1637L15.9592 76.0614C15.8569 76.4365 15.6864 76.7775 15.4477 77.0844L16.6241 78.4144L15.1919 79.6931L14.0666 78.4655C13.5551 78.7724 13.0436 78.977 12.4809 79.0282L12.3786 80.6138L10.4349 80.5115L10.5372 78.8747C10.0598 78.7383 9.61647 78.5167 9.20726 78.2097L7.97964 79.3351L6.70087 77.9028L7.97964 76.7264C7.74094 76.2149 7.58749 75.6863 7.51928 75.1407L5.729 75.0384L5.83131 73.1458L7.77504 73.2481C7.91144 72.8389 8.11605 72.4638 8.38885 72.1228L7.26353 70.8952L8.69576 69.6164L9.87223 70.8952C10.2132 70.7247 10.5883 70.6053 10.9975 70.5371L11.0487 68.6445ZM10.5883 73.4016C9.87223 74.0665 9.82107 75.1918 10.486 75.908C11.151 76.6241 12.2252 76.6752 12.9924 76.0103C13.7085 75.3965 13.7597 74.2711 13.0947 73.555C12.4298 72.8389 11.3556 72.7366 10.5883 73.4016Z" fill="#CAE6FE"/>
<path d="M112.174 200C174.154 200 224.399 196.267 224.399 191.662C224.399 187.058 174.154 183.325 112.174 183.325C50.1936 183.325 -0.0512695 187.058 -0.0512695 191.662C-0.0512695 196.267 50.1936 200 112.174 200Z" fill="#CAE6FE"/>
<path fill-rule="evenodd" clip-rule="evenodd" d="M220.972 66.3428C222.66 66.3428 223.99 67.6727 223.99 69.3607C223.99 70.9975 222.66 72.3786 220.972 72.3786C219.284 72.3786 217.954 70.9975 217.954 69.3607C217.954 67.6727 219.284 66.3428 220.972 66.3428ZM220.972 71.4067C222.097 71.4067 223.018 70.486 223.018 69.3607C223.018 68.1842 222.097 67.2635 220.972 67.2635C219.796 67.2635 218.875 68.1842 218.875 69.3607C218.875 70.486 219.796 71.4067 220.972 71.4067Z" fill="#61B3FF"/>
<path fill-rule="evenodd" clip-rule="evenodd" d="M207.621 57.4937C209.309 57.4937 210.639 58.8236 210.639 60.5116C210.639 62.1484 209.309 63.5295 207.621 63.5295C205.933 63.5295 204.604 62.1484 204.604 60.5116C204.604 58.8236 205.933 57.4937 207.621 57.4937ZM207.621 62.5576C208.747 62.5576 209.719 61.6369 209.719 60.5116C209.719 59.3351 208.747 58.4144 207.621 58.4144C206.496 58.4144 205.524 59.3351 205.524 60.5116C205.524 61.6369 206.496 62.5576 207.621 62.5576Z" fill="#007CE6"/>
<path d="M206.291 49.0537C206.547 49.0537 206.752 49.3095 206.752 49.5652V51.6624C206.752 51.9182 206.547 52.1228 206.291 52.1228C206.036 52.1228 205.831 51.9182 205.831 51.6624V49.5652C205.831 49.3095 206.036 49.0537 206.291 49.0537Z" fill="#61B3FF"/>
<path d="M206.291 45.4219C206.547 45.4219 206.752 45.6265 206.752 45.8822V47.9794C206.752 48.2352 206.547 48.4398 206.291 48.4398C206.036 48.4398 205.831 48.2352 205.831 47.9794V45.8822C205.831 45.6265 206.036 45.4219 206.291 45.4219Z" fill="#61B3FF"/>
<path d="M203.325 48.2866H205.217C205.473 48.2866 205.729 48.4912 205.729 48.747C205.729 49.0539 205.473 49.2585 205.217 49.2585H203.325C203.069 49.2585 202.864 49.0539 202.864 48.747C202.864 48.4912 203.069 48.2866 203.325 48.2866Z" fill="#61B3FF"/>
<path d="M207.366 48.2866H209.207C209.514 48.2866 209.718 48.4912 209.718 48.747C209.718 49.0539 209.514 49.2585 209.207 49.2585H207.366C207.11 49.2585 206.854 49.0539 206.854 48.747C206.854 48.4912 207.11 48.2866 207.366 48.2866Z" fill="#61B3FF"/>
<path d="M222.711 56.9819C222.966 56.9819 223.171 57.1865 223.171 57.4423V59.5395C223.171 59.7952 222.966 60.051 222.711 60.051C222.404 60.051 222.199 59.7952 222.199 59.5395V57.4423C222.199 57.1865 222.404 56.9819 222.711 56.9819Z" fill="#61B3FF"/>
<path d="M222.711 53.2993C222.966 53.2993 223.171 53.5551 223.171 53.8108V55.908C223.171 56.1638 222.966 56.3684 222.711 56.3684C222.404 56.3684 222.199 56.1638 222.199 55.908V53.8108C222.199 53.5551 222.404 53.2993 222.711 53.2993Z" fill="#61B3FF"/>
<path d="M219.744 56.2148H221.637C221.892 56.2148 222.097 56.4194 222.097 56.6752C222.097 56.931 221.892 57.1356 221.637 57.1356H219.744C219.488 57.1356 219.284 56.931 219.284 56.6752C219.284 56.4194 219.488 56.2148 219.744 56.2148Z" fill="#61B3FF"/>
<path d="M223.734 56.2148H225.626C225.882 56.2148 226.087 56.4194 226.087 56.6752C226.087 56.931 225.882 57.1356 225.626 57.1356H223.734C223.478 57.1356 223.273 56.931 223.273 56.6752C223.273 56.4194 223.478 56.2148 223.734 56.2148Z" fill="#61B3FF"/>
<path fill-rule="evenodd" clip-rule="evenodd" d="M40.9206 24.6549C39.2326 24.6549 37.8516 23.325 37.8516 21.637C37.8516 19.9491 39.2326 18.6191 40.9206 18.6191C42.5574 18.6191 43.9385 19.9491 43.9385 21.637C43.9385 23.325 42.5574 24.6549 40.9206 24.6549ZM40.9206 23.7342C42.0459 23.7342 42.9667 22.8135 42.9667 21.637C42.9667 20.5117 42.0459 19.5399 40.9206 19.5399C39.7441 19.5399 38.8234 20.5117 38.8234 21.637C38.8234 22.8135 39.7441 23.7342 40.9206 23.7342Z" fill="#61B3FF"/>
<path fill-rule="evenodd" clip-rule="evenodd" d="M50.2303 33.6061C48.5935 33.6061 47.2124 32.2762 47.2124 30.5882C47.2124 28.9514 48.5935 27.5703 50.2303 27.5703C51.9183 27.5703 53.2482 28.9514 53.2482 30.5882C53.2482 32.2762 51.9183 33.6061 50.2303 33.6061ZM50.2303 32.6854C51.4068 32.6854 52.3275 31.7647 52.3275 30.5882C52.3275 29.4629 51.4068 28.5422 50.2303 28.5422C49.105 28.5422 48.1843 29.4629 48.1843 30.5882C48.1843 31.7647 49.105 32.6854 50.2303 32.6854Z" fill="#007CE6"/>
<path d="M59.2841 22.404H57.1869C56.9312 22.404 56.7266 22.1994 56.7266 21.9436C56.7266 21.6879 56.9312 21.4321 57.1869 21.4321H59.2841C59.5399 21.4321 59.7445 21.6879 59.7445 21.9436C59.7445 22.1994 59.5399 22.404 59.2841 22.404Z" fill="#61B3FF"/>
<path d="M62.9666 22.404H60.8694C60.6137 22.404 60.3579 22.1994 60.3579 21.9436C60.3579 21.6879 60.6137 21.4321 60.8694 21.4321H62.9666C63.2224 21.4321 63.427 21.6879 63.427 21.9436C63.427 22.1994 63.2224 22.404 62.9666 22.404Z" fill="#61B3FF"/>
<path d="M60.0512 25.3196C59.7954 25.3196 59.5908 25.115 59.5908 24.8593V22.9667C59.5908 22.711 59.7954 22.5063 60.0512 22.5063C60.3581 22.5063 60.5627 22.711 60.5627 22.9667V24.8593C60.5627 25.115 60.3581 25.3196 60.0512 25.3196Z" fill="#61B3FF"/>
<path d="M60.0512 21.3299C59.7954 21.3299 59.5908 21.1253 59.5908 20.8695V18.977C59.5908 18.7212 59.7954 18.5166 60.0512 18.5166C60.3581 18.5166 60.5627 18.7212 60.5627 18.977V20.8695C60.5627 21.1253 60.3581 21.3299 60.0512 21.3299Z" fill="#61B3FF"/>
<path d="M33.3505 33.4017H31.2533C30.9976 33.4017 30.793 33.1971 30.793 32.9413C30.793 32.6856 30.9976 32.481 31.2533 32.481H33.3505C33.6574 32.481 33.862 32.6856 33.862 32.9413C33.862 33.1971 33.6574 33.4017 33.3505 33.4017Z" fill="#61B3FF"/>
<path d="M37.0331 33.4017H34.9359C34.6802 33.4017 34.4756 33.1971 34.4756 32.9413C34.4756 32.6856 34.6802 32.481 34.9359 32.481H37.0331C37.2889 32.481 37.4935 32.6856 37.4935 32.9413C37.4935 33.1971 37.2889 33.4017 37.0331 33.4017Z" fill="#61B3FF"/>
<path d="M34.1687 36.3684C33.913 36.3684 33.6572 36.1126 33.6572 35.8568V34.0154C33.6572 33.7085 33.913 33.5039 34.1687 33.5039C34.4245 33.5039 34.6291 33.7085 34.6291 34.0154V35.8568C34.6291 36.1126 34.4245 36.3684 34.1687 36.3684Z" fill="#61B3FF"/>
<path d="M34.1687 32.3275C33.913 32.3275 33.6572 32.1229 33.6572 31.8671V29.9745C33.6572 29.7188 33.913 29.5142 34.1687 29.5142C34.4245 29.5142 34.6291 29.7188 34.6291 29.9745V31.8671C34.6291 32.1229 34.4245 32.3275 34.1687 32.3275Z" fill="#61B3FF"/>
<path d="M128.593 180.307C149.616 164.348 161.074 151.151 161.637 142.046C161.637 141.739 161.944 141.432 162.302 141.483C162.66 141.483 162.916 141.79 162.864 142.148C162.557 147.314 158.977 153.708 152.276 161.074C147.161 166.701 138.517 174.169 129.923 180.869L128.593 180.307Z" fill="#ABD3F2"/>
<path d="M157.698 154.015C160.017 156.607 163.393 155.772 167.826 151.509C163.154 148.542 159.778 149.378 157.698 154.015Z" fill="#CAE6FE"/>
<path d="M154.476 157.442C157.204 155.294 156.573 151.901 152.583 147.263C149.343 151.764 149.974 155.157 154.476 157.442Z" fill="#CAE6FE"/>
<path d="M161.432 145.934C164.74 144.808 165.285 141.381 163.069 135.652C158.533 138.824 157.988 142.251 161.432 145.934Z" fill="#CAE6FE"/>
<path d="M148.184 164.603C149.48 167.843 152.924 168.201 158.517 165.678C155.106 161.313 151.662 160.955 148.184 164.603Z" fill="#CAE6FE"/>
<path d="M144.348 167.621C147.383 165.985 147.349 162.523 144.246 157.238C140.29 161.125 140.324 164.586 144.348 167.621Z" fill="#CAE6FE"/>
<path d="M139.488 172.327C140.716 175.567 144.16 175.993 149.821 173.606C146.513 169.139 143.069 168.713 139.488 172.327Z" fill="#CAE6FE"/>
<path d="M45.1662 123.734C38.9769 114.731 32.9922 105.013 29.8209 98.1074C25.6777 89.0537 24.1943 81.8926 25.4219 76.8798C25.5242 76.5217 25.8823 76.3171 26.1892 76.4194C26.5472 76.4706 26.7518 76.8286 26.6495 77.1867C24.4501 85.9846 31.3554 102.046 46.5984 123.632L45.1662 123.734Z" fill="#ABD3F2"/>
<path d="M26.8031 89.7187C23.8022 91.492 20.8355 89.6846 17.9028 84.2967C23.2566 82.8986 26.2234 84.7059 26.8031 89.7187Z" fill="#CAE6FE"/>
<path d="M28.8489 94.0154C26.9051 91.1168 28.5249 88.0648 33.7082 84.8594C35.4473 90.1109 33.8276 93.1629 28.8489 94.0154Z" fill="#CAE6FE"/>
<path d="M25.6777 80.9205C22.8814 78.8404 23.3929 75.4132 27.2122 70.6392C30.5881 75.0381 30.0766 78.4652 25.6777 80.9205Z" fill="#CAE6FE"/>
<path d="M32.6854 102.711C30.4688 105.405 27.0758 104.723 22.5063 100.665C27.0417 97.4937 30.4347 98.1757 32.6854 102.711Z" fill="#CAE6FE"/>
<path d="M35.3966 106.752C33.0096 104.263 34.1008 100.989 38.6703 96.9312C41.2619 101.808 40.1707 105.081 35.3966 106.752Z" fill="#CAE6FE"/>
<path d="M38.6189 112.686C36.4705 115.414 33.0605 114.783 28.3887 110.793C32.89 107.553 36.3 108.184 38.6189 112.686Z" fill="#CAE6FE"/>
<path d="M162.353 46.854C157.903 49.4627 160.767 55.5496 155.14 59.6929C150.281 63.3246 143.273 57.9026 143.069 66.5471C142.967 69.3092 141.432 71.253 139.386 72.634C134.322 76.0611 127.417 74.987 123.478 70.2811C123.444 70.2129 123.393 70.1447 123.325 70.0765C123.052 69.7355 122.779 69.4115 122.506 69.1046C121.534 67.9282 120.562 66.7517 119.642 65.6264C115.959 61.2274 121.279 54.7312 127.877 54.322C134.527 53.8617 134.629 49.8207 135.192 44.3987C135.754 38.9256 141.432 36.675 147.263 38.721C153.146 40.767 155.243 33.4524 163.222 33.6571C171.202 33.8105 168.593 43.1711 162.353 46.854Z" fill="#ABD3F2"/>
<path d="M157.903 42.1484C158.107 42.4041 158.056 42.8133 157.8 43.0179L123.325 70.0768C123.052 69.7358 122.779 69.4118 122.506 69.1049L157.033 42.0461C157.289 41.7903 157.698 41.8415 157.903 42.1484Z" fill="#90C3EF"/>
<path d="M142.813 30.1279C140.256 34.6804 145.78 38.4655 143.018 44.9105C140.614 50.4348 131.867 49.3095 136.01 56.8798C137.34 59.2839 136.982 61.7903 135.908 63.9898C133.197 69.5141 126.701 72.0205 120.972 69.9233C120.869 69.8892 120.767 69.8551 120.665 69.821C120.29 69.6846 119.915 69.5482 119.539 69.4118C118.107 68.9003 116.624 68.3377 115.294 67.8773C109.872 65.8824 111.253 57.596 116.726 53.9131C122.25 50.2302 120.307 46.6497 118.056 41.688C115.805 36.6752 119.591 31.8671 125.678 30.6906C131.764 29.5653 129.923 22.1484 136.931 18.3121C143.887 14.4758 146.342 23.8364 142.813 30.1279Z" fill="#CAE6FE"/>
<path d="M136.573 28.2864C136.931 28.4399 137.084 28.798 136.931 29.1049L120.665 69.821C120.29 69.6846 119.915 69.5482 119.54 69.4118L135.806 28.6445C135.908 28.3376 136.266 28.1841 136.573 28.2864Z" fill="#ABD3F2"/>
<path d="M32.8387 124.706C40.1533 127.826 39.0791 135.345 45.2684 135.908C51.4576 136.42 55.7031 140.818 53.964 146.036C52.2249 151.253 50.6392 154.936 56.5216 158.108C62.3528 161.228 64.5522 169.31 59.3349 171.816C58.0561 172.43 56.675 173.095 55.2939 173.76C54.9188 173.964 54.5437 174.152 54.1686 174.322C54.1004 174.356 54.0152 174.391 53.9129 174.425C48.3886 177.084 41.6878 175.243 38.4653 170.026C37.1865 167.928 36.5727 165.524 37.6469 162.967C41.0228 155.038 32.3783 157.033 29.4627 151.765C26.0356 145.678 31.1507 141.33 28.184 137.084C23.9896 131.151 25.5241 121.586 32.8387 124.706Z" fill="#ABD3F2"/>
<path d="M34.9874 134.885L55.2943 173.76C54.9192 173.964 54.5441 174.152 54.169 174.322L33.9133 135.447C33.7598 135.141 33.8621 134.783 34.169 134.629C34.4759 134.476 34.834 134.578 34.9874 134.885Z" fill="#90C3EF"/>
<path d="M14.7315 142.558C22.6599 142.813 24.3479 150.281 30.3326 148.593C36.3172 146.854 41.8415 149.463 42.0461 154.936C42.3019 160.409 42.1996 164.45 48.7469 165.269C55.3453 166.087 60.307 172.89 56.3172 177.084C55.3453 178.107 54.2712 179.233 53.2482 180.358C52.9753 180.665 52.6855 180.972 52.3786 181.279C52.3445 181.347 52.2933 181.415 52.2251 181.483C47.9796 185.933 41.0742 186.598 36.2149 182.864C34.22 181.381 32.7878 179.335 32.8901 176.573C33.197 167.98 25.8824 172.941 21.2277 169.054C15.8569 164.552 19.0794 158.67 14.7827 155.754C8.74688 151.765 6.75199 142.251 14.7315 142.558Z" fill="#CAE6FE"/>
<path d="M20.4093 151.304L53.2481 180.358C52.9753 180.665 52.6855 180.972 52.3786 181.279L19.5909 152.225C19.3351 151.969 19.284 151.611 19.4886 151.356C19.7443 151.1 20.1535 151.049 20.4093 151.304Z" fill="#ABD3F2"/>
<path d="M181.228 190.69C179.08 186.343 184.092 180.869 190.179 180.46C196.829 180.051 196.931 176.01 197.494 170.537C198.056 165.115 203.734 162.813 209.565 164.91C215.448 166.956 217.545 159.591 225.525 159.795C233.504 160 230.895 169.309 224.655 172.992C220.154 175.652 223.069 181.688 217.443 185.831C212.993 189.156 206.803 184.961 205.576 190.69H181.228Z" fill="#ABD3F2"/>
<path d="M190.639 190.691L219.335 168.184C219.591 167.98 220 168.031 220.204 168.287C220.409 168.542 220.358 168.952 220.102 169.156L192.634 190.691H190.639Z" fill="#90C3EF"/>
<path d="M174.425 190.69C173.402 187.366 175.243 182.609 179.028 180.051C184.552 176.368 182.609 172.839 180.358 167.826C178.107 162.813 181.893 158.005 187.98 156.88C194.066 155.703 192.225 148.286 199.182 144.45C206.189 140.614 208.644 149.974 205.115 156.317C202.558 160.869 208.082 164.655 205.32 171.049C202.916 176.624 194.169 175.447 198.261 183.018C199.591 185.473 199.284 187.928 198.159 190.179C198.09 190.349 198.005 190.52 197.903 190.69H174.425Z" fill="#CAE6FE"/>
<path d="M183.734 190.691L198.056 154.834C198.21 154.476 198.568 154.322 198.875 154.476C199.181 154.578 199.335 154.936 199.233 155.294L185.115 190.691H183.734Z" fill="#ABD3F2"/>
<path d="M135.294 54.9873H46.2916C44.4554 54.9873 42.9668 56.4759 42.9668 58.3121V188.235C42.9668 190.072 44.4554 191.56 46.2916 191.56H135.294C137.13 191.56 138.619 190.072 138.619 188.235V58.3121C138.619 56.4759 137.13 54.9873 135.294 54.9873Z" fill="#18184B"/>
<path d="M128.491 43.2734H53.1456C51.3094 43.2734 49.8208 44.762 49.8208 46.5982V180.358C49.8208 182.194 51.3094 183.683 53.1456 183.683H128.491C130.327 183.683 131.816 182.194 131.816 180.358V46.5982C131.816 44.762 130.327 43.2734 128.491 43.2734Z" fill="#304E7E"/>
<path d="M62.4041 41.2275H119.182C120.307 41.2275 121.176 42.1483 121.176 43.2736H60.4092C60.4092 42.1483 61.2787 41.2275 62.4041 41.2275Z" fill="#18184B"/>
<path d="M118.312 176.062H63.2735C62.9345 176.062 62.6597 176.336 62.6597 176.675V177.391C62.6597 177.73 62.9345 178.005 63.2735 178.005H118.312C118.651 178.005 118.926 177.73 118.926 177.391V176.675C118.926 176.336 118.651 176.062 118.312 176.062Z" fill="#18184B"/>
<path d="M123.427 57.6982V92.4808C123.427 94.0153 122.2 95.2429 120.665 95.2429H60.9208C60.6139 95.2429 60.3241 95.1918 60.0513 95.0895C58.9771 94.7314 58.1587 93.7084 58.1587 92.4808V57.6982C58.1587 56.1637 59.3863 54.936 60.9208 54.936H120.665C122.2 54.936 123.427 56.1637 123.427 57.6982Z" fill="#CAE6FE"/>
<path opacity="0.4" d="M117.801 54.936L77.4937 95.2429H60.9208C60.6139 95.2429 60.3241 95.1918 60.0513 95.0895L100.256 54.936H117.801Z" fill="white"/>
<path opacity="0.4" d="M83.4784 54.936L58.1587 80.2557V74.4757L77.6983 54.936H83.4784Z" fill="white"/>
<path opacity="0.4" d="M123.427 69.9746V75.7547L103.939 95.2431H98.1587L123.427 69.9746Z" fill="white"/>
<path d="M73.7595 104.808H60.5625C59.1815 104.808 58.0562 103.683 58.0562 102.302C58.0562 100.869 59.1815 99.7441 60.5625 99.7441H73.7595C75.1405 99.7441 76.2659 100.869 76.2659 102.302C76.2659 103.683 75.1405 104.808 73.7595 104.808Z" fill="#CAE6FE"/>
<path d="M97.3913 104.808H84.1944C82.8133 104.808 81.688 103.683 81.688 102.302C81.688 100.869 82.8133 99.7441 84.1944 99.7441H97.3913C98.7724 99.7441 99.8977 100.869 99.8977 102.302C99.8977 103.683 98.7724 104.808 97.3913 104.808Z" fill="#CAE6FE"/>
<path d="M121.023 104.808H107.877C106.445 104.808 105.32 103.683 105.32 102.302C105.32 100.869 106.445 99.7441 107.877 99.7441H121.023C122.404 99.7441 123.53 100.869 123.53 102.302C123.53 103.683 122.404 104.808 121.023 104.808Z" fill="#CAE6FE"/>
<path d="M74.5268 110.077H59.0281C58.1523 110.077 57.4424 110.787 57.4424 111.662V119.233C57.4424 120.108 58.1523 120.818 59.0281 120.818H74.5268C75.4025 120.818 76.1125 120.108 76.1125 119.233V111.662C76.1125 110.787 75.4025 110.077 74.5268 110.077Z" fill="#CAE6FE"/>
<path d="M98.5678 110.077H83.0691C82.1933 110.077 81.4834 110.787 81.4834 111.662V119.233C81.4834 120.108 82.1933 120.818 83.0691 120.818H98.5678C99.4435 120.818 100.153 120.108 100.153 119.233V111.662C100.153 110.787 99.4435 110.077 98.5678 110.077Z" fill="#CAE6FE"/>
<path d="M122.558 110.077H107.059C106.183 110.077 105.473 110.787 105.473 111.662V119.233C105.473 120.108 106.183 120.818 107.059 120.818H122.558C123.433 120.818 124.143 120.108 124.143 119.233V111.662C124.143 110.787 123.433 110.077 122.558 110.077Z" fill="#CAE6FE"/>
<path d="M74.5268 126.905H59.0281C58.1523 126.905 57.4424 127.615 57.4424 128.491V136.061C57.4424 136.937 58.1523 137.647 59.0281 137.647H74.5268C75.4025 137.647 76.1125 136.937 76.1125 136.061V128.491C76.1125 127.615 75.4025 126.905 74.5268 126.905Z" fill="#CAE6FE"/>
<path d="M98.5678 126.905H83.0691C82.1933 126.905 81.4834 127.615 81.4834 128.491V136.061C81.4834 136.937 82.1933 137.647 83.0691 137.647H98.5678C99.4435 137.647 100.153 136.937 100.153 136.061V128.491C100.153 127.615 99.4435 126.905 98.5678 126.905Z" fill="#CAE6FE"/>
<path d="M122.558 126.905H107.059C106.183 126.905 105.473 127.615 105.473 128.491V136.061C105.473 136.937 106.183 137.647 107.059 137.647H122.558C123.433 137.647 124.143 136.937 124.143 136.061V128.491C124.143 127.615 123.433 126.905 122.558 126.905Z" fill="#CAE6FE"/>
<path d="M74.5268 143.785H59.0281C58.1523 143.785 57.4424 144.495 57.4424 145.371V152.941C57.4424 153.817 58.1523 154.527 59.0281 154.527H74.5268C75.4025 154.527 76.1125 153.817 76.1125 152.941V145.371C76.1125 144.495 75.4025 143.785 74.5268 143.785Z" fill="#CAE6FE"/>
<path d="M98.5678 143.785H83.0691C82.1933 143.785 81.4834 144.495 81.4834 145.371V152.941C81.4834 153.817 82.1933 154.527 83.0691 154.527H98.5678C99.4435 154.527 100.153 153.817 100.153 152.941V145.371C100.153 144.495 99.4435 143.785 98.5678 143.785Z" fill="#CAE6FE"/>
<path d="M122.558 143.785H107.059C106.183 143.785 105.473 144.495 105.473 145.371V152.941C105.473 153.817 106.183 154.527 107.059 154.527H122.558C123.433 154.527 124.143 153.817 124.143 152.941V145.371C124.143 144.495 123.433 143.785 122.558 143.785Z" fill="#CAE6FE"/>
<path d="M74.5268 160.358H59.0281C58.1523 160.358 57.4424 161.068 57.4424 161.944V169.514C57.4424 170.39 58.1523 171.1 59.0281 171.1H74.5268C75.4025 171.1 76.1125 170.39 76.1125 169.514V161.944C76.1125 161.068 75.4025 160.358 74.5268 160.358Z" fill="#007CE6"/>
<path d="M98.5678 160.358H83.0691C82.1933 160.358 81.4834 161.068 81.4834 161.944V169.514C81.4834 170.39 82.1933 171.1 83.0691 171.1H98.5678C99.4435 171.1 100.153 170.39 100.153 169.514V161.944C100.153 161.068 99.4435 160.358 98.5678 160.358Z" fill="#61B3FF"/>
<path d="M122.558 160.358H107.059C106.183 160.358 105.473 161.068 105.473 161.944V169.514C105.473 170.39 106.183 171.1 107.059 171.1H122.558C123.433 171.1 124.143 170.39 124.143 169.514V161.944C124.143 161.068 123.433 160.358 122.558 160.358Z" fill="#009EF3"/>
<path d="M204.45 174.066L207.826 178.67C207.383 179.966 206.292 181.108 204.553 182.097L200.512 176.88L204.45 174.066Z" fill="#FDA893"/>
<path d="M208.695 178.056C209.616 178.568 210.997 180.102 212.839 182.66C204.961 189.889 200.767 193.384 200.256 193.146C199.437 192.839 198.158 191.918 199.488 190.332C200.818 188.747 202.404 181.432 202.967 180.921C203.342 180.546 204.075 180.494 205.166 180.767C206.649 180 207.366 177.289 208.695 178.056Z" fill="#007CE6"/>
<path d="M204.604 184.808C204.553 184.808 203.53 184.399 202.762 184.603C201.842 184.757 201.637 185.473 201.637 185.473C201.586 185.626 201.432 185.729 201.279 185.678C201.125 185.626 201.023 185.473 201.074 185.371C201.074 185.319 201.381 184.296 202.609 184.041C203.53 183.836 204.757 184.296 204.808 184.296C204.962 184.348 205.013 184.501 204.962 184.655C204.928 184.723 204.877 184.774 204.808 184.808C204.74 184.842 204.672 184.842 204.604 184.808Z" fill="white"/>
<path d="M204.757 183.683C204.706 183.683 203.683 183.274 202.916 183.427C201.995 183.632 201.79 184.297 201.79 184.348C201.739 184.501 201.586 184.604 201.432 184.553C201.279 184.501 201.177 184.348 201.228 184.195C201.228 184.143 201.535 183.172 202.762 182.916C203.734 182.711 204.911 183.12 204.962 183.172C205.115 183.223 205.166 183.376 205.115 183.53C205.081 183.598 205.03 183.649 204.962 183.683C204.893 183.717 204.825 183.717 204.757 183.683Z" fill="white"/>
<path d="M204.092 186.036C204.092 186.036 203.018 185.627 202.25 185.78C201.381 185.985 201.176 186.65 201.125 186.701C201.125 186.854 200.972 186.956 200.767 186.905C200.614 186.854 200.562 186.701 200.562 186.547C200.614 186.496 200.869 185.473 202.097 185.217C203.069 185.064 204.245 185.473 204.297 185.524C204.45 185.575 204.501 185.729 204.45 185.882C204.416 185.95 204.365 186.002 204.297 186.036C204.228 186.07 204.16 186.07 204.092 186.036Z" fill="white"/>
<path d="M183.836 112.736L186.292 142.711C188.986 146.053 191.287 149.565 193.197 153.248C194.8 156.351 199.062 163.461 205.985 174.578L200.767 178.67L174.629 147.979L169.514 112.123L183.836 112.736Z" fill="#16162F"/>
<path d="M177.084 181.688L176.675 187.519C175.448 188.269 173.828 188.491 171.816 188.184L172.174 181.432L177.084 181.688Z" fill="#FDA893"/>
<path d="M177.596 187.468C177.971 188.491 177.988 190.827 177.647 194.476C166.36 195.022 160.58 195.022 160.307 194.476C159.898 193.657 159.438 192.072 161.637 191.611C163.837 191.202 170.179 186.087 170.998 186.036C171.543 186.002 172.157 186.445 172.839 187.366C174.578 187.724 176.982 185.934 177.596 187.468Z" fill="#007CE6"/>
<path d="M169.463 190.281C169.463 190.23 168.9 189.258 168.235 188.849C167.468 188.44 166.803 188.849 166.803 188.849C166.649 188.952 166.496 188.9 166.394 188.747C166.291 188.645 166.343 188.44 166.445 188.338C166.496 188.338 167.417 187.724 168.542 188.338C169.36 188.798 169.974 189.923 169.974 189.975C170.025 190.128 169.974 190.333 169.872 190.384C169.77 190.418 169.684 190.418 169.616 190.384C169.548 190.384 169.497 190.35 169.463 190.281Z" fill="white"/>
<path d="M170.384 189.463C170.332 189.463 169.821 188.44 169.156 188.082C168.337 187.621 167.724 188.031 167.673 188.082C167.57 188.133 167.366 188.133 167.314 187.979C167.212 187.826 167.212 187.672 167.366 187.57C167.417 187.57 168.337 186.956 169.412 187.57C170.281 188.031 170.844 189.156 170.895 189.207C170.946 189.36 170.895 189.514 170.742 189.616C170.673 189.65 170.605 189.65 170.537 189.616C170.469 189.582 170.418 189.531 170.384 189.463Z" fill="white"/>
<path d="M168.235 190.895C168.235 190.844 167.724 189.872 167.059 189.463C166.241 189.054 165.627 189.463 165.576 189.463C165.473 189.565 165.269 189.514 165.166 189.361C165.115 189.258 165.115 189.054 165.269 188.952C165.32 188.952 166.189 188.338 167.315 188.952C168.184 189.412 168.747 190.537 168.798 190.588C168.849 190.742 168.798 190.946 168.645 190.998C168.576 191.032 168.508 191.032 168.44 190.998C168.372 190.998 168.304 190.963 168.235 190.895Z" fill="white"/>
<path d="M200.153 114.015C195.652 128.781 190.588 140.119 184.962 148.03C183.973 155.805 182.728 161.756 181.228 165.882C180.58 167.689 179.352 173.998 177.545 184.808L176.573 184.603L175.959 184.501L171.56 183.785L174.425 145.115L184.91 114.834L197.596 114.117H198.312L200.153 114.015Z" fill="#2A3554"/>
<path d="M198.312 114.118L183.632 147.98C183.632 148.031 181.33 157.289 180 163.785C178.823 169.565 177.084 179.642 176.573 184.604L175.959 184.501C176.522 179.489 178.21 169.565 179.437 163.683C180.767 157.136 183.018 147.877 183.069 147.826L197.596 114.118H198.312Z" fill="#16162F"/>
<path d="M167.059 76.1124L159.847 76.7262L166.65 63.3247C167.366 66.4279 167.502 70.6904 167.059 76.1124Z" fill="#009EF3"/>
<path d="M200.818 114.732C197.238 116.061 193.623 117.033 189.974 117.647C189.804 117.681 189.65 117.698 189.514 117.698C189.412 117.732 189.309 117.749 189.207 117.749C189.037 117.784 188.849 117.818 188.644 117.852C188.44 117.886 188.218 117.92 187.98 117.954C185.49 118.295 183.001 118.466 180.511 118.466C180 118.466 179.488 118.466 178.977 118.466H178.875C178.738 118.431 178.602 118.414 178.465 118.414C178.397 118.414 178.329 118.414 178.261 118.414C175.328 118.312 172.379 118.005 169.412 117.494C169.361 116.829 169.258 115.857 169.156 114.629C169.122 114.39 169.105 114.152 169.105 113.913C168.951 112.174 168.747 109.974 168.542 107.519C168.542 107.315 168.525 107.11 168.491 106.905C168.389 105.269 168.235 103.478 168.133 101.637C168.099 101.432 168.082 101.228 168.082 101.023C167.928 99.1305 167.775 97.1867 167.621 95.1919C167.553 93.9642 167.485 92.7537 167.417 91.5601C167.315 90.2984 167.229 89.0537 167.161 87.8261C167.127 87.5533 167.11 87.2805 167.11 87.0077C166.394 75.3453 165.933 64.6036 166.65 63.3248C167.11 62.4553 168.338 61.3811 169.77 60.2558C169.94 60.1194 170.128 59.983 170.332 59.8466C170.946 59.3862 176.061 57.1356 176.675 56.6752L182.251 55.8057C182.251 55.8057 187.775 57.1356 187.775 57.1867C188.014 57.289 188.252 57.3913 188.491 57.4936C190.588 58.4655 192.634 59.4885 193.862 60.4604C194.032 60.5968 194.186 60.7162 194.322 60.8185C194.425 60.9549 194.527 61.0742 194.629 61.1765C194.697 61.2447 194.766 61.3982 194.834 61.6369C195.754 64.041 196.931 73.6062 198.005 84.0921C198.039 84.3649 198.073 84.6207 198.107 84.8594C198.141 85.0981 198.159 85.3538 198.159 85.6266C198.193 85.8653 198.227 86.104 198.261 86.3428C198.295 86.6838 198.329 87.0248 198.363 87.3658C198.397 87.6045 198.414 87.8261 198.414 88.0307C198.448 88.1671 198.465 88.2865 198.465 88.3888C198.465 88.4911 198.465 88.5763 198.465 88.6445C198.534 89.122 198.585 89.6164 198.619 90.1279C198.687 90.5371 198.738 90.9463 198.772 91.3555C199.13 95.4988 199.54 99.4885 199.847 103.069C199.915 104.058 200 105.013 200.102 105.934C200.102 106.172 200.119 106.394 200.153 106.599C200.46 110.384 200.716 113.299 200.818 114.732Z" fill="#61B3FF"/>
<path d="M199.847 103.069C196.743 107.536 193.248 111.373 189.361 114.578L188.031 104.962C189.872 101.125 194.271 92.9412 198.107 84.8594C198.142 85.0981 198.159 85.3538 198.159 85.6266C198.193 85.8653 198.227 86.1041 198.261 86.3428C198.295 86.6838 198.329 87.0248 198.363 87.3658C198.397 87.6045 198.414 87.8261 198.414 88.0307C198.448 88.1671 198.466 88.2865 198.466 88.3888C198.466 88.4911 198.466 88.5763 198.466 88.6445C198.534 89.122 198.585 89.6164 198.619 90.1279C198.687 90.5371 198.738 90.9463 198.772 91.3555C199.131 95.4988 199.54 99.4885 199.847 103.069Z" fill="#009EF3"/>
<path d="M173.248 80.5629C170.997 80.938 169.736 78.5339 169.463 73.3506L175.857 73.146C176.402 77.7496 175.533 80.2219 173.248 80.5629Z" fill="#009EF3"/>
<path d="M193.351 106.189C187.315 106.701 181.944 104.399 178.466 102.404C174.732 100.205 172.379 97.9028 172.379 97.8517C172.225 97.7494 172.225 97.5448 172.379 97.4424C172.481 97.3401 172.635 97.3401 172.788 97.4424C172.788 97.4424 175.09 99.7442 178.773 101.893C182.149 103.836 187.417 106.087 193.299 105.627C193.453 105.627 193.606 105.729 193.606 105.882C193.606 106.036 193.504 106.189 193.351 106.189Z" fill="#009EF3"/>
<path d="M187.212 108.798C181.995 109.258 176.522 106.701 176.266 106.599C176.112 106.547 176.061 106.343 176.164 106.241C176.215 106.087 176.368 105.985 176.522 106.087C176.573 106.087 183.018 109.054 188.44 108.031C188.593 108.031 188.747 108.133 188.747 108.287C188.798 108.44 188.696 108.593 188.542 108.593C188.099 108.696 187.655 108.764 187.212 108.798Z" fill="#009EF3"/>
<path d="M179.079 67.6728L179.13 65.9849L180.614 66.0872L180.767 67.3148L184.552 100.358L181.381 108.287L177.903 100.051L179.079 67.6728Z" fill="white"/>
<path d="M179.13 65.9849L180.614 66.0872L180.767 67.3148L179.846 68.5424L179.079 67.6728L179.13 65.9849Z" fill="#EDEDED"/>
<path d="M182.404 64.1434L179.693 67.2636L177.494 63.8877L179.13 60.5117L182.404 64.1434Z" fill="white"/>
<path d="M183.018 55.3965L183.939 55.9591C184.177 56.0955 184.416 56.249 184.655 56.4195C185.32 56.931 185.575 57.2891 185.524 58.3121C185.49 58.4485 185.456 58.5849 185.422 58.7213L184.501 66.5474L179.13 60.5116C181.381 59.4886 182.677 57.7835 183.018 55.3965Z" fill="#009EF3"/>
<path d="M179.13 60.5116L176.88 65.1664L175.499 61.0231C174.919 59.3863 175.311 57.8006 176.675 56.2661C176.982 58.4486 177.8 59.8637 179.13 60.5116Z" fill="#009EF3"/>
<path d="M186.803 41.023C187.212 45.8823 184.501 49.4629 179.642 49.8721C174.834 50.2813 171.151 47.0077 170.691 42.1483C170.281 37.3401 172.839 33.4015 177.698 32.9923C183.478 32.4808 186.343 36.1637 186.803 41.023Z" fill="#1D3062"/>
<path d="M172.174 37.5957C171.56 37.1354 169.821 32.941 171.764 31.3553C173.06 30.2641 175.976 30.3493 180.511 31.6111C181.364 30.9631 182.097 30.6733 182.711 30.7415C183.359 30.8438 183.41 31.4065 182.864 32.4295C183.58 31.8839 184.382 31.8157 185.268 32.2249C186.155 32.6 186.206 33.6059 185.422 35.2428C186.206 35.7884 186.735 37.1524 187.007 39.3348C187.28 41.5173 187.11 43.0518 186.496 43.9384L172.174 37.5957Z" fill="#1D3062"/>
<path d="M185.882 43.2226C186.667 41.9268 187.434 41.7563 188.184 42.7111C189.31 44.0922 188.287 48.5935 185.729 47.7239L185.882 43.2226Z" fill="#FB876B"/>
<path d="M186.087 46.3426C185.985 46.2915 185.934 46.1892 185.934 46.0869C186.24 44.5012 187.724 43.7339 187.826 43.7339C187.928 43.6828 188.031 43.7339 188.082 43.8362C188.133 43.9385 188.082 44.0408 187.98 44.092C187.98 44.092 186.599 44.757 186.343 46.138C186.343 46.2403 186.24 46.3426 186.189 46.3426C186.155 46.3426 186.121 46.3426 186.087 46.3426Z" fill="#D45C48"/>
<path d="M187.315 45.4221C187.315 45.4221 187.11 45.1663 186.701 45.0129C186.599 45.0129 186.547 44.8594 186.547 44.7571C186.599 44.6548 186.752 44.6037 186.854 44.6548C187.366 44.8083 187.673 45.1663 187.673 45.1663C187.724 45.2686 187.724 45.4221 187.622 45.4732C187.587 45.5073 187.553 45.5244 187.519 45.5244C187.451 45.5244 187.383 45.4903 187.315 45.4221Z" fill="#D45C48"/>
<path d="M172.89 48.8493C170.537 50.1281 168.747 45.8825 169.616 44.2969C170.196 43.2398 170.998 43.2739 172.021 44.3992L172.89 48.8493Z" fill="#FB876B"/>
<path d="M172.276 47.5193C172.174 47.5705 172.072 47.5193 172.072 47.417C171.56 46.0871 170.077 45.6779 170.077 45.6779C169.974 45.6268 169.923 45.5244 169.923 45.4221C169.974 45.2687 170.077 45.2175 170.179 45.2687C170.281 45.2687 171.867 45.7291 172.43 47.2636C172.481 47.3659 172.43 47.4682 172.327 47.5193C172.293 47.5193 172.276 47.5193 172.276 47.5193Z" fill="#D45C48"/>
<path d="M170.793 46.9563C170.759 46.9904 170.725 46.9904 170.691 46.9563C170.588 46.9051 170.537 46.8028 170.588 46.7005C170.588 46.6494 170.793 46.2402 171.305 45.9844C171.407 45.9333 171.509 45.9844 171.611 46.0867C171.663 46.1379 171.611 46.2913 171.509 46.3425C171.1 46.5471 170.946 46.854 170.946 46.854C170.912 46.9222 170.861 46.9563 170.793 46.9563Z" fill="#D45C48"/>
<path d="M182.762 52.0718L183.12 56.5731C182.097 59.0624 180.989 60.3582 179.796 60.4605C177.579 60.6651 176.556 59.4034 176.727 56.6754L176.317 52.2764L182.762 52.0718Z" fill="#FBA691"/>
<path d="M182.762 52.0718L182.967 54.8339C179.949 55.6012 177.801 55.4477 176.522 54.2201L176.317 52.2764L182.762 52.0718Z" fill="#FB876B"/>
<path d="M173.299 36.7773C175.857 35.5497 179.744 34.4244 183.734 36.2146C185.217 36.8796 186.24 38.3118 186.394 39.8975C186.547 41.4832 186.701 43.6827 186.496 45.8821C186.189 49.1558 185.115 52.4295 182.404 53.7082C176.164 56.5727 173.401 51.253 172.174 48.1328C172.037 47.7577 171.918 47.3655 171.816 46.9563C171.355 45.2683 170.997 43.1712 170.793 41.4832C170.486 39.5394 171.509 37.6469 173.299 36.7773Z" fill="#FBA691"/>
<path d="M181.841 44.6036C182.152 44.6036 182.404 44.2372 182.404 43.7852C182.404 43.3332 182.152 42.9668 181.841 42.9668C181.531 42.9668 181.279 43.3332 181.279 43.7852C181.279 44.2372 181.531 44.6036 181.841 44.6036Z" fill="#1D3062"/>
<path d="M175.652 45.1661C175.963 45.1661 176.215 44.7997 176.215 44.3477C176.215 43.8957 175.963 43.5293 175.652 43.5293C175.341 43.5293 175.089 43.8957 175.089 44.3477C175.089 44.7997 175.341 45.1661 175.652 45.1661Z" fill="#1D3062"/>
<path d="M173.964 41.5858C175.021 41.0402 176.01 40.9208 176.931 41.2277L176.88 41.9439C175.584 41.9439 174.629 42.0973 174.015 42.4042C173.913 42.1485 173.862 41.8927 173.964 41.5858Z" fill="#1D3062"/>
<path d="M183.887 41.5856C183.205 41.381 182.233 41.381 180.972 41.5856L180.767 40.8695C181.62 40.4262 182.626 40.375 183.785 40.716C183.938 41.023 183.938 41.2787 183.887 41.5856Z" fill="#1D3062"/>
<path d="M178.619 47.6216C178.517 47.5193 178.363 47.3659 178.312 47.1101C178.261 46.3428 178.568 43.9387 178.568 43.8364C178.568 43.7341 178.67 43.6318 178.823 43.6318C178.926 43.683 178.977 43.7853 178.977 43.8876C178.977 43.8876 178.721 46.3428 178.772 47.0589C178.772 47.2124 178.823 47.2124 178.823 47.2636C179.028 47.3659 179.488 47.2636 179.693 47.2124C179.795 47.1613 179.898 47.2124 179.949 47.3147C180 47.417 179.949 47.5705 179.846 47.6216C179.795 47.6216 179.437 47.7239 179.079 47.7239C178.926 47.7239 178.772 47.6728 178.619 47.6216Z" fill="#FB876B"/>
<path d="M181.995 48.7466C181.892 49.6161 181.483 51.2018 179.591 51.3553C177.698 51.5599 177.033 50.1277 176.777 49.2069L181.995 48.7466Z" fill="white"/>
<path d="M179.847 52.6345C179.335 52.6856 178.824 52.481 178.824 52.4299C178.721 52.3787 178.67 52.2764 178.721 52.1741C178.772 52.0718 178.926 52.0207 179.028 52.0718C179.028 52.0718 179.386 52.2764 179.847 52.2253C180.205 52.1741 180.563 51.9184 180.563 51.9184C180.665 51.8672 180.767 51.8672 180.87 51.9695C180.921 52.0718 180.921 52.2253 180.818 52.2764C180.767 52.2764 180.358 52.5833 179.847 52.6345Z" fill="#FB876B"/>
<path d="M170.793 41.4832C170.486 39.5394 171.509 37.6469 173.299 36.7773C175.857 35.5497 179.744 34.4244 183.734 36.2146C185.217 36.8796 186.24 38.3118 186.394 39.8975C186.496 40.8182 186.547 41.9435 186.598 43.1712L185.78 43.2223C185.831 42.7619 185.78 42.3527 185.678 42.0458C185.422 41.074 184.143 40.1021 184.297 39.1302C184.501 38.1584 184.808 36.8796 184.041 36.7261C183.274 36.6238 180.205 36.8796 178.261 37.1353C176.368 37.3399 173.606 37.1865 172.532 38.1584C171.509 39.1302 172.941 39.744 172.481 41.5343C172.225 42.3016 172.02 43.4781 172.174 44.4499L171.253 44.5011C171.049 43.4781 170.895 42.4039 170.793 41.4832Z" fill="#1D3062"/>
<path fill-rule="evenodd" clip-rule="evenodd" d="M175.857 47.3146C174.527 47.4169 173.35 46.445 173.248 45.1151C173.095 43.7852 174.118 42.6087 175.448 42.5064C176.778 42.4041 177.954 43.376 178.056 44.7059C178.159 46.0358 177.187 47.2123 175.857 47.3146ZM175.448 42.8645C174.322 42.9668 173.504 43.9386 173.606 45.064C173.709 46.1893 174.68 47.0588 175.806 46.9565C176.931 46.8542 177.749 45.8312 177.698 44.7059C177.596 43.6317 176.573 42.7622 175.448 42.8645Z" fill="white"/>
<path fill-rule="evenodd" clip-rule="evenodd" d="M182.455 46.7522C181.125 46.8545 179.949 45.8826 179.795 44.5527C179.693 43.2227 180.665 42.0463 181.995 41.944C183.325 41.7905 184.501 42.8135 184.655 44.1435C184.757 45.4734 183.785 46.6499 182.455 46.7522ZM182.046 42.302C180.921 42.4043 180.102 43.3762 180.205 44.5015C180.307 45.6268 181.279 46.4453 182.404 46.343C183.53 46.2918 184.348 45.2688 184.246 44.1435C184.143 43.0181 183.171 42.1997 182.046 42.302Z" fill="white"/>
<path d="M173.555 44.2967C173.521 44.2967 173.487 44.2797 173.453 44.2456C173.401 44.2456 172.225 43.2737 170.844 43.7341C170.742 43.7852 170.639 43.7341 170.588 43.6318C170.537 43.5295 170.639 43.4272 170.69 43.376C172.327 42.8645 173.606 43.9387 173.657 43.9898C173.76 44.041 173.76 44.1433 173.708 44.2456C173.674 44.2797 173.623 44.2967 173.555 44.2967Z" fill="white"/>
<path d="M184.194 43.376C184.126 43.376 184.075 43.359 184.041 43.3249C183.99 43.2226 183.99 43.1203 184.092 43.0691C184.143 42.9668 185.729 41.7392 187.212 41.8415C187.315 41.8415 187.417 41.9438 187.366 42.0461C187.366 42.1484 187.315 42.2507 187.212 42.2507C185.882 42.1484 184.297 43.3249 184.297 43.3249C184.263 43.359 184.228 43.376 184.194 43.376Z" fill="white"/>
<path d="M179.898 43.9899C179.898 43.9899 179.386 43.4273 178.824 43.4784C178.21 43.5296 177.903 44.1434 177.852 44.1434L177.545 43.9899C177.545 43.9388 178.005 43.1715 178.773 43.1204C179.54 43.0181 180.154 43.7342 180.205 43.7342L179.898 43.9899Z" fill="white"/>
<path d="M194.578 75.0896L191.867 112.225C191.765 113.862 190.281 115.141 188.644 115.038L125.575 110.384C124.859 110.333 124.143 110.026 123.683 109.514C123.069 108.951 122.711 108.082 122.762 107.161L125.524 70.0256C125.627 68.3888 127.059 67.11 128.747 67.2635L191.765 71.8671C193.453 71.9694 194.731 73.4016 194.578 75.0896Z" fill="#007CE6"/>
<path d="M194.271 79.6928L193.657 87.9281L124.552 82.8642L125.166 74.6289L194.271 79.6928Z" fill="#1D3062"/>
<path d="M187.059 109.31L170.844 108.082L171.253 102.404L187.468 103.581L187.059 109.31Z" fill="#61B3FF"/>
<path d="M132.788 93.2993L128.235 92.9413C128.031 92.9413 127.877 92.7878 127.877 92.5832L128.082 90.1791C128.082 89.9745 128.236 89.8211 128.44 89.8722L132.993 90.1791C133.197 90.1791 133.351 90.3837 133.351 90.5883L133.146 92.9413C133.146 93.1459 132.993 93.2993 132.788 93.2993Z" fill="#61B3FF"/>
<path d="M142.097 93.9642L137.493 93.6573C137.34 93.6062 137.187 93.4527 137.187 93.2481L137.34 90.844C137.391 90.6906 137.545 90.5371 137.749 90.5371L142.302 90.844C142.506 90.8952 142.66 91.0486 142.66 91.2532L142.455 93.6573C142.455 93.8108 142.25 93.9642 142.097 93.9642Z" fill="#61B3FF"/>
<path d="M151.356 94.6293L146.803 94.3223C146.599 94.3223 146.445 94.1177 146.496 93.9131L146.65 91.5602C146.65 91.3556 146.854 91.2021 147.059 91.2021L151.611 91.5602C151.816 91.5602 151.969 91.7137 151.918 91.9183L151.765 94.3223C151.765 94.5269 151.56 94.6804 151.356 94.6293Z" fill="#61B3FF"/>
<path d="M160.665 95.3454L156.112 94.9874C155.908 94.9874 155.754 94.8339 155.754 94.6293L155.959 92.2252C155.959 92.0206 156.164 91.8672 156.368 91.8672L160.921 92.2252C161.074 92.2252 161.228 92.4298 161.228 92.6345L161.074 94.9874C161.023 95.192 160.869 95.3454 160.665 95.3454Z" fill="#61B3FF"/>
<path d="M169.974 96.0101L165.422 95.6521C165.217 95.6521 165.064 95.4986 165.064 95.294L165.269 92.8899C165.269 92.6853 165.422 92.583 165.627 92.583L170.179 92.8899C170.384 92.9411 170.537 93.0945 170.537 93.2991L170.333 95.6521C170.333 95.8567 170.179 96.0101 169.974 96.0101Z" fill="#61B3FF"/>
<path d="M179.284 96.6752L174.732 96.3683C174.527 96.3683 174.374 96.1637 174.374 95.959L174.527 93.6061C174.578 93.4015 174.732 93.248 174.936 93.248L179.489 93.6061C179.693 93.6061 179.847 93.7596 179.847 93.9642L179.642 96.3683C179.642 96.5729 179.489 96.7263 179.284 96.6752Z" fill="#61B3FF"/>
<path d="M188.542 97.3913L183.99 97.0333C183.785 97.0333 183.683 96.8287 183.683 96.6241L183.836 94.2711C183.887 94.0665 184.041 93.9131 184.245 93.9131L188.798 94.2711C189.002 94.2711 189.156 94.4757 189.105 94.6803L188.951 97.0333C188.951 97.2379 188.747 97.3913 188.542 97.3913Z" fill="#61B3FF"/>
<path d="M194.578 75.3452L194.476 76.9309L125.371 71.8669L125.473 70.2812L194.578 75.3452Z" fill="#61B3FF"/>
<path d="M135.038 106.292L128.082 105.78C127.468 105.729 126.956 105.166 127.007 104.553L127.519 97.5961C127.57 96.9312 128.133 96.4708 128.798 96.5219L135.703 96.9823C136.368 97.0335 136.88 97.5961 136.828 98.2611L136.317 105.218C136.266 105.883 135.703 106.343 135.038 106.292Z" fill="#61B3FF"/>
<path d="M167.877 106.343L139.437 104.246C138.977 104.194 138.619 103.785 138.67 103.325L138.721 102.455C138.772 101.995 139.181 101.637 139.642 101.688L168.082 103.734C168.542 103.785 168.9 104.194 168.849 104.655L168.798 105.524C168.747 105.985 168.337 106.343 167.877 106.343Z" fill="#61B3FF"/>
<path opacity="0.2" d="M169.207 70.1789L123.683 109.514C123.069 108.951 122.711 108.082 122.762 107.161L123.734 94.1175L152.839 69.0024L169.207 70.1789Z" fill="white"/>
<path opacity="0.2" d="M191.663 71.8161L145.32 111.867L137.34 111.253L183.632 71.2534L191.663 71.8161Z" fill="white"/>
<path d="M149.002 110.639L148.184 111.56C146.615 111.458 145.746 111.083 145.575 110.435C145.524 110.077 145.575 109.668 145.882 109.514L149.002 110.639Z" fill="#FB876B"/>
<path d="M149.821 115.908C148.645 116.062 147.519 115.499 147.008 114.476C146.701 113.913 146.599 113.197 146.854 112.327C147.673 109.668 149.105 107.826 150.128 108.389C150.537 108.593 150.435 110.128 149.923 111.253C150.435 110.469 150.81 109.599 151.049 108.645C151.407 107.264 153.146 107.929 152.686 109.719C152.379 110.878 152.174 111.543 152.072 111.714C152.617 110.827 152.924 110.094 152.993 109.514C153.095 108.645 154.476 108.849 154.169 110.588C154.067 111.1 153.964 111.663 153.862 112.276C154.135 111.526 154.339 110.963 154.476 110.588C154.681 109.975 155.499 109.616 155.601 110.895C155.704 111.918 155.755 114.629 154.425 115.09C153.504 115.397 151.202 115.755 149.821 115.908Z" fill="#FBA691"/>
<path d="M173.299 114.169C173.248 113.248 175.243 113.299 176.215 112.736C177.187 112.225 179.437 110.384 179.028 109.923C178.568 109.463 177.954 109.156 177.494 108.849C177.084 108.542 176.726 107.724 177.187 107.621C177.698 107.519 179.233 108.184 179.847 108.696C180.051 108.849 180.512 109.412 180.767 109.719C181.177 110.179 181.688 110.486 182.251 110.537C182.813 110.025 183.376 109.412 183.734 109.105C184.553 109.156 187.315 111.1 186.701 112.685C186.223 113.333 185.627 114.032 184.911 114.782C181.074 118.261 178.772 118.107 177.852 118.056C177.238 118.056 176.88 117.732 176.778 117.084C176.198 116.948 175.908 116.607 175.908 116.061C175.021 115.823 174.646 115.413 174.783 114.834C173.828 115.004 173.333 114.782 173.299 114.169Z" fill="#FBA691"/>
<path d="M201.637 96.5727C199.42 103.359 194.629 108.764 187.264 112.788L183.427 109.412C188.576 105.354 192.345 100.29 194.732 94.2197C194.766 94.1515 194.783 94.0833 194.783 94.0151V93.7082L190.844 68.2351C191.083 66.2914 192.362 63.9384 194.68 61.1763C200.375 70.247 202.694 82.0458 201.637 96.5727Z" fill="#61B3FF"/>
<path d="M197.903 95.243C197.852 95.3453 197.801 95.3965 197.698 95.3965C197.664 95.3965 197.613 95.3794 197.545 95.3453C196.777 94.9361 195.55 94.4758 194.731 94.22C194.766 94.1518 194.783 94.0836 194.783 94.0154V93.7085C195.601 93.9643 196.982 94.4246 197.801 94.885C197.954 94.9873 198.005 95.1407 197.903 95.243Z" fill="#009EF3"/>
</g>
<defs>
<clipPath id="clip0_245_21096">
<rect width="236.829" height="200" fill="white"/>
</clipPath>
</defs>
</svg>
