<svg width="37" height="70" viewBox="0 0 37 70" fill="none" xmlns="http://www.w3.org/2000/svg">
<g clip-path="url(#clip0_195_20242)">
<path d="M8.63157 12.6316C9.57894 15.4737 11.6842 20.5263 12.6316 20.2106C13.0526 20.1053 13.5789 18.1053 13.2632 17.2632C12.5263 15.1579 12.5263 13.0527 12 11.2632C11.0526 8.42109 10.2105 8.1053 9.26315 8.42109C8.21052 8.63161 7.78947 9.78951 8.63157 12.6316Z" fill="#228FD8"/>
<path d="M12.2103 20.2106C13.7893 22.4211 17.3682 26 18.1051 25.4737C18.4209 25.2632 19.263 24.6316 18.9472 23.8948C18.3156 22.6316 15.7893 20.4211 14.2103 18C13.8945 17.4737 13.263 17.3685 12.5261 17.8948C11.5788 18.4211 11.0524 18.6316 12.2103 20.2106Z" fill="#228FD8"/>
<path d="M6.73669 47.7895C6.4209 47.8948 6.21037 48.3158 6.10511 48.5263C5.89458 48.8421 5.78932 49.3685 6.21037 49.7895C6.63142 50.2106 7.47353 50.2106 7.78932 50.6316C8.10511 50.9474 9.36827 51.6842 10.3156 52.2106C10.7367 52.4211 11.7893 52.5264 12.1051 52.1053C12.3156 51.7895 12.2104 50.9474 11.9998 50.8421C11.3683 50.2106 11.1577 49.8948 10.7367 49.4737C10.3156 49.0527 10.4209 49.1579 10.1051 48.7369C9.99985 48.5263 9.47353 47.6842 9.15774 47.8948L6.73669 47.7895Z" fill="#1E160D"/>
<path d="M4.94725 28.6316C5.26304 30.1053 5.05252 31.579 5.26304 33.0527C5.47357 34.8421 5.15778 36.8421 5.89462 38.5263C6.10515 39.0527 6.94725 39.7895 7.89462 39.7895C8.42094 39.7895 9.6841 39.579 9.57883 39.1579C9.47357 38.7369 9.78936 38 9.78936 37.6842C9.78936 37.0527 9.78936 32.9474 9.78936 31.579C9.78936 30.5263 9.78936 29.7895 9.78936 28.6316C9.78936 28.6316 9.99989 26.4211 7.47357 26.7369C5.05252 27.1579 4.84199 28.4211 4.94725 28.6316Z" fill="#0E598C"/>
<path d="M5.57897 38.4211C5.68423 37.4737 5.57897 36.7369 5.57897 35.6842C5.57897 34.9474 9.68423 35.7895 9.7895 37.579C9.7895 37.579 9.05266 44.9474 9.57897 47.2632L9.68423 47.6842C9.68423 47.6842 9.7895 48 9.57897 48.3158C9.57897 48.3158 9.15792 48.6316 8.6316 48.7369C7.89476 48.9474 6.94739 48.8421 6.42108 48.3158C5.15792 46.9474 5.15792 41.6842 5.57897 38.4211Z" fill="#0E598C"/>
<path d="M1.05261 50.7369C0.736816 50.8421 0.52629 51.2632 0.421027 51.4737C0.210501 51.7895 0.105237 52.3158 0.52629 52.7369C0.736816 52.9474 1.78945 53.1579 2.10524 53.579C2.42103 53.8948 3.78945 54.8421 4.2105 55.0527C4.52629 55.2632 4.94734 55.4737 5.26313 55.4737C5.68419 55.4737 6.42103 55.3684 6.73682 55.0527C6.94734 54.7369 6.94734 54.4211 6.73682 54.2106C6.10524 53.579 5.78945 53.0527 5.3684 52.5263C4.94734 52.1053 4.84208 52 4.52629 51.579C4.42103 51.3685 3.89471 50.5263 3.57892 50.7369H1.05261Z" fill="#1E160D"/>
<path d="M1.68443 30.2106C1.89495 31.6842 1.4739 33.2632 1.4739 34.7369C1.57916 36.5263 1.05285 38.5263 1.68443 40.2106C1.89495 40.7369 2.63179 41.579 3.57916 41.579C4.10548 41.579 5.36864 41.4737 5.36864 41.1579C5.36864 40.7369 5.68443 40 5.68443 39.6842C5.68443 39.0527 6.10548 34.9474 6.21074 33.579C6.31601 32.5263 6.42127 31.579 6.84232 30.5263C6.84232 30.5263 7.15811 28.2106 4.52653 28.2106C2.31601 28.2106 1.57916 30 1.68443 30.2106Z" fill="#13659C"/>
<path d="M1.05259 41.2632C1.26312 40.3158 1.26312 39.579 1.36838 38.5264C1.47364 37.7895 5.57891 38.1053 5.47364 40C5.47364 40 3.99996 48 4.31575 50.4211V50.8421C4.31575 50.8421 4.42101 51.1579 4.10522 51.4737C4.10522 51.4737 3.68417 51.7895 3.15785 51.8948C2.42101 52 1.47364 51.8948 1.05259 51.2632C-0.105306 49.7895 0.315747 44.4211 1.05259 41.2632Z" fill="#13659C"/>
<path d="M4.84211 9.26319C4.63158 9.26319 2.10526 10.6316 0.947368 11.8948C0.105263 12.8421 0 15.0527 0 15.3685C0 16.3158 1.36842 22 1.57895 23.2632C1.78947 24.5264 1.57895 25.8948 1.57895 26.8421C1.57895 27.6842 1.36842 30 1.36842 30.4211C1.57895 31.6842 4.94737 31.4737 5.57895 31.3685C7.68421 31.2632 10.2105 29.6842 10 28.6316C9.47368 25.7895 9.68421 17.2632 10 16.3158C10.3158 15.2632 12.3158 10 10.7368 8.52635C10.2105 8.21056 9.47368 7.89477 8.94737 8.00003C7.1579 8.00003 5.05263 9.26319 4.84211 9.26319Z" fill="#1976B3"/>
<path d="M6.10525 8.42108C6.10525 8.42108 7.99999 8.42108 9.15788 9.68424C10.3158 10.9474 9.99999 10.7369 9.99999 10.7369L9.15788 10.5263C9.15788 10.5263 9.26314 13.3684 8.84209 13.8948L5.26314 12.2106L5.05262 13.6842C5.05262 13.6842 2.63157 10.9474 2.94735 10.3158C3.6842 8.52634 5.6842 7.89476 6.10525 8.42108Z" fill="#228FD8"/>
<path d="M7.05249 8.84213C7.05249 8.84213 8.42091 9.26319 8.63144 11.1579C8.84197 13.0527 8.52618 14.3158 8.52618 14.3158C8.52618 14.2106 6.63144 12.5263 5.05249 11.3684C4.84197 11.2632 3.15776 10 5.05249 9.05266L7.05249 8.84213Z" fill="#E6C283"/>
<path d="M5.05273 11.3685C5.78958 11.3685 6.52642 11.3685 7.158 11.1579C7.78958 10.9474 8.10537 10.4211 8.31589 10C8.31589 10 8.31589 10.1053 8.42116 10.1053V10.2106V10.3158V10.4211V10.5263V10.6316C8.42116 10.6316 8.42116 10.6316 8.42116 10.7369V10.8421C8.42116 10.9474 8.42116 10.9474 8.42116 11.0527C8.63168 12.9474 8.31589 14.2106 8.31589 14.2106C8.42116 14.1053 6.63168 12.5263 5.05273 11.3685Z" fill="white"/>
<path d="M4.52644 6.21056C4.52644 7.05266 4.63171 7.47371 4.52644 8.42108C4.52644 8.73687 4.31592 9.15792 4.31592 9.57898C4.31592 10.3158 5.15802 10.6316 5.57908 10.8421C6.00013 11.0527 7.57908 10.5263 7.47381 10C7.36855 9.68424 7.47381 9.05266 7.36855 8.63161C7.15802 8.10529 6.73697 7.89477 6.73697 7.36845L4.52644 6.21056Z" fill="#E6C283"/>
<path d="M8.84227 2.73687C8.84227 3.15793 8.84227 3.57898 8.94754 4.10529C9.0528 4.42108 8.94754 5.26319 9.0528 6.10529C9.15806 6.63161 8.94754 7.15793 8.84227 7.68424C8.63175 8.10529 8.52648 8.52635 8.2107 8.73687C7.26333 9.36845 6.31596 8.73687 5.36859 8.42108C4.42122 8.10529 4.63175 6.84214 4.31596 6.00003C3.78964 4.73687 4.10543 2.73687 5.57912 2.21056C6.31596 1.89477 7.36859 1.7895 8.10543 2.00003C8.31596 2.10529 8.84227 2.31582 8.84227 2.73687Z" fill="#FED8A7"/>
<path d="M3.99989 1.15793C4.842 0.421085 6.63147 0.631611 7.99989 1.26319C8.73673 1.57898 8.842 2.52635 8.842 2.52635C9.05252 2.84214 8.21042 3.36845 7.99989 3.47372C7.6841 3.68424 7.26305 3.78951 6.842 3.78951C6.52621 3.78951 6.31568 3.78951 5.99989 3.78951C5.78937 3.78951 5.57884 3.68424 5.36831 3.68424C4.94726 3.68424 4.94726 4.31582 4.842 4.63161C4.842 4.9474 4.73673 5.15793 4.63147 5.47372C4.63147 5.57898 4.842 7.15793 4.63147 7.15793C4.42094 7.26319 3.15779 5.78951 3.15779 5.05266C3.05252 4.52635 2.52621 2.52635 3.99989 1.15793Z" fill="url(#paint0_linear_195_20242)"/>
<path d="M4.00018 6.21056C4.21071 6.73688 4.5265 7.05267 4.73702 6.9474C4.94755 6.84214 5.15807 6.42109 4.94755 5.89477C4.73702 5.47372 4.21071 5.15793 4.00018 5.26319C3.78965 5.26319 3.78965 5.78951 4.00018 6.21056Z" fill="#FED8A7"/>
<path d="M15.6844 13.6842L23.6844 18.3158L15.6844 23.0527L7.5791 18.3158L15.6844 13.6842Z" fill="#FFD18D"/>
<path d="M15.6844 23.0527V32.3158L7.5791 27.6842V18.3158L15.6844 23.0527Z" fill="#CF9975"/>
<path d="M15.6846 23.0527V32.3158L23.6846 27.6842V18.3158L15.6846 23.0527Z" fill="#F5BC6F"/>
<path d="M0.842101 16.2106C1.78947 19.0527 3.89473 24.1053 4.8421 23.7895C5.26315 23.6842 5.78947 21.6842 5.47368 20.8421C4.73684 18.7369 4.73684 16.6316 4.21052 14.8421C3.26315 12 2.42105 11.6842 1.47368 12C0.421048 12.3158 -0.105267 13.3684 0.842101 16.2106Z" fill="#228FD8"/>
<path d="M4.31567 23.7895C5.89462 26 9.47356 29.579 10.2104 29.0527C10.5262 28.8421 11.3683 28.2106 11.0525 27.4737C10.4209 26.2106 7.89462 24 6.31567 21.579C5.99988 21.0527 4.63146 20.3158 3.89462 20.8421C3.05251 21.4737 3.26304 22.2106 4.31567 23.7895Z" fill="#228FD8"/>
<path d="M10.1054 27.4737C10.5264 27.3684 11.2633 27.7895 11.4738 27.7895C11.7896 28 12.3159 28 12.4212 28.3158C12.5264 28.5263 12.5264 28.5263 12.7369 28.7369C12.9475 28.8421 12.7369 29.0527 12.5264 29.0527C12.3159 29.0527 12.2106 29.0527 12.1054 28.9474C12.0001 28.7369 11.6843 28.4211 11.4738 28.6316C11.2633 28.8421 11.4738 29.1579 11.5791 29.3684C11.7896 29.7895 12.0001 29.8948 11.8948 30.3158C11.8948 30.5263 11.4738 30.6316 11.2633 30.3158C11.2633 30.3158 11.3685 30.4211 11.2633 30.5263C10.9475 30.6316 10.7369 30.4211 10.6317 30.2106C10.6317 30.6316 10.1054 30.4211 10.0001 30.1053C9.78958 30.4211 9.36852 29.8948 9.36852 29.7895C9.26326 29.4737 9.05273 28.9474 9.05273 28.6316C9.05273 28.3158 9.26326 27.8948 9.57905 27.6842C9.68431 27.6842 9.89484 27.4737 10.1054 27.4737Z" fill="#FED8A7"/>
<path d="M8.84224 2.21056C8.84224 2.21056 8.42119 0.842138 7.57909 0.526348C6.63172 0.105296 5.15803 -0.105231 4.63172 0.105296C4.00014 0.421085 3.36856 0.842138 3.15803 1.57898C2.84224 2.63161 2.94751 3.47372 2.94751 3.47372C2.94751 3.47372 2.94751 3.57898 3.05277 3.57898C3.47382 3.89477 4.73698 4.9474 5.78961 4.63161C6.52645 4.42108 7.2633 4.42108 7.2633 4.42108L8.84224 2.21056Z" fill="#FFB200"/>
<path d="M8.73665 2.21056C8.73665 2.21056 8.52612 2.00003 7.36823 2.63161C6.63139 2.9474 5.26297 4.42108 5.57876 4.73687C6.10507 5.26319 7.36823 5.26319 7.99981 5.05266C8.84191 4.63161 9.26297 3.15792 10.5261 3.36845C11.4735 3.47371 9.68402 2.42108 8.73665 2.21056Z" fill="#FFBF29"/>
<path d="M27.1579 26.6316C27.3685 26.9474 27.579 27.0527 27.7895 27.3685C27.8948 27.4737 28.0001 27.579 28.0001 27.7895C28.1053 28 28.3158 28.1053 28.4211 28.2106L28.6316 28.5264C28.7369 29.0527 28.0001 29.2632 27.579 29.0527C27.3685 28.9474 27.1579 28.7369 26.9474 28.6316H26.8422C26.5264 28.6316 26.4211 28.5264 26.2106 28.3158C25.8948 28.1053 25.6843 27.8948 25.4737 27.6842C25.2632 27.579 25.0527 27.4737 24.8422 27.3685C24.7369 27.2632 24.6316 27.1579 24.7369 27.0527C24.7369 26.9474 24.8422 26.9474 24.9474 26.9474C24.8422 26.9474 24.6316 26.8421 24.6316 26.6316C24.6316 26.6316 24.6316 26.5264 24.7369 26.5264C24.6316 26.5264 24.5264 26.4211 24.5264 26.3158C24.5264 26.2106 24.7369 26.1053 24.8422 26.1053V26C24.9474 25.8948 25.0527 25.8948 25.1579 25.8948C25.3685 25.8948 25.4737 25.8948 25.6843 25.8948C25.7895 26 26.0001 26.1053 26.1053 26.1053C26.2106 26.1053 26.3158 26.1053 26.4211 26.1053C26.8422 26.2106 27.0527 26.3158 27.1579 26.6316Z" fill="#FED8A7"/>
<path d="M26.5259 26L26.7364 26.1053C26.8417 26.1053 26.8417 26.1053 26.947 26.2106C27.0522 26.3158 27.0522 26.3158 27.0522 26.4211C27.0522 26.5264 27.1575 26.5264 27.2627 26.6316C27.5785 26.8421 27.9996 27.579 27.368 27.579C27.0522 27.579 26.947 27.2632 26.8417 27.0527C26.7364 26.8421 26.8417 26.6316 26.6312 26.5264C26.6312 26.3158 26.4206 26.3158 26.3154 26.1053C26.3154 26 26.2101 25.6842 26.4206 25.6842C26.4206 25.7895 26.5259 25.8948 26.5259 26C26.6312 26 26.7364 26 26.8417 26.1053L26.5259 26Z" fill="#FED8A7"/>
<path d="M16.1051 33.579C16.2103 33.6842 16.3156 33.7895 16.4209 33.8948C16.5261 34 16.6314 34.1053 16.7367 34.2106C17.0525 34.7369 17.8946 35.1579 18.3156 35.4737L19.263 34.5263C19.263 34.2106 19.1577 33.6842 19.0525 33.2632C19.0525 33.0527 18.9472 32.8421 18.8419 32.7369C18.6314 32.5263 18.5261 32.4211 18.3156 32.2106C18.1051 32.1053 17.9998 31.7895 17.8946 31.6842C17.684 31.579 17.4735 31.4737 17.3682 31.7895C17.3682 32 17.684 32.2106 17.7893 32.4211C17.8946 32.5263 17.9998 32.6316 17.9998 32.8421C17.8946 32.8421 17.8946 32.8421 17.7893 32.9474C17.684 32.9474 17.5788 32.8421 17.4735 32.7369C17.3682 32.6316 17.263 32.6316 17.1577 32.5263C17.0525 32.4211 16.8419 32.4211 16.8419 32.2106C16.7367 31.8948 16.6314 31.579 16.4209 31.3684C16.3156 31.2632 16.1051 31.1579 16.1051 31.3684C16.1051 31.4737 16.1051 31.579 16.1051 31.6842C16.1051 31.7895 16.1051 31.8948 16.2103 32C16.2103 32 16.2103 32 16.2103 32.1053C16.2103 32 16.1051 32 16.1051 31.8948C15.9998 31.7895 15.9998 31.4737 15.7893 31.4737C15.5788 31.3685 15.4735 31.579 15.4735 31.7895C15.4735 31.8948 15.4735 31.8948 15.4735 32C15.4735 32 15.4735 32 15.3682 32H15.1577V32.2106C15.1577 32.3158 15.263 32.4211 15.263 32.5263C15.263 32.6316 15.3682 32.7369 15.3682 32.8421C15.263 32.8421 15.1577 32.7369 15.1577 32.8421C15.1577 32.8421 15.1577 32.9474 15.1577 33.0527C15.1577 33.1579 15.1577 33.1579 15.263 33.2632C15.3682 33.4737 15.4735 33.6842 15.5788 33.7895C15.8946 33.3684 15.9998 33.4737 16.1051 33.579Z" fill="#FED8A7"/>
<path d="M33.7893 64.1053C33.8945 64.4211 34.1051 66.4211 33.9998 66.7369C33.7893 67.0527 33.4735 67.3685 32.8419 67.3685C32.2103 67.2632 31.7893 66.6316 31.263 66.5264C30.8419 66.4211 29.4735 65.7895 28.6314 65.3685C28.2103 65.1579 27.5787 64.3158 27.684 63.7895C27.7893 63.4737 28.5261 63.0527 28.7366 63.0527C29.5788 63.2632 29.9998 63.2632 30.5261 63.3685C31.0524 63.4737 30.9472 63.4737 31.4735 63.4737C31.684 63.4737 32.7366 63.3685 32.7366 63.7895L33.7893 64.1053Z" fill="#1E160D"/>
<path d="M34.4211 44.3158C34.2106 45.7895 34.3158 47.2632 34.2106 48.7369C34.0001 50.5263 34.4211 52.5263 33.6843 54.2106C33.4737 54.7369 32.6316 55.579 31.6843 55.4737C31.158 55.4737 29.8948 55.2632 30.0001 54.9474C30.1053 54.5263 29.7895 53.7895 29.7895 53.4737C29.7895 52.8421 29.6843 48.7369 29.6843 47.3685C29.579 46.3158 29.6843 45.6842 29.579 44.4211C29.579 44.4211 29.3685 41.8948 31.8948 42.1053C34.4211 42.4211 34.5264 44.1053 34.4211 44.3158Z" fill="#656565"/>
<path d="M33.9996 54.4211C33.7891 53.4737 33.8943 52.7369 33.8943 51.6842C33.8943 50.9474 29.7891 51.7895 29.7891 53.6842C29.7891 53.6842 30.7364 60.9474 30.2101 63.2632L30.1049 63.6842C30.1049 63.6842 30.2101 64.5263 31.2627 65.1579C31.9996 65.579 33.5785 65.7895 33.8943 65.1579C34.7364 63.6842 34.5259 57.579 33.9996 54.4211Z" fill="#656565"/>
<path d="M29.0525 66.8421C29.1578 67.1579 29.7893 68.2106 29.4735 69.3685C29.3683 69.6842 28.9472 70.1053 28.3156 69.8948C28.1051 69.7895 27.263 69.0527 26.842 69.0527C26.4209 68.9474 24.842 68.3158 24.5262 68.1053C24.2104 67.8948 23.7893 67.7895 23.5788 67.4737C23.263 67.0527 23.0525 66.5263 23.1578 66C23.263 65.6842 23.5788 65.4737 23.7893 65.579C24.6314 65.7895 25.3683 65.7895 25.8946 65.8948C26.4209 66 26.6314 66.1053 27.1578 66.1053C27.3683 66.1053 28.4209 66.1053 28.3156 66.4211L29.0525 66.8421Z" fill="#1E160D"/>
<path d="M30.8417 46.2106C30.5259 47.6842 30.7364 49.2632 30.5259 50.7369C30.3154 52.5263 30.5259 54.5263 29.6838 56.1053C29.4733 56.6316 28.6312 57.3685 27.6838 57.2632C27.1575 57.1579 26.1049 56.9474 25.9996 56.6316C25.8943 56.2106 25.7891 55.4737 25.7891 55.1579C25.8943 54.5263 25.8943 50.4211 25.8943 49.0527C25.8943 48 25.8943 45.2632 26.2101 43.6842C26.2101 43.6842 26.1049 42.4211 28.7364 42.7369C30.947 42.9474 30.947 46 30.8417 46.2106Z" fill="#747474"/>
<path d="M30.2102 57.579C30.105 56.6316 30.2102 55.8948 30.2102 54.8421C30.2102 54.1053 26.105 54 25.8944 55.8948C25.8944 55.8948 26.6313 63.579 25.9997 65.8948L25.8944 66.3158C25.8944 66.3158 25.6839 66.7369 25.9997 67.1579C26.2102 67.4737 26.526 67.8948 27.0523 68C27.7892 68.2106 29.2628 68.3158 29.4734 67.579C30.105 65.1579 30.526 60.7369 30.2102 57.579Z" fill="#747474"/>
<path d="M35.9996 28.2106C36.5259 31.0527 36.8417 34.1053 35.7891 34.5264C35.3681 34.6316 34.2102 35.1579 34.1049 34.3158C33.7891 32.2106 32.7365 30.4211 32.3154 28.6316C31.7891 25.7895 31.8944 25.3685 32.947 25.1579C33.9996 24.8421 35.4733 25.3685 35.9996 28.2106Z" fill="#656565"/>
<path d="M28.7368 26.5264C28.5263 26.6316 27.1579 27.2632 26.2105 28.5264C25.4737 29.4737 25.5789 31.579 25.5789 31.7895C25.6842 32.6316 26 41.2632 26 42.1053C26 43.6842 25.7895 45.2632 25.8947 45.4737C26.6316 47.3685 29.6842 46.5263 30.3158 46.4211C32.3158 46.2106 35.0526 44.6316 34.9474 43.6842C34.6316 41.8948 34.5263 34.1053 34.7368 33.0527C34.9474 32.1053 35.8947 27.3685 34.6316 25.579C34.3158 25.1579 33.6842 24.9474 33.2631 24.9474C31.3684 25.2632 28.9474 26.4211 28.7368 26.5264Z" fill="#848484"/>
<path d="M28.1051 32.7369C27.5788 34.3158 26.842 37.8948 25.8946 39.6842C25.0525 41.2632 23.9999 41.1579 23.4736 40.9474C23.0525 40.8421 22.4209 40.2106 22.7367 39.3685C23.4736 37.2632 24.1051 32.9474 24.7367 31.2632C25.6841 28.4211 26.5262 28.1053 27.5788 28.4211C28.5262 28.8421 29.0525 29.8948 28.1051 32.7369Z" fill="#93999E"/>
<path d="M27.4736 19.0527C27.4736 19.4737 27.1578 20.1053 27.0526 20.5264C26.9473 20.8421 26.9473 20.9474 27.0526 21.1579C27.2631 21.579 27.1578 22 27.0526 22.4211C26.9473 22.9474 27.0526 23.4737 27.2631 24C27.3684 24.4211 27.4736 24.8421 27.7894 25.0527C28.6315 25.6842 29.6842 25.2632 30.6315 24.9474C31.4736 24.6316 31.3684 23.0527 31.6842 22.3158C32.2105 20.9474 31.7894 19.1579 30.3157 18.5264C29.6842 18.3158 28.5263 18.1053 27.8947 18.4211C27.5789 18.6316 27.4736 19.0527 27.4736 19.0527Z" fill="#FED8A7"/>
<path d="M28.7368 24.4211C28.7368 24.4211 29.3684 26.3158 28.9473 26.8421C28.8421 27.0527 29.5789 27.4737 30.3158 27.4737C31.4737 27.4737 32.7368 26.8421 32.421 25.8948C32.2105 25.3685 31.6842 24.8421 32 22.8421C32 22.3158 28.7368 24.4211 28.7368 24.4211Z" fill="#FED8A7"/>
<path d="M31.9998 17.7895C30.6313 16.8421 28.7366 16.9474 27.8945 18C27.3682 18.6316 27.3682 19.3685 27.3682 19.3685C27.2629 19.6842 27.9998 19.579 28.105 20.7369C29.0524 26.4211 31.684 24.3158 31.7892 24.1053C32.4208 22.5264 32.9471 22.8421 33.2629 21.8948C33.684 20.4211 33.9998 19.1579 31.9998 17.7895Z" fill="#60573A"/>
<path d="M29.0526 22.8421C28.842 23.3685 28.7368 23.7895 28.5262 23.6842C28.3157 23.579 28.1052 23.1579 28.3157 22.6316C28.5262 22.1053 28.6315 21.6842 28.842 21.6842C29.2631 21.6842 29.2631 22.3158 29.0526 22.8421Z" fill="#FED8A7"/>
<path d="M22.8421 40.7369C21.3684 39.579 17.5789 36 18.2105 35.2632C18.7368 34.6316 19.1579 34.1053 19.6842 34.3158C20.5263 34.7369 23.4736 37.579 25.0526 38.7369C25.3684 38.9474 26.2105 39.1579 25.6842 39.8948C25.0526 40.7369 23.8947 41.579 22.8421 40.7369Z" fill="#93999E"/>
<path d="M32.7366 25.579C32.9471 25.7895 32.9471 26.1053 32.9471 26.3158C32.8418 26.7369 32.6313 27.0527 32.3155 27.2632C32.105 27.4737 30.8418 28.1053 29.7892 28C28.8418 27.8948 28.3155 27.3685 28.105 27.2632C27.8945 27.1579 27.5787 27.1579 27.3682 27.1579C27.684 26.8421 28.3155 26.2106 28.7366 26.1053C28.8418 26 29.0524 26.2106 29.0524 26.2106C29.2629 26.4211 29.3682 26.5263 29.684 26.6316C30.2103 26.8421 30.7366 26.6316 31.2629 26.3158C32.2103 25.6842 31.8945 25.2632 31.8945 24.8421C32.2103 24.8421 32.5261 25.3685 32.7366 25.579Z" fill="#93999E"/>
</g>
<defs>
<linearGradient id="paint0_linear_195_20242" x1="2.93048" y1="4.58727" x2="8.89583" y2="2.50107" gradientUnits="userSpaceOnUse">
<stop stop-color="#231F20"/>
<stop offset="0.0896271" stop-color="#231F20"/>
<stop offset="1" stop-color="#231F20"/>
</linearGradient>
<clipPath id="clip0_195_20242">
<rect width="36.5263" height="70" fill="white"/>
</clipPath>
</defs>
</svg>
