<svg width="9" height="9" viewBox="0 0 9 9" fill="none" xmlns="http://www.w3.org/2000/svg">
<path d="M8.10664 3.13587L5.59526 2.77089L4.4726 0.494915C4.44194 0.432601 4.3915 0.382155 4.32918 0.351492C4.1729 0.274341 3.98299 0.338634 3.90485 0.494915L2.78219 2.77089L0.270807 3.13587C0.201568 3.14577 0.138264 3.17841 0.089797 3.22786C0.031203 3.28809 -0.00108498 3.36911 2.78398e-05 3.45313C0.00114066 3.53715 0.0355632 3.61728 0.0957317 3.67594L1.91275 5.44746L1.48347 7.94895C1.47341 8.00714 1.47984 8.06699 1.50206 8.1217C1.52427 8.17642 1.56138 8.22382 1.60916 8.25852C1.65694 8.29322 1.71349 8.31385 1.7724 8.31805C1.8313 8.32225 1.8902 8.30986 1.94243 8.28228L4.18873 7.10127L6.43503 8.28228C6.49635 8.31492 6.56757 8.3258 6.63582 8.31394C6.80793 8.28426 6.92365 8.12106 6.89398 7.94895L6.4647 5.44746L8.28172 3.67594C8.33118 3.62747 8.36382 3.56417 8.37371 3.49493C8.40041 3.32183 8.27974 3.16159 8.10664 3.13587Z" fill="#F39C12"/>
</svg>
