<svg width="24" height="25" viewBox="0 0 24 25" fill="none" xmlns="http://www.w3.org/2000/svg">
<path d="M24 12.9199C24 16.1025 22.7357 19.1548 20.4853 21.4052C18.2348 23.6556 15.1826 24.9199 12 24.9199C8.8174 24.9199 5.76516 23.6556 3.51472 21.4052C1.26428 19.1548 0 16.1025 0 12.9199C0 9.73732 1.26428 6.68508 3.51472 4.43464C5.76516 2.1842 8.8174 0.919922 12 0.919922C15.1826 0.919922 18.2348 2.1842 20.4853 4.43464C22.7357 6.68508 24 9.73732 24 12.9199ZM18.045 8.37492C17.9379 8.26815 17.8103 8.18408 17.6699 8.12774C17.5295 8.07141 17.3792 8.04396 17.228 8.04704C17.0768 8.05012 16.9277 8.08367 16.7897 8.14567C16.6518 8.20768 16.5277 8.29688 16.425 8.40792L11.2155 15.0454L8.076 11.9044C7.86274 11.7057 7.58067 11.5975 7.28922 11.6027C6.99776 11.6078 6.71969 11.7259 6.51357 11.932C6.30745 12.1381 6.18938 12.4162 6.18424 12.7076C6.1791 12.9991 6.28728 13.2812 6.486 13.4944L10.455 17.4649C10.5619 17.5716 10.6892 17.6557 10.8294 17.7122C10.9695 17.7687 11.1196 17.7963 11.2706 17.7935C11.4217 17.7907 11.5706 17.7575 11.7085 17.6959C11.8465 17.6343 11.9706 17.5455 12.0735 17.4349L18.0615 9.94992C18.2656 9.73767 18.3784 9.45383 18.3756 9.15936C18.3728 8.86488 18.2546 8.58325 18.0465 8.37492H18.045Z" fill="#27AE60"/>
</svg>
