<svg width="151" height="125" viewBox="0 0 151 125" fill="none" xmlns="http://www.w3.org/2000/svg">
<g clip-path="url(#clip0_179_18189)">
<path d="M42.9821 51.0859L105.061 51.0859C106.586 51.0859 107.822 49.8501 107.822 48.3257V2.87447C107.822 1.35001 106.586 0.114193 105.061 0.114193L42.9821 0.114193C41.4576 0.114193 40.2218 1.35001 40.2218 2.87447V48.3257C40.2218 49.8501 41.4576 51.0859 42.9821 51.0859Z" fill="white"/>
<path d="M105.062 51.1993H42.9825C42.2205 51.1985 41.4899 50.8954 40.9511 50.3566C40.4123 49.8178 40.1092 49.0872 40.1084 48.3252V2.87405C40.1092 2.11207 40.4123 1.38153 40.9511 0.84272C41.4899 0.303912 42.2205 0.000840624 42.9825 0L105.062 0C105.824 0.000840557 106.554 0.303907 107.093 0.842711C107.632 1.38152 107.935 2.11205 107.936 2.87405V48.3252C107.935 49.0872 107.632 49.8178 107.093 50.3566C106.554 50.8954 105.824 51.1985 105.062 51.1993ZM42.9825 0.22756C42.2808 0.228364 41.6081 0.507449 41.112 1.00359C40.6159 1.49973 40.3368 2.17241 40.336 2.87405V48.3252C40.3368 49.0269 40.6159 49.6996 41.112 50.1957C41.6081 50.6919 42.2808 50.9709 42.9825 50.9717H105.062C105.763 50.9709 106.436 50.6919 106.932 50.1957C107.428 49.6996 107.708 49.0269 107.708 48.3252V2.87405C107.708 2.17239 107.428 1.49972 106.932 1.00358C106.436 0.507444 105.763 0.228364 105.062 0.22756H42.9825Z" fill="#7C7C7C"/>
<path d="M48.2666 4.39511L43.8298 4.81585C43.3715 4.8593 43.0352 5.26602 43.0787 5.72428L43.4994 10.1611C43.5429 10.6194 43.9496 10.9556 44.4079 10.9122L48.8448 10.4915C49.303 10.448 49.6393 10.0413 49.5958 9.58303L49.1751 5.14618C49.1316 4.68792 48.7249 4.35166 48.2666 4.39511Z" fill="#7C7C7C"/>
<path d="M60.9015 14.0191L56.4703 13.5423C56.0126 13.493 55.6017 13.8241 55.5524 14.2818L55.0757 18.713C55.0264 19.1707 55.3575 19.5816 55.8152 19.6308L60.2464 20.1076C60.7041 20.1568 61.115 19.8257 61.1643 19.3681L61.641 14.9369C61.6903 14.4792 61.3592 14.0683 60.9015 14.0191Z" fill="white"/>
<path d="M60.3374 20.2516C60.3021 20.2515 60.2669 20.2497 60.2318 20.2459L55.8006 19.7691C55.5445 19.7413 55.31 19.613 55.1483 19.4124C54.9867 19.2118 54.9113 18.9553 54.9386 18.6991L55.4154 14.2682C55.429 14.1413 55.4675 14.0183 55.5287 13.9063C55.5898 13.7943 55.6724 13.6955 55.7718 13.6154C55.8712 13.5354 55.9853 13.4757 56.1078 13.4397C56.2302 13.4038 56.3585 13.3923 56.4854 13.406L60.9165 13.8828C61.1727 13.9104 61.4074 14.0386 61.5691 14.2393C61.7307 14.4399 61.8061 14.6966 61.7786 14.9528L61.3018 19.3837C61.2762 19.6218 61.1636 19.842 60.9857 20.0021C60.8077 20.1623 60.5769 20.2511 60.3375 20.2516H60.3374ZM60.2612 19.9713C60.4445 19.991 60.6282 19.9371 60.7719 19.8214C60.9155 19.7057 61.0072 19.5377 61.027 19.3543L61.5039 14.9232C61.5236 14.7398 61.4697 14.5561 61.354 14.4125C61.2382 14.2689 61.0702 14.1771 60.8868 14.1573L56.4556 13.6806C56.3648 13.6709 56.2729 13.6791 56.1853 13.7048C56.0977 13.7305 56.016 13.7732 55.9449 13.8305C55.8737 13.8879 55.8146 13.9586 55.7708 14.0388C55.7271 14.1189 55.6995 14.2069 55.6898 14.2977L55.213 18.7287C55.1935 18.912 55.2475 19.0956 55.3632 19.2392C55.4789 19.3828 55.6469 19.4746 55.8302 19.4946L60.2612 19.9713Z" fill="#7C7C7C"/>
<path d="M80.5641 21.0452C80.5414 21.0453 80.5191 21.0397 80.4991 21.0291C80.4791 21.0184 80.462 21.003 80.4493 20.9842C77.6377 16.8022 73.3725 16.0408 70.2886 16.1375C68.2031 16.2169 66.1441 16.6321 64.1909 17.3673C64.1572 17.3809 64.1194 17.3807 64.0858 17.3667C64.0522 17.3526 64.0255 17.3259 64.0115 17.2922C63.9976 17.2586 63.9975 17.2208 64.0112 17.1871C64.025 17.1534 64.0515 17.1265 64.085 17.1122C66.0693 16.3649 68.1611 15.9426 70.2799 15.8615C73.4323 15.7623 77.7963 16.5433 80.6785 20.83C80.6925 20.8507 80.7006 20.8749 80.7019 20.8999C80.7031 20.9249 80.6976 20.9498 80.6859 20.9719C80.6741 20.994 80.6566 21.0125 80.6351 21.0254C80.6137 21.0383 80.5891 21.0451 80.5641 21.0451V21.0452Z" fill="#7C7C7C"/>
<path d="M80.6151 21.1026C80.6023 21.1025 80.5897 21.1008 80.5774 21.0973L77.7481 20.2982C77.7128 20.2883 77.683 20.2648 77.6651 20.2328C77.6472 20.2008 77.6427 20.1631 77.6526 20.1278C77.6626 20.0926 77.6861 20.0627 77.7181 20.0448C77.75 20.027 77.7878 20.0225 77.823 20.0324L80.5195 20.7938L81.2811 18.0973C81.2917 18.0629 81.3154 18.034 81.347 18.0168C81.3787 17.9995 81.4159 17.9954 81.4506 18.0052C81.4853 18.015 81.5147 18.038 81.5327 18.0693C81.5507 18.1005 81.5557 18.1375 81.5467 18.1725L80.7478 21.0018C80.7397 21.0307 80.7223 21.0562 80.6984 21.0744C80.6744 21.0926 80.6452 21.1025 80.6151 21.1026Z" fill="#7C7C7C"/>
<path d="M85.0528 22.3404L80.6159 22.7612C80.1576 22.8046 79.8214 23.2113 79.8648 23.6696L80.2856 28.1064C80.329 28.5647 80.7357 28.901 81.194 28.8575L85.6309 28.4368C86.0891 28.3933 86.4254 27.9866 86.3819 27.5283L85.9612 23.0915C85.9177 22.6332 85.511 22.297 85.0528 22.3404Z" fill="#3B97D2"/>
<path d="M99.5538 8.70078L95.1062 8.41481C94.6468 8.38527 94.2505 8.73372 94.2209 9.19308L93.935 13.6407C93.9054 14.1 94.2539 14.4963 94.7132 14.5259L99.1609 14.8119C99.6202 14.8414 100.017 14.493 100.046 14.0336L100.332 9.58602C100.362 9.12665 100.013 8.73032 99.5538 8.70078Z" fill="#7C7C7C"/>
<path d="M102.067 23.2144L97.6358 22.7376C97.1781 22.6884 96.7672 23.0195 96.718 23.4771L96.2412 27.9083C96.192 28.366 96.5231 28.7769 96.9807 28.8262L101.412 29.3029C101.87 29.3522 102.281 29.0211 102.33 28.5634L102.807 24.1322C102.856 23.6745 102.525 23.2636 102.067 23.2144Z" fill="#0CBC8B"/>
<path d="M77.7422 37.649L73.3053 38.0698C72.8471 38.1132 72.5108 38.5199 72.5543 38.9782L72.975 43.415C73.0185 43.8733 73.4252 44.2096 73.8834 44.1661L78.3203 43.7454C78.7786 43.7019 79.1149 43.2952 79.0714 42.8369L78.6507 38.4001C78.6072 37.9418 78.2005 37.6056 77.7422 37.649Z" fill="white"/>
<path d="M73.8042 44.3086C73.5626 44.3081 73.3298 44.2178 73.1511 44.0551C72.9724 43.8925 72.8607 43.6692 72.8376 43.4287L72.4168 38.9918C72.3928 38.7354 72.4715 38.4799 72.6357 38.2813C72.7998 38.0828 73.036 37.9575 73.2924 37.9329L77.7291 37.5122C77.8561 37.5001 77.9842 37.5132 78.1062 37.5507C78.2282 37.5882 78.3416 37.6493 78.4399 37.7306C78.5382 37.8119 78.6196 37.9118 78.6793 38.0245C78.7391 38.1373 78.776 38.2607 78.788 38.3877L79.2088 42.8245C79.2328 43.0809 79.1541 43.3364 78.99 43.535C78.8259 43.7335 78.5897 43.8588 78.3333 43.8834L73.8967 44.3042C73.8655 44.3071 73.8345 44.3086 73.8042 44.3086ZM77.8224 37.7839C77.8003 37.7839 77.7779 37.785 77.7557 37.7871L73.3184 38.2074C73.1348 38.225 72.9657 38.3147 72.8482 38.4568C72.7306 38.5989 72.6743 38.7819 72.6915 38.9655L73.1122 43.4022C73.13 43.5857 73.2198 43.7546 73.3619 43.8721C73.5039 43.9895 73.6868 44.0459 73.8703 44.0288L78.3071 43.6081C78.4906 43.5905 78.6597 43.5008 78.7772 43.3586C78.8947 43.2165 78.951 43.0336 78.9338 42.85L78.5131 38.4133C78.4967 38.2412 78.4168 38.0814 78.289 37.965C78.1613 37.8485 77.9947 37.7838 77.8219 37.7835L77.8224 37.7839Z" fill="#7C7C7C"/>
<path d="M49.1333 36.149L44.6964 36.5698C44.2382 36.6132 43.9019 37.0199 43.9454 37.4782L44.3661 41.915C44.4096 42.3733 44.8163 42.7096 45.2746 42.6661L49.7114 42.2454C50.1697 42.2019 50.506 41.7952 50.4625 41.3369L50.0418 36.9001C49.9983 36.4418 49.5916 36.1056 49.1333 36.149Z" fill="#3B97D2"/>
<path d="M84.6313 20.0812C84.626 20.0812 84.6207 20.0809 84.6154 20.0804C84.5974 20.0783 84.58 20.0727 84.5642 20.0639C84.5483 20.0551 84.5343 20.0432 84.5231 20.029C84.5118 20.0148 84.5034 19.9985 84.4985 19.9811C84.4935 19.9636 84.492 19.9454 84.4941 19.9274C84.7015 18.5333 85.1326 17.1818 85.7705 15.9251C87.1514 13.2486 89.3168 11.7135 92.0312 11.4849C92.0677 11.4818 92.104 11.4933 92.1319 11.517C92.1599 11.5406 92.1774 11.5744 92.1805 11.6109C92.1835 11.6474 92.172 11.6836 92.1483 11.7116C92.1247 11.7395 92.0909 11.757 92.0545 11.7601C85.7234 12.2925 84.7774 19.8824 84.7683 19.959C84.7644 19.9926 84.7483 20.0236 84.7231 20.0462C84.6978 20.0687 84.6652 20.0812 84.6313 20.0812Z" fill="#7C7C7C"/>
<path d="M90.718 13.1283C90.6907 13.1283 90.664 13.1202 90.6413 13.1051C90.6186 13.0899 90.6009 13.0684 90.5904 13.0432C90.58 13.0179 90.5772 12.9902 90.5825 12.9634C90.5878 12.9366 90.6009 12.912 90.6201 12.8927L91.896 11.6111L90.6146 10.3353C90.6014 10.3225 90.5909 10.3073 90.5836 10.2905C90.5763 10.2737 90.5725 10.2556 90.5723 10.2372C90.5721 10.2189 90.5755 10.2007 90.5824 10.1837C90.5893 10.1667 90.5996 10.1513 90.6125 10.1383C90.6254 10.1253 90.6408 10.115 90.6578 10.1081C90.6747 10.1011 90.6929 10.0975 90.7113 10.0977C90.7296 10.0978 90.7477 10.1015 90.7646 10.1087C90.7814 10.1159 90.7967 10.1264 90.8095 10.1396L92.1886 11.513C92.2145 11.5389 92.2291 11.574 92.2291 11.6106C92.2291 11.6472 92.2145 11.6823 92.1886 11.7082L90.8154 13.0875C90.8027 13.1004 90.7875 13.1106 90.7708 13.1176C90.7541 13.1246 90.7362 13.1282 90.718 13.1283Z" fill="#7C7C7C"/>
<path d="M75.6546 35.5869C75.625 35.5869 75.5963 35.5774 75.5725 35.5598C75.5487 35.5423 75.5312 35.5175 75.5226 35.4893C75.502 35.4217 73.5161 28.7156 78.6571 25.9339C78.6731 25.9249 78.6907 25.9191 78.7089 25.917C78.7271 25.9148 78.7456 25.9163 78.7633 25.9214C78.7809 25.9265 78.7974 25.935 78.8117 25.9465C78.826 25.958 78.8378 25.9723 78.8466 25.9884C78.8553 26.0046 78.8607 26.0223 78.8625 26.0406C78.8643 26.0589 78.8625 26.0773 78.857 26.0948C78.8516 26.1124 78.8428 26.1287 78.831 26.1427C78.8192 26.1568 78.8047 26.1684 78.7884 26.1768C73.8479 28.8497 75.7671 35.3425 75.787 35.4078C75.7933 35.4284 75.7947 35.4503 75.7911 35.4716C75.7874 35.4929 75.7789 35.513 75.766 35.5303C75.7532 35.5477 75.7364 35.5618 75.7172 35.5715C75.6979 35.5813 75.6766 35.5863 75.655 35.5863L75.6546 35.5869Z" fill="#7C7C7C"/>
<path d="M78.1317 27.7762C78.1093 27.7761 78.0872 27.7707 78.0673 27.7602C78.0475 27.7497 78.0305 27.7345 78.0178 27.716C78.0051 27.6974 77.9972 27.6761 77.9946 27.6538C77.9921 27.6315 77.995 27.6089 78.0032 27.588L78.5792 26.1081L77.0994 25.5315C77.0659 25.5178 77.0392 25.4915 77.0249 25.4582C77.0106 25.425 77.0099 25.3874 77.023 25.3537C77.0361 25.32 77.062 25.2927 77.0949 25.2779C77.1279 25.263 77.1654 25.2616 77.1994 25.2741L78.808 25.9002C78.825 25.9068 78.8404 25.9166 78.8535 25.9291C78.8666 25.9417 78.8771 25.9567 78.8844 25.9733C78.8917 25.9899 78.8956 26.0078 78.896 26.0259C78.8964 26.0441 78.8932 26.0621 78.8866 26.079L78.2604 27.6875C78.2504 27.7136 78.2328 27.736 78.2098 27.7518C78.1868 27.7676 78.1596 27.7761 78.1317 27.7762Z" fill="#7C7C7C"/>
<path d="M58.4807 12.777C58.4441 12.777 58.409 12.7624 58.3831 12.7365C58.3572 12.7106 58.3426 12.6755 58.3426 12.6389C58.3426 10.5413 57.7236 8.94005 56.5022 7.87985C54.3343 5.99819 50.9625 6.4518 50.9286 6.45663C50.8924 6.46181 50.8555 6.45238 50.8262 6.4304C50.7969 6.40843 50.7776 6.37572 50.7724 6.33947C50.7672 6.30321 50.7766 6.26638 50.7986 6.23708C50.8206 6.20778 50.8533 6.18841 50.8895 6.18322C51.0325 6.16265 54.4177 5.70601 56.682 7.6701C57.9673 8.78512 58.6189 10.4569 58.6188 12.6389C58.6188 12.657 58.6152 12.675 58.6083 12.6917C58.6013 12.7085 58.5912 12.7237 58.5784 12.7365C58.5655 12.7493 58.5503 12.7595 58.5336 12.7664C58.5168 12.7734 58.4988 12.777 58.4807 12.777Z" fill="#7C7C7C"/>
<path d="M58.4874 12.8259C58.4831 12.8259 58.4787 12.8259 58.4744 12.8259C58.4564 12.8242 58.4388 12.819 58.4228 12.8105C58.4067 12.802 58.3925 12.7904 58.381 12.7765L57.1392 11.277C57.1158 11.2488 57.1046 11.2125 57.108 11.176C57.1115 11.1395 57.1292 11.1059 57.1575 11.0825C57.1857 11.0592 57.222 11.048 57.2585 11.0514C57.295 11.0548 57.3286 11.0726 57.3519 11.1008L58.5062 12.4945L59.8992 11.3412C59.9132 11.3297 59.9293 11.321 59.9466 11.3156C59.9639 11.3103 59.9821 11.3084 60.0002 11.3101C60.0183 11.3118 60.0358 11.3171 60.0518 11.3256C60.0679 11.3341 60.0821 11.3456 60.0936 11.3596C60.1052 11.3736 60.1139 11.3897 60.1192 11.407C60.1245 11.4243 60.1264 11.4425 60.1247 11.4606C60.123 11.4787 60.1177 11.4962 60.1093 11.5122C60.1008 11.5282 60.0892 11.5424 60.0752 11.554L58.5752 12.7947C58.5505 12.8149 58.5194 12.826 58.4874 12.8259Z" fill="#7C7C7C"/>
<path d="M61.5403 28.0098H57.0835C56.6232 28.0098 56.25 28.3829 56.25 28.8432V33.3C56.25 33.7603 56.6232 34.1335 57.0835 34.1335H61.5403C62.0006 34.1335 62.3737 33.7603 62.3737 33.3V28.8432C62.3737 28.3829 62.0006 28.0098 61.5403 28.0098Z" fill="#0CBC8B"/>
<path d="M72.891 36.1562C72.8603 36.1562 72.8304 36.1459 72.8062 36.1269C72.782 36.108 72.7648 36.0815 72.7573 36.0517C71.2178 29.8932 63.6903 30.3251 63.6155 30.3303C63.5974 30.3315 63.5792 30.3291 63.5619 30.3233C63.5447 30.3175 63.5288 30.3084 63.5151 30.2964C63.5014 30.2844 63.4902 30.2699 63.4822 30.2536C63.4741 30.2373 63.4693 30.2196 63.4681 30.2015C63.4669 30.1834 63.4692 30.1652 63.475 30.1479C63.4808 30.1307 63.49 30.1148 63.5019 30.1011C63.5139 30.0874 63.5284 30.0762 63.5447 30.0682C63.561 30.0601 63.5787 30.0553 63.5969 30.0541C64.9833 30.0072 66.368 30.1894 67.695 30.5934C69.6658 31.2091 72.1902 32.6442 73.0251 35.984C73.0295 36.0016 73.0304 36.0199 73.0277 36.0379C73.025 36.0558 73.0189 36.0731 73.0095 36.0886C73.0002 36.1042 72.9879 36.1177 72.9733 36.1285C72.9587 36.1393 72.9422 36.1472 72.9246 36.1515C72.9136 36.1545 72.9023 36.1561 72.891 36.1562Z" fill="#7C7C7C"/>
<path d="M72.9102 36.2021C72.8815 36.2021 72.8536 36.1932 72.8302 36.1765L71.2675 35.0676C71.2377 35.0464 71.2175 35.0142 71.2114 34.9781C71.2053 34.942 71.2138 34.9049 71.235 34.875C71.2562 34.8452 71.2885 34.825 71.3246 34.8189C71.3607 34.8128 71.3977 34.8213 71.4276 34.8425L72.8759 35.8704L73.9084 34.3733C73.9293 34.3435 73.9612 34.3231 73.9971 34.3166C74.0329 34.3102 74.0699 34.3182 74.0999 34.3389C74.1299 34.3596 74.1505 34.3913 74.1572 34.4272C74.1639 34.463 74.1562 34.5 74.1357 34.5302L73.0238 36.1424C73.0134 36.1575 73.0002 36.1703 72.9848 36.1802C72.9694 36.1901 72.9522 36.1968 72.9342 36.2C72.9263 36.2014 72.9182 36.2021 72.9102 36.2021Z" fill="#7C7C7C"/>
<path d="M140.795 125L141.066 124.948L136.828 82.8281L136.557 82.8803L140.795 125Z" fill="#7C7C7C"/>
<path d="M125.012 125L125.284 124.948L121.045 82.8281L120.774 82.8803L125.012 125Z" fill="#7C7C7C"/>
<path d="M90.1257 125L89.8545 124.948L94.0931 82.8281L94.3643 82.8803L90.1257 125Z" fill="#7C7C7C"/>
<path d="M105.908 125L105.637 124.948L109.876 82.8281L110.147 82.8803L105.908 125Z" fill="#7C7C7C"/>
<path d="M111.528 64.2908L109.052 82.8359L109.325 82.8725L111.802 64.3274L111.528 64.2908Z" fill="#7C7C7C"/>
<path d="M139.949 64.2909L137.473 82.8359L137.746 82.8725L140.222 64.3274L139.949 64.2909Z" fill="#7C7C7C"/>
<path d="M109.077 84.2109H136.876C137.626 84.2109 138.234 83.6029 138.234 82.8529V82.8528C138.234 82.1027 137.626 81.4947 136.876 81.4947H109.077C108.327 81.4947 107.719 82.1027 107.719 82.8528V82.8529C107.719 83.6029 108.327 84.2109 109.077 84.2109Z" fill="#7C7C7C"/>
<path opacity="0.8" d="M109.077 84.2109H136.876C137.626 84.2109 138.234 83.6029 138.234 82.8529V82.8528C138.234 82.1027 137.626 81.4947 136.876 81.4947H109.077C108.327 81.4947 107.719 82.1027 107.719 82.8528V82.8529C107.719 83.6029 108.327 84.2109 109.077 84.2109Z" fill="white"/>
<path d="M107.581 82.8534C107.582 82.4568 107.739 82.0765 108.02 81.7961C108.3 81.5156 108.681 81.3579 109.077 81.3574H136.876C137.273 81.3574 137.654 81.515 137.934 81.7956C138.215 82.0762 138.372 82.4567 138.372 82.8535C138.372 83.2503 138.215 83.6309 137.934 83.9115C137.654 84.192 137.273 84.3497 136.876 84.3497H109.077C108.681 84.3492 108.3 84.1914 108.02 83.9109C107.739 83.6304 107.581 83.2501 107.581 82.8534ZM109.077 81.6334C108.754 81.6334 108.443 81.762 108.215 81.9908C107.986 82.2195 107.857 82.5299 107.857 82.8534C107.857 83.177 107.986 83.4873 108.215 83.716C108.443 83.9448 108.754 84.0734 109.077 84.0734H136.876C137.2 84.0734 137.51 83.9448 137.739 83.716C137.968 83.4873 138.096 83.177 138.096 82.8534C138.096 82.5299 137.968 82.2195 137.739 81.9908C137.51 81.762 137.2 81.6334 136.876 81.6334H109.077Z" fill="#7C7C7C"/>
<path d="M93.8194 84.2109H121.619C122.369 84.2109 122.977 83.6029 122.977 82.8529V82.8528C122.977 82.1027 122.369 81.4947 121.619 81.4947H93.8194C93.0694 81.4947 92.4614 82.1027 92.4614 82.8528V82.8529C92.4614 83.6029 93.0694 84.2109 93.8194 84.2109Z" fill="white"/>
<path d="M92.3228 82.8534C92.3233 82.4567 92.4812 82.0763 92.7618 81.7959C93.0424 81.5154 93.4228 81.3577 93.8196 81.3574H121.619C122.015 81.3574 122.396 81.515 122.677 81.7956C122.957 82.0762 123.115 82.4567 123.115 82.8535C123.115 83.2503 122.957 83.6309 122.677 83.9115C122.396 84.192 122.015 84.3497 121.619 84.3497H93.8196C93.4228 84.3493 93.0423 84.1916 92.7617 83.9111C92.4811 83.6306 92.3232 83.2502 92.3228 82.8534ZM93.8196 81.6336C93.6594 81.6336 93.5007 81.6651 93.3527 81.7264C93.2047 81.7878 93.0702 81.8776 92.9569 81.9909C92.8436 82.1042 92.7538 82.2387 92.6925 82.3867C92.6312 82.5347 92.5996 82.6933 92.5996 82.8535C92.5996 83.0137 92.6312 83.1724 92.6925 83.3204C92.7538 83.4684 92.8436 83.6029 92.9569 83.7162C93.0702 83.8295 93.2047 83.9193 93.3527 83.9806C93.5007 84.0419 93.6594 84.0735 93.8196 84.0735H121.619C121.942 84.0735 122.253 83.945 122.481 83.7162C122.71 83.4874 122.839 83.1771 122.839 82.8535C122.839 82.53 122.71 82.2197 122.481 81.9909C122.253 81.7621 121.942 81.6336 121.619 81.6336H93.8196Z" fill="#7C7C7C"/>
<path d="M113.052 64.3099H140.013C140.454 64.3099 140.88 64.1494 141.211 63.8586C141.542 63.5677 141.756 63.1662 141.813 62.7291L143.596 49.0338C143.629 48.7778 143.608 48.5177 143.533 48.2707C143.457 48.0238 143.33 47.7957 143.16 47.6017C142.99 47.4078 142.78 47.2524 142.545 47.1459C142.31 47.0394 142.054 46.9844 141.796 46.9844H114.836C114.395 46.9842 113.969 47.1446 113.638 47.4356C113.306 47.7265 113.092 48.1282 113.035 48.5654L111.252 62.2605C111.219 62.5165 111.24 62.7767 111.316 63.0237C111.391 63.2707 111.518 63.4988 111.688 63.6928C111.859 63.8867 112.069 64.0421 112.304 64.1485C112.539 64.255 112.794 64.31 113.052 64.3099Z" fill="#7C7C7C"/>
<path opacity="0.8" d="M113.052 64.3099H140.013C140.454 64.3099 140.88 64.1494 141.211 63.8586C141.542 63.5677 141.756 63.1662 141.813 62.7291L143.596 49.0338C143.629 48.7778 143.608 48.5177 143.533 48.2707C143.457 48.0238 143.33 47.7957 143.16 47.6017C142.99 47.4078 142.78 47.2524 142.545 47.1459C142.31 47.0394 142.054 46.9844 141.796 46.9844H114.836C114.395 46.9842 113.969 47.1446 113.638 47.4356C113.306 47.7265 113.092 48.1282 113.035 48.5654L111.252 62.2605C111.219 62.5165 111.24 62.7767 111.316 63.0237C111.391 63.2707 111.518 63.4988 111.688 63.6928C111.859 63.8867 112.069 64.0421 112.304 64.1485C112.539 64.255 112.794 64.31 113.052 64.3099Z" fill="white"/>
<path d="M111.585 63.7828C111.402 63.5741 111.265 63.3287 111.184 63.0629C111.103 62.7972 111.08 62.5173 111.116 62.2418L112.899 48.5467C112.961 48.0768 113.192 47.6454 113.548 47.3326C113.904 47.0197 114.362 46.8468 114.836 46.8457H141.796C142.074 46.8457 142.349 46.9049 142.602 47.0195C142.855 47.1341 143.081 47.3013 143.264 47.51C143.447 47.7188 143.584 47.9642 143.665 48.23C143.746 48.4957 143.769 48.7757 143.733 49.0512L141.95 62.7461C141.888 63.216 141.657 63.6474 141.301 63.9602C140.945 64.2731 140.487 64.4461 140.013 64.4471H113.052C112.775 64.447 112.5 64.3877 112.247 64.2731C111.994 64.1586 111.769 63.9914 111.585 63.7828ZM114.836 47.1219C114.429 47.1229 114.036 47.2715 113.73 47.5401C113.425 47.8086 113.227 48.179 113.173 48.5824L111.39 62.2774C111.359 62.5139 111.379 62.7543 111.449 62.9825C111.518 63.2106 111.636 63.4213 111.793 63.6005C111.95 63.7798 112.144 63.9233 112.361 64.0217C112.579 64.1201 112.814 64.1709 113.053 64.1709H140.013C140.42 64.1701 140.813 64.0215 141.119 63.7529C141.425 63.4844 141.623 63.1139 141.676 62.7104L143.46 49.0154C143.49 48.7789 143.47 48.5385 143.401 48.3104C143.331 48.0822 143.214 47.8715 143.057 47.6923C142.899 47.5131 142.706 47.3695 142.488 47.2711C142.271 47.1728 142.035 47.1219 141.797 47.1219H114.836Z" fill="#7C7C7C"/>
<path d="M111.528 64.3099H138.488C138.929 64.3099 139.355 64.1494 139.686 63.8586C140.017 63.5677 140.231 63.1662 140.288 62.7291L142.071 49.0338C142.105 48.7778 142.083 48.5177 142.008 48.2707C141.933 48.0238 141.806 47.7957 141.635 47.6017C141.465 47.4077 141.255 47.2524 141.02 47.1459C140.785 47.0394 140.53 46.9844 140.272 46.9844H113.311C112.871 46.9844 112.445 47.1448 112.114 47.4356C111.782 47.7265 111.568 48.1279 111.512 48.565L109.728 62.2601C109.695 62.5161 109.716 62.7762 109.791 63.0232C109.867 63.2702 109.994 63.4983 110.164 63.6923C110.334 63.8863 110.544 64.0418 110.779 64.1483C111.014 64.2548 111.269 64.3099 111.528 64.3099Z" fill="white"/>
<path d="M110.06 63.7828C109.877 63.5741 109.74 63.3287 109.659 63.0629C109.578 62.7972 109.555 62.5173 109.591 62.2418L111.374 48.5467C111.436 48.0767 111.667 47.6452 112.023 47.3324C112.379 47.0196 112.837 46.8466 113.311 46.8457H140.272C140.549 46.8457 140.824 46.9049 141.077 47.0195C141.33 47.1341 141.556 47.3013 141.739 47.51C141.923 47.7188 142.059 47.9642 142.14 48.23C142.221 48.4957 142.244 48.7757 142.208 49.0512L140.425 62.7461C140.363 63.216 140.132 63.6474 139.776 63.9602C139.42 64.273 138.962 64.446 138.488 64.4471H111.528C111.25 64.4471 110.975 64.3878 110.722 64.2732C110.469 64.1587 110.243 63.9915 110.06 63.7828ZM113.311 47.1219C112.904 47.1228 112.511 47.2714 112.206 47.5399C111.9 47.8085 111.702 48.1789 111.648 48.5824L109.865 62.2774C109.834 62.5139 109.854 62.7543 109.924 62.9825C109.993 63.2106 110.11 63.4213 110.268 63.6005C110.425 63.7798 110.619 63.9233 110.836 64.0217C111.054 64.1201 111.289 64.1709 111.528 64.1709H138.488C138.895 64.1701 139.288 64.0215 139.594 63.7529C139.9 63.4844 140.098 63.1139 140.151 62.7104L141.934 49.0155C141.965 48.779 141.945 48.5386 141.876 48.3105C141.806 48.0823 141.689 47.8716 141.531 47.6924C141.374 47.5131 141.18 47.3695 140.963 47.2712C140.746 47.1728 140.51 47.1219 140.271 47.1219H113.311Z" fill="#7C7C7C"/>
<path d="M91.1517 117.703C91.1517 117.703 90.4114 121.541 86.8181 121.755C83.2247 121.969 84.0039 124.831 84.0039 124.831H97.7357V117.971L91.1517 117.703Z" fill="#3B97D2"/>
<path d="M103.473 115.281C103.473 115.281 104.502 119.052 101.372 120.83C98.2426 122.608 100.205 124.832 100.205 124.832L112.527 118.771L109.498 112.615L103.473 115.281Z" fill="#3B97D2"/>
<path d="M111.104 114.216L100.713 81.4369H119.548C123.331 81.4369 124.909 78.2286 124.909 74.4454C124.909 70.6622 121.189 67.3457 117.406 67.3457H91.986C89.6786 67.3457 87.0912 68.7569 85.8247 70.6859C84.5582 72.6149 84.9005 75.6042 85.8181 77.7214L102.457 118.134" fill="#7C7C7C"/>
<path opacity="0.8" d="M111.104 114.216L100.713 81.4369H119.548C123.331 81.4369 124.909 78.2286 124.909 74.4454C124.909 70.6622 121.189 67.3457 117.406 67.3457H91.986C89.6786 67.3457 87.0912 68.7569 85.8247 70.6859C84.5582 72.6149 84.9005 75.6042 85.8181 77.7214L102.457 118.134" fill="#7C7C7C"/>
<path d="M98.8088 120.455L102.095 81.4362L124.908 81.4346C130.253 81.0157 132.701 78.0861 132.624 74.3038C132.547 70.5693 130.656 66.8809 126.938 66.8809H96.1916C93.4409 66.9373 90.2565 69.5392 90.2565 72.5318L88.6587 120.002" fill="#7C7C7C"/>
<path d="M134.18 66.9266C134.18 66.9266 135.193 73.5333 133.587 77.2064C131.583 81.7921 124.067 81.4348 124.067 81.4348L124.49 66.8809L134.18 66.9266Z" fill="#7C7C7C"/>
<path d="M135.297 66.1806L135.327 66.1823C135.327 66.1823 135.306 65.6195 135.297 66.1806Z" fill="#7C7C7C"/>
<path d="M135.26 66.1806L135.29 66.1823C135.29 66.1823 135.268 65.6195 135.26 66.1806Z" fill="#7C7C7C"/>
<path d="M86.3532 39.3952C86.4069 39.2888 86.4924 39.2016 86.5978 39.1458C86.7032 39.09 86.8233 39.0683 86.9415 39.0837C86.9406 39.0732 86.9429 39.0627 86.9482 39.0535C86.9537 39.0464 86.9609 39.0409 86.9692 39.0375C86.9775 39.0342 86.9865 39.0331 86.9954 39.0343L86.5963 38.7482C86.4771 38.6664 86.3915 38.5443 86.3553 38.4044C86.319 38.2645 86.3346 38.1162 86.3992 37.9868C86.4672 37.8611 86.5794 37.7651 86.7142 37.7174C86.8489 37.6697 86.9966 37.6737 87.1285 37.7287C87.1275 37.7231 87.1313 37.7177 87.1321 37.7119L86.9682 37.5944C86.8561 37.517 86.7742 37.4032 86.7363 37.2724C86.6985 37.1416 86.7069 37.0017 86.7602 36.8763C86.7954 36.7984 86.8474 36.7293 86.9126 36.6739C86.9777 36.6185 87.0543 36.5782 87.1369 36.556C87.2195 36.5338 87.3059 36.5302 87.3901 36.5455C87.4742 36.5607 87.5539 36.5944 87.6234 36.6442L88.0019 36.9154C88.003 36.9132 88.0019 36.9106 88.0034 36.9085C88.0049 36.9064 88.0089 36.9056 88.0111 36.9034C87.9243 36.8056 87.8732 36.6813 87.8662 36.5507C87.8593 36.42 87.897 36.291 87.973 36.1846C88.1517 35.8972 88.564 35.9559 88.8087 36.1312L91.0361 37.6698L90.6383 36.9981C90.5581 36.8692 90.5299 36.7145 90.5593 36.5655C90.5888 36.4166 90.6736 36.2843 90.7968 36.1955C90.862 36.1518 90.9354 36.122 91.0125 36.1076C91.0896 36.0933 91.1688 36.0949 91.2453 36.1122C91.3218 36.1295 91.394 36.1622 91.4574 36.2084C91.5209 36.2545 91.5742 36.3131 91.6143 36.3805L93.7881 40.0397C94.0431 40.469 94.1207 40.9809 94.0043 41.4665C93.888 41.9521 93.5869 42.3732 93.165 42.6403C92.6757 42.9502 92.105 43.1068 91.5261 43.0902C90.9473 43.0736 90.3865 42.8844 89.9159 42.547L86.5521 40.1361C86.4404 40.053 86.36 39.9347 86.3239 39.8002C86.2878 39.6658 86.2981 39.5231 86.3532 39.3952Z" fill="#FABEA6"/>
<g opacity="0.25">
<path opacity="0.25" d="M90.206 38.435C90.1978 38.4462 90.1856 38.4538 90.1718 38.4562C90.1581 38.4585 90.144 38.4553 90.1326 38.4474L88.0163 36.9817C88.0048 36.9736 87.997 36.9613 87.9945 36.9474C87.992 36.9336 87.9951 36.9193 88.0031 36.9078C88.0111 36.8962 88.0234 36.8882 88.0372 36.8857C88.051 36.8831 88.0653 36.8861 88.0769 36.894L90.1933 38.36C90.1991 38.364 90.2041 38.369 90.2079 38.3749C90.2117 38.3807 90.2144 38.3873 90.2157 38.3942C90.2169 38.4011 90.2168 38.4082 90.2154 38.415C90.2139 38.4219 90.2111 38.4284 90.2071 38.4342L90.206 38.435Z" fill="#7C7C7C"/>
</g>
<g opacity="0.25">
<path opacity="0.25" d="M89.5852 39.3861C89.5771 39.3973 89.5648 39.4049 89.551 39.4072C89.5373 39.4096 89.5232 39.4064 89.5118 39.3985L87.1506 37.7626C87.1389 37.7546 87.1309 37.7423 87.1283 37.7284C87.1258 37.7145 87.1288 37.7002 87.1368 37.6885C87.1451 37.6772 87.1573 37.6695 87.1711 37.6669C87.1849 37.6644 87.1991 37.6671 87.2109 37.6747L89.5728 39.3105C89.5786 39.3145 89.5835 39.3195 89.5874 39.3254C89.5912 39.3313 89.5938 39.3379 89.5951 39.3447C89.5964 39.3516 89.5963 39.3587 89.5948 39.3656C89.5934 39.3724 89.5906 39.3789 89.5866 39.3847L89.5852 39.3861Z" fill="#7C7C7C"/>
</g>
<g opacity="0.25">
<path opacity="0.25" d="M88.9192 40.42C88.911 40.4312 88.8987 40.4388 88.885 40.4411C88.8713 40.4435 88.8572 40.4403 88.8457 40.4324L86.9617 39.1275C86.9505 39.1193 86.943 39.107 86.9407 39.0933C86.9384 39.0796 86.9415 39.0656 86.9495 39.0542C86.9574 39.0427 86.9694 39.0349 86.9831 39.0322C86.9967 39.0296 87.0108 39.0324 87.0224 39.04L88.9065 40.3448C88.9123 40.3488 88.9172 40.3539 88.921 40.3597C88.9249 40.3656 88.9275 40.3722 88.9288 40.3791C88.93 40.3859 88.93 40.393 88.9285 40.3999C88.9271 40.4067 88.9243 40.4132 88.9203 40.419L88.9192 40.42Z" fill="#7C7C7C"/>
</g>
<path d="M95.071 39.207L101.455 50.0795L109.245 39.8624L115.714 45.6946L104.665 60.0022L104.593 60.1039C104.151 60.7096 103.562 61.1927 102.881 61.5077C102.201 61.8228 101.451 61.9594 100.703 61.9046C99.9554 61.8499 99.2338 61.6056 98.6063 61.1949C97.9789 60.7842 97.4664 60.2204 97.1171 59.5569L88.0391 43.1173L95.071 39.207Z" fill="#3B97D2"/>
<path d="M102.08 51.3861C102.094 51.3861 102.108 51.3825 102.12 51.3758C102.132 51.369 102.142 51.3592 102.149 51.3474C102.157 51.3355 102.161 51.322 102.161 51.3082C102.162 51.2943 102.159 51.2805 102.153 51.2682L101.527 50.0419C101.517 50.0234 101.5 50.0097 101.479 50.0035C101.459 49.9974 101.438 49.9993 101.419 50.0089C101.4 50.0184 101.386 50.0349 101.379 50.0548C101.372 50.0747 101.373 50.0965 101.382 50.1156L102.008 51.3419C102.015 51.3552 102.025 51.3664 102.038 51.3742C102.051 51.382 102.065 51.3861 102.08 51.3861Z" fill="#7C7C7C"/>
<path d="M109.693 50.0182L109.531 50.0273L109.726 53.4613L109.888 53.4521L109.693 50.0182Z" fill="#7C7C7C"/>
<path d="M130.264 25.165C130.264 25.165 130.563 28.9874 131.44 30.3654C133.963 34.3321 134.733 38.8187 132.279 41.1955C129.825 43.5723 114 43.7884 112.739 38.4017C111.677 33.866 113.837 33.3521 114.321 29.5947C114.54 27.8948 115.154 24.3281 115.154 24.3281" fill="#7C7C7C"/>
<path d="M116.768 37.54C116.795 37.5364 117.098 42.5662 122.942 42.1282C126.988 41.8251 128.43 37.5328 128.523 37.5328C128.086 37.4401 127.352 37.3054 127.158 37.2014C126.521 36.8591 125.733 36.503 125.528 35.2659C125.409 34.5528 125.61 30.9051 125.548 30.1836L119.338 31.5697C119.425 33.0933 120.032 36.6254 117.904 37.2505C117.55 37.3545 117.168 37.4496 116.768 37.54Z" fill="#FABEA6"/>
<path opacity="0.52" d="M119.251 35.8068C119.348 35.4933 119.411 35.1701 119.438 34.843C119.506 34.0966 119.492 33.3449 119.397 32.6014C120.659 32.431 121.849 31.9101 122.829 31.0977C122.945 31.5235 123.579 33.3843 123.403 33.789C123.071 34.5541 121.512 35.8068 119.251 35.8068Z" fill="#7C7C7C"/>
<path d="M120.074 34.2241C122.525 34.4326 125.681 33.4166 126.3 30.1489L126.858 27.2003C127.476 23.9324 126.261 20.9589 123.185 20.3762C120.108 19.7939 117.307 22.0078 116.688 25.2757L116.441 26.581C116.204 27.8349 115.701 33.852 120.074 34.2241Z" fill="#FABEA6"/>
<path d="M117.318 26.7225C117.531 26.7225 117.703 26.5498 117.703 26.3368C117.703 26.1238 117.531 25.9512 117.318 25.9512C117.105 25.9512 116.932 26.1238 116.932 26.3368C116.932 26.5498 117.105 26.7225 117.318 26.7225Z" fill="#7C7C7C"/>
<path d="M121.269 27.2518C121.482 27.2518 121.655 27.0791 121.655 26.8661C121.655 26.6531 121.482 26.4805 121.269 26.4805C121.056 26.4805 120.884 26.6531 120.884 26.8661C120.884 27.0791 121.056 27.2518 121.269 27.2518Z" fill="#7C7C7C"/>
<path d="M119.101 29.6922C119.099 29.692 119.097 29.6918 119.095 29.6913C118.97 29.6668 118.847 29.6354 118.726 29.5973C118.545 29.5392 118.308 29.4428 118.339 29.2797C118.374 29.0936 119.264 27.1809 119.366 26.9637C119.375 26.9447 119.391 26.9299 119.411 26.9228C119.43 26.9156 119.452 26.9165 119.471 26.9253C119.49 26.9342 119.505 26.9502 119.512 26.9699C119.519 26.9896 119.518 27.0114 119.509 27.0304C119.13 27.845 118.518 29.1844 118.495 29.3087C118.515 29.3669 118.815 29.4772 119.125 29.5359C119.145 29.5395 119.163 29.5508 119.175 29.5675C119.187 29.5842 119.192 29.605 119.189 29.6253C119.186 29.6456 119.175 29.664 119.159 29.6765C119.142 29.6889 119.122 29.6945 119.101 29.692L119.101 29.6922Z" fill="#7C7C7C"/>
<path d="M119.557 31.1049C119.055 31.0397 118.575 30.8575 118.156 30.573C118.139 30.5615 118.127 30.5436 118.122 30.5231C118.118 30.5026 118.122 30.4812 118.133 30.4636C118.145 30.4461 118.163 30.4338 118.183 30.4294C118.204 30.4251 118.225 30.4291 118.243 30.4406C119.148 31.0307 120.049 31.1261 120.846 30.7167C120.862 30.7079 120.878 30.7 120.895 30.6931C120.915 30.686 120.937 30.687 120.956 30.6959C120.974 30.7048 120.989 30.7208 120.996 30.7405C121.003 30.7602 121.002 30.782 120.993 30.8009C120.985 30.8199 120.969 30.8346 120.949 30.8417C120.943 30.8443 120.932 30.8498 120.918 30.8573C120.499 31.0734 120.025 31.1596 119.557 31.1049Z" fill="#7C7C7C"/>
<path d="M129.319 28.2279L126.561 27.7222C124.472 26.8769 123.841 23.2608 123.841 23.2608C123.841 23.2608 121.303 25.7338 115.155 24.3273C115.155 24.3273 116.388 15.7524 125.472 18.2456C128.401 19.0497 130.503 22.0015 130.242 25.9462C130.057 28.7108 129.319 28.2279 129.319 28.2279Z" fill="#7C7C7C"/>
<path d="M125.92 31.1093C126.855 31.2862 127.802 30.4294 127.979 29.4937C128.156 28.5581 127.496 27.8995 126.561 27.7227L125.96 28.258L125.116 30.9566L125.92 31.1093Z" fill="#FABEA6"/>
<path d="M118.802 25.401C118.529 25.2248 118.214 25.1253 117.89 25.1129C117.73 25.1058 117.57 25.1227 117.416 25.163C117.263 25.2024 117.115 25.2609 116.976 25.3372C116.958 25.3478 116.945 25.3647 116.939 25.3845C116.934 25.4043 116.935 25.4256 116.944 25.4442C116.953 25.4628 116.969 25.4774 116.988 25.4851C117.007 25.4928 117.029 25.493 117.048 25.4857L117.054 25.4831C117.182 25.4204 117.317 25.374 117.457 25.345C117.595 25.3155 117.737 25.307 117.878 25.3199C118.157 25.3432 118.424 25.4399 118.654 25.6003L118.661 25.6057C118.674 25.6166 118.69 25.6247 118.706 25.6295C118.722 25.6343 118.739 25.6357 118.756 25.6336C118.773 25.6315 118.79 25.626 118.804 25.6173C118.819 25.6086 118.832 25.597 118.842 25.5832C118.852 25.5695 118.859 25.5538 118.862 25.5371C118.866 25.5205 118.866 25.5033 118.863 25.4866C118.86 25.4698 118.853 25.454 118.843 25.4399C118.834 25.4259 118.821 25.414 118.807 25.405L118.802 25.401Z" fill="#7C7C7C"/>
<path d="M121.262 25.9813C121.534 25.9148 121.819 25.9214 122.087 26.0002C122.223 26.0391 122.352 26.0983 122.47 26.1757C122.59 26.2534 122.7 26.3458 122.796 26.4508L122.801 26.4552C122.816 26.469 122.836 26.4765 122.857 26.4763C122.877 26.4761 122.897 26.4681 122.912 26.454C122.928 26.4399 122.937 26.4207 122.938 26.4001C122.94 26.3795 122.934 26.359 122.921 26.3427C122.82 26.2216 122.703 26.1137 122.575 26.0216C122.445 25.9281 122.302 25.8546 122.15 25.8035C121.843 25.6978 121.514 25.6768 121.196 25.7426C121.165 25.7512 121.139 25.7711 121.123 25.7981C121.107 25.8251 121.102 25.8573 121.108 25.8882C121.115 25.919 121.133 25.9461 121.159 25.9641C121.185 25.9821 121.216 25.9896 121.248 25.985L121.253 25.9838L121.262 25.9813Z" fill="#7C7C7C"/>
<path d="M119.45 31.8467C119.359 31.8364 119.269 31.8183 119.181 31.7927C119.161 31.7869 119.144 31.7734 119.134 31.755C119.124 31.7367 119.121 31.7151 119.127 31.6949C119.133 31.6748 119.146 31.6578 119.165 31.6476C119.183 31.6375 119.205 31.635 119.225 31.6409C119.754 31.7927 120.055 31.5914 120.067 31.5827C120.084 31.5707 120.106 31.5659 120.126 31.5695C120.147 31.5732 120.165 31.5848 120.177 31.602C120.189 31.6191 120.194 31.6404 120.191 31.661C120.187 31.6817 120.175 31.7001 120.158 31.7121C119.945 31.8374 119.694 31.885 119.45 31.8467Z" fill="#7C7C7C"/>
<path d="M126.555 27.6865L126.583 27.6101C123.088 26.3556 123.943 22.9262 123.952 22.8917L123.873 22.8711C123.864 22.9063 122.99 26.4064 126.555 27.6865Z" fill="#7C7C7C"/>
<path opacity="0.1" d="M122.368 29.4768C122.4 29.1809 122.099 28.9058 121.695 28.8624C121.292 28.819 120.939 29.0237 120.907 29.3196C120.875 29.6156 121.177 29.8907 121.58 29.9341C121.984 29.9775 122.336 29.7728 122.368 29.4768Z" fill="#7C7C7C"/>
<path opacity="0.1" d="M117.31 28.8024C117.277 29.0979 116.924 29.3024 116.521 29.2594C116.451 29.252 116.382 29.2373 116.316 29.2155C116.293 28.8638 116.288 28.5251 116.295 28.2119C116.406 28.1827 116.522 28.1745 116.637 28.1879C117.04 28.2307 117.341 28.5058 117.31 28.8024Z" fill="#7C7C7C"/>
<path d="M109.507 48.6131C109.691 50.7756 110.586 64.2165 110.763 66.8806L134.181 66.9303C134.319 64.5277 135.91 54.0235 136.433 49.3256C136.931 44.8429 137.91 42.5985 137.192 41.2732C136.02 39.1072 132.817 37.8556 130.633 37.5599C129.3 37.3794 127.294 37.25 127.294 37.25C127.294 37.25 127.124 40.6854 123.075 40.8766C117.562 41.1366 117.93 37.25 117.903 37.25C117.01 37.25 111.909 37.8152 110.66 38.555C107.26 40.5684 109.116 44.0306 109.507 48.6131Z" fill="#3B97D2"/>
<path d="M94.307 50.1243L96.5643 61.0954C96.6101 61.3182 96.7309 61.5185 96.9066 61.6629C97.0823 61.8074 97.3022 61.8873 97.5296 61.8892L113.072 62.0215C113.221 62.0228 113.367 61.9909 113.502 61.9281C113.636 61.8653 113.755 61.7733 113.849 61.6588C113.943 61.5443 114.01 61.4101 114.046 61.2662C114.082 61.1223 114.085 60.9722 114.055 60.8269L111.798 49.8558C111.752 49.6331 111.631 49.4328 111.455 49.2884C111.28 49.1439 111.06 49.0641 110.832 49.0621L95.2893 48.9297C95.1411 48.9285 94.9944 48.9604 94.8601 49.0231C94.7257 49.0859 94.6071 49.1779 94.5129 49.2924C94.4187 49.4069 94.3514 49.5411 94.3157 49.685C94.2801 49.829 94.2771 49.979 94.307 50.1243Z" fill="#7C7C7C"/>
<path d="M108.801 57.918C108.792 58.0624 108.837 58.205 108.925 58.3194C109.014 58.4339 109.141 58.5125 109.282 58.5408L109.761 58.6462C109.752 58.6491 109.745 58.654 109.738 58.6604C109.732 58.6669 109.728 58.6749 109.725 58.6835C109.724 58.6937 109.726 58.7039 109.732 58.7127C109.617 58.745 109.514 58.8123 109.439 58.9054C109.364 58.9984 109.32 59.1125 109.313 59.2317C109.313 59.3707 109.359 59.5059 109.444 59.6154C109.53 59.7249 109.65 59.8023 109.785 59.8351L113.825 60.7327C114.032 60.7788 114.243 60.802 114.455 60.8017C114.926 60.8017 115.391 60.6869 115.808 60.4674C116.226 60.2478 116.583 59.93 116.851 59.5414C117.134 59.1303 117.246 58.6249 117.162 58.1327C117.078 57.6404 116.806 57.2002 116.403 56.9057L112.966 54.3926C112.89 54.3372 112.802 54.301 112.71 54.2871L113.026 55.8231L112.942 55.8037L112.924 55.8005L110.288 55.2645C109.994 55.1996 109.592 55.3059 109.54 55.6407C109.512 55.7686 109.529 55.9022 109.586 56.0197C109.644 56.1372 109.74 56.2317 109.858 56.2879C109.856 56.2894 109.853 56.2911 109.853 56.2944C109.853 56.2977 109.854 56.2993 109.854 56.3024L109.399 56.2019C109.315 56.1835 109.229 56.1837 109.146 56.2027C109.063 56.2217 108.985 56.2588 108.918 56.3115C108.85 56.3642 108.796 56.4311 108.758 56.5075C108.719 56.5838 108.699 56.6677 108.697 56.753C108.697 56.8893 108.744 57.0215 108.83 57.127C108.917 57.2325 109.037 57.3049 109.17 57.332L109.367 57.3757C109.368 57.3822 109.367 57.3887 109.37 57.3937C109.227 57.3947 109.089 57.449 108.984 57.5459C108.879 57.6429 108.813 57.7755 108.801 57.918Z" fill="#FABEA6"/>
<g opacity="0.25">
<path opacity="0.25" d="M112.479 56.8347C112.475 56.8482 112.467 56.86 112.456 56.8676C112.444 56.8751 112.43 56.8778 112.416 56.875L109.894 56.3577C109.887 56.3565 109.88 56.3539 109.874 56.35C109.868 56.3461 109.863 56.3411 109.859 56.3352C109.855 56.3293 109.853 56.3227 109.851 56.3157C109.85 56.3087 109.85 56.3015 109.851 56.2945C109.853 56.2876 109.855 56.281 109.859 56.2751C109.863 56.2692 109.869 56.2642 109.875 56.2604C109.881 56.2565 109.887 56.2539 109.894 56.2527C109.901 56.2515 109.909 56.2517 109.915 56.2533L112.437 56.7706C112.444 56.772 112.451 56.7747 112.457 56.7787C112.462 56.7826 112.467 56.7876 112.471 56.7934C112.475 56.7993 112.478 56.8058 112.479 56.8127C112.48 56.8195 112.48 56.8266 112.479 56.8334L112.479 56.8347Z" fill="#7C7C7C"/>
</g>
<g opacity="0.25">
<path opacity="0.25" d="M112.282 57.9526C112.278 57.9661 112.27 57.9779 112.258 57.9854C112.247 57.9929 112.233 57.9956 112.219 57.9928L109.404 57.4156C109.397 57.4142 109.391 57.4115 109.385 57.4075C109.379 57.4036 109.374 57.3986 109.371 57.3928C109.367 57.3869 109.364 57.3804 109.363 57.3735C109.361 57.3667 109.362 57.3596 109.363 57.3528C109.366 57.3392 109.375 57.3273 109.386 57.3196C109.398 57.312 109.412 57.309 109.426 57.3113L112.24 57.8885C112.254 57.8914 112.266 57.8997 112.274 57.9115C112.282 57.9233 112.285 57.9377 112.282 57.9515L112.282 57.9526Z" fill="#7C7C7C"/>
</g>
<g opacity="0.25">
<path opacity="0.25" d="M112.075 59.166C112.072 59.1796 112.063 59.1914 112.052 59.1989C112.04 59.2065 112.026 59.2091 112.012 59.2064L109.767 58.746C109.753 58.743 109.741 58.7347 109.734 58.7229C109.726 58.7112 109.723 58.6969 109.726 58.6832C109.729 58.6694 109.737 58.6574 109.749 58.6496C109.76 58.6418 109.775 58.6389 109.788 58.6416L112.033 59.102C112.047 59.1048 112.059 59.113 112.067 59.1248C112.075 59.1366 112.078 59.151 112.075 59.1648L112.075 59.166Z" fill="#7C7C7C"/>
</g>
<path d="M114.076 62.3309L135.996 66.2922C136.68 66.3667 137.372 66.2816 138.018 66.0437C138.663 65.8058 139.245 65.4215 139.717 64.921C140.189 64.4205 140.539 63.8174 140.739 63.1591C140.939 62.5007 140.984 61.8049 140.87 61.1264L137.801 42.8857C137.705 42.3076 137.497 41.754 137.187 41.2567C136.877 40.7594 136.472 40.3282 135.995 39.9876C135.519 39.6471 134.979 39.404 134.408 39.2722C133.837 39.1405 133.246 39.1227 132.668 39.2199C132.09 39.3171 131.538 39.5274 131.041 39.8386C130.545 40.1499 130.115 40.5561 129.776 41.0339C129.436 41.5117 129.195 42.0517 129.065 42.623C128.935 43.1943 128.919 43.7857 129.018 44.3632L131.111 56.9203L115.039 54.9019L114.076 62.3309Z" fill="#3B97D2"/>
<path d="M135.996 66.3734C136.016 66.3731 136.035 66.3654 136.05 66.3516C136.065 66.3379 136.074 66.3192 136.076 66.2991C136.077 66.279 136.072 66.259 136.059 66.243C136.047 66.227 136.029 66.216 136.01 66.2124L114.165 62.2648L115.108 54.9924L131.098 57.0007C131.111 57.0024 131.124 57.0011 131.136 56.9969C131.148 56.9927 131.159 56.9856 131.167 56.9764C131.176 56.9673 131.183 56.9564 131.186 56.9444C131.19 56.9324 131.191 56.9197 131.189 56.9074L129.86 48.8824C129.858 48.8718 129.854 48.8617 129.849 48.8526C129.843 48.8435 129.836 48.8356 129.827 48.8294C129.818 48.8232 129.809 48.8188 129.798 48.8164C129.788 48.8141 129.777 48.8138 129.766 48.8157C129.745 48.8192 129.726 48.8311 129.714 48.8486C129.701 48.8661 129.696 48.8878 129.7 48.909L131.012 56.8267L115.049 54.8222C115.028 54.8197 115.006 54.8256 114.989 54.8387C114.973 54.8518 114.961 54.871 114.959 54.8922L113.995 62.321C113.992 62.3417 113.998 62.3626 114.01 62.3794C114.022 62.3962 114.04 62.4076 114.061 62.4113L135.981 66.372C135.986 66.3729 135.991 66.3733 135.996 66.3734Z" fill="#7C7C7C"/>
<path d="M131.124 56.8396L131.098 57L132.508 57.2257L132.534 57.0654L131.124 56.8396Z" fill="#7C7C7C"/>
<path d="M150.666 124.918H0.0966587C0.0710232 124.918 0.0464377 124.908 0.0283107 124.89C0.0101837 124.871 0 124.847 0 124.821C0 124.796 0.0101837 124.771 0.0283107 124.753C0.0464377 124.735 0.0710232 124.725 0.0966587 124.725H150.666C150.692 124.725 150.716 124.735 150.734 124.753C150.753 124.771 150.763 124.796 150.763 124.821C150.763 124.847 150.753 124.871 150.734 124.89C150.716 124.908 150.692 124.918 150.666 124.918H150.666Z" fill="#7C7C7C"/>
<g opacity="0.65">
<path opacity="0.65" d="M150.666 124.918H0.0966587C0.0710232 124.918 0.0464377 124.908 0.0283107 124.89C0.0101837 124.871 0 124.847 0 124.821C0 124.796 0.0101837 124.771 0.0283107 124.753C0.0464377 124.735 0.0710232 124.725 0.0966587 124.725H150.666C150.692 124.725 150.716 124.735 150.734 124.753C150.753 124.771 150.763 124.796 150.763 124.821C150.763 124.847 150.753 124.871 150.734 124.89C150.716 124.908 150.692 124.918 150.666 124.918H150.666Z" fill="#7C7C7C"/>
</g>
<path d="M9.35616 125L9.08496 124.948L13.3236 82.8281L13.5948 82.8803L9.35616 125Z" fill="#7C7C7C"/>
<path d="M25.1389 125L24.8677 124.948L29.1062 82.8281L29.3774 82.8803L25.1389 125Z" fill="#7C7C7C"/>
<path d="M60.0257 125L60.2969 124.948L56.0583 82.8281L55.7871 82.8803L60.0257 125Z" fill="#7C7C7C"/>
<path d="M44.2429 125L44.5141 124.948L40.2756 82.8281L40.0044 82.8803L44.2429 125Z" fill="#7C7C7C"/>
<path d="M38.6214 64.2916L38.3477 64.3281L40.8237 82.8732L41.0975 82.8367L38.6214 64.2916Z" fill="#7C7C7C"/>
<path d="M10.2005 64.2916L9.92676 64.3281L12.4029 82.8732L12.6766 82.8367L10.2005 64.2916Z" fill="#7C7C7C"/>
<path d="M41.0741 81.4961H13.275C12.525 81.4961 11.917 82.1041 11.917 82.8541V82.8543C11.917 83.6043 12.525 84.2123 13.275 84.2123H41.0741C41.8241 84.2123 42.4322 83.6043 42.4322 82.8543V82.8541C42.4322 82.1041 41.8241 81.4961 41.0741 81.4961Z" fill="#7C7C7C"/>
<path opacity="0.8" d="M41.0741 81.4961H13.275C12.525 81.4961 11.917 82.1041 11.917 82.8541V82.8543C11.917 83.6043 12.525 84.2123 13.275 84.2123H41.0741C41.8241 84.2123 42.4322 83.6043 42.4322 82.8543V82.8541C42.4322 82.1041 41.8241 81.4961 41.0741 81.4961Z" fill="white"/>
<path d="M41.074 84.3497H13.2749C13.0785 84.3497 12.8839 84.311 12.7024 84.2358C12.5209 84.1606 12.3559 84.0504 12.217 83.9115C12.0781 83.7725 11.9679 83.6076 11.8927 83.4261C11.8175 83.2446 11.7788 83.05 11.7788 82.8536C11.7788 82.6571 11.8175 82.4625 11.8927 82.281C11.9679 82.0995 12.0781 81.9346 12.217 81.7956C12.3559 81.6567 12.5209 81.5465 12.7024 81.4713C12.8839 81.3961 13.0785 81.3574 13.2749 81.3574H41.074C41.4708 81.3574 41.8514 81.5151 42.1319 81.7956C42.4125 82.0762 42.5701 82.4568 42.5701 82.8536C42.5701 83.2504 42.4125 83.6309 42.1319 83.9115C41.8514 84.1921 41.4708 84.3497 41.074 84.3497ZM13.2749 81.6337C13.1147 81.6337 12.9561 81.6653 12.8081 81.7266C12.6601 81.7879 12.5256 81.8778 12.4123 81.991C12.299 82.1043 12.2092 82.2388 12.1478 82.3868C12.0865 82.5348 12.055 82.6935 12.055 82.8537C12.055 83.0139 12.0865 83.1725 12.1478 83.3206C12.2092 83.4686 12.299 83.6031 12.4123 83.7163C12.5256 83.8296 12.6601 83.9195 12.8081 83.9808C12.9561 84.0421 13.1147 84.0737 13.2749 84.0737H41.074C41.3976 84.0737 41.7079 83.9451 41.9367 83.7163C42.1654 83.4875 42.294 83.1772 42.294 82.8537C42.294 82.5301 42.1654 82.2198 41.9367 81.991C41.7079 81.7623 41.3976 81.6337 41.074 81.6337H13.2749Z" fill="#7C7C7C"/>
<path d="M56.3319 81.4961H28.5329C27.7828 81.4961 27.1748 82.1041 27.1748 82.8541V82.8543C27.1748 83.6043 27.7828 84.2123 28.5329 84.2123H56.3319C57.082 84.2123 57.69 83.6043 57.69 82.8543V82.8541C57.69 82.1041 57.082 81.4961 56.3319 81.4961Z" fill="white"/>
<path d="M56.3318 84.3497H28.5328C28.3363 84.3497 28.1417 84.311 27.9602 84.2358C27.7787 84.1606 27.6138 84.0504 27.4748 83.9115C27.3359 83.7725 27.2257 83.6076 27.1505 83.4261C27.0753 83.2446 27.0366 83.05 27.0366 82.8536C27.0366 82.6571 27.0753 82.4625 27.1505 82.281C27.2257 82.0995 27.3359 81.9346 27.4748 81.7956C27.6138 81.6567 27.7787 81.5465 27.9602 81.4713C28.1417 81.3961 28.3363 81.3574 28.5328 81.3574H56.3318C56.5283 81.3574 56.7229 81.3961 56.9044 81.4713C57.0859 81.5465 57.2508 81.6567 57.3898 81.7956C57.5287 81.9346 57.6389 82.0995 57.7141 82.281C57.7893 82.4625 57.828 82.6571 57.828 82.8536C57.828 83.05 57.7893 83.2446 57.7141 83.4261C57.6389 83.6076 57.5287 83.7725 57.3898 83.9115C57.2508 84.0504 57.0859 84.1606 56.9044 84.2358C56.7229 84.311 56.5283 84.3497 56.3318 84.3497ZM28.5328 81.6337C28.3726 81.6337 28.2139 81.6653 28.0659 81.7266C27.9179 81.7879 27.7834 81.8778 27.6701 81.991C27.5568 82.1043 27.467 82.2388 27.4057 82.3868C27.3443 82.5348 27.3128 82.6935 27.3128 82.8537C27.3128 83.0139 27.3443 83.1725 27.4057 83.3206C27.467 83.4686 27.5568 83.6031 27.6701 83.7163C27.7834 83.8296 27.9179 83.9195 28.0659 83.9808C28.2139 84.0421 28.3726 84.0737 28.5328 84.0737H56.3318C56.492 84.0737 56.6507 84.0421 56.7987 83.9808C56.9467 83.9195 57.0812 83.8296 57.1945 83.7163C57.3078 83.6031 57.3976 83.4686 57.4589 83.3206C57.5202 83.1725 57.5518 83.0139 57.5518 82.8537C57.5518 82.6935 57.5202 82.5348 57.4589 82.3868C57.3976 82.2388 57.3078 82.1043 57.1945 81.991C57.0812 81.8778 56.9467 81.7879 56.7987 81.7266C56.6507 81.6653 56.492 81.6337 56.3318 81.6337H28.5328Z" fill="#7C7C7C"/>
<path d="M37.099 64.3099H10.1385C9.6977 64.3099 9.27197 64.1494 8.94077 63.8586C8.60956 63.5677 8.39552 63.1662 8.33858 62.7291L6.55523 49.0338C6.5219 48.7778 6.54356 48.5177 6.61877 48.2707C6.69397 48.0238 6.82099 47.7957 6.99134 47.6017C7.16169 47.4077 7.37146 47.2524 7.60664 47.1459C7.84182 47.0394 8.097 46.9844 8.35515 46.9844H35.3156C35.7564 46.9844 36.1821 47.1448 36.5134 47.4356C36.8446 47.7265 37.0586 48.1279 37.1156 48.565L38.8988 62.2601C38.9322 62.5161 38.9106 62.7763 38.8354 63.0233C38.7603 63.2703 38.6333 63.4984 38.4629 63.6924C38.2926 63.8864 38.0828 64.0419 37.8476 64.1484C37.6124 64.2548 37.3572 64.3099 37.099 64.3099Z" fill="#7C7C7C"/>
<path opacity="0.8" d="M37.099 64.3099H10.1385C9.6977 64.3099 9.27197 64.1494 8.94077 63.8586C8.60956 63.5677 8.39552 63.1662 8.33858 62.7291L6.55523 49.0338C6.5219 48.7778 6.54356 48.5177 6.61877 48.2707C6.69397 48.0238 6.82099 47.7957 6.99134 47.6017C7.16169 47.4077 7.37146 47.2524 7.60664 47.1459C7.84182 47.0394 8.097 46.9844 8.35515 46.9844H35.3156C35.7564 46.9844 36.1821 47.1448 36.5134 47.4356C36.8446 47.7265 37.0586 48.1279 37.1156 48.565L38.8988 62.2601C38.9322 62.5161 38.9106 62.7763 38.8354 63.0233C38.7603 63.2703 38.6333 63.4984 38.4629 63.6924C38.2926 63.8864 38.0828 64.0419 37.8476 64.1484C37.6124 64.2548 37.3572 64.3099 37.099 64.3099Z" fill="white"/>
<path d="M37.0988 64.4471H10.1384C9.6643 64.446 9.20673 64.273 8.85054 63.9602C8.49435 63.6474 8.26373 63.216 8.20145 62.7461L6.41824 49.0512C6.38233 48.7757 6.40561 48.4957 6.48651 48.23C6.56741 47.9642 6.70408 47.7188 6.88739 47.51C7.0707 47.3013 7.29643 47.1341 7.54951 47.0195C7.80259 46.9049 8.0772 46.8457 8.355 46.8457H35.3155C35.7895 46.8468 36.2471 47.0197 36.6033 47.3326C36.9595 47.6454 37.19 48.0768 37.2523 48.5467L39.0356 62.2418C39.0715 62.5173 39.0482 62.7972 38.9673 63.0629C38.8864 63.3287 38.7497 63.5741 38.5664 63.7828C38.3831 63.9916 38.1574 64.1588 37.9043 64.2733C37.6512 64.3879 37.3766 64.4471 37.0988 64.4471ZM8.355 47.1219C8.11649 47.1219 7.88073 47.1728 7.66344 47.2711C7.44616 47.3695 7.25236 47.5131 7.09497 47.6923C6.93758 47.8715 6.82023 48.0822 6.75075 48.3104C6.68127 48.5385 6.66126 48.7789 6.69206 49.0154L8.47541 62.7104C8.52883 63.1139 8.72683 63.4844 9.03264 63.7529C9.33846 64.0215 9.73134 64.1701 10.1384 64.1709H37.0988C37.3374 64.1709 37.5731 64.1201 37.7904 64.0217C38.0077 63.9233 38.2015 63.7798 38.3589 63.6005C38.5163 63.4213 38.6336 63.2106 38.7031 62.9825C38.7726 62.7543 38.7926 62.5139 38.7618 62.2774L36.9791 48.5824C36.9257 48.1789 36.7277 47.8085 36.4219 47.5399C36.116 47.2713 35.7232 47.1228 35.3162 47.1219H8.355Z" fill="#7C7C7C"/>
<path d="M38.6233 64.3099H11.6628C11.222 64.3099 10.7963 64.1494 10.4651 63.8586C10.1339 63.5677 9.9199 63.1662 9.863 62.7291L8.07964 49.0338C8.04632 48.7778 8.06798 48.5177 8.14318 48.2707C8.21839 48.0238 8.3454 47.7957 8.51575 47.6017C8.68611 47.4077 8.89587 47.2524 9.13105 47.1459C9.36623 47.0394 9.62141 46.9844 9.87957 46.9844H36.84C37.2808 46.9844 37.7065 47.1448 38.0377 47.4356C38.3689 47.7265 38.5829 48.1279 38.6398 48.565L40.4232 62.2601C40.4566 62.5161 40.435 62.7763 40.3598 63.0233C40.2846 63.2703 40.1576 63.4984 39.9873 63.6924C39.8169 63.8864 39.6071 64.0419 39.3719 64.1483C39.1367 64.2548 38.8815 64.3099 38.6233 64.3099Z" fill="white"/>
<path d="M38.6232 64.4471H11.6627C11.1887 64.446 10.7311 64.273 10.375 63.9602C10.0188 63.6474 9.78821 63.216 9.72597 62.7461L7.94261 49.0512C7.90675 48.7757 7.93007 48.4957 8.01099 48.23C8.09192 47.9642 8.2286 47.7188 8.41192 47.5101C8.59523 47.3013 8.82096 47.1341 9.07404 47.0195C9.32711 46.905 9.60171 46.8457 9.87952 46.8457H36.8399C37.3139 46.8468 37.7715 47.0198 38.1277 47.3326C38.4839 47.6454 38.7145 48.0768 38.7768 48.5467L40.5601 62.2418C40.596 62.5173 40.5726 62.7972 40.4917 63.0629C40.4108 63.3287 40.2741 63.5741 40.0908 63.7828C39.9074 63.9915 39.6817 64.1587 39.4287 64.2733C39.1756 64.3878 38.901 64.4471 38.6232 64.4471ZM9.87952 47.1219C9.64096 47.1218 9.40515 47.1727 9.18782 47.271C8.97048 47.3694 8.77663 47.513 8.6192 47.6922C8.46177 47.8714 8.34439 48.0822 8.27488 48.3104C8.20538 48.5386 8.18536 48.779 8.21616 49.0155L9.99937 62.7104C10.0529 63.114 10.2509 63.4844 10.5568 63.753C10.8627 64.0216 11.2557 64.1701 11.6627 64.1709H38.6232C38.8617 64.1709 39.0975 64.1201 39.3148 64.0217C39.5321 63.9233 39.7259 63.7798 39.8832 63.6005C40.0406 63.4213 40.158 63.2106 40.2275 62.9825C40.2969 62.7543 40.317 62.5139 40.2862 62.2774L38.5028 48.5824C38.4494 48.1789 38.2514 47.8085 37.9456 47.5399C37.6398 47.2713 37.2469 47.1228 36.8399 47.1219H9.87952Z" fill="#7C7C7C"/>
<path d="M35.6517 25.8538C35.6517 25.8538 37.4433 24.5016 37.8873 21.3889C38.2309 18.9788 36.0078 20.5402 36.0078 20.5402C36.0078 20.5402 36.2384 18.8025 34.9722 18.9749C33.7059 19.1474 32.9976 20.9728 32.9976 20.9728" fill="#7C7C7C"/>
<path d="M28.4283 19.1797C28.4283 19.1797 22.1463 19.8533 24.4172 28.3658L24.973 28.4029L26.1014 28.4786" fill="#7C7C7C"/>
<path d="M34.5995 37.2549C34.5719 37.2514 34.2655 42.3364 28.3574 41.8936C24.2674 41.5872 22.809 37.2478 22.7153 37.2478C23.1562 37.154 23.7013 37.0118 23.9178 36.9629C24.3898 36.8534 24.8173 36.6027 25.1434 36.2442C25.4695 35.8858 25.6787 35.4365 25.7432 34.9563C25.8628 34.2355 25.6604 30.5476 25.7224 29.8184L32.0006 31.2207C31.9128 32.761 31.2989 36.332 33.4505 36.964C33.809 37.0678 34.1947 37.1641 34.5995 37.2549Z" fill="#FABEA6"/>
<path opacity="0.52" d="M32.0885 35.503C31.9902 35.1861 31.9269 34.8594 31.8998 34.5287C31.8308 33.774 31.8447 33.014 31.9412 32.2623C30.6651 32.0901 29.463 31.5634 28.4713 30.7422C28.3546 31.1727 27.7135 33.0538 27.8913 33.4631C28.2262 34.2365 29.803 35.503 32.0885 35.503Z" fill="#7C7C7C"/>
<path d="M30.7932 34.4957C28.3164 34.2736 25.3518 32.7086 25.309 29.3466L25.2698 26.3129C25.227 22.9507 26.9583 20.2027 30.1239 20.1626C33.2895 20.1222 35.6903 22.8177 35.7331 26.1798L35.7501 27.5229C35.748 27.9841 35.7144 28.4446 35.6496 28.9013C35.4872 30.1095 35.2353 31.9464 34.4154 33.1891C33.6416 34.3623 32.3753 34.6376 30.7932 34.4957Z" fill="#FABEA6"/>
<path d="M31.9419 31.4238C32.4531 31.447 32.9626 31.3497 33.4292 31.1398C33.4389 31.1356 33.4476 31.1297 33.455 31.1222C33.4623 31.1147 33.4681 31.1058 33.472 31.0961C33.4759 31.0864 33.4779 31.0759 33.4778 31.0655C33.4777 31.055 33.4755 31.0446 33.4714 31.035C33.4672 31.0253 33.4613 31.0166 33.4538 31.0092C33.4463 31.0019 33.4374 30.9961 33.4277 30.9922C33.4179 30.9883 33.4075 30.9863 33.3971 30.9864C33.3866 30.9866 33.3762 30.9887 33.3666 30.9928C32.3612 31.4209 31.4483 31.3588 30.7267 30.8114C30.7121 30.7999 30.697 30.7891 30.6814 30.7791C30.6632 30.7706 30.6425 30.7691 30.6234 30.7752C30.6042 30.7812 30.5881 30.7941 30.5781 30.8115C30.568 30.8289 30.5649 30.8494 30.5693 30.869C30.5737 30.8886 30.5853 30.9058 30.6018 30.9172C30.6076 30.9209 30.617 30.9282 30.6294 30.9382C31.0088 31.2272 31.4658 31.3963 31.9419 31.4238Z" fill="#7C7C7C"/>
<path d="M31.9183 32.1801C32.0107 32.1857 32.1033 32.1835 32.1953 32.1735C32.2159 32.1707 32.2347 32.1599 32.2475 32.1436C32.2604 32.1272 32.2663 32.1064 32.2641 32.0857C32.2619 32.065 32.2517 32.046 32.2357 32.0327C32.2197 32.0194 32.1991 32.0129 32.1783 32.0145C31.6252 32.0733 31.361 31.8198 31.3498 31.809C31.3347 31.7947 31.3146 31.7869 31.2938 31.7871C31.273 31.7874 31.2531 31.7957 31.2384 31.8104C31.2236 31.8251 31.2152 31.845 31.2149 31.8658C31.2145 31.8866 31.2223 31.9067 31.2366 31.9219C31.4272 32.0841 31.6681 32.1753 31.9183 32.1801Z" fill="#7C7C7C"/>
<path d="M34.6878 28.1705C34.9032 28.1705 35.0778 27.9959 35.0778 27.7806C35.0778 27.5652 34.9032 27.3906 34.6878 27.3906C34.4724 27.3906 34.2979 27.5652 34.2979 27.7806C34.2979 27.9959 34.4724 28.1705 34.6878 28.1705Z" fill="#7C7C7C"/>
<path d="M30.8782 27.9303C31.0936 27.9303 31.2682 27.7557 31.2682 27.5403C31.2682 27.325 31.0936 27.1504 30.8782 27.1504C30.6629 27.1504 30.4883 27.325 30.4883 27.5403C30.4883 27.7557 30.6629 27.9303 30.8782 27.9303Z" fill="#7C7C7C"/>
<path d="M25.5181 30.3685C24.5562 30.3807 23.7632 29.3614 23.7506 28.3995C23.7381 27.4376 24.5116 26.8971 25.4736 26.8848L25.9775 27.5231L26.345 30.358L25.5181 30.3685Z" fill="#FABEA6"/>
<path d="M26.4755 28.8238C26.4755 28.8238 26.8003 24.0665 28.243 23.7727C29.2037 23.5771 31.5336 24.9398 33.6917 24.5283C34.6358 24.3488 35.5321 24.5819 35.6233 25.0279C35.6594 25.2045 36.2475 22.6667 34.7691 20.7411C33.5919 19.2084 29.7398 18.7748 27.9872 19.2775C23.1344 20.6695 25.2758 27.0953 25.2758 27.0953L25.4922 28.7354L26.4755 28.8238Z" fill="#7C7C7C"/>
<path d="M32.5235 30.3008H32.5296C32.8396 30.2976 33.3594 30.2578 33.3573 30.0259C33.3552 29.8338 32.8083 27.7648 32.7459 27.5295C32.7405 27.5092 32.7273 27.4919 32.7092 27.4814C32.6911 27.4709 32.6695 27.468 32.6493 27.4733C32.629 27.4787 32.6117 27.4919 32.6012 27.51C32.5907 27.5281 32.5878 27.5497 32.5931 27.5699C32.8362 28.4862 33.1979 29.8969 33.1993 30.0278C33.1694 30.083 32.8491 30.1398 32.5282 30.1431C32.5077 30.1431 32.4879 30.1511 32.4732 30.1654C32.4585 30.1797 32.4499 30.1992 32.4493 30.2197C32.4486 30.2403 32.4561 30.2602 32.4699 30.2754C32.4838 30.2906 32.503 30.2997 32.5235 30.3009V30.3008Z" fill="#7C7C7C"/>
<path d="M33.5813 25.6668C33.9071 25.5772 34.2511 25.5772 34.5769 25.6668C34.7369 25.7099 34.8896 25.7767 35.0298 25.8651C35.1684 25.9517 35.2954 26.0554 35.408 26.1738C35.4288 26.1949 35.4406 26.2232 35.441 26.2528C35.4415 26.2824 35.4305 26.311 35.4103 26.3327C35.3902 26.3544 35.3625 26.3675 35.3329 26.3693C35.3034 26.3711 35.2743 26.3614 35.2517 26.3423L35.2448 26.3362C35.1405 26.2397 35.0245 26.1567 34.8996 26.0892C34.777 26.0221 34.6449 25.9739 34.5078 25.9463C34.2381 25.8898 33.9581 25.9054 33.6963 25.9916L33.6854 25.9954C33.664 26.003 33.6414 26.0063 33.6187 26.0051C33.596 26.0039 33.5738 25.9982 33.5534 25.9884C33.5329 25.9787 33.5146 25.9649 33.4994 25.9481C33.4842 25.9312 33.4725 25.9115 33.465 25.8901C33.4574 25.8687 33.4541 25.8461 33.4553 25.8234C33.4565 25.8008 33.4622 25.7786 33.4719 25.7581C33.4817 25.7376 33.4954 25.7193 33.5123 25.7041C33.5292 25.6889 33.5489 25.6772 33.5702 25.6697C33.574 25.6689 33.5778 25.6678 33.5813 25.6668Z" fill="#7C7C7C"/>
<path d="M31.2742 25.8626C31.0262 25.7421 30.7508 25.6893 30.4759 25.7094C30.3364 25.7185 30.1991 25.7487 30.0687 25.7989C29.936 25.8493 29.8101 25.9162 29.6941 25.9979L29.6866 26.0027C29.6617 26.0196 29.6312 26.026 29.6016 26.0206C29.5721 26.0152 29.5458 25.9985 29.5284 25.974C29.5111 25.9494 29.504 25.9191 29.5088 25.8894C29.5135 25.8597 29.5297 25.8331 29.5539 25.8152C29.6813 25.7128 29.821 25.6269 29.97 25.5595C30.1207 25.4906 30.2809 25.4447 30.4452 25.4233C30.7801 25.3779 31.121 25.4236 31.432 25.5556C31.4741 25.5739 31.5072 25.6082 31.5241 25.651C31.5409 25.6937 31.5401 25.7413 31.5217 25.7835C31.5034 25.8256 31.4691 25.8587 31.4264 25.8755C31.3837 25.8924 31.336 25.8915 31.2939 25.8732C31.2906 25.8718 31.2874 25.8703 31.2842 25.8687L31.2742 25.8626Z" fill="#7C7C7C"/>
<path d="M33.1175 22.3913C33.8296 22.2425 34.2293 21.2723 34.0103 20.2242C33.7914 19.1761 33.0366 18.4471 32.3245 18.5959C31.6124 18.7446 31.2127 19.7149 31.4316 20.7629C31.6506 21.811 32.4054 22.54 33.1175 22.3913Z" fill="#7C7C7C"/>
<path d="M72.8324 117.703C72.8324 117.703 73.5728 121.541 77.1661 121.755C80.7595 121.969 79.9803 124.831 79.9803 124.831H66.2485V117.971L72.8324 117.703Z" fill="#3B97D2"/>
<path d="M46.709 115.28C46.709 115.28 45.6787 119.05 48.8091 120.828C51.9394 122.606 49.9763 124.831 49.9763 124.831L37.6548 118.769L40.6831 112.613L46.709 115.28Z" fill="#3B97D2"/>
<path d="M39.077 114.216L49.4677 81.4369H30.633C26.8495 81.4369 25.2725 78.2286 25.2725 74.4454C25.2725 70.6622 28.9918 67.3457 32.775 67.3457H58.1948C60.5024 67.3457 63.0898 68.7569 64.3563 70.6859C65.6228 72.6149 65.2805 75.6042 64.3629 77.7214L47.7238 118.134" fill="#7C7C7C"/>
<path opacity="0.8" d="M39.077 114.216L49.4677 81.4369H30.633C26.8495 81.4369 25.2725 78.2286 25.2725 74.4454C25.2725 70.6622 28.9918 67.3457 32.775 67.3457H58.1948C60.5024 67.3457 63.0898 68.7569 64.3563 70.6859C65.6228 72.6149 65.2805 75.6042 64.3629 77.7214L47.7238 118.134" fill="#7C7C7C"/>
<path d="M65.459 121.268L48.0854 81.4362L25.2727 81.4346C19.9272 81.0157 17.4792 78.0861 17.557 74.3038C17.6337 70.5693 19.5247 66.8809 23.2424 66.8809H53.9893C56.7399 66.9373 58.904 69.9771 59.9244 72.5318L74.368 118.829" fill="#7C7C7C"/>
<path d="M16.0008 66.9266C16.0008 66.9266 14.9877 73.5333 16.5936 77.2064C18.5985 81.7922 26.1141 81.4348 26.1141 81.4348L25.6906 66.8809L16.0008 66.9266Z" fill="#7C7C7C"/>
<path d="M60.5777 66.7965L44.4633 63.4573C43.7918 63.3181 43.1663 63.0119 42.6445 62.5669C42.1228 62.1219 41.7217 61.5525 41.4783 60.9114L35.1403 44.2098C34.9503 43.7091 34.8608 43.176 34.8768 42.6408C34.8929 42.1055 35.0142 41.5787 35.2339 41.0904C35.4536 40.602 35.7673 40.1617 36.1571 39.7946C36.5469 39.4275 37.0052 39.1408 37.5059 38.9508C38.0065 38.7608 38.5396 38.6713 39.0749 38.6874C39.6101 38.7034 40.1369 38.8248 40.6253 39.0444C41.1136 39.2641 41.5539 39.5778 41.921 39.9676C42.2881 40.3574 42.5749 40.8157 42.7649 41.3164L48.3092 55.9255L62.2328 58.8106C62.2328 58.8106 60.8573 66.8542 60.5777 66.7965Z" fill="#3B97D2"/>
<path d="M41.9398 48.4511C41.7536 50.6372 40.4347 64.2768 40.2552 66.9695H16.0112C15.8719 64.5408 15.4196 54.2292 14.8915 49.4798C14.3872 44.9478 14.2044 42.3615 14.7852 40.9531C15.8095 38.4691 18.3727 37.5753 20.5805 37.2763C21.9288 37.0938 23.9565 36.9629 23.9565 36.9629C23.9565 36.9629 24.1282 40.4361 28.2221 40.6294C33.7952 40.8918 33.423 36.9629 33.4505 36.9629C34.3534 36.9629 39.2679 37.6195 40.4967 38.4205C42.2322 39.5517 42.7452 41.0934 42.7655 42.5097C42.7889 44.1404 42.1512 45.9715 41.9398 48.4511Z" fill="#3B97D2"/>
<path d="M40.9866 59.595C40.9847 59.5951 40.9827 59.5951 40.9808 59.595C40.9626 59.5935 40.9457 59.5848 40.9339 59.5708C40.922 59.5569 40.9162 59.5388 40.9177 59.5206L41.5471 51.9599C41.5476 51.9507 41.55 51.9418 41.5541 51.9337C41.5582 51.9255 41.5639 51.9182 41.5708 51.9124C41.5778 51.9065 41.5859 51.9021 41.5947 51.8994C41.6034 51.8967 41.6126 51.8959 41.6217 51.8969C41.6399 51.8984 41.6567 51.9071 41.6685 51.9211C41.6803 51.935 41.6861 51.9531 41.6846 51.9713L41.0554 59.532C41.0539 59.5492 41.046 59.5652 41.0332 59.5769C41.0205 59.5885 41.0039 59.595 40.9866 59.595Z" fill="#7C7C7C"/>
<path d="M52.5336 64.1337L57.8532 47.7815C57.9467 47.4942 58.1288 47.2438 58.3732 47.0662C58.6177 46.8886 58.9122 46.793 59.2143 46.793H80.8869C81.1128 46.793 81.3355 46.8465 81.5368 46.9491C81.738 47.0516 81.9122 47.2004 82.0449 47.3832C82.1777 47.566 82.2653 47.7776 82.3006 48.0007C82.3359 48.2239 82.3179 48.4522 82.248 48.667L76.9283 65.0192C76.8348 65.3065 76.6528 65.5569 76.4083 65.7345C76.1638 65.9121 75.8694 66.0077 75.5672 66.0077H53.8942C53.6684 66.0077 53.4457 65.9541 53.2445 65.8515C53.0433 65.7489 52.8692 65.6001 52.7365 65.4173C52.6038 65.2346 52.5162 65.023 52.4809 64.7999C52.4457 64.5768 52.4637 64.3485 52.5336 64.1337Z" fill="#7C7C7C"/>
<path d="M52.5336 64.1337L57.8532 47.7815C57.9467 47.4942 58.1288 47.2438 58.3732 47.0662C58.6177 46.8886 58.9122 46.793 59.2143 46.793H80.8869C81.1128 46.793 81.3355 46.8465 81.5368 46.9491C81.738 47.0516 81.9122 47.2004 82.0449 47.3832C82.1777 47.566 82.2653 47.7776 82.3006 48.0007C82.3359 48.2239 82.3179 48.4522 82.248 48.667L76.9283 65.0192C76.8348 65.3065 76.6528 65.5569 76.4083 65.7345C76.1638 65.9121 75.8694 66.0077 75.5672 66.0077H53.8942C53.6684 66.0077 53.4457 65.9541 53.2445 65.8515C53.0433 65.7489 52.8692 65.6001 52.7365 65.4173C52.6038 65.2346 52.5162 65.023 52.4809 64.7999C52.4457 64.5768 52.4637 64.3485 52.5336 64.1337Z" fill="#7C7C7C"/>
<path d="M56.8731 64.6816H42.3655C42.004 64.6816 41.7109 64.9747 41.7109 65.3361V65.353C41.7109 65.7145 42.004 66.0075 42.3655 66.0075H56.8731C57.2346 66.0075 57.5276 65.7145 57.5276 65.353V65.3361C57.5276 64.9747 57.2346 64.6816 56.8731 64.6816Z" fill="#7C7C7C"/>
<path d="M56.8731 64.6816H42.3655C42.004 64.6816 41.7109 64.9747 41.7109 65.3361V65.353C41.7109 65.7145 42.004 66.0075 42.3655 66.0075H56.8731C57.2346 66.0075 57.5276 65.7145 57.5276 65.353V65.3361C57.5276 64.9747 57.2346 64.6816 56.8731 64.6816Z" fill="#7C7C7C"/>
<path d="M67.3907 59.4717C68.646 59.4717 69.6637 58.4541 69.6637 57.1988C69.6637 55.9434 68.646 54.9258 67.3907 54.9258C66.1353 54.9258 65.1177 55.9434 65.1177 57.1988C65.1177 58.4541 66.1353 59.4717 67.3907 59.4717Z" fill="white"/>
<path d="M51.321 60.3026L47.7002 59.0336L48.2201 58.9976C48.3876 58.9827 48.5433 58.9047 48.6555 58.7795C48.7678 58.6542 48.8282 58.491 48.8248 58.3228C48.8199 58.2361 48.7975 58.1512 48.7588 58.0734C48.7201 57.9957 48.666 57.9266 48.5998 57.8704C48.5335 57.8143 48.4565 57.7722 48.3734 57.7468C48.2904 57.7213 48.203 57.7131 48.1167 57.7225L41.7109 58.4032L41.8766 60.4617C41.9283 61.1011 42.1698 61.7104 42.5701 62.2117C42.9703 62.7129 43.5112 63.0832 44.1233 63.2751L46.8972 64.1392C47.0405 64.1869 47.1959 64.1836 47.337 64.1299C47.4781 64.0762 47.5964 63.9754 47.6718 63.8446C47.7373 63.725 47.7629 63.5877 47.7449 63.4525C47.7268 63.3174 47.666 63.1915 47.5714 63.0934C47.5775 63.089 47.5827 63.0835 47.5866 63.077C47.5904 63.0706 47.593 63.0635 47.594 63.056C47.5951 63.0486 47.5946 63.041 47.5926 63.0337C47.5906 63.0265 47.5871 63.0197 47.5824 63.0139L48.0933 63.1742C48.2528 63.2277 48.4267 63.2187 48.5798 63.149C48.7329 63.0793 48.8538 62.954 48.9181 62.7986C48.9706 62.6576 48.9717 62.5026 48.9212 62.3608C48.8707 62.2191 48.7718 62.0997 48.6419 62.0237C48.6479 62.0205 48.6533 62.0161 48.6577 62.011L48.8678 62.077C49.0111 62.1246 49.1665 62.1213 49.3076 62.0676C49.4487 62.0139 49.567 61.9132 49.6423 61.7823C49.7219 61.6372 49.7421 61.4669 49.6989 61.3072C49.6556 61.1474 49.5521 61.0106 49.4102 60.9255C49.4114 60.9213 49.4121 60.9169 49.4123 60.9125L50.92 61.4411C51.071 61.494 51.2368 61.4848 51.381 61.4155C51.5252 61.3461 51.6359 61.2224 51.6888 61.0714C51.7417 60.9204 51.7325 60.7546 51.6632 60.6104C51.5938 60.4663 51.4701 60.3555 51.3191 60.3026H51.321Z" fill="#FABEA6"/>
<path opacity="0.2" d="M49.355 60.972C49.3479 60.9721 49.341 60.9708 49.3344 60.9684L47.8758 60.4388C47.8608 60.4333 47.8487 60.4221 47.842 60.4076C47.8353 60.3931 47.8346 60.3766 47.8401 60.3616C47.8456 60.3467 47.8568 60.3345 47.8713 60.3278C47.8857 60.3211 47.9023 60.3205 47.9172 60.3259L49.3757 60.8562C49.389 60.861 49.4001 60.8703 49.4072 60.8825C49.4143 60.8948 49.4168 60.9091 49.4144 60.923C49.4119 60.9369 49.4047 60.9495 49.3939 60.9586C49.383 60.9677 49.3694 60.9727 49.3552 60.9727L49.355 60.972Z" fill="#7C7C7C"/>
<path opacity="0.2" d="M48.6174 62.032C48.6106 62.0319 48.6038 62.0308 48.5974 62.0285L47.4477 61.6206C47.4403 61.618 47.4334 61.6139 47.4276 61.6086C47.4217 61.6033 47.4169 61.5969 47.4136 61.5898C47.4102 61.5827 47.4082 61.575 47.4078 61.5671C47.4074 61.5592 47.4085 61.5513 47.4112 61.5439C47.4138 61.5365 47.4179 61.5296 47.4232 61.5238C47.4285 61.5179 47.4348 61.5131 47.442 61.5097C47.4491 61.5064 47.4568 61.5044 47.4647 61.504C47.4726 61.5036 47.4804 61.5047 47.4879 61.5074L48.6376 61.9153C48.6509 61.92 48.6622 61.9293 48.6693 61.9415C48.6765 61.9538 48.6791 61.9681 48.6767 61.9821C48.6743 61.9961 48.667 62.0087 48.6562 62.0179C48.6453 62.027 48.6316 62.032 48.6174 62.032Z" fill="#7C7C7C"/>
<path opacity="0.2" d="M47.5353 63.1077C47.5279 63.1077 47.5206 63.1063 47.5137 63.1036L46.9752 62.8983C46.9675 62.8958 46.9604 62.8917 46.9543 62.8863C46.9483 62.8809 46.9433 62.8744 46.9399 62.867C46.9364 62.8597 46.9344 62.8518 46.9341 62.8437C46.9338 62.8356 46.9351 62.8275 46.938 62.8199C46.9409 62.8123 46.9453 62.8054 46.951 62.7996C46.9566 62.7937 46.9634 62.7891 46.9708 62.786C46.9783 62.7828 46.9863 62.7812 46.9944 62.7813C47.0026 62.7813 47.0106 62.783 47.018 62.7862L47.5565 62.9915C47.5696 62.9966 47.5805 63.006 47.5874 63.0182C47.5942 63.0305 47.5966 63.0447 47.594 63.0585C47.5915 63.0723 47.5842 63.0847 47.5735 63.0937C47.5627 63.1027 47.5492 63.1076 47.5351 63.1077H47.5353Z" fill="#7C7C7C"/>
<path d="M44.5459 57.1856L29.3566 57.1754L23.6105 43.1582L15.0386 46.7622L22.208 63.3982L22.2782 63.5639C22.6289 64.3726 23.2197 65.0539 23.9706 65.5155C24.7214 65.9772 25.596 66.1969 26.4759 66.145L44.7759 65.0638L44.5459 57.1856Z" fill="#3B97D2"/>
<path d="M26.2245 66.2206C25.373 66.2191 24.5403 65.9696 23.8283 65.5026C23.1163 65.0355 22.5558 64.3712 22.2153 63.5907L22.145 63.425L16.0361 49.2496L16.1629 49.195L22.3422 63.5363C22.6889 64.3307 23.2706 64.9998 24.009 65.4537C24.7474 65.9076 25.607 66.1246 26.4724 66.0754L44.7054 64.9983L44.4795 57.2542L29.3111 57.2442L24.8924 46.4664L25.0201 46.4141L29.4035 57.1061L44.6133 57.1163L44.8471 65.1284L44.7801 65.1323L26.4802 66.2135C26.3948 66.2182 26.3096 66.2206 26.2245 66.2206Z" fill="#7C7C7C"/>
<path d="M117.509 67.3297L117.234 67.3574L123.056 124.986L123.33 124.958L117.509 67.3297Z" fill="#7C7C7C"/>
<path d="M9.32918 67.3306L3.50391 124.959L3.77867 124.987L9.60395 67.3584L9.32918 67.3306Z" fill="#7C7C7C"/>
<path d="M33.397 67.3307L27.5718 124.959L27.8465 124.987L33.6718 67.3584L33.397 67.3307Z" fill="#7C7C7C"/>
<path d="M141.577 67.3297L141.302 67.3574L147.123 124.986L147.398 124.958L141.577 67.3297Z" fill="#7C7C7C"/>
<path d="M146.826 66.2129H4.46154C3.83665 66.2129 3.33008 66.7194 3.33008 67.3443C3.33008 67.9691 3.83665 68.4757 4.46154 68.4757H146.826C147.451 68.4757 147.958 67.9691 147.958 67.3443C147.958 66.7194 147.451 66.2129 146.826 66.2129Z" fill="#7C7C7C"/>
<path opacity="0.8" d="M146.826 66.2129H4.46154C3.83665 66.2129 3.33008 66.7194 3.33008 67.3443C3.33008 67.9691 3.83665 68.4757 4.46154 68.4757H146.826C147.451 68.4757 147.958 67.9691 147.958 67.3443C147.958 66.7194 147.451 66.2129 146.826 66.2129Z" fill="white"/>
<path d="M146.826 68.6132H4.46198C4.29416 68.615 4.12765 68.5834 3.9721 68.5204C3.81654 68.4574 3.67503 68.3642 3.55573 68.2461C3.43644 68.1281 3.34174 67.9875 3.27711 67.8326C3.21248 67.6778 3.1792 67.5116 3.1792 67.3438C3.1792 67.1759 3.21248 67.0098 3.27711 66.8549C3.34174 66.7 3.43644 66.5594 3.55573 66.4414C3.67503 66.3233 3.81654 66.2301 3.9721 66.1671C4.12765 66.1041 4.29416 66.0725 4.46198 66.0743H146.826C147.161 66.0778 147.48 66.2131 147.716 66.4508C147.951 66.6884 148.083 67.0094 148.083 67.3438C148.083 67.6782 147.951 67.9991 147.716 68.2368C147.48 68.4745 147.161 68.6097 146.826 68.6132ZM4.46198 66.3505C4.33055 66.3489 4.20012 66.3735 4.07825 66.4227C3.95638 66.4719 3.84549 66.5448 3.752 66.6372C3.65851 66.7296 3.58429 66.8396 3.53364 66.9609C3.48298 67.0822 3.4569 67.2123 3.4569 67.3438C3.4569 67.4752 3.48298 67.6053 3.53364 67.7266C3.58429 67.8479 3.65851 67.9579 3.752 68.0503C3.84549 68.1427 3.95638 68.2156 4.07825 68.2648C4.20012 68.3141 4.33055 68.3386 4.46198 68.3371H146.826C147.088 68.334 147.338 68.228 147.521 68.042C147.705 67.8561 147.808 67.6052 147.808 67.3438C147.808 67.0823 147.705 66.8314 147.521 66.6455C147.338 66.4595 147.088 66.3535 146.826 66.3505H4.46198Z" fill="#7C7C7C"/>
<path d="M146.826 66.2129H29.4493C28.8244 66.2129 28.3179 66.7194 28.3179 67.3443C28.3179 67.9691 28.8244 68.4757 29.4493 68.4757H146.826C147.451 68.4757 147.958 67.9691 147.958 67.3443C147.958 66.7194 147.451 66.2129 146.826 66.2129Z" fill="white"/>
<path d="M146.827 68.6131H29.4492C29.1148 68.6096 28.7953 68.4744 28.56 68.2367C28.3248 67.999 28.1929 67.6781 28.1929 67.3437C28.1929 67.0093 28.3248 66.6884 28.56 66.4507C28.7953 66.213 29.1148 66.0777 29.4492 66.0742H146.827C147.161 66.0777 147.48 66.213 147.716 66.4507C147.951 66.6884 148.083 67.0093 148.083 67.3437C148.083 67.6781 147.951 67.999 147.716 68.2367C147.48 68.4744 147.161 68.6096 146.827 68.6131ZM29.4492 66.3504C29.1878 66.3535 28.9381 66.4595 28.7543 66.6454C28.5706 66.8314 28.4675 67.0823 28.4675 67.3437C28.4675 67.6051 28.5706 67.856 28.7543 68.0419C28.9381 68.2279 29.1878 68.3339 29.4492 68.337H146.827C147.088 68.3339 147.338 68.2279 147.521 68.0419C147.705 67.856 147.808 67.6051 147.808 67.3437C147.808 67.0823 147.705 66.8314 147.521 66.6454C147.338 66.4595 147.088 66.3535 146.827 66.3504H29.4492Z" fill="#7C7C7C"/>
</g>
<defs>
<clipPath id="clip0_179_18189">
<rect width="150.763" height="125" fill="white"/>
</clipPath>
</defs>
</svg>
