<svg width="76" height="35" viewBox="0 0 76 35" fill="none" xmlns="http://www.w3.org/2000/svg">
<path fill-rule="evenodd" clip-rule="evenodd" d="M0 0H34.9578V35H0V0Z" fill="#00975F"/>
<path fill-rule="evenodd" clip-rule="evenodd" d="M64.1758 12.2289C64.2601 13.3675 64.3445 16.2349 64.3445 17.247C64.3445 18.2169 64.3445 21.4217 64.1758 22.8132V22.9398H70.0372C72.9047 22.9398 75.9408 22.1807 75.9408 19.9879C75.9408 18.5964 74.8023 17.5843 72.6095 17.0361C74.2119 16.6988 75.2661 15.7289 75.2661 14.6325C75.2661 12.8614 72.8625 12.1867 70.6276 12.1446H64.1758V12.2289ZM68.6878 13.3253C71.1336 13.3253 72.0191 13.747 72.0191 14.9277C72.0191 15.2229 71.8926 15.5181 71.6818 15.7289C71.2179 16.1928 70.2902 16.4458 69.1095 16.4036L68.4348 17.9217H69.1095C70.4589 17.8795 71.6396 18.259 72.23 18.8916C72.5252 19.1867 72.6517 19.5241 72.6517 19.8614C72.6517 21.0422 71.4288 21.6747 69.0252 21.6747C68.6035 21.6747 67.971 21.6747 67.5493 21.6325C67.4649 20.0301 67.4649 17.9217 67.4649 17.247C67.4649 16.4879 67.5071 14.8012 67.5493 13.3675C67.8445 13.3253 68.3083 13.3253 68.6878 13.3253Z" fill="black"/>
<path fill-rule="evenodd" clip-rule="evenodd" d="M62.9977 22.8976V21.3373C60.6362 21.4638 58.2748 21.4638 55.9134 21.506C55.8712 20.4096 55.829 19.0602 55.829 18.0903L60.4676 18.1747V16.5301L55.829 16.6144C55.829 15.7711 55.8712 14.5482 55.9134 13.5361C56.588 13.5361 56.9254 13.4939 57.4314 13.4939C59.1603 13.4939 60.9314 13.4518 62.6603 13.6205V12.0602H55.5338H52.582V12.1867C52.6664 13.3253 52.7507 16.1927 52.7507 17.2048C52.7507 18.1747 52.7507 21.3795 52.582 22.771V22.8976H62.9977V22.8976Z" fill="black"/>
<path fill-rule="evenodd" clip-rule="evenodd" d="M47.1396 22.8976V22.7711C46.9709 21.3795 46.9709 18.1747 46.9709 17.2048C46.9709 16.4458 47.0131 14.759 47.0553 13.4096C48.9529 13.4518 49.4589 13.4518 51.1456 13.6205V12.0602H39.6758V13.6626C41.3204 13.4939 41.8685 13.4939 43.7661 13.4518C43.8083 14.759 43.8505 16.4879 43.8505 17.247C43.8505 18.2168 43.8505 21.4217 43.6818 22.8132V22.9397H47.1396V22.8976Z" fill="black"/>
<path fill-rule="evenodd" clip-rule="evenodd" d="M27.2783 9.23493C25.1277 10.5 24.453 10.5843 22.0916 12.0181C23.441 10.5422 23.9048 9.90963 24.7904 8.68673C22.6398 8.77107 19.4771 9.02408 17.2422 9.53011C19.1819 8.47589 23.0615 7.33734 25.1277 7.04216C24.6639 6.36746 20.8265 4.30119 19.8566 3.92168C22.8928 4.17469 26.6036 5.27107 28.4169 6.40963C29.1337 6.19879 29.8506 6.15662 31.1578 6.07228C30.8205 6.66264 30.8205 6.99999 29.5133 7.84336C29.8506 8.81324 29.0072 14.0843 28.3325 15.4759C28.2904 13.1988 28.0795 10.4157 27.2783 9.23493Z" fill="white"/>
<path fill-rule="evenodd" clip-rule="evenodd" d="M11.4699 28.1265C10.2048 27.6626 9.31927 27.1144 8.34939 26.2289C8.64457 25.4277 8.98192 24.7952 9.53011 23.9939C8.51807 24.1205 7.8012 24.247 6.91566 24.4156C6.19879 23.1927 5.90361 21.9699 5.52409 20.3253C5.31325 22.0964 5.27108 23.3193 5.52409 24.753C4.72289 24.9638 4.1747 25.1747 3.5 25.4699C4.42771 26.018 5.14458 26.4819 6.19879 26.9458C6.74698 28.1265 7.33735 28.9277 8.22289 29.8554C8.01204 29.0964 7.96988 28.4638 8.01204 27.6626C9.19277 27.9156 10.1626 28.0843 11.4699 28.1265Z" fill="white"/>
<path fill-rule="evenodd" clip-rule="evenodd" d="M14.7148 10.5843C14.3353 11.0903 13.8714 12.0181 13.7449 12.4397C16.9497 12.8614 19.522 14.506 19.522 14.506C16.6967 14 15.263 14.0843 14.2088 14.1687C13.1546 14.253 12.9437 14.3795 12.9437 14.3795C12.1847 16.0662 11.763 18.8915 11.763 18.8915C11.257 17.6687 10.4979 15.2229 10.4979 15.2229C9.10636 15.9819 5.85938 19.018 5.85938 19.018C7.63046 15.4337 9.44371 13.8313 9.44371 13.8313C8.81118 13.1988 7.20877 12.9036 5.98588 12.8614C6.61841 12.6084 8.17865 12.3132 9.40154 12.2711C10.6244 12.2289 11.3413 12.3132 11.3413 12.3132C12.4799 11.4277 14.1244 10.6687 14.7148 10.5843Z" fill="white"/>
<path fill-rule="evenodd" clip-rule="evenodd" d="M18.0792 25.8916C17.531 26.6506 17.0249 27.241 16.3924 27.9578C15.296 28.253 14.4527 28.3795 13.3984 28.3795C14.031 28.7169 14.6635 28.9277 15.3382 29.0542C14.6635 29.6446 14.1153 30.1084 13.4406 30.5301C14.537 30.2771 15.9707 29.8132 17.0249 29.1807C17.5731 29.1807 18.1213 29.1807 18.5008 29.0964C18.4165 28.759 18.3322 28.506 18.2478 28.0843C19.2599 27.2831 19.9767 26.6084 20.8201 25.765C19.9346 26.3976 19.1755 26.8614 18.1213 27.3253C18.1213 26.8614 18.1213 26.4397 18.0792 25.8916Z" fill="white"/>
</svg>
