<svg width="197" height="141" viewBox="0 0 197 141" fill="none" xmlns="http://www.w3.org/2000/svg">
<g clip-path="url(#clip0_245_20489)">
<path d="M179.939 126.442C181.661 129.487 180.201 139.768 180.201 139.768C180.201 139.768 170.638 135.72 168.916 132.677C168.091 131.215 167.88 129.486 168.33 127.869C168.779 126.252 169.852 124.88 171.313 124.053C172.774 123.227 174.503 123.015 176.121 123.463C177.738 123.911 179.112 124.982 179.939 126.442V126.442Z" fill="#F1F1F1"/>
<path d="M180.339 139.754L180.136 139.797C178.18 130.501 171.347 124.197 171.278 124.135L171.418 123.981C171.487 124.044 178.369 130.391 180.339 139.754Z" fill="white"/>
<path d="M195.586 129.909C193.25 134.148 180.074 139.89 180.074 139.89C180.074 139.89 177.902 125.683 180.238 121.446C181.36 119.41 183.245 117.904 185.478 117.258C187.711 116.613 190.108 116.881 192.144 118.003C194.179 119.125 195.685 121.01 196.331 123.243C196.976 125.475 196.709 127.873 195.586 129.909Z" fill="#F1F1F1"/>
<path d="M180.191 140.044L179.993 139.836C189.526 130.782 191.994 118.154 192.018 118.027L192.301 118.08C192.277 118.208 189.794 130.924 180.191 140.044Z" fill="white"/>
<path d="M46.8107 97.8093C45.3029 97.8043 43.8017 97.6101 42.3423 97.2313L42.0546 97.1517L41.7878 97.0181C32.1408 92.1812 24.0021 85.7924 17.5977 78.029C12.2963 71.5649 8.16308 64.2256 5.3839 56.341C2.06043 46.9012 0.461517 36.9408 0.663486 26.9351C0.667561 26.7251 0.67101 26.5629 0.67101 26.4512C0.67101 21.5874 3.3708 17.3197 7.54904 15.5788C10.7469 14.2463 39.7815 2.32067 41.8793 1.459C45.8301 -0.520588 50.0449 1.13169 50.7194 1.42063C52.2323 2.03918 79.073 13.0174 84.8733 15.7793C90.851 18.6259 92.446 23.7396 92.446 26.3124C92.446 37.9602 90.4287 48.8461 86.4501 58.6675C83.237 66.6173 78.683 73.9565 72.9866 80.3654C61.9959 92.7337 51.0023 97.1184 50.8962 97.157C49.5824 97.6091 48.2 97.8298 46.8107 97.8093ZM44.2254 91.4054C45.1785 91.6191 47.3728 91.9396 48.8031 91.4178C50.62 90.7552 59.8215 85.9837 68.42 76.3075C80.3001 62.9382 86.3281 46.1319 86.3369 26.3553C86.3157 25.9547 86.0311 23.097 82.2468 21.295C76.559 18.5865 48.6603 7.1788 48.3792 7.06382L48.3021 7.03115C47.7174 6.78615 45.8568 6.27009 44.5742 6.94221L44.3173 7.06193C44.0064 7.18965 13.1858 19.8483 9.89872 21.2179C7.59935 22.176 6.78009 24.5494 6.78009 26.4512C6.78009 26.5902 6.77649 26.7923 6.77141 27.0536C6.50871 40.5855 9.64006 73.8831 44.2254 91.4054Z" fill="#3F3D56"/>
<path d="M43.1564 4.2364C43.1564 4.2364 12.0557 17.0099 8.72347 18.3983C5.39124 19.7868 3.72513 23.119 3.72513 26.4512C3.72513 29.7835 1.22597 73.2645 43.1564 94.2875C43.1564 94.2875 46.962 95.3405 49.8493 94.2875C52.7366 93.2345 89.391 75.4627 89.391 26.3124C89.391 26.3124 89.391 21.314 83.5596 18.5372C77.7282 15.7603 49.5344 4.2364 49.5344 4.2364C49.5344 4.2364 46.0721 2.70913 43.1564 4.2364Z" fill="#3B97D2"/>
<path opacity="0.1" d="M46.4888 14.2329V82.3751C46.4888 82.3751 15.1104 67.2708 15.3881 27.5618L46.4888 14.2329Z" fill="black"/>
<path d="M46.898 63.2076L36.9023 50.3554L42.7152 45.8345L47.4481 51.9197L63.4367 35.0415L68.7833 40.1072L46.898 63.2076Z" fill="white"/>
<path d="M196.76 140.5H105.425C105.361 140.5 105.3 140.475 105.255 140.43C105.21 140.385 105.185 140.324 105.185 140.26C105.185 140.197 105.21 140.136 105.255 140.091C105.3 140.046 105.361 140.021 105.425 140.021H196.76C196.824 140.021 196.885 140.046 196.93 140.091C196.975 140.136 197 140.197 197 140.26C197 140.324 196.975 140.385 196.93 140.43C196.885 140.475 196.824 140.5 196.76 140.5Z" fill="#CACACA"/>
<path d="M131.827 136.721L135.534 136.721L137.298 122.42L131.826 122.421L131.827 136.721Z" fill="#FFB8B8"/>
<path d="M130.881 135.511L138.183 135.51H138.183C139.417 135.51 140.601 136.001 141.473 136.873C142.346 137.746 142.836 138.929 142.836 140.163V140.314L130.882 140.315L130.881 135.511Z" fill="#2F2E41"/>
<path d="M144.293 136.721L148 136.721L149.764 122.42L144.292 122.421L144.293 136.721Z" fill="#FFB8B8"/>
<path d="M143.347 135.511L150.648 135.51H150.648C151.882 135.51 153.066 136.001 153.939 136.873C154.811 137.746 155.301 138.929 155.302 140.163V140.314L143.347 140.315L143.347 135.511Z" fill="#2F2E41"/>
<path d="M137.654 86.5016L138.544 131.87L131.349 131.424L126.358 102.527L124.782 82.8237L137.654 86.5016Z" fill="#2F2E41"/>
<path d="M150.001 78.8835L151.009 132.589L142.619 132.349L140.807 100.425L137.654 88.8662L124.782 82.8241L126.883 68.3755L145.798 68.1128L150.001 78.8835Z" fill="#2F2E41"/>
<path d="M135.535 30.8091C139.089 30.8091 141.969 27.9285 141.969 24.3752C141.969 20.8219 139.089 17.9414 135.535 17.9414C131.982 17.9414 129.102 20.8219 129.102 24.3752C129.102 27.9285 131.982 30.8091 135.535 30.8091Z" fill="#FFB8B8"/>
<path d="M140.872 33.5195L141.858 35.0125L144.485 42.3681L142.383 71.0024L130.036 71.2654L128.46 38.4274L131.762 34.3003L140.872 33.5195Z" fill="#CCCCCC"/>
<path d="M123.468 39.2153L121.367 38.9526C121.367 38.9526 120.841 39.2153 120.579 41.0542C120.316 42.8931 117.164 59.1806 117.164 59.1806L121.367 79.1459L126.095 72.8411L123.206 61.8077L126.095 50.7742L123.468 39.2153Z" fill="#2F2E41"/>
<path d="M150.264 38.9531H151.84L155.781 60.2317L152.103 76.7819L148.425 70.7398L149.476 64.1723L148.95 58.393L147.111 54.9776L150.264 38.9531Z" fill="#2F2E41"/>
<path d="M139.337 24.3754L138.167 24.083C138.167 24.083 137.29 19.1114 135.243 19.6963C133.196 20.2812 127.932 20.8661 127.932 18.5265C127.932 16.1869 132.903 14.1398 135.828 14.4322C138.752 14.7247 142.487 15.6949 143.431 19.9887C144.945 26.872 140.309 28.6106 140.309 28.6106L140.386 28.36C140.6 27.6641 140.615 26.9222 140.43 26.2181C140.245 25.514 139.866 24.8757 139.337 24.3754Z" fill="#2F2E41"/>
<path d="M121.629 38.9528L130.036 35.5377L132.006 34.0928L137.917 60.2316L140.675 33.3047L151.577 38.9528L147.9 56.8165L147.374 63.6467L148.95 69.1634C148.95 69.1634 154.467 73.104 152.628 77.3072C150.789 81.5104 148.688 81.7731 148.688 81.7731C148.688 81.7731 139.756 73.3666 139.23 71.265C138.705 69.1634 137.917 65.4856 137.917 65.4856C137.917 65.4856 133.451 82.2985 128.197 82.0358C122.943 81.7731 122.943 76.2564 122.943 76.2564L124.256 70.4769L126.358 64.4348L125.307 54.4521L121.629 38.9528Z" fill="#2F2E41"/>
</g>
<defs>
<clipPath id="clip0_245_20489">
<rect width="196.353" height="140" fill="white" transform="translate(0.647461 0.5)"/>
</clipPath>
</defs>
</svg>
