<svg width="12" height="12" viewBox="0 0 12 12" fill="none" xmlns="http://www.w3.org/2000/svg">
<rect width="12" height="12" fill="white"/>
<path d="M1.875 11.25C1.77554 11.25 1.68016 11.2105 1.60984 11.1402C1.53951 11.0698 1.5 10.9745 1.5 10.875C1.5 10.7755 1.53951 10.6802 1.60984 10.6098C1.68016 10.5395 1.77554 10.5 1.875 10.5H2.625V9.75C2.62485 9.11323 2.80484 8.4894 3.14419 7.95058C3.48354 7.41177 3.96839 6.97994 4.54275 6.705C4.76025 6.60075 4.875 6.42225 4.875 6.2625V5.7375C4.875 5.57775 4.7595 5.39925 4.54275 5.295C3.96839 5.02006 3.48354 4.58823 3.14419 4.04942C2.80484 3.5106 2.62485 2.88677 2.625 2.25V1.5H1.875C1.77554 1.5 1.68016 1.46049 1.60984 1.39017C1.53951 1.31984 1.5 1.22446 1.5 1.125C1.5 1.02554 1.53951 0.930161 1.60984 0.859835C1.68016 0.789509 1.77554 0.75 1.875 0.75H10.125C10.2245 0.75 10.3198 0.789509 10.3902 0.859835C10.4605 0.930161 10.5 1.02554 10.5 1.125C10.5 1.22446 10.4605 1.31984 10.3902 1.39017C10.3198 1.46049 10.2245 1.5 10.125 1.5H9.375V2.25C9.37515 2.88677 9.19516 3.5106 8.85581 4.04942C8.51646 4.58823 8.03161 5.02006 7.45725 5.295C7.23975 5.39925 7.125 5.57775 7.125 5.7375V6.2625C7.125 6.42225 7.2405 6.60075 7.45725 6.705C8.03161 6.97994 8.51646 7.41177 8.85581 7.95058C9.19516 8.4894 9.37515 9.11323 9.375 9.75V10.5H10.125C10.2245 10.5 10.3198 10.5395 10.3902 10.6098C10.4605 10.6802 10.5 10.7755 10.5 10.875C10.5 10.9745 10.4605 11.0698 10.3902 11.1402C10.3198 11.2105 10.2245 11.25 10.125 11.25H1.875ZM3.375 1.5V2.25C3.375 2.65275 3.465 3.03375 3.62775 3.375H8.37225C8.53425 3.03375 8.625 2.65275 8.625 2.25V1.5H3.375ZM5.625 6.2625C5.625 6.78825 5.2665 7.1895 4.86675 7.3815C4.41997 7.59533 4.04281 7.93121 3.77884 8.35033C3.51487 8.76944 3.37486 9.25469 3.375 9.75C3.375 9.75 4.0245 8.77575 5.625 8.64V6.2625ZM6.375 6.2625V8.64C7.9755 8.77575 8.625 9.75 8.625 9.75C8.62514 9.25469 8.48513 8.76944 8.22116 8.35033C7.95719 7.93121 7.58003 7.59533 7.13325 7.3815C6.7335 7.1895 6.375 6.789 6.375 6.26325V6.2625Z" fill="#F39C12"/>
</svg>
