<?xml version="1.0" encoding="utf-8"?>
<!-- Generator: Adobe Illustrator 26.5.0, SVG Export Plug-In . SVG Version: 6.00 Build 0)  -->
<svg version="1.1" id="katman_1" xmlns="http://www.w3.org/2000/svg" xmlns:xlink="http://www.w3.org/1999/xlink" x="0px" y="0px"
	 viewBox="0 0 700 700" style="enable-background:new 0 0 700 700;" xml:space="preserve">
<path d="M427.7,222.2l-5,0.6c-0.6,0-1.1,0.6-1.7,0.6l-46.5,38.1l-87.4-11.2c-1.1,0-2.2,0-2.8,1.1l-8.4,8.4c-1.7,1.7-1.1,4.5,1.1,5.6
	l65.5,28.6l-33.6,42l-25.2-5c-1.1,0-2.2,0-3.4,1.1l-2.2,2.2c-1.7,1.7-1.1,4.5,1.1,5.6l23.5,11.8l11.8,23.5c1.1,2.2,3.9,2.8,5.6,1.1
	l2.2-2.2c0.6-0.6,1.1-2.2,1.1-3.4l-5-25.2l42-33.6l28.6,65.5c1.1,2.2,3.9,2.8,5.6,1.1l8.4-8.4c0.6-0.6,1.1-1.7,1.1-2.8l-11.8-87.4
	l38.1-46.5c0.6-0.6,0.6-1.1,0.6-1.7l0.6-5C431.7,223.9,430,222.3,427.7,222.2L427.7,222.2z"/>
<path d="M349,69.5c-127.8,0-231.4,103.6-231.4,231.4c0,175.7,231.4,328.6,231.4,328.6s231.4-152.9,231.4-328.6
	C580.4,173.1,476.8,69.5,349,69.5L349,69.5z M349,480.7c-99.3,0-179.8-80.5-179.8-179.8c0-99.3,80.5-179.8,179.8-179.8
	s179.8,80.5,179.8,179.8C528.8,400.2,448.3,480.7,349,480.7z"/>
</svg>
