<?xml version="1.0" encoding="utf-8"?>
<!-- Generator: Adobe Illustrator 26.5.0, SVG Export Plug-In . SVG Version: 6.00 Build 0)  -->
<svg version="1.1" id="katman_1" xmlns="http://www.w3.org/2000/svg" xmlns:xlink="http://www.w3.org/1999/xlink" x="0px" y="0px"
	 viewBox="0 0 700 700" style="enable-background:new 0 0 700 700;" xml:space="preserve">
<path d="M350,61.2c-127.8,0-231.4,103.6-231.4,231.4c0,175.7,231.4,328.6,231.4,328.6s231.4-152.9,231.4-328.6
	C581.4,164.7,477.8,61.2,350,61.2L350,61.2z M350,472.3c-99.3,0-179.8-80.5-179.8-179.8c0-99.3,80.5-179.8,179.8-179.8
	s179.8,80.5,179.8,179.8C529.8,391.8,449.3,472.3,350,472.3z"/>
<path d="M402.3,348.8c-2.8,5.7-6.6,10.9-11.2,15.5c-8.6,8.6-19.3,14.2-31,16.3v-84.9h32.2v-21.5h-32.2v-23.3
	c12.5-4.4,21.5-16.3,21.5-30.4c0-17.8-14.4-32.2-32.2-32.2s-32.2,14.4-32.2,32.2c0,14,9,25.9,21.5,30.4v23.3h-32.2v21.5h32.2v84.9
	c-11.7-2.1-22.4-7.7-31-16.3c-4.6-4.6-8.4-9.8-11.2-15.5l20.7-20.8H269c2.5,38.4,31.9,69.4,69.6,74.4h21.5c37.6-5,67.1-36,69.6-74.4
	h-48.1L402.3,348.8z M349.4,231.3c-5.9,0-10.7-4.8-10.7-10.7c0-5.9,4.8-10.7,10.7-10.7c5.9,0,10.7,4.8,10.7,10.7
	C360.1,226.5,355.3,231.3,349.4,231.3z"/>
</svg>
