<svg width="96" height="32" viewBox="0 0 96 32" fill="none" xmlns="http://www.w3.org/2000/svg">
<path d="M43.0195 24.509C43.7658 23.9129 44.6528 24.1898 45.4742 24.1804C50.3975 24.1523 55.3302 24.1804 60.2535 24.1804C62.6002 24.1804 62.6002 24.1006 62.6002 21.8337C62.6002 17.5299 62.6988 13.2261 62.6002 8.92702C62.5627 7.22333 63.2057 6.75869 64.7779 6.81501C67.1997 6.90418 69.6262 6.89949 72.0479 6.81501C73.4043 6.76807 74.1881 7.28434 74.864 8.46707C76.3345 11.0484 77.8787 13.586 79.4963 16.0797C80.5289 17.558 81.0257 19.3447 80.9043 21.1438C80.7823 22.8569 80.8386 24.5841 80.8808 26.3065C80.9137 27.5127 80.3833 28.0196 79.2006 27.9727C78.2631 27.9067 77.3221 27.9067 76.3846 27.9727C74.8968 28.1322 74.0379 27.7004 73.3105 26.2267C71.9024 23.3732 67.8849 23.2934 66.5239 26.1563C65.726 27.8272 64.7498 28.0008 63.2385 27.9867C58.2307 27.9398 53.2182 27.799 48.2198 28.0337C45.4366 28.1369 43.6672 27.3766 43.0195 24.509ZM70.241 16.5819V16.5443C71.0248 16.5443 71.8086 16.5443 72.5877 16.5443C72.8611 16.5707 73.1348 16.4966 73.3576 16.336C73.5804 16.1753 73.7371 15.9391 73.7986 15.6714C74.1459 14.4793 73.3855 12.2124 72.3906 11.682C71.6866 11.2972 67.486 11.4004 67.1246 11.8369C66.9954 12.0261 66.9075 12.2404 66.8665 12.4658C66.0874 15.5118 66.904 16.5772 70.0016 16.5819H70.241Z" fill="#3B97D2"/>
<path d="M38.6314 23.1526C31.9058 23.1526 25.1802 23.1526 18.4499 23.1526C16.1033 23.1526 16.0375 23.0822 16.0282 20.806C16.0282 14.9393 16.061 9.07257 16 3.20588C16.0047 1.61952 16.474 1 18.1449 1C31.912 1.05319 45.6792 1.05319 59.4464 1C60.9577 1 61.5303 1.46934 61.5303 3.01814C61.4739 9.03972 61.4599 15.066 61.5303 21.0876C61.5303 22.81 60.8169 23.1902 59.2727 23.1761C52.4017 23.1198 45.5165 23.1526 38.6314 23.1526ZM38.7816 2.21089C32.4502 2.21089 26.1095 2.21089 19.7922 2.21089C17.3658 2.21089 17.3329 2.26721 17.3235 4.74061C17.3235 9.66394 17.3001 14.5967 17.3235 19.5106C17.3235 21.7399 17.4549 21.8573 19.7641 21.8573C32.4236 21.8761 45.0832 21.8761 57.7427 21.8573C60.0565 21.8573 60.1833 21.7259 60.1973 19.5106C60.2255 14.5044 60.2255 9.49811 60.1973 4.49186C60.1973 2.24374 60.1504 2.21558 57.7662 2.20619C51.4442 2.2015 45.1035 2.21089 38.7816 2.21089V2.21089Z" fill="#3B97D2"/>
<path d="M24.8615 24.166C24.3922 25.5083 23.6178 26.1231 23.4206 27.0524C23.3876 27.2883 23.2698 27.5042 23.0893 27.6596C22.9088 27.8151 22.6779 27.8995 22.4397 27.8972C20.6516 27.8972 18.8634 27.977 17.0799 27.8738C15.8409 27.7987 16.0755 26.7192 16.0333 25.8979C15.9864 24.9592 16.1976 24.1707 17.3756 24.166H24.8615Z" fill="#3B97D2"/>
<path d="M29.8262 24.2565C32.6078 24.0996 35.3966 24.12 38.1757 24.3175C36.6832 25.8147 36.9131 28.2036 34.1816 27.9924C31.6847 27.7953 31.6707 27.9783 29.8262 24.2565Z" fill="#3B97D2"/>
<path d="M30.2815 28.025C30.2656 28.8157 29.9419 29.569 29.3792 30.1247C28.8165 30.6804 28.0592 30.9946 27.2684 31.0006C26.8764 30.9981 26.4889 30.9181 26.1281 30.765C25.7673 30.6119 25.4404 30.3888 25.1664 30.1086C24.8923 29.8284 24.6765 29.4967 24.5314 29.1326C24.3863 28.7685 24.3147 28.3793 24.3209 27.9874C24.3078 27.5864 24.3757 27.1869 24.5206 26.8128C24.6655 26.4387 24.8845 26.0977 25.1644 25.8103C25.4443 25.5228 25.7794 25.2949 26.1495 25.14C26.5196 24.9852 26.9172 24.9067 27.3184 24.9092C27.7196 24.9118 28.1162 24.9953 28.4843 25.1548C28.8524 25.3142 29.1846 25.5464 29.4609 25.8374C29.7371 26.1283 29.9518 26.472 30.092 26.8479C30.2322 27.2238 30.2951 27.6242 30.2768 28.025H30.2815ZM28.5121 28.1142C28.3948 27.4195 28.0428 26.9502 27.3059 26.9361C27.1498 26.9176 26.9916 26.9345 26.8429 26.9855C26.6943 27.0366 26.559 27.1204 26.4472 27.2309C26.3354 27.3414 26.2499 27.4756 26.197 27.6236C26.1442 27.7717 26.1254 27.9297 26.142 28.086C26.1431 28.3667 26.2535 28.6359 26.4498 28.8365C26.646 29.0371 26.9127 29.1534 27.1933 29.1608C27.9348 29.2124 28.3291 28.79 28.5121 28.1142V28.1142Z" fill="#3B97D2"/>
<path d="M43.3253 27.8692C43.3428 28.2585 43.2836 28.6473 43.1508 29.0136C43.0181 29.38 42.8145 29.7165 42.5517 30.0042C42.289 30.2918 41.9721 30.5249 41.6192 30.6901C41.2663 30.8552 40.8844 30.9493 40.4952 30.9669C40.1059 30.9844 39.7171 30.9252 39.3508 30.7924C38.9845 30.6597 38.6479 30.4561 38.3602 30.1934C38.0726 29.9306 37.8395 29.6137 37.6743 29.2608C37.5092 28.9079 37.4151 28.526 37.3976 28.1368C37.3621 27.3507 37.6403 26.5827 38.1711 26.0018C38.7018 25.4209 39.4416 25.0746 40.2276 25.0392C41.0137 25.0037 41.7817 25.2819 42.3626 25.8127C42.9435 26.3434 43.2898 27.0832 43.3253 27.8692V27.8692ZM41.5324 27.9866C41.5315 27.8386 41.5002 27.6925 41.4405 27.5571C41.3808 27.4218 41.2938 27.3002 41.1851 27.1998C41.0764 27.0995 40.9482 27.0225 40.8086 26.9738C40.6689 26.9251 40.5207 26.9056 40.3731 26.9165C40.1004 26.8966 39.8306 26.9834 39.6205 27.1585C39.4104 27.3335 39.2764 27.5833 39.2467 27.8552C39.2212 28.0075 39.2286 28.1635 39.2683 28.3127C39.3079 28.4619 39.379 28.601 39.4768 28.7205C39.5745 28.84 39.6967 28.9373 39.8351 29.0058C39.9735 29.0743 40.1249 29.1124 40.2793 29.1177C40.9974 29.2069 41.3916 28.7516 41.5324 27.9866Z" fill="#3B97D2"/>
<path d="M66.9604 27.9495C66.961 27.558 67.0393 27.1705 67.1908 26.8096C67.3423 26.4486 67.564 26.1213 67.843 25.8467C68.1219 25.572 68.4527 25.3556 68.816 25.2098C69.1793 25.064 69.568 24.9918 69.9594 24.9974C70.7495 25.0183 71.4993 25.3507 72.0453 25.9222C72.5912 26.4937 72.8891 27.2578 72.874 28.0481C72.8609 28.8322 72.5369 29.5791 71.9731 30.1244C71.4094 30.6697 70.6521 30.9687 69.8679 30.9556C69.0837 30.9425 68.3368 30.6185 67.7916 30.0547C67.2463 29.491 66.9473 28.7337 66.9604 27.9495V27.9495ZM69.9407 26.9076C69.1991 26.9404 68.7298 27.3441 68.7532 28.0481C68.7478 28.2054 68.7767 28.3621 68.838 28.5072C68.8992 28.6523 68.9913 28.7822 69.1079 28.8881C69.2245 28.994 69.3628 29.0732 69.513 29.1202C69.6633 29.1672 69.8221 29.1809 69.9782 29.1604C70.1148 29.1629 70.2504 29.1381 70.3773 29.0876C70.5042 29.0371 70.6197 28.9617 70.7172 28.866C70.8146 28.7704 70.892 28.6562 70.9448 28.5303C70.9976 28.4043 71.0248 28.2691 71.0248 28.1325C71.0483 27.9783 71.0375 27.8207 70.9934 27.6711C70.9492 27.5214 70.8727 27.3833 70.7693 27.2664C70.6659 27.1496 70.5381 27.0569 70.3949 26.9948C70.2517 26.9328 70.0966 26.903 69.9407 26.9076V26.9076Z" fill="#3B97D2"/>
</svg>
