<svg width="96" height="32" viewBox="0 0 96 32" fill="none" xmlns="http://www.w3.org/2000/svg">
<path d="M35.7285 24.9745H52.7847C55.2285 24.9745 55.2327 24.9745 55.2327 22.5559C55.2327 17.9211 55.2875 13.2863 55.2327 8.65144C55.2074 7.10088 55.7215 6.52363 57.2931 6.59105C59.6737 6.69639 62.0628 6.65004 64.456 6.59105C64.9078 6.55064 65.3613 6.64668 65.7579 6.86677C66.1545 7.08686 66.476 7.42086 66.6807 7.8256C68.2861 10.5433 69.9336 13.2357 71.5895 15.9239C71.9917 16.5838 72.1923 17.3468 72.1667 18.1191C72.1456 19.8045 72.1667 21.4899 72.1667 23.1753C72.0968 24.1503 72.3629 25.1199 72.9209 25.9225C73.8942 27.2792 73.5066 27.8776 71.7917 27.9576C70.7383 28.004 69.685 27.8944 68.6358 27.9871C67.0895 28.1177 66.0445 27.8017 65.4462 26.1121C64.9195 24.6248 63.508 23.9042 61.9027 23.9337C60.2173 23.9632 58.8437 24.8144 58.3086 26.3902C57.8409 27.7512 57.0698 28.004 55.8058 27.9913C50.4041 27.9408 45.0024 27.9913 39.6007 27.9618C36.2046 27.966 37.0473 28.2778 35.7285 24.9745ZM62.3788 16.5475H64.9069C65.0437 16.5673 65.1833 16.5577 65.3161 16.5193C65.449 16.4809 65.5721 16.4147 65.6774 16.325C65.7826 16.2353 65.8676 16.1242 65.9265 15.9991C65.9854 15.874 66.0171 15.7377 66.0192 15.5995C66.4195 13.2652 64.8774 11.3101 62.5515 11.2933C61.8563 11.2933 61.1569 11.3228 60.4448 11.2933C59.4293 11.2427 58.9617 11.6051 58.869 12.709C58.5361 16.438 58.6204 16.5559 62.3788 16.5391V16.5475Z" fill="#3B97D2"/>
<path d="M23.2277 1H53.6448C54.2094 1.61938 54.0408 2.26405 54.0451 2.88764C54.0451 9.35112 54.0451 15.8104 54.0872 22.2697C54.0872 23.7022 53.7122 24.2542 52.2038 24.2458C43.149 24.1952 34.0858 24.2163 25.031 24.2458C23.8723 24.2458 22.9875 24.1868 23.0001 22.6109C23.0549 15.7303 23.0254 8.84972 23.0338 1.96489C23.0699 1.63817 23.1347 1.31529 23.2277 1ZM38.6237 1.9691C34.4102 1.9691 30.1968 2.01545 25.9833 1.94382C24.5633 1.91854 24.0029 2.3146 24.024 3.82303C24.0956 9.57865 24.1083 15.3343 24.024 21.0983C23.9987 22.7373 24.6181 23.1081 26.1307 23.0997C34.4145 23.0491 42.701 23.0491 50.9903 23.0997C52.5198 23.0997 53.097 22.6784 53.0675 21.073C52.9875 15.389 53.0465 9.69662 53.0338 4.02107C53.0338 2.00281 53.0043 1.99017 50.8681 1.98595C46.7642 1.96067 42.6939 1.9691 38.6237 1.9691Z" fill="#3B97D2"/>
<path d="M32.7841 30.9962C32.0086 30.975 31.2707 30.6574 30.7221 30.1088C30.1735 29.5602 29.856 28.8223 29.8347 28.0468C29.8174 27.25 30.1173 26.479 30.6684 25.9034C31.2196 25.3277 31.9768 24.9946 32.7736 24.9773C33.5704 24.96 34.3414 25.2599 34.917 25.811C35.4927 26.3622 35.8258 27.1194 35.8431 27.9162C35.8476 28.3201 35.7717 28.7209 35.6198 29.0953C35.4679 29.4696 35.2431 29.81 34.9584 30.0966C34.6738 30.3832 34.3349 30.6104 33.9617 30.7648C33.5884 30.9193 33.1881 30.9979 32.7841 30.9962V30.9962ZM32.8178 29.0117C33.4541 28.9358 33.8965 28.5903 33.8544 27.9457C33.8572 27.8046 33.8297 27.6645 33.7737 27.535C33.7178 27.4054 33.6347 27.2894 33.53 27.1947C33.4254 27.1001 33.3016 27.029 33.1671 26.9862C33.0326 26.9435 32.8905 26.9302 32.7504 26.9471C32.5018 26.9578 32.2668 27.0634 32.0936 27.2421C31.9204 27.4207 31.8222 27.6589 31.8192 27.9078C31.7729 28.5693 32.1816 28.9106 32.8347 29.0117H32.8178Z" fill="#3B97D2"/>
<path d="M61.9066 30.9996C61.0963 30.9689 60.3302 30.6224 59.7719 30.0343C59.2137 29.4461 58.9077 28.663 58.9193 27.8521C58.9767 27.0743 59.3349 26.3494 59.9178 25.8312C60.5007 25.313 61.2625 25.0421 62.0418 25.0761C62.821 25.1101 63.5564 25.4462 64.092 26.0132C64.6276 26.5802 64.9213 27.3335 64.9108 28.1134C64.8742 28.8874 64.5424 29.618 63.9836 30.1548C63.4248 30.6917 62.6815 30.994 61.9066 30.9996V30.9996ZM62.9684 28.0502C62.9713 27.9114 62.946 27.7736 62.894 27.6449C62.842 27.5163 62.7644 27.3995 62.6658 27.3018C62.5673 27.2041 62.45 27.1274 62.3209 27.0764C62.1918 27.0254 62.0538 27.0012 61.915 27.0052C61.666 26.9876 61.4199 27.0681 61.2293 27.2295C61.0388 27.3909 60.919 27.6204 60.8954 27.869C60.87 28.0082 60.8747 28.1512 60.9092 28.2884C60.9437 28.4256 61.0072 28.5538 61.0954 28.6644C61.1837 28.775 61.2946 28.8654 61.4207 28.9295C61.5468 28.9937 61.6852 29.03 61.8266 29.0361C62.4754 29.0951 62.8336 28.6653 62.9684 28.0291V28.0502Z" fill="#3B97D2"/>
<path d="M29.9399 25.2607C29.4259 26.154 29.4596 27.5444 28.4525 27.8183C26.8886 28.1674 25.2679 28.1774 23.6997 27.8478C22.8781 27.7045 23.0466 26.904 23.0382 26.2972C23.0382 25.6104 23.211 25.0922 24.041 24.9995C26.0111 24.9442 27.9825 25.0315 29.9399 25.2607V25.2607Z" fill="#3B97D2"/>
</svg>
