<svg width="96" height="32" viewBox="0 0 96 32" fill="none" xmlns="http://www.w3.org/2000/svg">
<path d="M40.3668 22.4681H66.9772C69.6136 22.4681 69.6177 22.4681 69.6136 19.7334C69.6136 15.7091 69.5727 11.6848 69.6136 7.66044C69.6136 6.80072 69.0651 5.43745 70.3055 5.2041C71.7015 4.92162 73.421 4.44673 74.5427 5.77315C75.21 6.56328 75.9019 6.72703 76.7821 6.89079C78.9167 7.25072 80.8562 8.35127 82.26 9.99913C83.6638 11.647 84.4421 13.7368 84.4581 15.9015C84.4991 17.3343 84.4581 18.7672 84.4581 20.2001C84.4581 21.3423 84.4172 22.4394 85.0886 23.5325C85.6126 24.3881 85.3056 25.5303 85.2401 26.5497C85.237 26.7224 85.1855 26.8907 85.0914 27.0354C84.9973 27.1802 84.8644 27.2956 84.7079 27.3685C83.7949 27.7779 82.8206 27.5241 81.879 27.6059C80.6508 27.7083 80.4993 26.8813 80.1964 25.9889C79.8933 25.1111 79.3295 24.3469 78.5804 23.7982C77.8312 23.2495 76.9325 22.9426 76.0042 22.9184C75.0453 22.9187 74.1127 23.2319 73.3479 23.8105C72.5832 24.389 72.0281 25.2013 71.767 26.124C71.419 27.2539 70.8787 27.6919 69.7528 27.6019C69.0716 27.5486 68.3872 27.5486 67.7059 27.6019C66.097 27.7288 65.0694 27.4831 64.3939 25.5549C63.3663 22.6482 59.3789 22.157 57.2951 24.5273C56.9848 24.9177 56.584 25.2264 56.1274 25.4269C55.6709 25.6274 55.1723 25.7135 54.675 25.6777C49.1482 25.6477 43.6228 25.6477 38.0988 25.6777C37.6003 25.7187 37.0993 25.6376 36.6392 25.4414C36.1791 25.2452 35.7738 24.9399 35.4582 24.5519C33.6323 22.4763 30.7584 22.6073 28.8056 24.6583C27.4833 26.0462 26.6358 26.0462 25.3135 24.6583C23.3402 22.6114 20.5646 22.4517 18.6609 24.5314C18.3198 24.9445 17.8808 25.2658 17.3839 25.466C16.8869 25.6662 16.3479 25.7389 15.8156 25.6777C14.793 25.6184 13.7678 25.6184 12.7452 25.6777C11.5375 25.7514 11.038 25.297 11.0176 24.0402C11.0176 22.7055 11.6603 22.4476 12.7861 22.4517C21.9865 22.4681 31.1842 22.4681 40.3791 22.4517L40.3668 22.4681ZM76.1557 12.7655C76.1782 13.105 76.1782 13.4455 76.1557 13.7849C75.9715 15.2956 76.606 15.9424 78.1249 15.7541C78.5978 15.7243 79.072 15.7189 79.5455 15.7377C80.0899 15.7377 80.4748 15.4921 80.528 14.9189C80.6876 13.2814 80.7368 11.6438 79.2548 10.4361C78.5179 9.8384 77.695 9.49451 76.7984 9.80156C75.9019 10.1086 76.254 11.0625 76.1557 11.7543C76.1315 12.091 76.1315 12.4289 76.1557 12.7655ZM71.7138 12.6264C71.7138 13.2404 71.7138 13.8545 71.7138 14.4645C71.7138 15.2546 71.9513 15.75 72.8806 15.7377C73.8099 15.7254 74.0351 15.1973 74.0351 14.4236C74.0351 13.2691 74.0351 12.1105 74.0351 10.956C74.0351 10.1577 73.7976 9.67465 72.8724 9.68693C71.9472 9.69921 71.7138 10.2191 71.7138 10.9929V12.6264Z" fill="#3B97D2"/>
<path d="M11.2098 21.5391C10.87 20.0858 11.0461 18.7225 11.042 17.3715C11.0174 12.6676 11.042 7.95554 11.042 3.25984C11.042 1.05731 11.0625 1.02456 13.1462 1.02456C30.9384 1.00819 48.7332 1 66.5308 1C67.9841 1 68.6105 1.34389 68.5777 2.92823C68.504 8.58601 68.5204 14.2479 68.5777 19.9057C68.5777 21.2198 68.1683 21.6988 66.8132 21.6947C48.5544 21.6619 30.282 21.651 11.9959 21.6619C11.7316 21.6369 11.4691 21.5959 11.2098 21.5391V21.5391ZM40.0186 2.04395C31.4351 2.04395 22.8502 2.04395 14.2639 2.04395C12.0736 2.04395 12.0573 2.04395 12.0532 4.1564C12.0532 8.9913 12.0941 13.8303 12.0204 18.6693C11.9959 20.1349 12.3725 20.6958 13.9487 20.6917C31.1895 20.6426 48.4289 20.6426 65.667 20.6917C67.2595 20.6917 67.6034 20.1308 67.5788 18.6447C67.501 13.8057 67.5542 8.96674 67.5461 4.13184C67.5461 2.03576 67.5461 2.01938 65.3681 2.01938C56.9183 2.02757 48.4685 2.03576 40.0186 2.04395Z" fill="#3B97D2"/>
<path d="M32.1749 30.9918C31.6965 30.991 31.2233 30.8924 30.7845 30.7019C30.3457 30.5114 29.9506 30.233 29.6234 29.884C29.2963 29.535 29.044 29.1227 28.8822 28.6725C28.7205 28.2223 28.6526 27.7437 28.6828 27.2663C28.6974 26.8067 28.8036 26.3547 28.9951 25.9367C29.1867 25.5187 29.4598 25.1431 29.7984 24.832C30.1369 24.5208 30.5342 24.2804 30.9669 24.1248C31.3996 23.9692 31.859 23.9015 32.3181 23.9257C33.2434 23.9639 34.1177 24.3602 34.7562 25.0308C35.3948 25.7015 35.7478 26.5941 35.7407 27.5201C35.7021 28.4447 35.3112 29.3195 34.6481 29.965C33.9851 30.6106 33.1002 30.9779 32.1749 30.9918V30.9918ZM33.5873 27.3932C33.4317 26.7669 33.1083 26.1937 32.3018 26.1364C32.1322 26.1087 31.9586 26.1179 31.7929 26.1634C31.6272 26.2089 31.4733 26.2895 31.3416 26.3999C31.2098 26.5102 31.1035 26.6476 31.0297 26.8028C30.9559 26.958 30.9164 27.1273 30.9139 27.2991C30.8763 27.4861 30.8828 27.6793 30.9329 27.8634C30.983 28.0475 31.0752 28.2174 31.2023 28.3596C31.3295 28.5018 31.488 28.6125 31.6653 28.6828C31.8427 28.7531 32.0339 28.7811 32.224 28.7647C32.9977 28.7892 33.4194 28.2325 33.5873 27.3932V27.3932Z" fill="#3B97D2"/>
<path d="M21.9079 30.9878C20.9783 30.986 20.0862 30.6212 19.4217 29.9711C18.7571 29.3211 18.3727 28.4373 18.3503 27.508C18.3361 27.0482 18.4134 26.5901 18.5776 26.1603C18.7418 25.7305 18.9897 25.3376 19.307 25.0044C19.6242 24.6712 20.0044 24.4043 20.4256 24.2191C20.8468 24.034 21.3005 23.9343 21.7605 23.9258C22.2365 23.9144 22.71 23.9976 23.1536 24.1705C23.5972 24.3434 24.0021 24.6026 24.3448 24.9332C24.6875 25.2637 24.9613 25.6589 25.1501 26.096C25.339 26.5331 25.4392 27.0033 25.445 27.4793C25.4016 28.4008 25.0142 29.2724 24.3593 29.922C23.7044 30.5716 22.8296 30.9519 21.9079 30.9878V30.9878ZM23.2507 27.2214C23.0214 26.6319 22.6857 26.0588 21.8547 26.1243C21.6831 26.1165 21.5119 26.1462 21.353 26.2113C21.1941 26.2763 21.0512 26.3752 20.9344 26.501C20.8175 26.6269 20.7294 26.7766 20.6763 26.9399C20.6231 27.1032 20.6061 27.2761 20.6265 27.4466C20.6633 28.3145 21.171 28.8467 22.0716 28.7444C22.8577 28.6543 23.1811 28.0648 23.2507 27.2214Z" fill="#3B97D2"/>
<path d="M79.5456 27.373C79.5396 28.298 79.1809 29.1859 78.5426 29.8554C77.9042 30.5249 77.0345 30.9256 76.1108 30.9756C75.6352 31.0058 75.1584 30.9393 74.7092 30.7802C74.26 30.6211 73.8476 30.3727 73.4971 30.0499C73.1465 29.7271 72.8649 29.3367 72.6693 28.9021C72.4737 28.4675 72.3682 27.9978 72.359 27.5214C72.3499 27.0449 72.4374 26.5715 72.6162 26.1298C72.795 25.688 73.0614 25.2871 73.3993 24.9511C73.7373 24.6151 74.1398 24.3511 74.5826 24.1749C75.0254 23.9987 75.4993 23.914 75.9757 23.9259C76.9028 23.9212 77.7951 24.2791 78.462 24.9231C79.129 25.5671 79.5178 26.4463 79.5456 27.373V27.373ZM75.988 28.7936C76.7658 28.6789 77.3226 28.2655 77.3267 27.4999C77.3472 27.3122 77.3243 27.1223 77.2595 26.945C77.1948 26.7676 77.09 26.6076 76.9534 26.4773C76.8168 26.347 76.652 26.25 76.4717 26.1937C76.2915 26.1375 76.1008 26.1236 75.9143 26.153C75.7414 26.1482 75.5694 26.1808 75.4102 26.2485C75.251 26.3161 75.1083 26.4173 74.9917 26.5452C74.8752 26.673 74.7875 26.8244 74.7348 26.9892C74.6821 27.154 74.6655 27.3281 74.6861 27.4999C74.7312 28.2859 75.2347 28.6912 75.9839 28.7936H75.988Z" fill="#3B97D2"/>
<path d="M60.4478 23.9255C60.9077 23.9075 61.3667 23.9813 61.7977 24.1426C62.2288 24.304 62.6234 24.5496 62.9584 24.8652C63.2935 25.1808 63.5623 25.5601 63.7491 25.9807C63.9359 26.4014 64.0369 26.8551 64.0464 27.3153C64.0639 27.7915 63.9856 28.2663 63.8159 28.7116C63.6462 29.1569 63.3887 29.5635 63.0587 29.9072C62.7287 30.251 62.333 30.5248 61.895 30.7125C61.457 30.9002 60.9857 30.9979 60.5092 30.9998C59.5826 30.976 58.7004 30.5976 58.0445 29.9425C57.3887 29.2874 57.0092 28.4056 56.9844 27.479C56.9882 26.5532 57.3516 25.6651 57.9978 25.0021C58.6439 24.3391 59.5224 23.9531 60.4478 23.9255V23.9255ZM60.6034 28.8054C61.2912 28.5885 61.8807 28.2569 61.8316 27.4176C61.7865 26.4924 61.1929 26.083 60.325 26.1649C60.1526 26.169 59.9832 26.211 59.8289 26.288C59.6745 26.3649 59.539 26.4749 59.4319 26.6101C59.3249 26.7453 59.2489 26.9024 59.2094 27.0702C59.1699 27.2381 59.1678 27.4126 59.2033 27.5814C59.2851 28.3674 59.8419 28.7113 60.6034 28.7932V28.8054Z" fill="#3B97D2"/>
</svg>
