<svg width="96" height="32" viewBox="0 0 96 32" fill="none" xmlns="http://www.w3.org/2000/svg">
<path d="M38.5497 27.6763C35.9505 22.6339 32.1124 22.8678 29.7212 27.7499C28.7638 25.8655 27.8368 23.9898 25.4585 23.9854C23.0803 23.9811 21.9626 25.6273 21.1265 27.9579C20.0002 25.8222 19.0299 23.8858 16.539 23.9811C14.191 24.0678 13.199 25.8525 12.3759 27.9535C11.4446 26.7536 11.7565 25.7052 11.7348 24.7435C11.7045 23.6259 11.4013 22.8808 10.1233 23.0497C8.29956 23.2923 7.98333 22.3393 8.00066 20.7538C8.06997 14.91 8.03098 9.05747 8.03964 3.2223C8.03964 2.5855 8.10896 1.9487 8.14361 1.33789C9.22227 0.904696 10.2446 1.06931 11.2323 1.06498C29.9941 1.06498 48.7515 1.06498 67.5133 1C68.9905 1 69.3674 1.5155 69.3544 2.88007C69.3024 8.51164 69.3241 14.1432 69.3241 19.7748C69.3241 20.4202 69.35 21.0744 69.3457 21.7198C69.3414 22.3653 69.571 22.8331 70.3421 22.8115C71.1132 22.7898 71.2994 22.3133 71.2994 21.6592C71.2994 20.143 71.2994 18.6268 71.2994 17.1149C71.2994 14.0089 71.2994 10.9072 71.2994 7.80553C71.2994 5.69153 71.3427 5.63954 73.5174 5.63954C75.5318 5.63954 77.5548 5.44893 79.5562 5.92545C81.6506 6.3779 83.5324 7.5205 84.9 9.17006C86.2676 10.8196 87.0416 12.8806 87.0981 15.0226C87.1588 16.6081 87.0981 18.1979 87.1371 19.7878C87.1371 21.057 87.0158 22.283 87.8432 23.4959C88.4194 24.3623 88.1725 25.5969 88.0382 26.6756C88.0107 26.8898 87.9303 27.0938 87.8042 27.2691C87.0072 28.3131 82.346 27.8712 81.8391 26.6366C81.107 24.8778 79.7988 23.9854 77.9967 24.0158C77.1819 24.0021 76.3863 24.2637 75.7386 24.7581C75.0908 25.2526 74.6288 25.951 74.4271 26.7406C74.1542 27.5766 73.63 27.8452 72.807 27.8236C71.0049 27.7803 69.389 28.1225 68.2194 25.7919C66.8375 23.0324 63.021 23.5133 61.6131 26.355C61.2059 27.1738 60.9503 27.8279 59.8284 27.8496C58.3945 27.8799 57.6017 27.5073 57.7923 25.9262C57.84 25.493 57.7707 25.0598 57.7923 24.6266C57.8617 23.5696 57.4761 23.0411 56.3151 23.0497C50.9738 23.0844 45.6368 23.0757 40.2868 23.0497C39.2905 23.0497 38.8573 23.418 38.84 24.436C38.8226 25.454 39.0696 26.42 38.5497 27.6763ZM68.1198 2.31259C67.4396 2.24328 67.0108 2.1653 66.5862 2.1653C48.0541 2.1653 29.5205 2.1523 10.9854 2.12631C9.41721 2.12631 9.04466 2.71979 9.06199 4.16234C9.12697 9.3607 9.06198 14.5591 9.09231 19.7574C9.09231 21.9537 9.09231 21.9711 11.4013 21.9754C29.6475 21.9754 47.8923 21.9754 66.1357 21.9754C66.7595 21.9754 67.4353 22.1573 68.1198 21.5942V2.31259ZM78.2956 11.7606C78.2956 12.1202 78.2956 12.4754 78.2956 12.8349C78.3259 15.1179 78.3562 15.1526 80.5439 15.1742C81.0464 15.1742 81.5489 15.1742 82.0471 15.1266C82.2602 15.1245 82.4663 15.0501 82.6316 14.9155C82.7969 14.7809 82.9116 14.5941 82.9568 14.3858C83.5199 12.627 82.8311 10.3831 81.3496 9.3737C80.6175 8.87119 79.7728 8.50731 78.9237 8.83221C77.936 9.19609 78.4212 10.1794 78.3042 10.9029C78.2775 11.1881 78.2746 11.475 78.2956 11.7606ZM76.0083 11.9122C76.0083 11.2668 76.0083 10.6126 76.0083 9.98018C76.0343 9.0618 75.5751 8.71524 74.7087 8.72824C73.8813 8.72824 73.5477 9.13111 73.5521 9.91087C73.5521 11.2711 73.5521 12.627 73.5521 13.9873C73.5521 14.7843 73.9419 15.1439 74.7434 15.1439C75.5448 15.1439 75.9953 14.897 75.9996 14.0609C76.0126 13.3418 76.0083 12.627 76.0083 11.9122V11.9122Z" fill="#3B97D2"/>
<path d="M68.2845 27.9793C68.2695 28.3932 68.1724 28.8 67.999 29.1761C67.8256 29.5521 67.5792 29.89 67.2741 30.1701C66.969 30.4502 66.6114 30.6669 66.2219 30.8077C65.8324 30.9484 65.4188 31.0104 65.0052 30.9901C64.2163 30.923 63.4828 30.5573 62.9545 29.9675C62.4263 29.3778 62.1432 28.6086 62.1631 27.8171C62.183 27.0256 62.5044 26.2716 63.0617 25.7092C63.6189 25.1467 64.3698 24.8183 65.1611 24.791C65.9979 24.8002 66.7969 25.1411 67.3825 25.7389C67.9682 26.3367 68.2926 27.1425 68.2845 27.9793ZM65.1741 26.866C64.546 26.957 64.0738 27.2559 64.1171 27.949C64.112 28.0932 64.1394 28.2367 64.1973 28.3688C64.2552 28.5009 64.342 28.6184 64.4514 28.7124C64.5608 28.8064 64.69 28.8746 64.8294 28.9119C64.9687 28.9493 65.1147 28.9548 65.2564 28.9281C65.3817 28.9338 65.5069 28.913 65.6236 28.8672C65.7404 28.8213 65.8462 28.7513 65.9341 28.6618C66.0219 28.5722 66.09 28.4652 66.1337 28.3476C66.1774 28.23 66.1959 28.1045 66.1878 27.9793C66.2069 27.8371 66.1946 27.6925 66.1518 27.5555C66.1091 27.4186 66.0369 27.2927 65.9403 27.1866C65.8437 27.0805 65.7251 26.9968 65.5927 26.9414C65.4603 26.8861 65.3175 26.8603 65.1741 26.866V26.866Z" fill="#3B97D2"/>
<path d="M34.1873 24.7656C35.027 24.8016 35.8181 25.1695 36.3867 25.7885C36.9553 26.4075 37.2549 27.2268 37.2197 28.0666C37.1727 28.8656 36.8171 29.615 36.2278 30.1566C35.6385 30.6982 34.8618 30.9895 34.0617 30.969C33.6467 30.9649 33.2369 30.8756 32.8578 30.7067C32.4787 30.5378 32.1383 30.2928 31.8577 29.987C31.5771 29.6813 31.3623 29.3211 31.2265 28.9289C31.0907 28.5368 31.0368 28.1209 31.0683 27.707C31.1188 26.9128 31.4689 26.1674 32.0479 25.6214C32.6268 25.0754 33.3915 24.7695 34.1873 24.7656V24.7656ZM35.2486 27.9799C35.2606 27.8372 35.2429 27.6936 35.1965 27.5581C35.1501 27.4226 35.0762 27.2982 34.9793 27.1928C34.8824 27.0873 34.7647 27.0031 34.6336 26.9455C34.5025 26.8879 34.3608 26.8581 34.2176 26.858C34.0754 26.8295 33.9287 26.8325 33.7878 26.8666C33.6468 26.9008 33.515 26.9652 33.4016 27.0556C33.2882 27.1459 33.1958 27.2599 33.131 27.3897C33.0662 27.5194 33.0305 27.6617 33.0263 27.8067C33.0023 27.95 33.0106 28.0969 33.0507 28.2366C33.0907 28.3763 33.1615 28.5053 33.2579 28.6141C33.3542 28.7229 33.4737 28.8088 33.6075 28.8655C33.7413 28.9221 33.8862 28.9482 34.0314 28.9416C34.1749 28.9616 34.321 28.9523 34.4609 28.9143C34.6007 28.8763 34.7315 28.8104 34.8452 28.7205C34.9589 28.6307 35.0533 28.5188 35.1226 28.3915C35.192 28.2642 35.2348 28.1242 35.2486 27.9799V27.9799Z" fill="#3B97D2"/>
<path d="M25.3846 24.7824C25.7903 24.7824 26.1919 24.8623 26.5666 25.0175C26.9414 25.1727 27.2819 25.4002 27.5687 25.687C27.8555 25.9739 28.083 26.3143 28.2382 26.6891C28.3935 27.0638 28.4733 27.4655 28.4733 27.8711C28.4733 28.2767 28.3935 28.6783 28.2382 29.0531C28.083 29.4278 27.8555 29.7683 27.5687 30.0551C27.2819 30.3419 26.9414 30.5694 26.5666 30.7247C26.1919 30.8799 25.7903 30.9598 25.3846 30.9598C24.9712 30.9644 24.5611 30.8844 24.1797 30.7247C23.7983 30.5651 23.4536 30.3291 23.1667 30.0313C22.8799 29.7334 22.657 29.3801 22.5117 28.993C22.3664 28.6059 22.3018 28.1931 22.3219 27.7801C22.3311 26.9766 22.6588 26.2096 23.233 25.6475C23.8073 25.0855 24.5811 24.7743 25.3846 24.7824V24.7824ZM25.298 26.8357C24.6266 26.931 24.2367 27.3079 24.2973 27.9924C24.3396 28.2718 24.487 28.5245 24.7093 28.6989C24.9317 28.8733 25.2122 28.9563 25.4936 28.9308C25.7751 28.9054 26.0362 28.7735 26.2236 28.562C26.4111 28.3506 26.5108 28.0756 26.5023 27.7931C26.4633 27.1086 25.9565 26.8314 25.298 26.8357Z" fill="#3B97D2"/>
<path d="M19.7834 27.8368C19.7731 28.6706 19.4335 29.4665 18.8386 30.0508C18.2437 30.6352 17.4419 30.9605 16.6081 30.9558C15.8099 30.9467 15.0474 30.6232 14.4862 30.0555C13.925 29.4878 13.6103 28.7217 13.6104 27.9235C13.6103 27.5109 13.6918 27.1023 13.8499 26.7212C14.0081 26.3401 14.2399 25.994 14.532 25.7027C14.8242 25.4113 15.171 25.1805 15.5525 25.0234C15.934 24.8663 16.3428 24.786 16.7554 24.7871C17.5508 24.8225 18.3038 25.1558 18.8648 25.7208C19.4258 26.2858 19.7537 27.0412 19.7834 27.8368ZM17.7517 27.9928C17.7587 27.8528 17.738 27.7128 17.6908 27.5808C17.6437 27.4488 17.5709 27.3275 17.4767 27.2237C17.3826 27.1198 17.2689 27.0356 17.1421 26.9758C17.0153 26.916 16.878 26.8818 16.738 26.8751C16.5992 26.8458 16.4555 26.8482 16.3177 26.882C16.1798 26.9159 16.0514 26.9804 15.9419 27.0707C15.8325 27.161 15.7448 27.2749 15.6853 27.4038C15.6259 27.5326 15.5963 27.6733 15.5987 27.8152C15.5748 27.9555 15.5825 28.0993 15.6211 28.2363C15.6598 28.3733 15.7285 28.4999 15.8223 28.6069C15.9161 28.714 16.0326 28.7988 16.1632 28.8552C16.2939 28.9115 16.4355 28.9381 16.5778 28.9328C16.718 28.9583 16.8621 28.9535 17.0003 28.9185C17.1385 28.8836 17.2677 28.8194 17.3789 28.7303C17.4902 28.6412 17.5811 28.5292 17.6454 28.402C17.7097 28.2748 17.746 28.1352 17.7517 27.9928V27.9928Z" fill="#3B97D2"/>
<path d="M78.0529 24.796C78.4602 24.7854 78.8656 24.8552 79.2459 25.0014C79.6263 25.1475 79.9741 25.3672 80.2696 25.6478C80.565 25.9283 80.8023 26.2644 80.9679 26.6366C81.1335 27.0089 81.2242 27.4102 81.2347 27.8175C81.2452 28.2248 81.1754 28.6302 81.0293 29.0106C80.8831 29.3909 80.6635 29.7387 80.3829 30.0342C80.1023 30.3297 79.7663 30.567 79.394 30.7326C79.0217 30.8982 78.6205 30.9888 78.2131 30.9993C77.3905 31.0206 76.5932 30.7142 75.9964 30.1475C75.3997 29.5809 75.0526 28.8004 75.0313 27.9778C75.0101 27.1552 75.3165 26.3578 75.8831 25.7611C76.4498 25.1644 77.2302 24.8172 78.0529 24.796ZM78.0312 28.9417C78.7287 28.9417 79.1618 28.6428 79.1618 27.941C79.1747 27.7961 79.1554 27.6502 79.1053 27.5136C79.0553 27.3771 78.9757 27.2533 78.8722 27.1511C78.7687 27.0489 78.644 26.9707 78.5068 26.9223C78.3697 26.8739 78.2236 26.8564 78.0789 26.871C77.9529 26.8562 77.8252 26.8684 77.7043 26.9069C77.5834 26.9453 77.4721 27.0091 77.3779 27.094C77.2836 27.1788 77.2085 27.2828 77.1575 27.399C77.1066 27.5152 77.081 27.6409 77.0825 27.7677C77.0561 27.9087 77.0607 28.0538 77.0958 28.1929C77.131 28.3321 77.1959 28.4619 77.2861 28.5735C77.3762 28.6851 77.4896 28.7758 77.6182 28.8394C77.7469 28.9029 77.8878 28.9378 78.0312 28.9417V28.9417Z" fill="#3B97D2"/>
</svg>
